#VRML V2.0 utf8
# 3D model generated by easyeda2kicad.py (https://github.com/uPesy/easyeda2kicad.py)

Shape{
    appearance Appearance {
        material  Material 	{
            diffuseColor 0.7019607843137254 0.7019607843137254 0.7019607843137254
            specularColor 0.2 0.2 0.2
            ambientIntensity 1.0
            transparency 0.0
            shininess 0.5
        }
    }
    geometry IndexedFaceSet {
        ccw TRUE
        solid FALSE
        coord DEF co Coordinate {
            point [
                1.5472 -0.5472 -1.2992, 1.4528 -0.5472 -1.2992, 1.5472 -0.4528 -1.2992, 1.4528 -0.4528 -1.2992, 1.374 -0.626 -1.1811, 1.374 -0.626 3.0315, 1.374 -0.374 -1.1811, 1.374 -0.374 3.0315, 1.626 -0.374 -1.1811, 1.626 -0.374 3.0315, 1.626 -0.626 -1.1811, 1.626 -0.626 3.0315, 1.4528 -0.5472 3.1496, 1.4528 -0.4528 3.1496, 1.5472 -0.4528 3.1496, 1.5472 -0.5472 3.1496, 0.5472 0.4528 -1.2992, 0.4528 0.4528 -1.2992, 0.5472 0.5472 -1.2992, 0.4528 0.5472 -1.2992, 0.374 0.374 -1.1811, 0.374 0.374 3.0315, 0.374 0.626 -1.1811, 0.374 0.626 3.0315, 0.626 0.626 -1.1811, 0.626 0.626 3.0315, 0.626 0.374 -1.1811, 0.626 0.374 3.0315, 0.4528 0.5472 3.1496, 0.4528 0.4528 3.1496, 0.5472 0.5472 3.1496, 0.5472 0.4528 3.1496, 1.5472 0.4528 -1.2992, 1.4528 0.4528 -1.2992, 1.5472 0.5472 -1.2992, 1.4528 0.5472 -1.2992, 1.374 0.374 -1.1811, 1.374 0.374 3.0315, 1.374 0.626 -1.1811, 1.374 0.626 3.0315, 1.626 0.626 -1.1811, 1.626 0.626 3.0315, 1.626 0.374 -1.1811, 1.626 0.374 3.0315, 1.4528 0.5472 3.1496, 1.4528 0.4528 3.1496, 1.5472 0.5472 3.1496, 1.5472 0.4528 3.1496, 0.5472 -0.5472 -1.2992, 0.4528 -0.5472 -1.2992, 0.5472 -0.4528 -1.2992, 0.4528 -0.4528 -1.2992, 0.374 -0.626 -1.1811, 0.374 -0.626 3.0315, 0.374 -0.374 -1.1811, 0.374 -0.374 3.0315, 0.626 -0.374 -1.1811, 0.626 -0.374 3.0315, 0.626 -0.626 -1.1811, 0.626 -0.626 3.0315, 0.4528 -0.5472 3.1496, 0.4528 -0.4528 3.1496, 0.5472 -0.4528 3.1496, 0.5472 -0.5472 3.1496, -0.4528 0.4528 -1.2992, -0.5472 0.4528 -1.2992, -0.4528 0.5472 -1.2992, -0.5472 0.5472 -1.2992, -0.626 0.374 -1.1811, -0.626 0.374 3.0315, -0.626 0.626 -1.1811, -0.626 0.626 3.0315, -0.374 0.626 -1.1811, -0.374 0.626 3.0315, -0.374 0.374 -1.1811, -0.374 0.374 3.0315, -0.5472 0.5472 3.1496, -0.5472 0.4528 3.1496, -0.4528 0.5472 3.1496, -0.4528 0.4528 3.1496, -2.4528 0.4528 -1.2992, -2.5472 0.4528 -1.2992, -2.4528 0.5472 -1.2992, -2.5472 0.5472 -1.2992, -2.626 0.374 -1.1811, -2.626 0.374 3.0315, -2.626 0.626 -1.1811, -2.626 0.626 3.0315, -2.374 0.626 -1.1811, -2.374 0.626 3.0315, -2.374 0.374 -1.1811, -2.374 0.374 3.0315, -2.5472 0.5472 3.1496, -2.5472 0.4528 3.1496, -2.4528 0.5472 3.1496, -2.4528 0.4528 3.1496, -2.4528 -0.5472 -1.2992, -2.5472 -0.5472 -1.2992, -2.4528 -0.4528 -1.2992, -2.5472 -0.4528 -1.2992, -2.626 -0.626 -1.1811, -2.626 -0.626 3.0315, -2.626 -0.374 -1.1811, -2.626 -0.374 3.0315, -2.374 -0.374 -1.1811, -2.374 -0.374 3.0315, -2.374 -0.626 -1.1811, -2.374 -0.626 3.0315, -2.5472 -0.5472 3.1496, -2.5472 -0.4528 3.1496, -2.4528 -0.4528 3.1496, -2.4528 -0.5472 3.1496, -0.4528 -0.5472 -1.2992, -0.5472 -0.5472 -1.2992, -0.4528 -0.4528 -1.2992, -0.5472 -0.4528 -1.2992, -0.626 -0.626 -1.1811, -0.626 -0.626 3.0315, -0.626 -0.374 -1.1811, -0.626 -0.374 3.0315, -0.374 -0.374 -1.1811, -0.374 -0.374 3.0315, -0.374 -0.626 -1.1811, -0.374 -0.626 3.0315, -0.5472 -0.5472 3.1496, -0.5472 -0.4528 3.1496, -0.4528 -0.4528 3.1496, -0.4528 -0.5472 3.1496
            ]
        }
        coordIndex [
            0,1,2,-1,2,1,3,-1,4,5,6,-1,6,5,7,-1,6,7,8,-1,8,7,9,-1,10,11,4,-1,4,11,5,-1,8,9,10,-1,10,9,11,-1,5,12,7,-1,7,12,13,-1,14,9,13,-1,13,9,7,-1,14,13,15,-1,15,13,12,-1,12,5,15,-1,15,5,11,-1,15,11,14,-1,14,11,9,-1,1,4,3,-1,3,4,6,-1,0,10,1,-1,1,10,4,-1,8,2,6,-1,6,2,3,-1,2,8,0,-1,0,8,10,-1,16,17,18,-1,18,17,19,-1,20,21,22,-1,22,21,23,-1,22,23,24,-1,24,23,25,-1,26,27,20,-1,20,27,21,-1,24,25,26,-1,26,25,27,-1,28,23,29,-1,29,23,21,-1,23,28,25,-1,25,28,30,-1,30,28,31,-1,31,28,29,-1,29,21,31,-1,31,21,27,-1,31,27,30,-1,30,27,25,-1,17,20,19,-1,19,20,22,-1,16,26,17,-1,17,26,20,-1,24,18,22,-1,22,18,19,-1,18,24,16,-1,16,24,26,-1,32,33,34,-1,34,33,35,-1,36,37,38,-1,38,37,39,-1,38,39,40,-1,40,39,41,-1,42,43,36,-1,36,43,37,-1,40,41,42,-1,42,41,43,-1,44,39,45,-1,45,39,37,-1,39,44,41,-1,41,44,46,-1,46,44,47,-1,47,44,45,-1,45,37,47,-1,47,37,43,-1,47,43,46,-1,46,43,41,-1,33,36,35,-1,35,36,38,-1,32,42,33,-1,33,42,36,-1,40,34,38,-1,38,34,35,-1,34,40,32,-1,32,40,42,-1,48,49,50,-1,50,49,51,-1,52,53,54,-1,54,53,55,-1,54,55,56,-1,56,55,57,-1,58,59,52,-1,52,59,53,-1,56,57,58,-1,58,57,59,-1,53,60,55,-1,55,60,61,-1,62,57,61,-1,61,57,55,-1,62,61,63,-1,63,61,60,-1,60,53,63,-1,63,53,59,-1,63,59,62,-1,62,59,57,-1,49,52,51,-1,51,52,54,-1,48,58,49,-1,49,58,52,-1,56,50,54,-1,54,50,51,-1,50,56,48,-1,48,56,58,-1,64,65,66,-1,66,65,67,-1,68,69,70,-1,70,69,71,-1,70,71,72,-1,72,71,73,-1,74,75,68,-1,68,75,69,-1,72,73,74,-1,74,73,75,-1,76,71,77,-1,77,71,69,-1,71,76,73,-1,73,76,78,-1,78,76,79,-1,79,76,77,-1,77,69,79,-1,79,69,75,-1,79,75,78,-1,78,75,73,-1,65,68,67,-1,67,68,70,-1,64,74,65,-1,65,74,68,-1,72,66,70,-1,70,66,67,-1,66,72,64,-1,64,72,74,-1,80,81,82,-1,82,81,83,-1,84,85,86,-1,86,85,87,-1,86,87,88,-1,88,87,89,-1,90,91,84,-1,84,91,85,-1,88,89,90,-1,90,89,91,-1,92,87,93,-1,93,87,85,-1,87,92,89,-1,89,92,94,-1,94,92,95,-1,95,92,93,-1,93,85,95,-1,95,85,91,-1,95,91,94,-1,94,91,89,-1,81,84,83,-1,83,84,86,-1,80,90,81,-1,81,90,84,-1,88,82,86,-1,86,82,83,-1,82,88,80,-1,80,88,90,-1,96,97,98,-1,98,97,99,-1,100,101,102,-1,102,101,103,-1,102,103,104,-1,104,103,105,-1,106,107,100,-1,100,107,101,-1,104,105,106,-1,106,105,107,-1,101,108,103,-1,103,108,109,-1,110,105,109,-1,109,105,103,-1,110,109,111,-1,111,109,108,-1,108,101,111,-1,111,101,107,-1,111,107,110,-1,110,107,105,-1,97,100,99,-1,99,100,102,-1,96,106,97,-1,97,106,100,-1,104,98,102,-1,102,98,99,-1,98,104,96,-1,96,104,106,-1,112,113,114,-1,114,113,115,-1,116,117,118,-1,118,117,119,-1,118,119,120,-1,120,119,121,-1,122,123,116,-1,116,123,117,-1,120,121,122,-1,122,121,123,-1,117,124,119,-1,119,124,125,-1,126,121,125,-1,125,121,119,-1,126,125,127,-1,127,125,124,-1,124,117,127,-1,127,117,123,-1,127,123,126,-1,126,123,121,-1,113,116,115,-1,115,116,118,-1,112,122,113,-1,113,122,116,-1,120,114,118,-1,118,114,115,-1,114,120,112,-1,112,120,122,-1,
        ]
    }
}
Shape{
    appearance Appearance {
        material  Material 	{
            diffuseColor 0.17647058823529413 0.17647058823529413 0.17647058823529413
            specularColor 0.050980392156862744 0.050980392156862744 0.050980392156862744
            ambientIntensity 0.251
            transparency 0.0
            shininess 0.5
        }
    }
    geometry IndexedFaceSet {
        ccw TRUE
        solid FALSE
        coord DEF co Coordinate {
            point [
                5.4961 -1.6043 0.0787, 5.4961 -1.7126 0.0787, 4.2815 -1.7126 0.0787, -5.2756 0.7874 0.0787, -5.2756 1.002 0.0787, -5.063 0.7874 0.0787, -4.2815 1.002 0.0787, -5.063 -0.0 0.0787, -4.2815 -0.0 0.0787, -4.2815 -1.002 0.0787, -5.063 -0.7874 0.0787, -5.2756 -1.002 0.0787, -5.2756 -0.7874 0.0787, 5.4961 -0.7874 0.0787, 5.4961 -1.002 0.0787, 5.063 -0.7874 0.0787, 4.2815 -1.002 0.0787, 5.063 -0.0 0.0787, 4.2815 -0.0 0.0787, 5.063 0.7874 0.0787, 4.8229 1.4085 0.0787, 4.8189 1.378 0.0787, 4.2815 1.7126 0.0787, 4.7343 1.7126 0.0787, 5.0205 1.4615 0.0787, 4.9961 1.4802 0.0787, 4.9676 1.492 0.0787, 4.937 1.4961 0.0787, 4.9064 1.492 0.0787, 4.8229 1.3474 0.0787, 4.2815 1.002 0.0787, 5.0511 1.4085 0.0787, 5.0393 1.437 0.0787, 5.4961 1.7126 0.0787, 4.9271 1.7126 0.0787, 4.9271 1.7913 0.0787, 4.7343 1.7913 0.0787, 4.878 1.4802 0.0787, 4.8535 1.4615 0.0787, 4.8347 1.437 0.0787, 4.8347 1.3189 0.0787, 4.8535 1.2944 0.0787, 4.878 1.2757 0.0787, 5.4961 1.002 0.0787, 5.0511 1.3474 0.0787, 5.0551 1.378 0.0787, 4.9961 1.2757 0.0787, 5.0205 1.2944 0.0787, 5.0393 1.3189 0.0787, 4.9064 1.2639 0.0787, 4.937 1.2598 0.0787, 4.9676 1.2639 0.0787, 3.0 1.002 0.0787, 3.0 1.7126 0.0787, 2.0 1.002 0.0787, 2.0 1.7126 0.0787, 1.4862 1.3661 0.0787, 1.4786 1.002 0.0787, 1.4786 1.7126 0.0787, 1.6296 1.6614 0.0787, 1.6203 1.5699 0.0787, 1.5911 1.5699 0.0787, 1.5313 1.3796 0.0787, 1.5389 1.3881 0.0787, 1.5991 1.3627 0.0787, 1.5818 1.6614 0.0787, 1.5659 1.6614 0.0787, 1.6456 1.6614 0.0787, 1.6124 1.3627 0.0787, 1.5098 1.6576 0.0787, 1.5052 1.6593 0.0787, 1.4862 1.6614 0.0787, 1.5396 1.3897 0.0787, 1.545 1.4006 0.0787, 1.5566 1.4505 0.0787, 1.5578 1.4557 0.0787, 1.561 1.5158 0.0787, 1.5543 1.5827 0.0787, 1.5505 1.5981 0.0787, 1.5066 1.3683 0.0787, 1.5082 1.3684 0.0787, 1.5141 1.3705 0.0787, 1.5439 1.6249 0.0787, 1.5436 1.6262 0.0787, 1.5361 1.6392 0.0787, 1.5198 1.3725 0.0787, 1.5213 1.3731 0.0787, 1.5252 1.3756 0.0787, 1.5344 1.6411 0.0787, 1.5276 1.6483 0.0787, 1.5274 1.6485 0.0787, 1.5207 1.6528 0.0787, 1.5176 1.6548 0.0787, 1.5161 1.6554 0.0787, 1.4636 1.4905 0.0787, 1.4636 1.5233 0.0787, 1.4185 1.5233 0.0787, 1.4185 1.6286 0.0787, 1.4709 1.6286 0.0787, 1.4709 1.6614 0.0787, 1.3956 1.7126 0.0787, 1.4032 1.6614 0.0787, 1.4032 1.3661 0.0787, 1.4676 1.3989 0.0787, 1.4185 1.3989 0.0787, 1.4185 1.4905 0.0787, 1.4676 1.3661 0.0787, 1.3956 1.002 0.0787, 1.3375 1.4243 0.0787, 1.332 1.4705 0.0787, 1.3505 1.397 0.0787, 1.3709 1.6556 0.0787, 1.3667 1.6607 0.0787, 1.3504 1.6322 0.0787, 1.3509 1.6328 0.0787, 1.3526 1.6331 0.0787, 1.3712 1.6549 0.0787, 1.3474 1.6286 0.0787, 1.3491 1.6307 0.0787, 1.3727 1.544 0.0787, 1.3554 1.6335 0.0787, 1.3589 1.6342 0.0787, 1.3599 1.6329 0.0787, 1.388 1.544 0.0787, 1.3873 1.4715 0.0787, 1.3727 1.4715 0.0787, 1.3657 1.6613 0.0787, 1.3615 1.6638 0.0787, 1.3597 1.6649 0.0787, 1.3637 1.3642 0.0787, 1.3663 1.3665 0.0787, 1.3664 1.3666 0.0787, 1.3715 1.3709 0.0787, 1.3684 1.6102 0.0787, 1.3721 1.5693 0.0787, 1.3531 1.6653 0.0787, 1.3079 1.7126 0.0787, 1.3543 1.6652 0.0787, 1.3576 1.665 0.0787, 1.3508 1.6647 0.0787, 1.3479 1.6639 0.0787, 1.3475 1.6636 0.0787, 1.3572 1.3628 0.0787, 1.3587 1.3632 0.0787, 1.3622 1.3639 0.0787, 1.3726 1.3728 0.0787, 1.3763 1.3793 0.0787, 1.3791 1.3886 0.0787, 1.3616 1.6307 0.0787, 1.3644 1.6271 0.0787, 1.365 1.6251 0.0787, 1.3724 1.5667 0.0787, 1.3816 1.6215 0.0787, 1.377 1.6414 0.0787, 1.3762 1.6446 0.0787, 1.344 1.6616 0.0787, 1.343 1.6611 0.0787, 1.3391 1.6574 0.0787, 1.3377 1.6561 0.0787, 1.3323 1.6476 0.0787, 1.3315 1.6464 0.0787, 1.3422 1.3675 0.0787, 1.3079 1.002 0.0787, 1.338 1.3722 0.0787, 1.3373 1.373 0.0787, 1.3426 1.3673 0.0787, 1.3465 1.3647 0.0787, 1.3469 1.3644 0.0787, 1.3503 1.3636 0.0787, 1.3536 1.3629 0.0787, 1.3554 1.3624 0.0787, 1.3826 1.4 0.0787, 1.3847 1.4247 0.0787, 1.3873 1.4542 0.0787, 1.3541 1.6333 0.0787, 1.3579 1.3972 0.0787, 1.356 1.3965 0.0787, 1.354 1.3959 0.0787, 1.3538 1.3958 0.0787, 1.3528 1.3955 0.0787, 1.3521 1.396 0.0787, 1.3836 1.6127 0.0787, 1.3679 1.6153 0.0787, 1.3689 1.4191 0.0787, 1.3694 1.4212 0.0787, 1.3653 1.4059 0.0787, 1.365 1.4054 0.0787, 1.3618 1.4005 0.0787, 1.3236 1.6237 0.0787, 1.3229 1.6191 0.0787, 1.3161 1.5682 0.0787, 1.3226 1.4136 0.0787, 1.3308 1.3852 0.0787, 1.3311 1.3841 0.0787, 1.332 1.5216 0.0787, 1.332 1.5668 0.0787, 1.3361 1.5965 0.0787, 1.3381 1.6106 0.0787, 1.3401 1.6157 0.0787, 1.3429 1.6233 0.0787, 1.3443 1.625 0.0787, 1.3381 1.4193 0.0787, 1.3434 1.4064 0.0787, 1.3455 1.4013 0.0787, 1.3483 1.3984 0.0787, 1.3461 1.3999 0.0787, 1.3161 1.5411 0.0787, 1.316 1.4761 0.0787, 1.3219 1.4205 0.0787, 1.3601 1.3979 0.0787, 1.3601 1.3978 0.0787, 1.2472 1.3661 0.0787, 1.2472 1.6286 0.0787, 1.301 1.6286 0.0787, 1.2439 1.3661 0.0787, 1.301 1.6614 0.0787, 1.2439 1.7126 0.0787, 1.2439 1.6614 0.0787, 1.2319 1.6614 0.0787, 0.988 1.7126 0.0787, 0.988 1.002 0.0787, 0.0984 1.7126 0.0787, 0.1143 1.4087 0.0787, 0.1051 1.4326 0.0787, 0.067 1.4755 0.0787, 0.0589 1.4799 0.0787, -0.0984 1.7126 0.0787, 0.0454 1.4874 0.0787, 0.0304 1.4915 0.0787, -0.059 1.4801 0.0787, -0.187 1.7126 0.0787, -0.0631 1.4781 0.0787, -0.0835 1.4615 0.0787, -0.1025 1.4372 0.0787, 0.0187 1.4947 0.0787, -0.0 1.4953 0.0787, -0.0106 1.4956 0.0787, -0.0305 1.4917 0.0787, -0.0375 1.4903 0.0787, -0.1025 1.4371 0.0787, -0.113 1.4136 0.0787, -0.1139 1.4085 0.0787, -0.1179 1.3861 0.0787, -0.1181 1.378 0.0787, -0.187 1.002 0.0787, -0.1144 1.3474 0.0787, -0.0984 1.7913 0.0787, 0.0984 1.7913 0.0787, 0.059 1.2759 0.0787, 0.0631 1.2778 0.0787, 0.0835 1.2944 0.0787, 0.1025 1.3187 0.0787, 0.1025 1.3188 0.0787, 0.1129 1.3422 0.0787, 0.1021 1.4369 0.0787, 0.0892 1.4554 0.0787, 0.0831 1.461 0.0787, -0.0304 1.2644 0.0787, -0.0187 1.2612 0.0787, 0.0 1.2606 0.0787, 0.1139 1.3474 0.0787, 0.1178 1.3695 0.0787, 0.1181 1.378 0.0787, 0.1144 1.4086 0.0787, -0.1143 1.3472 0.0787, -0.1049 1.323 0.0787, -0.1021 1.319 0.0787, 0.0106 1.2603 0.0787, 0.0305 1.2642 0.0787, 0.0375 1.2656 0.0787, -0.089 1.3002 0.0787, -0.0831 1.2949 0.0787, -0.0666 1.2802 0.0787, -0.0589 1.2759 0.0787, -0.0454 1.2685 0.0787, -3.0 1.7126 0.0787, -3.0 1.002 0.0787, -2.0 1.7126 0.0787, -2.0 1.002 0.0787, -1.0 1.7126 0.0787, -1.0 1.002 0.0787, -4.878 1.4802 0.0787, -4.9064 1.492 0.0787, -4.9271 1.7126 0.0787, -4.878 1.2757 0.0787, -4.8535 1.2944 0.0787, -4.9271 1.7913 0.0787, -4.7343 1.7913 0.0787, -4.7343 1.7126 0.0787, -4.2815 1.7126 0.0787, -5.2756 1.7126 0.0787, -5.0205 1.4615 0.0787, -5.0393 1.437 0.0787, -5.0511 1.4085 0.0787, -5.0551 1.378 0.0787, -5.0511 1.3474 0.0787, -5.0393 1.3189 0.0787, -5.0205 1.2944 0.0787, -4.9961 1.2757 0.0787, -4.9676 1.2639 0.0787, -4.937 1.2598 0.0787, -4.9064 1.2639 0.0787, -4.8347 1.3189 0.0787, -4.8229 1.3474 0.0787, -4.8189 1.378 0.0787, -4.8229 1.4085 0.0787, -4.8347 1.437 0.0787, -4.8535 1.4615 0.0787, -4.937 1.4961 0.0787, -4.9676 1.492 0.0787, -4.9961 1.4802 0.0787, -5.4961 0.7874 0.0787, -5.4961 1.002 0.0787, -5.4961 1.7126 0.0787, 1.7441 0.2559 0.0787, 1.7441 0.7441 0.0787, 1.3079 0.7441 0.0787, 1.2559 0.7441 0.0787, 1.2439 1.002 0.0787, 1.2439 -0.0 0.0787, 1.4786 0.7441 0.0787, 1.3956 0.7441 0.0787, 1.2319 1.3661 0.0787, 1.4786 -0.7441 0.0787, 1.7441 -0.7441 0.0787, 2.0 -1.002 0.0787, 2.0 -0.0 0.0787, 1.7441 -0.2559 0.0787, 1.4786 -0.0 0.0787, 1.4786 0.2559 0.0787, 1.3956 -0.0 0.0787, 1.3956 0.2559 0.0787, 1.3079 -0.0 0.0787, 1.3079 0.2559 0.0787, 1.2559 0.2559 0.0787, 1.4786 -1.002 0.0787, 1.3956 -1.002 0.0787, 1.3956 -0.7441 0.0787, 1.3079 -1.002 0.0787, 1.3079 -0.7441 0.0787, 1.3079 -0.2559 0.0787, 1.2559 -0.2559 0.0787, 1.2559 -0.7441 0.0787, 1.2439 -1.002 0.0787, 1.4786 -0.2559 0.0787, 1.3956 -0.2559 0.0787, 4.2815 -1.6043 0.0787, 4.8189 -1.378 0.0787, 4.8229 -1.4085 0.0787, 5.0511 -1.3474 0.0787, 5.0551 -1.378 0.0787, 5.0511 -1.4085 0.0787, 4.8347 -1.437 0.0787, 4.8535 -1.4615 0.0787, 4.878 -1.4802 0.0787, 5.0393 -1.3189 0.0787, 5.0205 -1.2944 0.0787, 4.9961 -1.2757 0.0787, 4.9961 -1.4802 0.0787, 5.0205 -1.4615 0.0787, 5.0393 -1.437 0.0787, 4.878 -1.2757 0.0787, 4.8535 -1.2944 0.0787, 4.8347 -1.3189 0.0787, 4.8229 -1.3474 0.0787, 4.9064 -1.492 0.0787, 4.937 -1.4961 0.0787, 4.9676 -1.492 0.0787, 4.9676 -1.2639 0.0787, 4.937 -1.2598 0.0787, 4.9064 -1.2639 0.0787, 3.2559 0.7441 0.0787, 3.2559 0.2559 0.0787, 3.0 -0.0 0.0787, 3.7441 0.2559 0.0787, 5.4961 0.7874 0.0787, 3.2559 -0.2559 0.0787, 3.0 -1.002 0.0787, 3.2559 -0.7441 0.0787, 3.7441 -0.7441 0.0787, 3.7441 -0.2559 0.0787, 2.2559 0.7441 0.0787, 2.2559 0.2559 0.0787, 2.7441 0.2559 0.0787, 3.7441 0.7441 0.0787, 2.7441 0.7441 0.0787, 2.2559 -0.2559 0.0787, 2.2559 -0.7441 0.0787, 2.7441 -0.7441 0.0787, 2.7441 -0.2559 0.0787, 0.988 -1.002 0.0787, 0.988 -0.0 0.0787, 0.7441 0.7441 0.0787, 0.7441 0.2559 0.0787, 0.2559 0.2559 0.0787, -0.187 -0.0 0.0787, 0.2559 0.7441 0.0787, 0.7441 -0.2559 0.0787, 0.7441 -0.7441 0.0787, 0.2559 -0.7441 0.0787, -0.187 -1.002 0.0787, 0.2559 -0.2559 0.0787, -0.1179 -1.3698 0.0787, -0.1181 -1.378 0.0787, -0.187 -1.6043 0.0787, -0.1144 -1.4086 0.0787, -0.0304 -1.4915 0.0787, -0.0187 -1.4947 0.0787, -0.059 -1.2759 0.0787, -0.0631 -1.2778 0.0787, -0.0835 -1.2944 0.0787, -0.1025 -1.3187 0.0787, -0.1025 -1.3188 0.0787, 0.0375 -1.4903 0.0787, 0.059 -1.4801 0.0787, 0.988 -1.6043 0.0787, 0.0631 -1.4781 0.0787, 0.0835 -1.4615 0.0787, 0.1025 -1.4372 0.0787, 0.1025 -1.4371 0.0787, 0.1129 -1.4137 0.0787, -0.113 -1.3423 0.0787, -0.1139 -1.3474 0.0787, -0.1143 -1.4087 0.0787, -0.1049 -1.4329 0.0787, -0.1021 -1.4369 0.0787, 0.0 -1.4953 0.0787, 0.0106 -1.4956 0.0787, 0.0305 -1.4917 0.0787, 0.1181 -1.378 0.0787, 0.1144 -1.3474 0.0787, 1.2439 -1.6043 0.0787, 1.3079 -1.6043 0.0787, 1.3956 -1.6043 0.0787, 1.4786 -1.6043 0.0787, 2.0 -1.6043 0.0787, 3.0 -1.6043 0.0787, 0.1143 -1.3472 0.0787, 0.1051 -1.3233 0.0787, 0.1021 -1.319 0.0787, -0.089 -1.4557 0.0787, -0.0831 -1.461 0.0787, -0.0666 -1.4757 0.0787, -0.0589 -1.48 0.0787, -0.0454 -1.4874 0.0787, 0.1139 -1.4085 0.0787, 0.1178 -1.3864 0.0787, 0.0892 -1.3005 0.0787, 0.0831 -1.2949 0.0787, 0.067 -1.2804 0.0787, 0.0589 -1.276 0.0787, 0.0454 -1.2685 0.0787, 0.0304 -1.2644 0.0787, 0.0187 -1.2612 0.0787, -0.0 -1.2606 0.0787, -0.0106 -1.2603 0.0787, -0.0305 -1.2642 0.0787, -0.0375 -1.2656 0.0787, -0.7441 0.7441 0.0787, -0.7441 0.2559 0.0787, -1.0 -0.0 0.0787, -0.2559 0.2559 0.0787, -0.2559 0.7441 0.0787, -0.2559 -0.2559 0.0787, -0.2559 -0.7441 0.0787, -0.7441 -0.7441 0.0787, -1.0 -1.002 0.0787, -0.7441 -0.2559 0.0787, -1.7441 0.7441 0.0787, -1.7441 0.2559 0.0787, -2.0 -0.0 0.0787, -1.2559 0.2559 0.0787, -1.7441 -0.2559 0.0787, -2.0 -1.002 0.0787, -1.7441 -0.7441 0.0787, -1.2559 -0.7441 0.0787, -1.2559 -0.2559 0.0787, -2.7441 0.7441 0.0787, -2.7441 0.2559 0.0787, -3.0 -0.0 0.0787, -2.2559 0.2559 0.0787, -1.2559 0.7441 0.0787, -2.7441 -0.2559 0.0787, -3.0 -1.002 0.0787, -2.7441 -0.7441 0.0787, -2.2559 -0.7441 0.0787, -2.2559 -0.2559 0.0787, -3.7441 0.7441 0.0787, -3.7441 0.2559 0.0787, -3.2559 0.2559 0.0787, -2.2559 0.7441 0.0787, -3.2559 0.7441 0.0787, -3.7441 -0.2559 0.0787, -3.7441 -0.7441 0.0787, -3.2559 -0.7441 0.0787, -3.2559 -0.2559 0.0787, -1.0 -1.6043 0.0787, -2.0 -1.6043 0.0787, -3.0 -1.6043 0.0787, -4.2815 -1.6043 0.0787, -4.8347 -1.3189 0.0787, -4.8535 -1.2944 0.0787, -4.878 -1.4802 0.0787, -4.8535 -1.4615 0.0787, -4.8347 -1.437 0.0787, -4.8229 -1.4085 0.0787, -4.8189 -1.378 0.0787, -4.8229 -1.3474 0.0787, -5.0511 -1.4085 0.0787, -5.0393 -1.437 0.0787, -5.2756 -1.6043 0.0787, -5.0205 -1.4615 0.0787, -4.9961 -1.4802 0.0787, -4.9676 -1.492 0.0787, -4.937 -1.4961 0.0787, -4.9064 -1.492 0.0787, -4.9676 -1.2639 0.0787, -4.9961 -1.2757 0.0787, -5.0205 -1.2944 0.0787, -5.0393 -1.3189 0.0787, -5.0511 -1.3474 0.0787, -5.0551 -1.378 0.0787, -4.878 -1.2757 0.0787, -4.9064 -1.2639 0.0787, -4.937 -1.2598 0.0787, -5.4961 -1.6043 0.0787, -5.4961 -1.002 0.0787, -5.4961 -0.7874 0.0787, 3.0 -1.7126 0.0787, 2.0 -1.7126 0.0787, 1.4786 -1.7126 0.0787, 1.3956 -1.7126 0.0787, 1.3079 -1.7126 0.0787, 1.2439 -1.7126 0.0787, 0.988 -1.7126 0.0787, -0.187 -1.7126 0.0787, -1.0 -1.7126 0.0787, -2.0 -1.7126 0.0787, -3.0 -1.7126 0.0787, -4.2815 -1.7126 0.0787, -5.2756 -1.7126 0.0787, -5.4961 -1.7126 0.0787, 4.7343 1.7126 3.5433, 0.0984 1.7126 3.5433, 4.9271 1.7126 3.5433, 5.4961 1.7126 3.5433, 1.5944 1.5371 0.0787, 1.617 1.5371 0.0787, 1.5999 1.4844 0.0787, 1.6064 1.4317 0.0787, 1.513 1.3999 0.0787, 1.5088 1.3989 0.0787, 1.5024 1.5138 0.0787, 1.5258 1.618 0.0787, 1.5304 1.6099 0.0787, 1.5366 1.4431 0.0787, 1.5309 1.4196 0.0787, 1.5015 1.6286 0.0787, 1.511 1.6276 0.0787, 1.5327 1.6036 0.0787, 1.539 1.5651 0.0787, 1.5169 1.4009 0.0787, 1.521 1.4038 0.0787, 1.5252 1.4085 0.0787, 1.517 1.6255 0.0787, 1.5218 1.6224 0.0787, 1.617 1.5371 0.0984, 1.5944 1.5371 0.0984, 1.6004 1.4844 0.0984, 1.6064 1.4317 0.0984, 1.513 1.3999 0.0984, 1.5088 1.3989 0.0984, 1.5167 1.4008 0.0984, 1.5169 1.4009 0.0984, 1.5198 1.4028 0.0984, 1.5209 1.4039 0.0984, 1.5244 1.4074 0.0984, 1.525 1.4086 0.0984, 1.5295 1.4165 0.0984, 1.5304 1.4197 0.0984, 1.5358 1.4385 0.0984, 1.5362 1.4431 0.0984, 1.5415 1.5045 0.0984, 1.5396 1.5651 0.0984, 1.5395 1.5706 0.0984, 1.5327 1.6036 0.0984, 1.5015 1.6286 0.0984, 1.511 1.6274 0.0984, 1.5277 1.6146 0.0984, 1.5299 1.6097 0.0984, 1.5226 1.6209 0.0984, 1.5253 1.6176 0.0984, 1.5111 1.6274 0.0984, 1.5168 1.625 0.0984, 1.5174 1.6247 0.0984, 1.5214 1.6218 0.0984, 1.5051 1.5139 0.0984, -5.063 1.3189 3.4252, -5.063 1.3189 0.9449, 5.063 1.3189 3.4252, 5.063 1.3189 0.9449, -5.063 0.7874 0.9449, -5.063 0.7874 2.4409, -5.063 -0.7874 2.4409, -5.063 -1.3189 3.4252, -5.063 -0.7874 0.9449, -5.063 -1.3189 0.9449, 1.5659 1.6614 0.0984, 1.5818 1.6614 0.0984, 1.5911 1.5699 0.0984, 1.5991 1.3627 0.0984, 1.6203 1.5699 0.0984, 1.6124 1.3627 0.0984, 1.6456 1.6614 0.0984, 1.6296 1.6614 0.0984, 5.0551 1.378 0.0, 5.0511 1.3474 0.0, 4.8229 1.3474 0.0, 4.9961 1.4802 0.0, 5.0205 1.4615 0.0, 4.8535 1.4615 0.0, 5.0511 1.4085 0.0, 4.8189 1.378 0.0, 4.8229 1.4085 0.0, 4.878 1.4802 0.0, 4.9064 1.492 0.0, 4.937 1.4961 0.0, 5.0393 1.437 0.0, 4.8347 1.437 0.0, 5.0393 1.3189 0.0, 5.0205 1.2944 0.0, 4.8347 1.3189 0.0, 4.8535 1.2944 0.0, 4.9676 1.492 0.0, 4.9676 1.2639 0.0, 4.937 1.2598 0.0, 4.9064 1.2639 0.0, 4.9961 1.2757 0.0, 4.878 1.2757 0.0, 5.0393 -1.3189 0.0, 5.0511 -1.3474 0.0, 4.8229 -1.3474 0.0, 5.0551 -1.378 0.0, 5.0511 -1.4085 0.0, 4.8189 -1.378 0.0, 5.0393 -1.437 0.0, 5.0205 -1.4615 0.0, 4.878 -1.4802 0.0, 4.8535 -1.4615 0.0, 5.0205 -1.2944 0.0, 4.8347 -1.3189 0.0, 4.8535 -1.2944 0.0, 4.9676 -1.492 0.0, 4.937 -1.4961 0.0, 4.9064 -1.492 0.0, 4.9064 -1.2639 0.0, 4.937 -1.2598 0.0, 4.9676 -1.2639 0.0, 4.8347 -1.437 0.0, 4.8229 -1.4085 0.0, 4.878 -1.2757 0.0, 4.9961 -1.2757 0.0, 4.9961 -1.4802 0.0, -0.1141 1.3474 0.0, -0.1181 1.378 0.0, 0.0591 1.2757 0.0, -0.1141 1.4085 0.0, -0.1023 1.437 0.0, -0.0835 1.4615 0.0, -0.0591 1.4802 0.0, 0.0306 1.492 0.0, 0.0591 1.4802 0.0, 0.1181 1.378 0.0, -0.0 1.4961 0.0, 0.1141 1.3474 0.0, 0.1023 1.3189 0.0, -0.0306 1.492 0.0, 0.0835 1.2944 0.0, -0.1023 1.3189 0.0, 0.0306 1.2639 0.0, -0.0 1.2598 0.0, -0.0306 1.2639 0.0, -0.0591 1.2757 0.0, -0.0835 1.2944 0.0, 0.0835 1.4615 0.0, 0.1023 1.437 0.0, 0.1141 1.4085 0.0, 0.2559 0.7441 0.2756, 0.7441 0.7441 0.2756, 0.2559 0.2559 0.2756, 0.7441 0.2559 0.2756, 1.2559 0.7441 0.2756, 1.7441 0.7441 0.2756, 1.2559 0.2559 0.2756, 1.7441 0.2559 0.2756, -0.7441 0.7441 0.2756, -0.2559 0.7441 0.2756, -0.7441 0.2559 0.2756, -0.2559 0.2559 0.2756, 0.2559 -0.2559 0.2756, 0.7441 -0.2559 0.2756, 0.2559 -0.7441 0.2756, 0.7441 -0.7441 0.2756, -0.7441 -0.2559 0.2756, -0.2559 -0.2559 0.2756, -0.7441 -0.7441 0.2756, -0.2559 -0.7441 0.2756, 1.2559 -0.2559 0.2756, 1.7441 -0.2559 0.2756, 1.2559 -0.7441 0.2756, 1.7441 -0.7441 0.2756, -0.1141 -1.4085 0.0, -0.1181 -1.378 0.0, 0.1181 -1.378 0.0, -0.0591 -1.4802 0.0, -0.0835 -1.4615 0.0, -0.1023 -1.437 0.0, -0.1141 -1.3474 0.0, -0.1023 -1.3189 0.0, 0.1141 -1.3474 0.0, -0.0591 -1.2757 0.0, -0.0306 -1.2639 0.0, 0.1023 -1.3189 0.0, 0.1141 -1.4085 0.0, 0.1023 -1.437 0.0, -0.0835 -1.2944 0.0, -0.0 -1.2598 0.0, 0.0306 -1.2639 0.0, 0.0835 -1.2944 0.0, 0.0591 -1.2757 0.0, 0.0835 -1.4615 0.0, 0.0591 -1.4802 0.0, 0.0306 -1.492 0.0, -0.0 -1.4961 0.0, -0.0306 -1.492 0.0, -4.937 1.4961 0.0, -4.9064 1.492 0.0, -4.937 1.2598 0.0, -4.878 1.4802 0.0, -4.9064 1.2639 0.0, -4.9676 1.2639 0.0, -4.9961 1.2757 0.0, -5.0205 1.2944 0.0, -5.0551 1.378 0.0, -5.0511 1.4085 0.0, -5.0393 1.437 0.0, -4.8347 1.3189 0.0, -4.8229 1.3474 0.0, -4.8189 1.378 0.0, -4.8535 1.2944 0.0, -4.878 1.2757 0.0, -5.0393 1.3189 0.0, -5.0511 1.3474 0.0, -5.0205 1.4615 0.0, -4.9961 1.4802 0.0, -4.9676 1.492 0.0, -4.8229 1.4085 0.0, -4.8535 1.4615 0.0, -4.8347 1.437 0.0, -4.8189 -1.378 0.0, -4.9676 -1.492 0.0, -4.9961 -1.4802 0.0, -4.8229 -1.4085 0.0, -4.8347 -1.437 0.0, -4.8535 -1.4615 0.0, -4.878 -1.4802 0.0, -4.9064 -1.492 0.0, -4.937 -1.4961 0.0, -5.0205 -1.4615 0.0, -5.0393 -1.437 0.0, -5.0511 -1.4085 0.0, -5.0551 -1.378 0.0, -5.0511 -1.3474 0.0, -5.0393 -1.3189 0.0, -5.0205 -1.2944 0.0, -4.9961 -1.2757 0.0, -4.8229 -1.3474 0.0, -4.8347 -1.3189 0.0, -4.9064 -1.2639 0.0, -4.878 -1.2757 0.0, -4.937 -1.2598 0.0, -4.9676 -1.2639 0.0, -4.8535 -1.2944 0.0, 1.4862 1.3661 0.0984, 1.4862 1.6614 0.0984, 1.5274 1.3724 0.0984, 1.5208 1.3693 0.0984, 1.5154 1.3668 0.0984, 1.5069 1.3661 0.0984, 1.5111 1.6602 0.0984, 1.5446 1.6251 0.0984, 1.5332 1.378 0.0984, 1.5404 1.3893 0.0984, 1.545 1.4006 0.0984, 1.5512 1.5983 0.0984, 1.5364 1.6429 0.0984, 1.5296 1.6519 0.0984, 1.5177 1.6599 0.0984, 1.523 1.6563 0.0984, 1.5541 1.4511 0.0984, 1.4032 1.6614 0.0984, 1.4709 1.6614 0.0984, 1.4709 1.6286 0.0984, 1.4185 1.6286 0.0984, 1.4185 1.5233 0.0984, 1.4032 1.3661 0.0984, 1.4676 1.3989 0.0984, 1.4676 1.3661 0.0984, 1.4185 1.3989 0.0984, 1.4185 1.4905 0.0984, 1.4636 1.4905 0.0984, 1.4636 1.5233 0.0984, 1.388 1.544 0.0984, 1.3727 1.544 0.0984, 1.3722 1.5693 0.0984, 1.3816 1.6215 0.0984, 1.3678 1.6102 0.0984, 1.3616 1.624 0.0984, 1.3759 1.6411 0.0984, 1.3593 1.6289 0.0984, 1.3694 1.654 0.0984, 1.3569 1.6297 0.0984, 1.3647 1.6597 0.0984, 1.3316 1.3855 0.0984, 1.3454 1.4013 0.0984, 1.3486 1.3986 0.0984, 1.3586 1.3636 0.0984, 1.3572 1.363 0.0984, 1.3536 1.3631 0.0984, 1.3228 1.6191 0.0984, 1.3328 1.6473 0.0984, 1.344 1.6253 0.0984, 1.3384 1.3726 0.0984, 1.3505 1.397 0.0984, 1.3428 1.3676 0.0984, 1.352 1.3957 0.0984, 1.3468 1.3652 0.0984, 1.3727 1.4715 0.0984, 1.3873 1.4715 0.0984, 1.369 1.4191 0.0984, 1.3853 1.4246 0.0984, 1.3651 1.4053 0.0984, 1.3776 1.3891 0.0984, 1.3618 1.4005 0.0984, 1.3553 1.6303 0.0984, 1.3539 1.6308 0.0984, 1.3606 1.6623 0.0984, 1.3525 1.6312 0.0984, 1.3576 1.6642 0.0984, 1.3542 1.6645 0.0984, 1.3508 1.6647 0.0984, 1.3477 1.6633 0.0984, 1.344 1.6617 0.0984, 1.351 1.6317 0.0984, 1.3393 1.6572 0.0984, 1.3495 1.6303 0.0984, 1.3474 1.6284 0.0984, 1.3502 1.3632 0.0984, 1.3537 1.3962 0.0984, 1.3539 1.3962 0.0984, 1.3601 1.3978 0.0984, 1.3705 1.374 0.0984, 1.3579 1.3973 0.0984, 1.365 1.3682 0.0984, 1.356 1.3968 0.0984, 1.3649 1.368 0.0984, 1.362 1.3649 0.0984, 1.3398 1.6158 0.0984, 1.3351 1.5966 0.0984, 1.3151 1.5411 0.0984, 1.3309 1.5216 0.0984, 1.3218 1.4205 0.0984, 1.3371 1.4243 0.0984, 1.3435 1.4064 0.0984, 1.2472 1.3661 0.0984, 1.2319 1.3661 0.0984, 1.2472 1.6286 0.0984, 1.2319 1.6614 0.0984, 1.301 1.6286 0.0984, 1.301 1.6614 0.0984, 5.063 -0.7874 0.9449, 5.063 -1.3189 0.9449, 5.063 -0.7874 2.4409, 5.063 -1.3189 3.4252, 5.063 0.7874 2.4409, 5.063 0.7874 0.9449, 0.9449 -1.3189 3.4252, 0.8661 -1.3189 0.9449, 0.8661 -1.3189 3.3465, -0.8661 -1.3189 3.3465, -0.8661 -1.3189 0.9449, -0.9449 -1.3189 3.4252, 0.8661 -1.2205 0.8268, 0.8661 -1.2205 0.9449, -0.8661 -1.2205 0.8268, -0.8661 -1.2205 0.9449, -5.4961 0.7874 2.4409, -5.4961 -0.7874 2.4409, -5.4961 1.7126 3.5433, -4.9271 1.7126 3.5433, 5.4961 0.7874 2.4409, 5.4961 -0.7874 2.4409, -4.7343 1.7126 3.5433, -0.0984 1.7126 3.5433, 1.063 -1.7126 3.5433, 1.063 -1.437 3.5433, 0.8661 -1.7126 3.3465, 0.8661 -1.7126 0.8268, -0.8661 -1.7126 0.8268, -0.8661 -1.7126 3.3465, -1.063 -1.437 3.5433, -1.063 -1.7126 3.5433, -5.1811 1.437 3.5433, 5.1811 1.437 3.5433, 5.1811 -1.437 3.5433, 5.4961 -1.7126 3.5433, 0.0984 1.7913 3.5433, -0.0984 1.7913 3.5433, 4.7343 1.7913 3.5433, 4.9271 1.7913 3.5433, -5.4961 -1.7126 3.5433, -5.1811 -1.437 3.5433, -4.9271 1.7913 3.5433, -4.7343 1.7913 3.5433, -1.2559 0.2559 0.2756, -1.7441 0.2559 0.2756, -1.7441 0.7441 0.2756, -1.2559 0.7441 0.2756, -1.2559 -0.7441 0.2756, -1.7441 -0.7441 0.2756, -1.7441 -0.2559 0.2756, -1.2559 -0.2559 0.2756, -2.2559 -0.7441 0.2756, -2.7441 -0.7441 0.2756, -2.7441 -0.2559 0.2756, -2.2559 -0.2559 0.2756, -2.2559 0.2559 0.2756, -2.7441 0.2559 0.2756, -2.7441 0.7441 0.2756, -2.2559 0.7441 0.2756, 2.7441 0.2559 0.2756, 2.2559 0.2559 0.2756, 2.2559 0.7441 0.2756, 2.7441 0.7441 0.2756, 2.7441 -0.7441 0.2756, 2.2559 -0.7441 0.2756, 2.2559 -0.2559 0.2756, 2.7441 -0.2559 0.2756, 3.7441 -0.7441 0.2756, 3.2559 -0.7441 0.2756, 3.2559 -0.2559 0.2756, 3.7441 -0.2559 0.2756, 3.7441 0.2559 0.2756, 3.2559 0.2559 0.2756, 3.2559 0.7441 0.2756, 3.7441 0.7441 0.2756, -3.2559 -0.7441 0.2756, -3.7441 -0.7441 0.2756, -3.7441 -0.2559 0.2756, -3.2559 -0.2559 0.2756, -3.2559 0.2559 0.2756, -3.7441 0.2559 0.2756, -3.7441 0.7441 0.2756, -3.2559 0.7441 0.2756
            ]
        }
        coordIndex [
            0,1,2,-1,3,4,5,-1,5,4,6,-1,5,6,7,-1,8,9,10,-1,10,9,11,-1,10,11,12,-1,13,14,15,-1,15,14,16,-1,15,16,17,-1,17,16,18,-1,17,18,19,-1,20,21,22,-1,23,24,25,-1,25,26,23,-1,23,26,27,-1,23,27,28,-1,21,29,30,-1,31,32,33,-1,33,32,24,-1,33,24,34,-1,34,24,23,-1,34,23,35,-1,35,23,36,-1,28,37,23,-1,23,37,38,-1,23,38,22,-1,22,38,39,-1,22,39,20,-1,29,40,30,-1,30,40,41,-1,30,41,42,-1,43,44,33,-1,33,44,45,-1,33,45,31,-1,46,47,43,-1,43,47,48,-1,43,48,44,-1,42,49,30,-1,30,49,50,-1,30,50,43,-1,43,50,51,-1,43,51,46,-1,21,30,22,-1,22,30,52,-1,22,52,53,-1,53,52,54,-1,53,54,55,-1,56,57,58,-1,59,60,61,-1,62,63,64,-1,65,66,58,-1,61,65,59,-1,59,65,58,-1,59,58,67,-1,67,58,55,-1,67,55,68,-1,68,55,54,-1,68,54,64,-1,69,70,58,-1,58,70,71,-1,58,71,56,-1,63,72,64,-1,64,72,73,-1,64,73,74,-1,74,75,64,-1,64,75,76,-1,64,76,66,-1,66,76,77,-1,66,77,78,-1,56,79,57,-1,57,79,80,-1,57,80,81,-1,78,82,66,-1,66,82,83,-1,66,83,84,-1,81,85,57,-1,57,85,86,-1,57,86,87,-1,84,88,66,-1,66,88,89,-1,66,89,90,-1,90,91,66,-1,66,91,92,-1,66,92,58,-1,58,92,93,-1,58,93,69,-1,94,95,58,-1,96,97,95,-1,95,97,98,-1,95,98,58,-1,58,98,99,-1,58,99,100,-1,100,99,101,-1,100,101,102,-1,103,104,105,-1,105,94,103,-1,103,94,58,-1,103,58,106,-1,106,58,57,-1,106,57,102,-1,102,57,107,-1,102,107,100,-1,108,109,110,-1,111,112,100,-1,113,114,115,-1,111,100,116,-1,117,118,119,-1,120,121,122,-1,123,124,119,-1,119,124,125,-1,112,126,100,-1,100,126,127,-1,100,127,128,-1,129,130,107,-1,107,130,131,-1,107,131,132,-1,133,134,115,-1,135,136,137,-1,137,136,100,-1,137,100,138,-1,138,100,128,-1,135,139,136,-1,136,139,140,-1,136,140,141,-1,142,143,107,-1,107,143,144,-1,107,144,129,-1,132,145,107,-1,107,145,146,-1,107,146,147,-1,148,149,150,-1,118,113,119,-1,119,113,115,-1,119,115,151,-1,151,115,134,-1,152,153,100,-1,100,153,154,-1,100,154,116,-1,141,155,136,-1,136,155,156,-1,136,156,157,-1,157,158,136,-1,136,158,159,-1,136,159,160,-1,161,162,163,-1,163,162,164,-1,161,165,162,-1,162,165,166,-1,162,166,167,-1,167,168,162,-1,162,168,169,-1,162,169,107,-1,107,169,170,-1,107,170,142,-1,147,171,107,-1,107,171,172,-1,107,172,173,-1,148,115,122,-1,122,115,174,-1,122,174,120,-1,175,176,109,-1,109,176,177,-1,109,177,178,-1,178,179,109,-1,109,179,180,-1,109,180,110,-1,173,124,107,-1,107,124,123,-1,107,123,100,-1,100,123,181,-1,100,181,152,-1,148,150,115,-1,115,150,182,-1,115,182,133,-1,183,109,184,-1,184,109,125,-1,183,185,109,-1,109,185,186,-1,109,186,187,-1,160,188,136,-1,136,188,189,-1,136,189,190,-1,191,192,162,-1,162,192,193,-1,162,193,164,-1,125,109,119,-1,119,109,194,-1,119,194,195,-1,195,196,119,-1,119,196,197,-1,119,197,198,-1,198,199,119,-1,119,199,200,-1,119,200,117,-1,201,108,202,-1,202,108,110,-1,202,110,203,-1,203,110,204,-1,203,204,205,-1,190,206,136,-1,136,206,207,-1,136,207,162,-1,162,207,208,-1,162,208,191,-1,187,209,109,-1,109,209,210,-1,109,210,175,-1,211,212,213,-1,214,211,162,-1,162,211,213,-1,162,213,136,-1,136,213,215,-1,136,215,216,-1,215,217,216,-1,216,217,218,-1,216,218,219,-1,219,218,220,-1,221,222,223,-1,224,225,226,-1,226,225,227,-1,226,227,228,-1,229,230,226,-1,229,231,230,-1,230,231,232,-1,230,232,233,-1,228,234,226,-1,226,234,235,-1,226,235,236,-1,236,237,226,-1,226,237,238,-1,226,238,229,-1,233,239,230,-1,230,239,240,-1,230,240,241,-1,241,242,230,-1,230,242,243,-1,230,243,244,-1,244,243,245,-1,246,247,226,-1,226,247,221,-1,248,249,220,-1,220,249,250,-1,250,251,220,-1,220,251,252,-1,220,252,253,-1,223,254,221,-1,221,254,255,-1,221,255,226,-1,226,255,256,-1,226,256,224,-1,257,258,244,-1,244,258,259,-1,253,260,220,-1,220,260,261,-1,220,261,219,-1,219,261,262,-1,219,262,221,-1,221,262,263,-1,221,263,222,-1,245,264,244,-1,244,264,265,-1,244,265,266,-1,259,267,244,-1,244,267,268,-1,244,268,220,-1,220,268,269,-1,220,269,248,-1,266,270,244,-1,244,270,271,-1,244,271,272,-1,272,273,244,-1,244,273,274,-1,244,274,257,-1,6,275,276,-1,276,275,277,-1,276,277,278,-1,278,277,279,-1,278,279,280,-1,281,282,283,-1,284,285,6,-1,286,287,283,-1,283,287,288,-1,283,288,6,-1,6,288,289,-1,6,289,275,-1,290,291,292,-1,292,293,290,-1,290,293,294,-1,290,294,4,-1,4,294,295,-1,295,296,4,-1,4,296,297,-1,4,297,298,-1,298,299,4,-1,4,299,300,-1,4,300,6,-1,6,300,301,-1,6,301,284,-1,285,302,6,-1,6,302,303,-1,6,303,304,-1,304,305,6,-1,6,305,306,-1,6,306,283,-1,283,306,307,-1,283,307,281,-1,282,308,283,-1,283,308,309,-1,283,309,290,-1,290,309,310,-1,290,310,291,-1,3,311,4,-1,4,311,312,-1,4,312,290,-1,290,312,313,-1,314,315,54,-1,54,315,57,-1,54,57,64,-1,64,57,87,-1,64,87,62,-1,316,317,318,-1,318,317,319,-1,315,320,57,-1,57,320,321,-1,57,321,107,-1,107,321,316,-1,107,316,162,-1,162,316,318,-1,162,318,214,-1,214,318,322,-1,323,324,325,-1,325,324,326,-1,324,327,326,-1,326,327,328,-1,326,328,329,-1,329,328,330,-1,329,330,331,-1,331,330,332,-1,331,332,333,-1,333,332,334,-1,325,335,323,-1,323,335,336,-1,323,336,337,-1,337,336,338,-1,337,338,339,-1,340,341,319,-1,319,341,342,-1,339,338,342,-1,342,338,343,-1,342,343,319,-1,327,344,328,-1,328,344,345,-1,328,345,330,-1,330,345,340,-1,330,340,332,-1,332,340,319,-1,332,319,334,-1,334,319,317,-1,346,347,348,-1,349,14,350,-1,350,14,0,-1,350,0,351,-1,348,352,346,-1,346,352,353,-1,346,353,354,-1,349,355,14,-1,14,355,356,-1,14,356,357,-1,358,359,0,-1,0,359,360,-1,0,360,351,-1,361,362,16,-1,16,362,363,-1,16,363,364,-1,354,365,346,-1,346,365,366,-1,346,366,0,-1,0,366,367,-1,0,367,358,-1,357,368,14,-1,14,368,369,-1,14,369,16,-1,16,369,370,-1,16,370,361,-1,371,372,373,-1,372,374,18,-1,18,374,30,-1,18,30,19,-1,19,30,43,-1,19,43,375,-1,372,18,373,-1,373,18,376,-1,373,376,377,-1,377,376,378,-1,377,378,16,-1,16,378,379,-1,16,379,18,-1,18,379,380,-1,18,380,376,-1,381,382,326,-1,382,383,373,-1,373,383,52,-1,373,52,371,-1,371,52,30,-1,371,30,384,-1,384,30,374,-1,329,314,326,-1,326,314,54,-1,326,54,381,-1,381,54,52,-1,381,52,385,-1,385,52,383,-1,382,373,326,-1,326,373,386,-1,326,386,325,-1,325,386,387,-1,325,387,377,-1,377,387,388,-1,377,388,373,-1,373,388,389,-1,373,389,386,-1,343,390,319,-1,319,390,391,-1,319,391,318,-1,318,391,220,-1,318,220,322,-1,322,220,218,-1,392,220,393,-1,393,220,391,-1,393,391,394,-1,394,391,395,-1,394,395,396,-1,396,395,244,-1,396,244,392,-1,392,244,220,-1,397,391,398,-1,398,391,390,-1,398,390,399,-1,399,390,400,-1,399,400,401,-1,401,400,395,-1,401,395,397,-1,397,395,391,-1,402,403,404,-1,404,403,405,-1,406,407,404,-1,408,409,400,-1,409,410,400,-1,400,410,411,-1,400,411,412,-1,413,414,415,-1,415,414,416,-1,415,416,417,-1,417,418,415,-1,415,418,419,-1,415,419,420,-1,412,421,400,-1,400,421,422,-1,400,422,402,-1,405,423,404,-1,404,423,424,-1,404,424,425,-1,407,426,404,-1,404,426,427,-1,404,427,415,-1,415,427,428,-1,415,428,413,-1,415,429,430,-1,430,390,415,-1,415,390,343,-1,415,343,431,-1,431,343,338,-1,431,338,432,-1,432,338,336,-1,432,336,433,-1,433,336,335,-1,433,335,434,-1,434,335,325,-1,434,325,435,-1,435,325,377,-1,435,377,436,-1,436,377,16,-1,436,16,346,-1,346,16,364,-1,346,364,347,-1,430,437,390,-1,390,437,438,-1,390,438,439,-1,425,440,404,-1,404,440,441,-1,404,441,442,-1,442,443,404,-1,404,443,444,-1,404,444,406,-1,420,445,415,-1,415,445,446,-1,415,446,429,-1,439,447,390,-1,390,447,448,-1,390,448,449,-1,449,450,390,-1,390,450,451,-1,390,451,400,-1,400,451,452,-1,452,453,400,-1,400,453,454,-1,400,454,455,-1,455,456,400,-1,400,456,457,-1,400,457,408,-1,458,459,460,-1,460,459,395,-1,459,461,395,-1,395,461,462,-1,395,462,244,-1,244,462,280,-1,244,280,230,-1,230,280,279,-1,463,395,464,-1,464,395,400,-1,464,400,465,-1,465,400,466,-1,465,466,467,-1,467,466,460,-1,467,460,463,-1,463,460,395,-1,468,469,470,-1,469,471,460,-1,460,471,280,-1,460,280,458,-1,458,280,462,-1,469,460,470,-1,470,460,472,-1,470,472,473,-1,473,472,474,-1,473,474,466,-1,466,474,475,-1,466,475,460,-1,460,475,476,-1,460,476,472,-1,477,478,479,-1,478,480,470,-1,470,480,278,-1,470,278,468,-1,468,278,280,-1,468,280,481,-1,481,280,471,-1,478,470,479,-1,479,470,482,-1,479,482,483,-1,483,482,484,-1,483,484,473,-1,473,484,485,-1,473,485,470,-1,470,485,486,-1,470,486,482,-1,487,488,8,-1,488,489,479,-1,479,489,276,-1,479,276,477,-1,477,276,278,-1,477,278,490,-1,490,278,480,-1,10,7,8,-1,8,7,6,-1,8,6,487,-1,487,6,276,-1,487,276,491,-1,491,276,489,-1,488,479,8,-1,8,479,492,-1,8,492,9,-1,9,492,493,-1,9,493,483,-1,483,493,494,-1,483,494,479,-1,479,494,495,-1,479,495,492,-1,402,404,400,-1,400,404,496,-1,400,496,466,-1,466,496,497,-1,466,497,473,-1,473,497,498,-1,473,498,483,-1,483,498,499,-1,483,499,9,-1,500,501,9,-1,502,503,499,-1,499,503,504,-1,504,505,499,-1,499,505,506,-1,499,506,9,-1,9,506,507,-1,9,507,500,-1,508,509,510,-1,510,509,511,-1,510,511,512,-1,512,513,510,-1,510,513,514,-1,510,514,499,-1,499,514,515,-1,499,515,502,-1,516,517,11,-1,11,517,518,-1,518,519,11,-1,11,519,520,-1,11,520,510,-1,510,520,521,-1,510,521,508,-1,501,522,9,-1,9,522,523,-1,9,523,11,-1,11,523,524,-1,11,524,516,-1,510,525,11,-1,11,525,526,-1,11,526,12,-1,12,526,527,-1,0,2,346,-1,346,2,528,-1,346,528,436,-1,436,528,529,-1,436,529,435,-1,435,529,530,-1,435,530,434,-1,434,530,531,-1,434,531,433,-1,433,531,532,-1,433,532,432,-1,432,532,533,-1,432,533,431,-1,431,533,534,-1,431,534,415,-1,415,534,535,-1,415,535,404,-1,404,535,536,-1,404,536,496,-1,496,536,537,-1,496,537,497,-1,497,537,538,-1,497,538,498,-1,498,538,539,-1,498,539,499,-1,499,539,540,-1,499,540,510,-1,510,540,541,-1,510,541,525,-1,23,22,542,-1,542,22,53,-1,542,53,543,-1,543,53,55,-1,55,58,543,-1,543,58,100,-1,543,100,136,-1,136,216,543,-1,543,216,219,-1,543,219,221,-1,544,545,34,-1,34,545,33,-1,546,547,548,-1,548,547,549,-1,550,551,552,-1,553,554,552,-1,552,555,556,-1,552,557,558,-1,554,559,552,-1,552,559,560,-1,552,560,555,-1,561,550,562,-1,562,550,552,-1,562,552,563,-1,563,552,556,-1,558,564,552,-1,552,564,565,-1,552,565,553,-1,566,547,567,-1,567,547,546,-1,567,546,548,-1,567,548,568,-1,568,548,549,-1,568,549,569,-1,566,569,547,-1,547,569,549,-1,570,571,550,-1,550,571,551,-1,570,550,572,-1,572,550,561,-1,572,561,573,-1,573,561,574,-1,574,561,562,-1,574,562,575,-1,575,562,576,-1,576,562,563,-1,576,563,577,-1,577,563,578,-1,578,563,556,-1,578,556,579,-1,579,556,580,-1,580,556,555,-1,580,555,581,-1,581,555,582,-1,582,555,560,-1,582,560,583,-1,583,560,584,-1,584,560,559,-1,584,559,585,-1,557,586,587,-1,585,559,554,-1,553,588,554,-1,554,588,589,-1,554,589,585,-1,565,590,553,-1,553,590,591,-1,553,591,588,-1,592,593,564,-1,564,593,594,-1,564,594,565,-1,565,594,595,-1,565,595,590,-1,592,564,587,-1,587,564,558,-1,587,558,557,-1,586,557,552,-1,586,552,596,-1,596,552,551,-1,596,551,571,-1,597,598,599,-1,599,598,600,-1,601,598,602,-1,602,598,597,-1,602,597,603,-1,603,597,604,-1,603,604,605,-1,605,604,606,-1,607,608,609,-1,610,607,567,-1,567,607,609,-1,567,609,566,-1,566,609,611,-1,567,568,610,-1,610,568,569,-1,610,569,612,-1,612,569,566,-1,612,566,613,-1,613,566,611,-1,613,611,614,-1,615,616,617,-1,618,619,620,-1,615,617,621,-1,621,617,622,-1,621,622,623,-1,624,625,626,-1,619,627,620,-1,620,627,621,-1,620,621,628,-1,628,621,623,-1,616,629,617,-1,617,629,630,-1,617,630,631,-1,631,630,632,-1,624,626,620,-1,620,626,633,-1,620,633,618,-1,634,635,636,-1,630,637,632,-1,632,637,634,-1,632,634,638,-1,638,634,636,-1,639,640,641,-1,640,642,641,-1,641,642,643,-1,641,643,644,-1,644,643,645,-1,644,645,646,-1,647,648,646,-1,639,641,649,-1,649,641,650,-1,649,650,651,-1,652,653,654,-1,655,656,657,-1,648,658,646,-1,646,658,659,-1,646,659,644,-1,651,660,649,-1,649,660,655,-1,649,655,661,-1,661,655,657,-1,647,646,654,-1,654,646,662,-1,654,662,652,-1,663,664,665,-1,665,664,666,-1,666,667,665,-1,665,667,668,-1,665,668,669,-1,670,671,672,-1,670,672,673,-1,673,672,674,-1,673,674,675,-1,669,676,665,-1,665,676,673,-1,665,673,677,-1,677,673,675,-1,663,665,678,-1,678,665,679,-1,678,679,680,-1,680,681,678,-1,678,681,682,-1,678,682,683,-1,671,684,672,-1,672,684,685,-1,672,685,686,-1,687,688,689,-1,689,688,690,-1,691,692,693,-1,693,692,694,-1,695,696,697,-1,697,696,698,-1,699,700,701,-1,701,700,702,-1,703,704,705,-1,705,704,706,-1,707,708,709,-1,709,708,710,-1,711,712,713,-1,714,715,716,-1,712,717,713,-1,713,717,718,-1,713,718,719,-1,720,721,722,-1,711,713,716,-1,716,713,723,-1,716,723,724,-1,719,718,722,-1,722,718,725,-1,722,725,720,-1,721,726,722,-1,722,726,727,-1,722,727,728,-1,728,727,729,-1,724,730,716,-1,716,730,731,-1,716,731,732,-1,732,733,716,-1,716,733,734,-1,716,734,714,-1,735,736,737,-1,737,736,738,-1,737,738,739,-1,740,741,742,-1,743,744,740,-1,740,744,745,-1,746,738,747,-1,747,738,748,-1,746,749,738,-1,738,749,750,-1,738,750,739,-1,742,751,740,-1,740,751,752,-1,740,752,743,-1,745,753,740,-1,740,753,754,-1,740,754,737,-1,737,754,755,-1,737,755,735,-1,748,738,756,-1,756,738,757,-1,756,757,758,-1,759,760,761,-1,759,762,760,-1,760,762,763,-1,760,763,764,-1,764,765,760,-1,760,765,766,-1,760,766,767,-1,761,768,759,-1,759,768,769,-1,759,769,770,-1,770,771,759,-1,759,771,772,-1,759,772,773,-1,773,774,759,-1,759,774,775,-1,759,775,776,-1,776,775,777,-1,778,779,780,-1,780,779,781,-1,781,779,775,-1,775,779,782,-1,775,782,777,-1,571,783,596,-1,596,783,784,-1,596,784,586,-1,785,786,570,-1,570,786,787,-1,570,787,571,-1,571,787,788,-1,571,788,783,-1,586,784,587,-1,587,784,789,-1,587,789,592,-1,790,588,591,-1,570,572,785,-1,785,572,573,-1,785,573,791,-1,573,574,791,-1,791,574,575,-1,791,575,792,-1,575,576,792,-1,792,576,577,-1,792,577,793,-1,584,585,794,-1,790,591,795,-1,591,590,795,-1,795,590,595,-1,795,595,796,-1,794,585,790,-1,790,585,589,-1,790,589,588,-1,789,797,592,-1,592,797,798,-1,592,798,593,-1,593,798,796,-1,593,796,594,-1,594,796,595,-1,580,799,579,-1,579,799,793,-1,579,793,578,-1,578,793,577,-1,580,581,799,-1,799,581,582,-1,799,582,794,-1,794,582,583,-1,794,583,584,-1,800,801,802,-1,802,803,800,-1,800,803,804,-1,800,804,805,-1,806,807,808,-1,808,807,805,-1,808,805,809,-1,809,805,804,-1,809,804,810,-1,810,804,811,-1,812,813,814,-1,812,814,815,-1,814,816,815,-1,815,816,817,-1,815,817,818,-1,818,817,819,-1,818,819,820,-1,820,819,821,-1,820,821,822,-1,823,824,825,-1,826,827,828,-1,829,830,831,-1,823,825,832,-1,832,825,833,-1,832,833,834,-1,834,833,835,-1,834,835,836,-1,837,838,839,-1,839,838,840,-1,839,840,841,-1,841,840,842,-1,841,842,843,-1,821,844,822,-1,822,844,845,-1,822,845,846,-1,846,845,847,-1,846,847,848,-1,848,847,849,-1,850,849,851,-1,851,849,847,-1,851,847,852,-1,852,847,853,-1,852,853,854,-1,854,853,855,-1,854,855,830,-1,830,855,856,-1,830,856,831,-1,836,835,857,-1,857,835,858,-1,857,858,828,-1,828,858,859,-1,828,859,826,-1,843,842,860,-1,860,842,861,-1,860,861,862,-1,862,861,863,-1,862,863,864,-1,864,863,865,-1,864,865,859,-1,859,865,866,-1,859,866,826,-1,831,867,829,-1,829,867,868,-1,829,868,869,-1,869,868,870,-1,869,870,871,-1,871,870,872,-1,871,872,823,-1,823,872,873,-1,823,873,824,-1,874,875,876,-1,876,875,877,-1,876,877,878,-1,878,877,879,-1,880,881,882,-1,882,881,883,-1,882,883,884,-1,884,883,599,-1,884,599,885,-1,885,599,600,-1,883,881,886,-1,886,881,887,-1,886,887,888,-1,889,890,891,-1,891,890,606,-1,891,606,604,-1,892,893,894,-1,894,893,895,-1,606,890,605,-1,605,890,895,-1,605,895,601,-1,887,881,893,-1,893,881,880,-1,880,885,893,-1,893,885,600,-1,893,600,895,-1,895,600,598,-1,895,598,601,-1,896,602,897,-1,897,602,603,-1,19,885,17,-1,17,885,880,-1,17,880,15,-1,897,603,527,-1,527,603,605,-1,527,605,12,-1,12,605,10,-1,601,5,605,-1,605,5,7,-1,605,7,10,-1,896,311,602,-1,602,311,3,-1,602,3,601,-1,601,3,5,-1,313,898,290,-1,290,898,899,-1,290,899,283,-1,612,68,610,-1,610,68,64,-1,612,613,68,-1,68,613,67,-1,67,613,59,-1,59,613,614,-1,614,611,59,-1,59,611,60,-1,60,611,61,-1,61,611,609,-1,609,608,61,-1,61,608,65,-1,65,608,66,-1,66,608,607,-1,607,610,66,-1,66,610,64,-1,621,45,615,-1,615,45,44,-1,615,44,616,-1,616,44,48,-1,616,48,629,-1,629,48,47,-1,629,47,630,-1,630,47,46,-1,630,46,637,-1,637,46,51,-1,637,51,634,-1,634,51,50,-1,634,50,635,-1,635,50,49,-1,635,49,636,-1,636,49,42,-1,636,42,638,-1,638,42,41,-1,638,41,632,-1,632,41,40,-1,632,40,631,-1,631,40,29,-1,631,29,617,-1,617,29,21,-1,617,21,622,-1,622,21,20,-1,622,20,623,-1,623,20,39,-1,623,39,628,-1,628,39,38,-1,628,38,620,-1,620,38,37,-1,620,37,624,-1,624,37,28,-1,624,28,625,-1,625,28,27,-1,625,27,626,-1,626,27,26,-1,626,26,633,-1,633,26,25,-1,633,25,618,-1,618,25,24,-1,618,24,619,-1,619,24,32,-1,619,32,627,-1,627,32,31,-1,627,31,621,-1,621,31,45,-1,640,350,642,-1,642,350,351,-1,642,351,643,-1,643,351,360,-1,643,360,645,-1,645,360,359,-1,645,359,646,-1,646,359,358,-1,646,358,662,-1,662,358,367,-1,662,367,652,-1,652,367,366,-1,652,366,653,-1,653,366,365,-1,653,365,654,-1,654,365,354,-1,654,354,647,-1,647,354,353,-1,647,353,648,-1,648,353,352,-1,648,352,658,-1,658,352,348,-1,658,348,659,-1,659,348,347,-1,659,347,644,-1,644,347,364,-1,644,364,641,-1,641,364,363,-1,641,363,650,-1,650,363,362,-1,650,362,651,-1,651,362,361,-1,651,361,660,-1,660,361,370,-1,660,370,655,-1,655,370,369,-1,655,369,656,-1,656,369,368,-1,656,368,657,-1,657,368,357,-1,657,357,661,-1,661,357,356,-1,661,356,649,-1,649,356,355,-1,649,355,639,-1,639,355,349,-1,639,349,640,-1,640,349,350,-1,674,253,675,-1,675,253,252,-1,675,252,677,-1,677,252,251,-1,251,250,677,-1,677,250,249,-1,677,249,665,-1,249,248,665,-1,665,248,269,-1,665,269,679,-1,269,268,679,-1,679,268,267,-1,679,267,680,-1,267,259,680,-1,680,259,258,-1,680,258,681,-1,258,257,681,-1,681,257,274,-1,681,274,682,-1,274,273,682,-1,682,273,272,-1,682,272,683,-1,272,271,683,-1,683,271,270,-1,683,270,678,-1,264,663,265,-1,265,663,678,-1,265,678,266,-1,266,678,270,-1,264,245,663,-1,663,245,243,-1,663,243,664,-1,664,243,242,-1,664,242,666,-1,242,241,666,-1,666,241,240,-1,666,240,667,-1,667,240,239,-1,667,239,668,-1,668,239,233,-1,233,232,668,-1,668,232,231,-1,668,231,669,-1,231,229,669,-1,669,229,238,-1,669,238,676,-1,238,237,676,-1,676,237,236,-1,676,236,673,-1,236,235,673,-1,673,235,234,-1,673,234,670,-1,234,228,670,-1,670,228,227,-1,670,227,671,-1,227,225,671,-1,671,225,224,-1,671,224,684,-1,224,256,684,-1,684,256,255,-1,684,255,685,-1,222,686,223,-1,223,686,685,-1,223,685,254,-1,254,685,255,-1,222,263,686,-1,686,263,262,-1,686,262,672,-1,672,262,261,-1,672,261,674,-1,674,261,260,-1,674,260,253,-1,687,689,396,-1,396,689,394,-1,393,394,690,-1,690,394,689,-1,392,393,688,-1,688,393,690,-1,688,687,392,-1,392,687,396,-1,691,693,317,-1,317,693,334,-1,694,314,693,-1,693,314,329,-1,329,331,693,-1,693,331,333,-1,693,333,334,-1,315,314,692,-1,692,314,694,-1,691,317,316,-1,315,692,320,-1,320,692,691,-1,320,691,321,-1,321,691,316,-1,695,697,458,-1,458,697,459,-1,461,459,698,-1,698,459,697,-1,462,461,696,-1,696,461,698,-1,696,695,462,-1,462,695,458,-1,699,701,401,-1,401,701,399,-1,398,399,702,-1,702,399,701,-1,397,398,700,-1,700,398,702,-1,700,699,397,-1,397,699,401,-1,703,705,467,-1,467,705,465,-1,464,465,706,-1,706,465,705,-1,463,464,704,-1,704,464,706,-1,704,703,463,-1,463,703,467,-1,707,709,341,-1,341,709,342,-1,710,324,709,-1,709,324,323,-1,323,337,709,-1,709,337,339,-1,709,339,342,-1,327,324,708,-1,708,324,710,-1,707,341,340,-1,327,708,344,-1,344,708,707,-1,344,707,345,-1,345,707,340,-1,723,420,724,-1,724,420,419,-1,724,419,730,-1,730,419,418,-1,418,417,730,-1,730,417,416,-1,730,416,731,-1,416,414,731,-1,731,414,413,-1,731,413,732,-1,413,428,732,-1,732,428,427,-1,732,427,733,-1,427,426,733,-1,733,426,407,-1,733,407,734,-1,407,406,734,-1,734,406,444,-1,734,444,714,-1,444,443,714,-1,714,443,442,-1,714,442,715,-1,442,441,715,-1,715,441,440,-1,715,440,716,-1,423,711,424,-1,424,711,716,-1,424,716,425,-1,425,716,440,-1,423,405,711,-1,711,405,403,-1,711,403,712,-1,712,403,402,-1,712,402,717,-1,402,422,717,-1,717,422,421,-1,717,421,718,-1,718,421,412,-1,718,412,725,-1,725,412,411,-1,411,410,725,-1,725,410,409,-1,725,409,720,-1,409,408,720,-1,720,408,457,-1,720,457,721,-1,457,456,721,-1,721,456,455,-1,721,455,726,-1,455,454,726,-1,726,454,453,-1,726,453,727,-1,453,452,727,-1,727,452,451,-1,727,451,729,-1,451,450,729,-1,729,450,449,-1,729,449,728,-1,449,448,728,-1,728,448,447,-1,728,447,722,-1,437,719,438,-1,438,719,722,-1,438,722,439,-1,439,722,447,-1,437,430,719,-1,719,430,429,-1,719,429,713,-1,713,429,446,-1,713,446,723,-1,723,446,445,-1,723,445,420,-1,756,304,748,-1,748,304,303,-1,748,303,747,-1,747,303,302,-1,747,302,746,-1,746,302,285,-1,746,285,749,-1,749,285,284,-1,749,284,750,-1,750,284,301,-1,750,301,739,-1,739,301,300,-1,739,300,737,-1,737,300,299,-1,737,299,740,-1,740,299,298,-1,740,298,741,-1,741,298,297,-1,741,297,742,-1,742,297,296,-1,742,296,751,-1,751,296,295,-1,751,295,752,-1,752,295,294,-1,752,294,743,-1,743,294,293,-1,743,293,744,-1,744,293,292,-1,744,292,745,-1,745,292,291,-1,745,291,753,-1,753,291,310,-1,753,310,754,-1,754,310,309,-1,754,309,755,-1,755,309,308,-1,755,308,735,-1,735,308,282,-1,735,282,736,-1,736,282,281,-1,736,281,738,-1,738,281,307,-1,738,307,757,-1,757,307,306,-1,757,306,758,-1,758,306,305,-1,758,305,756,-1,756,305,304,-1,776,506,759,-1,759,506,505,-1,759,505,762,-1,762,505,504,-1,762,504,763,-1,763,504,503,-1,763,503,764,-1,764,503,502,-1,764,502,765,-1,765,502,515,-1,765,515,766,-1,766,515,514,-1,766,514,767,-1,767,514,513,-1,767,513,760,-1,760,513,512,-1,760,512,761,-1,761,512,511,-1,761,511,768,-1,768,511,509,-1,768,509,769,-1,769,509,508,-1,769,508,770,-1,770,508,521,-1,770,521,771,-1,771,521,520,-1,771,520,772,-1,772,520,519,-1,772,519,773,-1,773,519,518,-1,773,518,774,-1,774,518,517,-1,774,517,775,-1,775,517,516,-1,775,516,781,-1,781,516,524,-1,781,524,780,-1,780,524,523,-1,780,523,778,-1,778,523,522,-1,778,522,779,-1,779,522,501,-1,779,501,782,-1,782,501,500,-1,782,500,777,-1,777,500,507,-1,777,507,776,-1,776,507,506,-1,56,783,788,-1,793,73,72,-1,793,72,792,-1,792,72,63,-1,792,63,791,-1,63,62,791,-1,791,62,87,-1,791,87,785,-1,785,87,86,-1,785,86,786,-1,86,85,786,-1,786,85,81,-1,786,81,787,-1,787,81,80,-1,787,80,788,-1,788,80,79,-1,788,79,56,-1,78,794,790,-1,71,70,784,-1,784,70,789,-1,70,69,789,-1,789,69,93,-1,789,93,797,-1,797,93,92,-1,797,92,798,-1,88,795,89,-1,89,795,796,-1,89,796,90,-1,90,796,798,-1,90,798,91,-1,91,798,92,-1,88,84,795,-1,795,84,83,-1,795,83,790,-1,790,83,82,-1,790,82,78,-1,78,77,794,-1,794,77,76,-1,794,76,799,-1,799,76,75,-1,75,74,799,-1,799,74,73,-1,799,73,793,-1,71,784,56,-1,56,784,783,-1,802,98,803,-1,803,98,97,-1,801,99,802,-1,802,99,98,-1,99,801,101,-1,101,801,800,-1,101,800,102,-1,102,800,805,-1,807,106,805,-1,805,106,102,-1,806,103,807,-1,807,103,106,-1,103,806,104,-1,104,806,808,-1,809,105,808,-1,808,105,104,-1,810,94,809,-1,809,94,105,-1,811,95,810,-1,810,95,94,-1,95,811,96,-1,96,811,804,-1,803,97,804,-1,804,97,96,-1,119,151,813,-1,813,151,814,-1,151,134,814,-1,814,134,133,-1,814,133,816,-1,816,133,182,-1,816,182,817,-1,122,821,819,-1,182,150,817,-1,817,150,149,-1,817,149,819,-1,819,149,148,-1,819,148,122,-1,122,121,821,-1,821,121,120,-1,821,120,844,-1,844,120,174,-1,844,174,845,-1,845,174,115,-1,845,115,847,-1,847,115,114,-1,847,114,853,-1,114,113,853,-1,853,113,118,-1,853,118,855,-1,855,118,117,-1,855,117,856,-1,856,117,200,-1,856,200,831,-1,831,200,199,-1,831,199,867,-1,199,198,867,-1,867,198,197,-1,867,197,868,-1,197,196,868,-1,868,196,195,-1,868,195,870,-1,870,195,194,-1,870,194,872,-1,872,194,109,-1,109,108,872,-1,872,108,201,-1,872,201,873,-1,873,201,202,-1,873,202,203,-1,205,825,203,-1,203,825,824,-1,203,824,873,-1,205,204,825,-1,825,204,110,-1,825,110,833,-1,833,110,180,-1,833,180,835,-1,835,180,179,-1,835,179,858,-1,179,178,858,-1,858,178,177,-1,858,177,859,-1,859,177,176,-1,859,176,864,-1,864,176,175,-1,864,175,862,-1,862,175,210,-1,862,210,860,-1,860,210,209,-1,860,209,843,-1,209,187,843,-1,843,187,186,-1,843,186,841,-1,841,186,185,-1,841,185,839,-1,125,837,184,-1,184,837,839,-1,184,839,183,-1,183,839,185,-1,812,123,813,-1,813,123,119,-1,126,822,846,-1,171,842,172,-1,172,842,840,-1,172,840,173,-1,173,840,838,-1,173,838,124,-1,171,147,842,-1,842,147,146,-1,842,146,861,-1,146,145,861,-1,861,145,132,-1,861,132,863,-1,132,131,863,-1,863,131,130,-1,863,130,865,-1,865,130,129,-1,865,129,866,-1,129,144,866,-1,866,144,143,-1,866,143,826,-1,826,143,142,-1,826,142,827,-1,827,142,170,-1,827,170,828,-1,170,169,828,-1,828,169,168,-1,828,168,857,-1,857,168,167,-1,857,167,836,-1,163,832,161,-1,161,832,834,-1,161,834,165,-1,165,834,836,-1,165,836,166,-1,166,836,167,-1,163,164,832,-1,832,164,193,-1,832,193,823,-1,193,192,823,-1,823,192,191,-1,823,191,871,-1,191,208,871,-1,871,208,207,-1,871,207,869,-1,189,829,190,-1,190,829,869,-1,190,869,206,-1,206,869,207,-1,189,188,829,-1,829,188,160,-1,829,160,830,-1,160,159,830,-1,830,159,158,-1,830,158,854,-1,158,157,854,-1,854,157,156,-1,854,156,852,-1,156,155,852,-1,852,155,141,-1,852,141,851,-1,851,141,140,-1,851,140,850,-1,140,139,850,-1,850,139,135,-1,850,135,849,-1,135,137,849,-1,849,137,138,-1,849,138,848,-1,848,138,128,-1,848,128,846,-1,846,128,127,-1,846,127,126,-1,126,112,822,-1,822,112,111,-1,822,111,820,-1,111,116,820,-1,820,116,154,-1,820,154,818,-1,123,812,181,-1,181,812,815,-1,181,815,152,-1,152,815,818,-1,152,818,153,-1,153,818,154,-1,124,838,125,-1,125,838,837,-1,878,213,876,-1,876,213,212,-1,879,215,878,-1,878,215,213,-1,215,879,217,-1,217,879,877,-1,217,877,218,-1,218,877,322,-1,322,877,875,-1,322,875,214,-1,214,875,874,-1,214,874,211,-1,876,212,874,-1,874,212,211,-1,884,900,882,-1,882,900,901,-1,900,884,375,-1,375,884,885,-1,375,885,19,-1,289,288,902,-1,903,226,230,-1,230,279,903,-1,903,279,277,-1,903,277,902,-1,902,277,275,-1,902,275,289,-1,882,901,880,-1,880,901,13,-1,880,13,15,-1,904,905,906,-1,906,905,886,-1,906,886,888,-1,893,892,887,-1,887,892,907,-1,887,907,888,-1,888,907,906,-1,894,908,892,-1,892,908,907,-1,894,895,890,-1,889,909,890,-1,890,909,908,-1,890,908,894,-1,910,911,891,-1,891,911,909,-1,891,909,889,-1,544,912,913,-1,905,904,914,-1,914,904,915,-1,914,915,913,-1,913,915,545,-1,913,545,544,-1,543,916,917,-1,903,902,912,-1,917,903,543,-1,543,903,912,-1,543,912,542,-1,542,912,544,-1,542,544,918,-1,918,544,919,-1,911,910,920,-1,920,910,921,-1,920,921,898,-1,898,921,912,-1,898,912,899,-1,899,912,902,-1,899,902,922,-1,922,902,923,-1,312,311,896,-1,312,896,313,-1,897,920,896,-1,896,920,898,-1,896,898,313,-1,897,527,526,-1,897,526,920,-1,920,526,525,-1,920,525,541,-1,43,33,545,-1,14,13,901,-1,14,901,0,-1,375,43,900,-1,900,43,545,-1,900,545,901,-1,901,545,915,-1,901,915,0,-1,0,915,1,-1,904,906,529,-1,529,906,907,-1,1,915,2,-1,2,915,904,-1,2,904,528,-1,528,904,529,-1,537,536,908,-1,908,536,535,-1,908,535,907,-1,541,540,920,-1,920,540,539,-1,920,539,911,-1,535,534,907,-1,907,534,533,-1,907,533,532,-1,908,909,537,-1,537,909,911,-1,537,911,538,-1,538,911,539,-1,532,531,907,-1,907,531,530,-1,907,530,529,-1,286,283,922,-1,922,283,899,-1,288,287,902,-1,902,287,923,-1,287,286,923,-1,923,286,922,-1,36,23,918,-1,918,23,542,-1,34,35,544,-1,544,35,919,-1,35,36,919,-1,919,36,918,-1,604,921,891,-1,891,921,910,-1,597,912,604,-1,604,912,921,-1,599,913,597,-1,597,913,912,-1,883,914,599,-1,599,914,913,-1,886,905,883,-1,883,905,914,-1,471,469,924,-1,924,469,925,-1,469,468,925,-1,925,468,926,-1,468,481,926,-1,926,481,927,-1,481,471,927,-1,927,471,924,-1,926,927,925,-1,925,927,924,-1,475,474,928,-1,928,474,929,-1,474,472,929,-1,929,472,930,-1,472,476,930,-1,930,476,931,-1,476,475,931,-1,931,475,928,-1,930,931,929,-1,929,931,928,-1,485,484,932,-1,932,484,933,-1,484,482,933,-1,933,482,934,-1,482,486,934,-1,934,486,935,-1,486,485,935,-1,935,485,932,-1,934,935,933,-1,933,935,932,-1,480,478,936,-1,936,478,937,-1,478,477,937,-1,937,477,938,-1,477,490,938,-1,938,490,939,-1,490,480,939,-1,939,480,936,-1,938,939,937,-1,937,939,936,-1,383,382,940,-1,940,382,941,-1,382,381,941,-1,941,381,942,-1,381,385,942,-1,942,385,943,-1,385,383,943,-1,943,383,940,-1,942,943,941,-1,941,943,940,-1,388,387,944,-1,944,387,945,-1,387,386,945,-1,945,386,946,-1,386,389,946,-1,946,389,947,-1,389,388,947,-1,947,388,944,-1,946,947,945,-1,945,947,944,-1,246,226,917,-1,917,226,903,-1,221,247,543,-1,543,247,916,-1,247,246,916,-1,916,246,917,-1,948,379,949,-1,949,379,378,-1,949,378,950,-1,950,378,376,-1,950,376,951,-1,951,376,380,-1,951,380,948,-1,948,380,379,-1,950,951,949,-1,949,951,948,-1,952,374,953,-1,953,374,372,-1,953,372,954,-1,954,372,371,-1,954,371,955,-1,955,371,384,-1,955,384,952,-1,952,384,374,-1,954,955,953,-1,953,955,952,-1,956,494,957,-1,957,494,493,-1,957,493,958,-1,958,493,492,-1,958,492,959,-1,959,492,495,-1,959,495,956,-1,956,495,494,-1,958,959,957,-1,957,959,956,-1,960,489,961,-1,961,489,488,-1,961,488,962,-1,962,488,487,-1,962,487,963,-1,963,487,491,-1,963,491,960,-1,960,491,489,-1,962,963,961,-1,961,963,960,-1,
        ]
    }
}
Shape{
    appearance Appearance {
        material  Material 	{
            diffuseColor 0.7019607843137254 0.7019607843137254 0.7019607843137254
            specularColor 0.2 0.2 0.2
            ambientIntensity 1.0
            transparency 0.0
            shininess 0.5
        }
    }
    geometry IndexedFaceSet {
        ccw TRUE
        solid FALSE
        coord DEF co Coordinate {
            point [
                -1.4528 -0.5472 -1.2992, -1.5472 -0.5472 -1.2992, -1.4528 -0.4528 -1.2992, -1.5472 -0.4528 -1.2992, -1.626 -0.626 -1.1811, -1.626 -0.626 3.0315, -1.626 -0.374 -1.1811, -1.626 -0.374 3.0315, -1.374 -0.374 -1.1811, -1.374 -0.374 3.0315, -1.374 -0.626 -1.1811, -1.374 -0.626 3.0315, -1.5472 -0.5472 3.1496, -1.5472 -0.4528 3.1496, -1.4528 -0.4528 3.1496, -1.4528 -0.5472 3.1496, -1.4528 0.4528 -1.2992, -1.5472 0.4528 -1.2992, -1.4528 0.5472 -1.2992, -1.5472 0.5472 -1.2992, -1.626 0.374 -1.1811, -1.626 0.374 3.0315, -1.626 0.626 -1.1811, -1.626 0.626 3.0315, -1.374 0.626 -1.1811, -1.374 0.626 3.0315, -1.374 0.374 -1.1811, -1.374 0.374 3.0315, -1.5472 0.5472 3.1496, -1.5472 0.4528 3.1496, -1.4528 0.5472 3.1496, -1.4528 0.4528 3.1496, 2.5472 0.4528 -1.2992, 2.4528 0.4528 -1.2992, 2.5472 0.5472 -1.2992, 2.4528 0.5472 -1.2992, 2.374 0.374 -1.1811, 2.374 0.374 3.0315, 2.374 0.626 -1.1811, 2.374 0.626 3.0315, 2.626 0.626 -1.1811, 2.626 0.626 3.0315, 2.626 0.374 -1.1811, 2.626 0.374 3.0315, 2.4528 0.5472 3.1496, 2.4528 0.4528 3.1496, 2.5472 0.5472 3.1496, 2.5472 0.4528 3.1496, 2.5472 -0.5472 -1.2992, 2.4528 -0.5472 -1.2992, 2.5472 -0.4528 -1.2992, 2.4528 -0.4528 -1.2992, 2.374 -0.626 -1.1811, 2.374 -0.626 3.0315, 2.374 -0.374 -1.1811, 2.374 -0.374 3.0315, 2.626 -0.374 -1.1811, 2.626 -0.374 3.0315, 2.626 -0.626 -1.1811, 2.626 -0.626 3.0315, 2.4528 -0.5472 3.1496, 2.4528 -0.4528 3.1496, 2.5472 -0.4528 3.1496, 2.5472 -0.5472 3.1496, 3.5472 0.4528 -1.2992, 3.4528 0.4528 -1.2992, 3.5472 0.5472 -1.2992, 3.4528 0.5472 -1.2992, 3.374 0.374 -1.1811, 3.374 0.374 3.0315, 3.374 0.626 -1.1811, 3.374 0.626 3.0315, 3.626 0.626 -1.1811, 3.626 0.626 3.0315, 3.626 0.374 -1.1811, 3.626 0.374 3.0315, 3.4528 0.5472 3.1496, 3.4528 0.4528 3.1496, 3.5472 0.5472 3.1496, 3.5472 0.4528 3.1496, 3.5472 -0.5472 -1.2992, 3.4528 -0.5472 -1.2992, 3.5472 -0.4528 -1.2992, 3.4528 -0.4528 -1.2992, 3.374 -0.626 -1.1811, 3.374 -0.626 3.0315, 3.374 -0.374 -1.1811, 3.374 -0.374 3.0315, 3.626 -0.374 -1.1811, 3.626 -0.374 3.0315, 3.626 -0.626 -1.1811, 3.626 -0.626 3.0315, 3.4528 -0.5472 3.1496, 3.4528 -0.4528 3.1496, 3.5472 -0.4528 3.1496, 3.5472 -0.5472 3.1496, -3.4528 0.4528 -1.2992, -3.5472 0.4528 -1.2992, -3.4528 0.5472 -1.2992, -3.5472 0.5472 -1.2992, -3.626 0.374 -1.1811, -3.626 0.374 3.0315, -3.626 0.626 -1.1811, -3.626 0.626 3.0315, -3.374 0.626 -1.1811, -3.374 0.626 3.0315, -3.374 0.374 -1.1811, -3.374 0.374 3.0315, -3.5472 0.5472 3.1496, -3.5472 0.4528 3.1496, -3.4528 0.5472 3.1496, -3.4528 0.4528 3.1496, -3.4528 -0.5472 -1.2992, -3.5472 -0.5472 -1.2992, -3.4528 -0.4528 -1.2992, -3.5472 -0.4528 -1.2992, -3.626 -0.626 -1.1811, -3.626 -0.626 3.0315, -3.626 -0.374 -1.1811, -3.626 -0.374 3.0315, -3.374 -0.374 -1.1811, -3.374 -0.374 3.0315, -3.374 -0.626 -1.1811, -3.374 -0.626 3.0315, -3.5472 -0.5472 3.1496, -3.5472 -0.4528 3.1496, -3.4528 -0.4528 3.1496, -3.4528 -0.5472 3.1496
            ]
        }
        coordIndex [
            0,1,2,-1,2,1,3,-1,4,5,6,-1,6,5,7,-1,6,7,8,-1,8,7,9,-1,10,11,4,-1,4,11,5,-1,8,9,10,-1,10,9,11,-1,5,12,7,-1,7,12,13,-1,14,9,13,-1,13,9,7,-1,14,13,15,-1,15,13,12,-1,12,5,15,-1,15,5,11,-1,15,11,14,-1,14,11,9,-1,1,4,3,-1,3,4,6,-1,0,10,1,-1,1,10,4,-1,8,2,6,-1,6,2,3,-1,2,8,0,-1,0,8,10,-1,16,17,18,-1,18,17,19,-1,20,21,22,-1,22,21,23,-1,22,23,24,-1,24,23,25,-1,26,27,20,-1,20,27,21,-1,24,25,26,-1,26,25,27,-1,28,23,29,-1,29,23,21,-1,23,28,25,-1,25,28,30,-1,30,28,31,-1,31,28,29,-1,29,21,31,-1,31,21,27,-1,31,27,30,-1,30,27,25,-1,17,20,19,-1,19,20,22,-1,16,26,17,-1,17,26,20,-1,24,18,22,-1,22,18,19,-1,18,24,16,-1,16,24,26,-1,32,33,34,-1,34,33,35,-1,36,37,38,-1,38,37,39,-1,38,39,40,-1,40,39,41,-1,42,43,36,-1,36,43,37,-1,40,41,42,-1,42,41,43,-1,44,39,45,-1,45,39,37,-1,39,44,41,-1,41,44,46,-1,46,44,47,-1,47,44,45,-1,45,37,47,-1,47,37,43,-1,47,43,46,-1,46,43,41,-1,33,36,35,-1,35,36,38,-1,32,42,33,-1,33,42,36,-1,40,34,38,-1,38,34,35,-1,34,40,32,-1,32,40,42,-1,48,49,50,-1,50,49,51,-1,52,53,54,-1,54,53,55,-1,54,55,56,-1,56,55,57,-1,58,59,52,-1,52,59,53,-1,56,57,58,-1,58,57,59,-1,53,60,55,-1,55,60,61,-1,62,57,61,-1,61,57,55,-1,62,61,63,-1,63,61,60,-1,60,53,63,-1,63,53,59,-1,63,59,62,-1,62,59,57,-1,49,52,51,-1,51,52,54,-1,48,58,49,-1,49,58,52,-1,56,50,54,-1,54,50,51,-1,50,56,48,-1,48,56,58,-1,64,65,66,-1,66,65,67,-1,68,69,70,-1,70,69,71,-1,70,71,72,-1,72,71,73,-1,74,75,68,-1,68,75,69,-1,72,73,74,-1,74,73,75,-1,76,71,77,-1,77,71,69,-1,71,76,73,-1,73,76,78,-1,78,76,79,-1,79,76,77,-1,77,69,79,-1,79,69,75,-1,79,75,78,-1,78,75,73,-1,65,68,67,-1,67,68,70,-1,64,74,65,-1,65,74,68,-1,72,66,70,-1,70,66,67,-1,66,72,64,-1,64,72,74,-1,80,81,82,-1,82,81,83,-1,84,85,86,-1,86,85,87,-1,86,87,88,-1,88,87,89,-1,90,91,84,-1,84,91,85,-1,88,89,90,-1,90,89,91,-1,85,92,87,-1,87,92,93,-1,94,89,93,-1,93,89,87,-1,94,93,95,-1,95,93,92,-1,92,85,95,-1,95,85,91,-1,95,91,94,-1,94,91,89,-1,81,84,83,-1,83,84,86,-1,80,90,81,-1,81,90,84,-1,88,82,86,-1,86,82,83,-1,82,88,80,-1,80,88,90,-1,96,97,98,-1,98,97,99,-1,100,101,102,-1,102,101,103,-1,102,103,104,-1,104,103,105,-1,106,107,100,-1,100,107,101,-1,104,105,106,-1,106,105,107,-1,108,103,109,-1,109,103,101,-1,103,108,105,-1,105,108,110,-1,110,108,111,-1,111,108,109,-1,109,101,111,-1,111,101,107,-1,111,107,110,-1,110,107,105,-1,97,100,99,-1,99,100,102,-1,96,106,97,-1,97,106,100,-1,104,98,102,-1,102,98,99,-1,98,104,96,-1,96,104,106,-1,112,113,114,-1,114,113,115,-1,116,117,118,-1,118,117,119,-1,118,119,120,-1,120,119,121,-1,122,123,116,-1,116,123,117,-1,120,121,122,-1,122,121,123,-1,117,124,119,-1,119,124,125,-1,126,121,125,-1,125,121,119,-1,126,125,127,-1,127,125,124,-1,124,117,127,-1,127,117,123,-1,127,123,126,-1,126,123,121,-1,113,116,115,-1,115,116,118,-1,112,122,113,-1,113,122,116,-1,120,114,118,-1,118,114,115,-1,114,120,112,-1,112,120,122,-1,
        ]
    }
}