%TF.GenerationSoftware,KiCad,Pcbnew,10.0.0*%
%TF.CreationDate,2026-07-02T13:10:19+10:00*%
%TF.ProjectId,pressure_sense,70726573-7375-4726-955f-73656e73652e,0*%
%TF.SameCoordinates,Original*%
%TF.FileFunction,Copper,L1,Top*%
%TF.FilePolarity,Positive*%
%FSLAX46Y46*%
G04 Gerber Fmt 4.6, Leading zero omitted, Abs format (unit mm)*
G04 Created by KiCad (PCBNEW 10.0.0) date 2026-07-02 13:10:19*
%MOMM*%
%LPD*%
G01*
G04 APERTURE LIST*
G04 Aperture macros list*
%AMRoundRect*
0 Rectangle with rounded corners*
0 $1 Rounding radius*
0 $2 $3 $4 $5 $6 $7 $8 $9 X,Y pos of 4 corners*
0 Add a 4 corners polygon primitive as box body*
4,1,4,$2,$3,$4,$5,$6,$7,$8,$9,$2,$3,0*
0 Add four circle primitives for the rounded corners*
1,1,$1+$1,$2,$3*
1,1,$1+$1,$4,$5*
1,1,$1+$1,$6,$7*
1,1,$1+$1,$8,$9*
0 Add four rect primitives between the rounded corners*
20,1,$1+$1,$2,$3,$4,$5,0*
20,1,$1+$1,$4,$5,$6,$7,0*
20,1,$1+$1,$6,$7,$8,$9,0*
20,1,$1+$1,$8,$9,$2,$3,0*%
%AMHorizOval*
0 Thick line with rounded ends*
0 $1 width*
0 $2 $3 position (X,Y) of the first rounded end (center of the circle)*
0 $4 $5 position (X,Y) of the second rounded end (center of the circle)*
0 Add line between two ends*
20,1,$1,$2,$3,$4,$5,0*
0 Add two circle primitives to create the rounded ends*
1,1,$1,$2,$3*
1,1,$1,$4,$5*%
%AMRotRect*
0 Rectangle, with rotation*
0 The origin of the aperture is its center*
0 $1 length*
0 $2 width*
0 $3 Rotation angle, in degrees counterclockwise*
0 Add horizontal line*
21,1,$1,$2,0,0,$3*%
%AMFreePoly0*
4,1,9,0.299900,-0.649900,0.000000,-0.649900,0.000000,-0.650100,-0.300000,-0.650100,-0.300000,0.649900,-0.000100,0.649900,-0.000100,0.650100,0.299900,0.650100,0.299900,-0.649900,0.299900,-0.649900,$1*%
%AMFreePoly1*
4,1,7,0.300000,-0.649999,0.000100,-0.650000,0.000100,-0.650100,-0.299900,-0.650100,-0.299900,0.649900,0.300000,0.649900,0.300000,-0.649999,0.300000,-0.649999,$1*%
%AMFreePoly2*
4,1,5,0.299900,-0.649900,-0.300100,-0.649900,-0.300100,0.650100,0.299900,0.650100,0.299900,-0.649900,0.299900,-0.649900,$1*%
%AMFreePoly3*
4,1,5,0.299900,-0.649900,-0.300200,-0.649900,-0.300200,0.650101,0.299900,0.650100,0.299900,-0.649900,0.299900,-0.649900,$1*%
G04 Aperture macros list end*
%TA.AperFunction,SMDPad,CuDef*%
%ADD10RoundRect,0.135000X-0.135000X-0.185000X0.135000X-0.185000X0.135000X0.185000X-0.135000X0.185000X0*%
%TD*%
%TA.AperFunction,SMDPad,CuDef*%
%ADD11RotRect,0.800000X0.800000X45.000000*%
%TD*%
%TA.AperFunction,SMDPad,CuDef*%
%ADD12RotRect,0.500000X0.540000X135.000000*%
%TD*%
%TA.AperFunction,SMDPad,CuDef*%
%ADD13RotRect,0.500000X0.540000X315.000000*%
%TD*%
%TA.AperFunction,SMDPad,CuDef*%
%ADD14RotRect,0.500000X0.540000X225.000000*%
%TD*%
%TA.AperFunction,ComponentPad*%
%ADD15HorizOval,1.200000X0.282843X0.282843X-0.282843X-0.282843X0*%
%TD*%
%TA.AperFunction,ComponentPad*%
%ADD16HorizOval,1.200000X0.212132X0.212132X-0.212132X-0.212132X0*%
%TD*%
%TA.AperFunction,SMDPad,CuDef*%
%ADD17FreePoly0,135.000000*%
%TD*%
%TA.AperFunction,SMDPad,CuDef*%
%ADD18FreePoly1,135.000000*%
%TD*%
%TA.AperFunction,SMDPad,CuDef*%
%ADD19RotRect,0.300000X1.300000X135.000000*%
%TD*%
%TA.AperFunction,SMDPad,CuDef*%
%ADD20FreePoly2,135.000000*%
%TD*%
%TA.AperFunction,SMDPad,CuDef*%
%ADD21FreePoly3,135.000000*%
%TD*%
%TA.AperFunction,ComponentPad*%
%ADD22HorizOval,1.524000X0.000000X0.000000X0.000000X0.000000X0*%
%TD*%
%TA.AperFunction,SMDPad,CuDef*%
%ADD23HorizOval,0.602000X0.484015X0.484015X-0.484015X-0.484015X0*%
%TD*%
%TA.AperFunction,SMDPad,CuDef*%
%ADD24RotRect,3.500000X1.200000X225.000000*%
%TD*%
%TA.AperFunction,SMDPad,CuDef*%
%ADD25R,0.500000X0.540000*%
%TD*%
%TA.AperFunction,SMDPad,CuDef*%
%ADD26HorizOval,0.602000X-0.484015X0.484015X0.484015X-0.484015X0*%
%TD*%
%TA.AperFunction,ComponentPad*%
%ADD27R,1.600000X1.600000*%
%TD*%
%TA.AperFunction,ComponentPad*%
%ADD28O,1.600000X1.600000*%
%TD*%
%TA.AperFunction,SMDPad,CuDef*%
%ADD29RoundRect,0.135000X0.226274X0.035355X0.035355X0.226274X-0.226274X-0.035355X-0.035355X-0.226274X0*%
%TD*%
%TA.AperFunction,ComponentPad*%
%ADD30HorizOval,1.800000X0.000000X0.000000X0.000000X0.000000X0*%
%TD*%
%TA.AperFunction,SMDPad,CuDef*%
%ADD31HorizOval,0.308000X0.359210X0.359210X-0.359210X-0.359210X0*%
%TD*%
%TA.AperFunction,ComponentPad*%
%ADD32HorizOval,2.000000X0.000000X0.000000X0.000000X0.000000X0*%
%TD*%
%TA.AperFunction,SMDPad,CuDef*%
%ADD33HorizOval,0.308000X-0.359210X0.359210X0.359210X-0.359210X0*%
%TD*%
%TA.AperFunction,ComponentPad*%
%ADD34HorizOval,1.524000X0.000000X0.000000X0.000000X0.000000X0*%
%TD*%
%TA.AperFunction,SMDPad,CuDef*%
%ADD35RotRect,4.500000X1.650000X45.000000*%
%TD*%
%TA.AperFunction,SMDPad,CuDef*%
%ADD36RoundRect,0.135000X-0.035355X0.226274X-0.226274X0.035355X0.035355X-0.226274X0.226274X-0.035355X0*%
%TD*%
%TA.AperFunction,ComponentPad*%
%ADD37O,2.000000X2.000000*%
%TD*%
%TA.AperFunction,SMDPad,CuDef*%
%ADD38RoundRect,0.135000X0.035355X-0.226274X0.226274X-0.035355X-0.035355X0.226274X-0.226274X0.035355X0*%
%TD*%
%TA.AperFunction,ViaPad*%
%ADD39C,0.600000*%
%TD*%
%TA.AperFunction,Conductor*%
%ADD40C,0.200000*%
%TD*%
%TA.AperFunction,Conductor*%
%ADD41C,0.600000*%
%TD*%
%TA.AperFunction,Conductor*%
%ADD42C,2.000000*%
%TD*%
%TA.AperFunction,Conductor*%
%ADD43C,1.000000*%
%TD*%
%TA.AperFunction,Conductor*%
%ADD44C,1.628500*%
%TD*%
%TA.AperFunction,Conductor*%
%ADD45C,0.700000*%
%TD*%
%TA.AperFunction,Conductor*%
%ADD46C,0.500000*%
%TD*%
G04 APERTURE END LIST*
D10*
%TO.P,R3,1*%
%TO.N,/D5*%
X93821710Y-72500000D03*
%TO.P,R3,2*%
%TO.N,Net-(LED1-DI)*%
X94841708Y-72500000D03*
%TD*%
D11*
%TO.P,LED1,2,GND_2*%
%TO.N,GND*%
X98322809Y-71299515D03*
%TO.P,LED1,3,DI_3*%
%TO.N,Net-(LED1-DI)*%
X97099373Y-72522668D03*
%TO.P,LED1,4,VDD_4*%
%TO.N,+5V*%
X97877261Y-73300556D03*
%TO.P,LED1,1,DO_1*%
%TO.N,/Dout*%
X99100698Y-72077403D03*
%TD*%
D12*
%TO.P,C9,2*%
%TO.N,GND*%
X95745837Y-74260051D03*
%TO.P,C9,1*%
%TO.N,+5V*%
X96339949Y-74854163D03*
%TD*%
D13*
%TO.P,C7,1*%
%TO.N,+3.3V*%
X112935759Y-65315048D03*
%TO.P,C7,2*%
%TO.N,GND*%
X113529871Y-65909160D03*
%TD*%
D14*
%TO.P,C3,1*%
%TO.N,+3.3V*%
X75380894Y-71424026D03*
%TO.P,C3,2*%
%TO.N,GND*%
X74786782Y-72018138D03*
%TD*%
D15*
%TO.P,USBC1,1,EH_1*%
%TO.N,GND*%
X121366345Y-43080747D03*
D16*
%TO.P,USBC1,2,EH_2*%
X124321910Y-40125183D03*
%TO.P,USBC1,3,EH_3*%
X130438525Y-46241798D03*
D15*
%TO.P,USBC1,4,EH_4*%
X127482961Y-49197363D03*
D17*
%TO.P,USBC1,A1B12,GND_A1B12*%
X126143983Y-48945067D03*
D18*
%TO.P,USBC1,A4B9,VBUS_A4B9*%
%TO.N,+5V*%
X125578368Y-48379452D03*
D19*
%TO.P,USBC1,A5,CC1_A5*%
%TO.N,Net-(USBC1-CC1)*%
X124765125Y-47566209D03*
%TO.P,USBC1,A6,DP1_A6*%
%TO.N,unconnected-(USBC1-DP1-PadA6)*%
X124058018Y-46859102D03*
%TO.P,USBC1,A7,DN1_A7*%
%TO.N,unconnected-(USBC1-DN1-PadA7)*%
X123704606Y-46505690D03*
%TO.P,USBC1,A8,SBU1_A8*%
%TO.N,unconnected-(USBC1-SBU1-PadA8)*%
X122997641Y-45798725D03*
D20*
%TO.P,USBC1,B1A12,GND_B1A12*%
%TO.N,GND*%
X121618500Y-44419583D03*
D21*
%TO.P,USBC1,B4A9,VBUS_B4A9*%
%TO.N,+5V*%
X122184044Y-44985127D03*
D19*
%TO.P,USBC1,B5,CC2_B5*%
%TO.N,Net-(USBC1-CC2)*%
X122643805Y-45444888D03*
%TO.P,USBC1,B6,DP2_B6*%
%TO.N,unconnected-(USBC1-DP2-PadB6)*%
X123350911Y-46151995D03*
%TO.P,USBC1,B7,DN2_B7*%
%TO.N,unconnected-(USBC1-DN2-PadB7)*%
X124411713Y-47212797D03*
%TO.P,USBC1,B8,SBU2_B8*%
%TO.N,unconnected-(USBC1-SBU2-PadB8)*%
X125118820Y-47919903D03*
%TD*%
D22*
%TO.P,JB1,1,Pin_1_1*%
%TO.N,/I0B*%
X84230335Y-90066897D03*
%TO.P,JB1,2,Pin_2_2*%
%TO.N,/I1B*%
X82434284Y-91862948D03*
%TO.P,JB1,3,Pin_3_3*%
%TO.N,/I2B*%
X82434284Y-88270845D03*
%TO.P,JB1,4,Pin_4_4*%
%TO.N,/I3B*%
X80638232Y-90066897D03*
%TO.P,JB1,5,Pin_5_5*%
%TO.N,/I4B*%
X80638232Y-86474794D03*
%TO.P,JB1,6,Pin_6_6*%
%TO.N,/I5B*%
X78842181Y-88270845D03*
%TO.P,JB1,7,Pin_7_7*%
%TO.N,/I6B*%
X78842181Y-84678743D03*
%TO.P,JB1,8,Pin_8_8*%
%TO.N,/I7B*%
X77046130Y-86474794D03*
%TO.P,JB1,9,Pin_9_9*%
%TO.N,/I14B*%
X77046130Y-82882692D03*
%TO.P,JB1,10,Pin_10_10*%
%TO.N,/I15B*%
X75250079Y-84678743D03*
%TO.P,JB1,11,Pin_11_11*%
%TO.N,/I12B*%
X75250079Y-81086641D03*
%TO.P,JB1,12,Pin_12_12*%
%TO.N,/I13B*%
X73454028Y-82882692D03*
%TO.P,JB1,13,Pin_13_13*%
%TO.N,/I10B*%
X73454028Y-79290589D03*
%TO.P,JB1,14,Pin_14_14*%
%TO.N,/I11B*%
X71657976Y-81086641D03*
%TO.P,JB1,15,Pin_15_15*%
%TO.N,/I8B*%
X71657976Y-77494538D03*
%TO.P,JB1,16,Pin_16_16*%
%TO.N,/I9B*%
X69861925Y-79290589D03*
%TD*%
D23*
%TO.P,UB1,1,CLR#_1*%
%TO.N,/D7*%
X93798338Y-68138667D03*
%TO.P,UB1,2,CLK_2*%
%TO.N,/D6*%
X92900312Y-67240642D03*
%TO.P,UB1,3,A_3*%
%TO.N,GND*%
X92002287Y-66342616D03*
%TO.P,UB1,4,B_4*%
X91104261Y-65444590D03*
%TO.P,UB1,5,C_5*%
X90206236Y-64546565D03*
%TO.P,UB1,6,D_6*%
X89308210Y-63648539D03*
%TO.P,UB1,7,ENP_7*%
%TO.N,/RCO*%
X88410184Y-62750514D03*
%TO.P,UB1,8,GND_8*%
%TO.N,GND*%
X87512159Y-61852488D03*
%TO.P,UB1,9,LOAD#_9*%
%TO.N,+3.3V*%
X83643436Y-65721211D03*
%TO.P,UB1,10,ENT_10*%
X84541462Y-66619236D03*
%TO.P,UB1,11,QD_11*%
%TO.N,/QD2*%
X85439487Y-67517262D03*
%TO.P,UB1,12,QC_12*%
%TO.N,/QC2*%
X86337513Y-68415288D03*
%TO.P,UB1,13,QB_13*%
%TO.N,/QB2*%
X87235538Y-69313313D03*
%TO.P,UB1,14,QA_14*%
%TO.N,/QA2*%
X88133564Y-70211339D03*
%TO.P,UB1,15,RCO_15*%
%TO.N,unconnected-(UB1-RCO-Pad15)*%
X89031590Y-71109364D03*
%TO.P,UB1,16,VCC_16*%
%TO.N,+3.3V*%
X89929615Y-72007390D03*
%TD*%
D24*
%TO.P,C6,1*%
%TO.N,+5V*%
X126432306Y-63290602D03*
%TO.P,C6,2*%
%TO.N,GND*%
X122656356Y-67066552D03*
%TD*%
D25*
%TO.P,C1,1*%
%TO.N,/D4*%
X79179900Y-54275800D03*
%TO.P,C1,2*%
%TO.N,GND*%
X80020100Y-54275800D03*
%TD*%
D26*
%TO.P,UA1,1,CLR#_1*%
%TO.N,/D7*%
X107599613Y-62913749D03*
%TO.P,UA1,2,CLK_2*%
%TO.N,/D6*%
X106701588Y-63811775D03*
%TO.P,UA1,3,A_3*%
%TO.N,GND*%
X105803562Y-64709800D03*
%TO.P,UA1,4,B_4*%
X104905536Y-65607826D03*
%TO.P,UA1,5,C_5*%
X104007511Y-66505851D03*
%TO.P,UA1,6,D_6*%
X103109485Y-67403877D03*
%TO.P,UA1,7,ENP_7*%
%TO.N,+3.3V*%
X102211460Y-68301903D03*
%TO.P,UA1,8,GND_8*%
%TO.N,GND*%
X101313434Y-69199928D03*
%TO.P,UA1,9,LOAD#_9*%
%TO.N,+3.3V*%
X105182157Y-73068651D03*
%TO.P,UA1,10,ENT_10*%
X106080182Y-72170625D03*
%TO.P,UA1,11,QD_11*%
%TO.N,/QD1*%
X106978208Y-71272600D03*
%TO.P,UA1,12,QC_12*%
%TO.N,/QC1*%
X107876234Y-70374574D03*
%TO.P,UA1,13,QB_13*%
%TO.N,/QB1*%
X108774259Y-69476549D03*
%TO.P,UA1,14,QA_14*%
%TO.N,/QA1*%
X109672285Y-68578523D03*
%TO.P,UA1,15,RCO_15*%
%TO.N,/RCO*%
X110570310Y-67680497D03*
%TO.P,UA1,16,VCC_16*%
%TO.N,+3.3V*%
X111468336Y-66782472D03*
%TD*%
D25*
%TO.P,C4,1*%
%TO.N,+5V*%
X122270100Y-60224200D03*
%TO.P,C4,2*%
%TO.N,GND*%
X121429900Y-60224200D03*
%TD*%
D27*
%TO.P,JL1,1,Pin_1_1*%
%TO.N,+3.3V*%
X71529974Y-57228858D03*
D28*
%TO.P,JL1,2,Pin_2_2*%
X74069973Y-57228858D03*
%TO.P,JL1,3,Pin_3_3*%
%TO.N,/RST*%
X76609975Y-57228858D03*
%TO.P,JL1,4,Pin_4_4*%
%TO.N,/D4*%
X79149974Y-57228858D03*
%TO.P,JL1,5,Pin_5_5*%
%TO.N,/D5*%
X81689974Y-57228858D03*
%TO.P,JL1,6,Pin_6_6*%
%TO.N,/D6*%
X84229974Y-57228858D03*
%TO.P,JL1,7,Pin_7_7*%
%TO.N,/D7*%
X86769973Y-57228858D03*
%TO.P,JL1,8,Pin_8_8*%
%TO.N,/D15*%
X89309974Y-57228858D03*
%TO.P,JL1,9,Pin_9_9*%
%TO.N,/D16*%
X91849974Y-57228858D03*
%TO.P,JL1,10,Pin_10_10*%
%TO.N,/D17*%
X94389974Y-57228858D03*
%TO.P,JL1,11,Pin_11_11*%
%TO.N,/D18*%
X96929973Y-57228858D03*
%TO.P,JL1,12,Pin_12_12*%
%TO.N,/D8*%
X99469975Y-57228858D03*
%TO.P,JL1,13,Pin_13_13*%
%TO.N,/D3*%
X102009974Y-57228858D03*
%TO.P,JL1,14,Pin_14_14*%
%TO.N,/D46*%
X104549974Y-57228858D03*
%TO.P,JL1,15,Pin_15_15*%
%TO.N,/D9*%
X107089974Y-57228858D03*
%TO.P,JL1,16,Pin_16_16*%
%TO.N,/D10*%
X109629975Y-57228858D03*
%TO.P,JL1,17,Pin_17_17*%
%TO.N,/D11*%
X112169974Y-57228858D03*
%TO.P,JL1,18,Pin_18_18*%
%TO.N,/D12*%
X114709974Y-57228858D03*
%TO.P,JL1,19,Pin_19_19*%
%TO.N,/D13*%
X117249974Y-57228858D03*
%TO.P,JL1,20,Pin_20_20*%
%TO.N,/D14*%
X119789973Y-57228858D03*
%TO.P,JL1,21,Pin_21_21*%
%TO.N,+5V*%
X122329975Y-57228858D03*
%TO.P,JL1,22,Pin_22_22*%
%TO.N,GND*%
X124869974Y-57228858D03*
%TD*%
D29*
%TO.P,R4,1*%
%TO.N,+3.3V*%
X82299933Y-63529179D03*
%TO.P,R4,2*%
%TO.N,Net-(R4-Pad2)*%
X81578685Y-62807931D03*
%TD*%
D30*
%TO.P,RV1,1,1_1*%
%TO.N,unconnected-(RV1-Pad1)*%
X74740962Y-63380687D03*
%TO.P,RV1,2,2_2*%
%TO.N,/D4*%
X78333065Y-63380687D03*
%TO.P,RV1,3,3_3*%
%TO.N,Net-(R4-Pad2)*%
X78333065Y-66972790D03*
%TD*%
D31*
%TO.P,UA2,1,COMMON_INOUT/OUTPUT_1*%
%TO.N,GND*%
X117962299Y-74238878D03*
%TO.P,UA2,2,I7_2*%
%TO.N,/I7A*%
X117502750Y-73779329D03*
%TO.P,UA2,3,I6_3*%
%TO.N,/I6A*%
X117043131Y-73319710D03*
%TO.P,UA2,4,I5_4*%
%TO.N,/I5A*%
X116583511Y-72860090D03*
%TO.P,UA2,5,I4_5*%
%TO.N,/I4A*%
X116123892Y-72400471D03*
%TO.P,UA2,6,I3_6*%
%TO.N,/I3A*%
X115664131Y-71940710D03*
%TO.P,UA2,7,I2_7*%
%TO.N,/I2A*%
X115204512Y-71481091D03*
%TO.P,UA2,8,I1_8*%
%TO.N,/I1A*%
X114744892Y-71021471D03*
%TO.P,UA2,9,I0_9*%
%TO.N,/I0A*%
X114285273Y-70561852D03*
%TO.P,UA2,10,S0_10*%
%TO.N,/QB1*%
X113825653Y-70102232D03*
%TO.P,UA2,11,S1_11*%
%TO.N,/QA1*%
X113366034Y-69642613D03*
%TO.P,UA2,12,GND_12*%
%TO.N,GND*%
X112906485Y-69183064D03*
%TO.P,UA2,13,S3_13*%
%TO.N,/QD1*%
X107868915Y-74220634D03*
%TO.P,UA2,14,S2_14*%
%TO.N,/QC1*%
X108328464Y-74680183D03*
%TO.P,UA2,15,E#_15*%
%TO.N,GND*%
X108788083Y-75139802D03*
%TO.P,UA2,16,I15_16*%
%TO.N,/I15A*%
X109247703Y-75599422D03*
%TO.P,UA2,17,I14_17*%
%TO.N,/I14A*%
X109707322Y-76059041D03*
%TO.P,UA2,18,I13_18*%
%TO.N,/I13A*%
X110166942Y-76518661D03*
%TO.P,UA2,19,I12_19*%
%TO.N,/I12A*%
X110626561Y-76978280D03*
%TO.P,UA2,20,I11_20*%
%TO.N,/I11A*%
X111086322Y-77438041D03*
%TO.P,UA2,21,I10_21*%
%TO.N,/I10A*%
X111545941Y-77897660D03*
%TO.P,UA2,22,I9_22*%
%TO.N,/I9A*%
X112005561Y-78357280D03*
%TO.P,UA2,23,I8_23*%
%TO.N,/I8A*%
X112465180Y-78816899D03*
%TO.P,UA2,24,VCC_24*%
%TO.N,+3.3V*%
X112924729Y-79276448D03*
%TD*%
D32*
%TO.P,JLED1,1,Pin_1_1*%
%TO.N,+5V*%
X102636396Y-83653368D03*
%TO.P,JLED1,2,Pin_2_2*%
%TO.N,/Dout*%
X104432447Y-85449419D03*
%TO.P,JLED1,3,Pin_3_3*%
%TO.N,GND*%
X106228498Y-87245470D03*
%TD*%
D33*
%TO.P,UB2,1,COMMON_INOUT/OUTPUT_1*%
%TO.N,/D4*%
X82142319Y-78185453D03*
%TO.P,UB2,2,I7_2*%
%TO.N,/I7B*%
X82601868Y-77725904D03*
%TO.P,UB2,3,I6_3*%
%TO.N,/I6B*%
X83061487Y-77266285D03*
%TO.P,UB2,4,I5_4*%
%TO.N,/I5B*%
X83521107Y-76806665D03*
%TO.P,UB2,5,I4_5*%
%TO.N,/I4B*%
X83980726Y-76347046D03*
%TO.P,UB2,6,I3_6*%
%TO.N,/I3B*%
X84440487Y-75887285D03*
%TO.P,UB2,7,I2_7*%
%TO.N,/I2B*%
X84900106Y-75427666D03*
%TO.P,UB2,8,I1_8*%
%TO.N,/I1B*%
X85359726Y-74968046D03*
%TO.P,UB2,9,I0_9*%
%TO.N,/I0B*%
X85819345Y-74508427D03*
%TO.P,UB2,10,S0_10*%
%TO.N,/QB2*%
X86278965Y-74048807D03*
%TO.P,UB2,11,S1_11*%
%TO.N,/QA2*%
X86738584Y-73589188D03*
%TO.P,UB2,12,GND_12*%
%TO.N,GND*%
X87198133Y-73129639D03*
%TO.P,UB2,13,S3_13*%
%TO.N,/QD2*%
X82160563Y-68092069D03*
%TO.P,UB2,14,S2_14*%
%TO.N,/QC2*%
X81701014Y-68551618D03*
%TO.P,UB2,15,E#_15*%
%TO.N,GND*%
X81241395Y-69011237D03*
%TO.P,UB2,16,I15_16*%
%TO.N,/I15B*%
X80781775Y-69470857D03*
%TO.P,UB2,17,I14_17*%
%TO.N,/I14B*%
X80322156Y-69930476D03*
%TO.P,UB2,18,I13_18*%
%TO.N,/I13B*%
X79862536Y-70390096D03*
%TO.P,UB2,19,I12_19*%
%TO.N,/I12B*%
X79402917Y-70849715D03*
%TO.P,UB2,20,I11_20*%
%TO.N,/I11B*%
X78943156Y-71309476D03*
%TO.P,UB2,21,I10_21*%
%TO.N,/I10B*%
X78483537Y-71769095D03*
%TO.P,UB2,22,I9_22*%
%TO.N,/I9B*%
X78023917Y-72228715D03*
%TO.P,UB2,23,I8_23*%
%TO.N,/I8B*%
X77564298Y-72688334D03*
%TO.P,UB2,24,VCC_24*%
%TO.N,+3.3V*%
X77104749Y-73147883D03*
%TD*%
D27*
%TO.P,JR1,1,Pin_1_1*%
%TO.N,GND*%
X71529974Y-31728858D03*
D28*
%TO.P,JR1,2,Pin_2_2*%
%TO.N,/TX*%
X74069973Y-31728858D03*
%TO.P,JR1,3,Pin_3_3*%
%TO.N,/RX*%
X76609975Y-31728858D03*
%TO.P,JR1,4,Pin_4_4*%
%TO.N,/D1*%
X79149974Y-31728858D03*
%TO.P,JR1,5,Pin_5_5*%
%TO.N,/D2*%
X81689974Y-31728858D03*
%TO.P,JR1,6,Pin_6_6*%
%TO.N,/D42*%
X84229974Y-31728858D03*
%TO.P,JR1,7,Pin_7_7*%
%TO.N,/D41*%
X86769973Y-31728858D03*
%TO.P,JR1,8,Pin_8_8*%
%TO.N,/D40*%
X89309974Y-31728858D03*
%TO.P,JR1,9,Pin_9_9*%
%TO.N,/D39*%
X91849974Y-31728858D03*
%TO.P,JR1,10,Pin_10_10*%
%TO.N,/D38*%
X94389974Y-31728858D03*
%TO.P,JR1,11,Pin_11_11*%
%TO.N,/D37*%
X96929973Y-31728858D03*
%TO.P,JR1,12,Pin_12_12*%
%TO.N,/D36*%
X99469975Y-31728858D03*
%TO.P,JR1,13,Pin_13_13*%
%TO.N,/D35*%
X102009974Y-31728858D03*
%TO.P,JR1,14,Pin_14_14*%
%TO.N,/D0*%
X104549974Y-31728858D03*
%TO.P,JR1,15,Pin_15_15*%
%TO.N,/D45*%
X107089974Y-31728858D03*
%TO.P,JR1,16,Pin_16_16*%
%TO.N,/D48*%
X109629975Y-31728858D03*
%TO.P,JR1,17,Pin_17_17*%
%TO.N,/D47*%
X112169974Y-31728858D03*
%TO.P,JR1,18,Pin_18_18*%
%TO.N,/D21*%
X114709974Y-31728858D03*
%TO.P,JR1,19,Pin_19_19*%
%TO.N,/D20*%
X117249974Y-31728858D03*
%TO.P,JR1,20,Pin_20_20*%
%TO.N,/D19*%
X119789973Y-31728858D03*
%TO.P,JR1,21,Pin_21_21*%
%TO.N,GND*%
X122329975Y-31728858D03*
%TO.P,JR1,22,Pin_22_22*%
X124869974Y-31728858D03*
%TD*%
D34*
%TO.P,JA1,1,Pin_1_1*%
%TO.N,/I0A*%
X124492996Y-77466254D03*
%TO.P,JA1,2,Pin_2_2*%
%TO.N,/I1A*%
X126289047Y-79262305D03*
%TO.P,JA1,3,Pin_3_3*%
%TO.N,/I2A*%
X122696944Y-79262305D03*
%TO.P,JA1,4,Pin_4_4*%
%TO.N,/I3A*%
X124492996Y-81058357D03*
%TO.P,JA1,5,Pin_5_5*%
%TO.N,/I4A*%
X120900893Y-81058357D03*
%TO.P,JA1,6,Pin_6_6*%
%TO.N,/I5A*%
X122696944Y-82854408D03*
%TO.P,JA1,7,Pin_7_7*%
%TO.N,/I6A*%
X119104842Y-82854408D03*
%TO.P,JA1,8,Pin_8_8*%
%TO.N,/I7A*%
X120900893Y-84650459D03*
%TO.P,JA1,9,Pin_9_9*%
%TO.N,/I14A*%
X117308791Y-84650459D03*
%TO.P,JA1,10,Pin_10_10*%
%TO.N,/I15A*%
X119104842Y-86446510D03*
%TO.P,JA1,11,Pin_11_11*%
%TO.N,/I12A*%
X115512740Y-86446510D03*
%TO.P,JA1,12,Pin_12_12*%
%TO.N,/I13A*%
X117308791Y-88242561D03*
%TO.P,JA1,13,Pin_13_13*%
%TO.N,/I10A*%
X113716688Y-88242561D03*
%TO.P,JA1,14,Pin_14_14*%
%TO.N,/I11A*%
X115512740Y-90038613D03*
%TO.P,JA1,15,Pin_15_15*%
%TO.N,/I8A*%
X111920637Y-90038613D03*
%TO.P,JA1,16,Pin_16_16*%
%TO.N,/I9A*%
X113716688Y-91834664D03*
%TD*%
D27*
%TO.P,H1,1,1_1*%
%TO.N,/D19*%
X117249974Y-25653324D03*
D28*
%TO.P,H1,2,2_2*%
%TO.N,/D20*%
X117249974Y-28193324D03*
%TO.P,H1,3,3_3*%
%TO.N,/D48*%
X114709974Y-25653324D03*
%TO.P,H1,4,4_4*%
%TO.N,/D21*%
X114709974Y-28193324D03*
%TO.P,H1,5,5_5*%
%TO.N,/D45*%
X112169974Y-25653324D03*
%TO.P,H1,6,6_6*%
%TO.N,/D47*%
X112169974Y-28193324D03*
%TO.P,H1,7,7_7*%
%TO.N,/D0*%
X109629975Y-25653324D03*
%TO.P,H1,8,8_8*%
%TO.N,/D14*%
X109629975Y-28193324D03*
%TO.P,H1,9,9_9*%
%TO.N,/D35*%
X107089974Y-25653323D03*
%TO.P,H1,10,10_10*%
%TO.N,/D13*%
X107089974Y-28193325D03*
%TO.P,H1,11,11_11*%
%TO.N,/D36*%
X104549974Y-25653324D03*
%TO.P,H1,12,12_12*%
%TO.N,/D12*%
X104549974Y-28193324D03*
%TO.P,H1,13,13_13*%
%TO.N,/D37*%
X102009974Y-25653324D03*
%TO.P,H1,14,14_14*%
%TO.N,/D11*%
X102009974Y-28193324D03*
%TO.P,H1,15,15_15*%
%TO.N,/D38*%
X99469974Y-25653324D03*
%TO.P,H1,16,16_16*%
%TO.N,/D10*%
X99469974Y-28193324D03*
%TO.P,H1,17,17_17*%
%TO.N,/D39*%
X96929974Y-25653323D03*
%TO.P,H1,18,18_18*%
%TO.N,/D9*%
X96929974Y-28193325D03*
%TO.P,H1,19,19_19*%
%TO.N,/D40*%
X94389974Y-25653324D03*
%TO.P,H1,20,20_20*%
%TO.N,/D46*%
X94389974Y-28193324D03*
%TO.P,H1,21,21_21*%
%TO.N,/D41*%
X91849974Y-25653324D03*
%TO.P,H1,22,22_22*%
%TO.N,/D3*%
X91849974Y-28193324D03*
%TO.P,H1,23,23_23*%
%TO.N,/D42*%
X89309974Y-25653324D03*
%TO.P,H1,24,24_24*%
%TO.N,/D8*%
X89309974Y-28193324D03*
%TO.P,H1,25,25_25*%
%TO.N,/D2*%
X86769974Y-25653323D03*
%TO.P,H1,26,26_26*%
%TO.N,/D18*%
X86769974Y-28193325D03*
%TO.P,H1,27,27_27*%
%TO.N,/D1*%
X84229973Y-25653324D03*
%TO.P,H1,28,28_28*%
%TO.N,/D17*%
X84229973Y-28193324D03*
%TO.P,H1,29,29_29*%
%TO.N,/RX*%
X81689974Y-25653324D03*
%TO.P,H1,30,30_30*%
%TO.N,/D16*%
X81689974Y-28193324D03*
%TO.P,H1,31,31_31*%
%TO.N,/TX*%
X79149974Y-25653324D03*
%TO.P,H1,32,32_32*%
%TO.N,/D15*%
X79149974Y-28193324D03*
%TO.P,H1,33,33_33*%
%TO.N,+3.3V*%
X76609974Y-25653324D03*
%TO.P,H1,34,34_34*%
%TO.N,/RST*%
X76609974Y-28193324D03*
%TD*%
D35*
%TO.P,C5,1*%
%TO.N,+5V*%
X89027418Y-85530030D03*
%TO.P,C5,2*%
%TO.N,GND*%
X95391238Y-79166210D03*
%TD*%
D36*
%TO.P,R1,1*%
%TO.N,Net-(USBC1-CC1)*%
X122463598Y-48524374D03*
%TO.P,R1,2*%
%TO.N,GND*%
X121742350Y-49245622D03*
%TD*%
D13*
%TO.P,C2,1*%
%TO.N,+3.3V*%
X111142819Y-81058356D03*
%TO.P,C2,2*%
%TO.N,GND*%
X111736931Y-81652468D03*
%TD*%
D37*
%TO.P,JPWR1,1,Pin_1_1*%
%TO.N,+5V*%
X127311585Y-19292016D03*
%TO.P,JPWR1,2,Pin_2_2*%
%TO.N,GND*%
X124771583Y-19292016D03*
%TD*%
D38*
%TO.P,R2,1*%
%TO.N,GND*%
X120328137Y-47831409D03*
%TO.P,R2,2*%
%TO.N,Net-(USBC1-CC2)*%
X121049385Y-47110161D03*
%TD*%
D14*
%TO.P,C10,1*%
%TO.N,+3.3V*%
X91408652Y-73498203D03*
%TO.P,C10,2*%
%TO.N,GND*%
X90814540Y-74092315D03*
%TD*%
D39*
%TO.N,+3.3V*%
X97212816Y-63309977D03*
X87808295Y-72431654D03*
X97212816Y-61047235D03*
X83070680Y-64441347D03*
X87101189Y-60410839D03*
X112200000Y-68500000D03*
X107600000Y-73100000D03*
%TO.N,GND*%
X120800000Y-68900000D03*
X98200000Y-78900000D03*
X90800000Y-88900000D03*
X120200000Y-60200000D03*
X115300000Y-61400000D03*
X93700000Y-64900000D03*
X87300000Y-75500000D03*
X83200000Y-71000000D03*
X91800000Y-63200000D03*
X78700000Y-18100000D03*
X87300000Y-77400000D03*
X113052008Y-93574147D03*
X65000000Y-80600000D03*
X97150000Y-70100000D03*
X96800000Y-65000000D03*
X124800000Y-28300000D03*
X119345258Y-88270846D03*
X106450000Y-78800000D03*
X122000000Y-19300000D03*
X92800000Y-79100000D03*
X93400000Y-86300000D03*
X118700000Y-78800000D03*
X85350000Y-59100000D03*
X97700000Y-76800000D03*
X118700000Y-75200000D03*
X120300000Y-66800000D03*
X125709219Y-81906885D03*
X111284241Y-86612268D03*
X123163635Y-84452469D03*
X74550000Y-23700000D03*
X99900000Y-17700000D03*
X69200000Y-74700000D03*
X110900000Y-82400000D03*
X126996153Y-80648235D03*
X129300000Y-73900000D03*
X90100000Y-74700000D03*
X131100000Y-27200000D03*
X124900000Y-67100000D03*
X74500000Y-91300000D03*
X85262711Y-91382116D03*
X129900000Y-63100000D03*
X72350000Y-69500000D03*
X85500000Y-88900000D03*
X120618050Y-86998054D03*
X116800000Y-75500000D03*
X114300000Y-66700000D03*
X83989919Y-92654908D03*
X110011448Y-89685059D03*
X121000000Y-50100000D03*
X129000000Y-50500000D03*
X90500000Y-81500000D03*
X85900000Y-82500000D03*
X71750000Y-28950000D03*
X64600000Y-38400000D03*
X114200000Y-68000000D03*
X96800000Y-80400000D03*
X78950000Y-50850000D03*
X71750000Y-34650000D03*
X80100000Y-96100000D03*
X74000000Y-72800000D03*
X132300000Y-48100000D03*
X116799674Y-90816430D03*
X115526881Y-92089223D03*
X111284241Y-88412267D03*
X64200000Y-72700000D03*
X115100000Y-48400000D03*
X119400000Y-48700000D03*
X95050000Y-74900000D03*
X86100000Y-90100000D03*
X127500000Y-57300000D03*
X124000000Y-68200000D03*
X128184093Y-79149168D03*
X107500000Y-85800000D03*
X102400000Y-65400000D03*
X127052722Y-77734955D03*
X110200000Y-73600000D03*
X106800000Y-23300000D03*
X94500000Y-23300000D03*
X81585756Y-54329720D03*
X87200000Y-81100000D03*
X82717127Y-93927700D03*
X124436427Y-83179677D03*
X121500000Y-25000000D03*
X120100000Y-44800000D03*
X88334247Y-74265753D03*
X121890842Y-85725262D03*
X71250000Y-40150000D03*
X64000000Y-58100000D03*
X114254089Y-93362015D03*
X64850000Y-50200000D03*
X94100000Y-77900000D03*
X119000000Y-53000000D03*
X125779930Y-76462163D03*
X85000000Y-87300000D03*
X65000000Y-28800000D03*
X95800000Y-81500000D03*
X108800000Y-60400000D03*
X118100000Y-67800000D03*
X69700000Y-55000000D03*
X92800000Y-64000000D03*
X128500000Y-69200000D03*
X85000000Y-85448664D03*
X122200000Y-64800000D03*
X112000000Y-35500000D03*
X107700000Y-88600000D03*
X87300000Y-79200000D03*
X101700000Y-66150000D03*
X118072466Y-89543638D03*
X122800000Y-69100000D03*
X131300000Y-18200000D03*
X119400000Y-35400000D03*
X71500000Y-47700000D03*
X68800000Y-31800000D03*
X88700000Y-17500000D03*
X85650000Y-60150000D03*
X121450000Y-61450000D03*
X111200000Y-44500000D03*
X85000000Y-83800000D03*
X113900000Y-18200000D03*
X109100000Y-84600000D03*
X90800000Y-77200000D03*
X124800000Y-21800000D03*
X120900000Y-90600000D03*
X121200000Y-65700000D03*
X128600000Y-43800000D03*
X117600000Y-64100000D03*
X124800000Y-54700000D03*
X124700000Y-16800000D03*
X125800000Y-41200000D03*
X126400000Y-85500000D03*
X116700000Y-94800000D03*
X82300000Y-22600000D03*
X69400000Y-85800000D03*
X99800000Y-67700000D03*
X70400000Y-62200000D03*
X110506423Y-91028562D03*
X111779215Y-92301355D03*
%TD*%
%TO.N,+5V*%
D40*
X98800000Y-74854163D02*
X98900000Y-74854163D01*
X98900000Y-74500000D02*
X98900000Y-74854163D01*
X98988352Y-74411648D02*
X98900000Y-74500000D01*
X98988352Y-74411648D02*
X99413352Y-74836648D01*
X98850000Y-74554163D02*
X99150000Y-74854163D01*
X98900000Y-74854163D02*
X99150000Y-74854163D01*
X98988352Y-74411648D02*
X98850000Y-74550000D01*
X98850000Y-74550000D02*
X98850000Y-74554163D01*
X98513352Y-73936648D02*
X98663352Y-74086648D01*
X98450000Y-74854163D02*
X98650000Y-74854163D01*
X98663352Y-74086648D02*
X98650000Y-74100000D01*
X98650000Y-74100000D02*
X98650000Y-74854163D01*
X98663352Y-74086648D02*
X98813352Y-74236648D01*
X98350000Y-74854163D02*
X98450000Y-74854163D01*
X98513352Y-73936648D02*
X98513352Y-74790811D01*
X98513352Y-74790811D02*
X98450000Y-74854163D01*
X98050000Y-74854163D02*
X98200000Y-74854163D01*
X98263352Y-73686648D02*
X98200000Y-73750000D01*
X98200000Y-73750000D02*
X98200000Y-74854163D01*
X97877261Y-73300556D02*
X98188352Y-73611648D01*
X97850000Y-74854163D02*
X98050000Y-74854163D01*
X98050000Y-74854163D02*
X98050000Y-73750000D01*
X98050000Y-73750000D02*
X98188352Y-73611648D01*
X97700000Y-74854163D02*
X97850000Y-74854163D01*
X97572056Y-73622056D02*
X97877261Y-73316851D01*
X97700000Y-73750000D02*
X97572056Y-73622056D01*
X97700000Y-74854163D02*
X97700000Y-73750000D01*
X97522056Y-73672056D02*
X97572056Y-73622056D01*
X97350000Y-74854163D02*
X97500000Y-74854163D01*
X97522056Y-73672056D02*
X97522056Y-74832107D01*
X97522056Y-74832107D02*
X97500000Y-74854163D01*
X97197056Y-73997056D02*
X97297056Y-73897056D01*
X97050000Y-74854163D02*
X97200000Y-74854163D01*
X97197056Y-73997056D02*
X97200000Y-74000000D01*
X97200000Y-74000000D02*
X97200000Y-74854163D01*
X97047056Y-74147056D02*
X97197056Y-73997056D01*
X96950000Y-74854163D02*
X97050000Y-74854163D01*
X97047056Y-74147056D02*
X97050000Y-74150000D01*
X97050000Y-74150000D02*
X97050000Y-74854163D01*
X96647056Y-74547056D02*
X96922056Y-74272056D01*
X96339949Y-74854163D02*
X96700000Y-74854163D01*
X96647056Y-74547056D02*
X96700000Y-74600000D01*
X96700000Y-74600000D02*
X96700000Y-74854163D01*
X96922056Y-74272056D02*
X97047056Y-74147056D01*
X96700000Y-74854163D02*
X96950000Y-74854163D01*
X96922056Y-74272056D02*
X96872056Y-74322056D01*
X96872056Y-74322056D02*
X96872056Y-74776219D01*
X96872056Y-74776219D02*
X96950000Y-74854163D01*
X96339949Y-74854163D02*
X96647056Y-74547056D01*
X97200000Y-74854163D02*
X97350000Y-74854163D01*
X97350000Y-73950000D02*
X97350000Y-74854163D01*
X97297056Y-73897056D02*
X97350000Y-73950000D01*
X98263352Y-73686648D02*
X98513352Y-73936648D01*
X98650000Y-74854163D02*
X98800000Y-74854163D01*
X98800000Y-74250000D02*
X98800000Y-74854163D01*
X98813352Y-74236648D02*
X98800000Y-74250000D01*
X98813352Y-74236648D02*
X98988352Y-74411648D01*
X98263352Y-73686648D02*
X98350000Y-73773296D01*
X98200000Y-74854163D02*
X98350000Y-74854163D01*
X98350000Y-73773296D02*
X98350000Y-74854163D01*
X97500000Y-74854163D02*
X97700000Y-74854163D01*
X97877261Y-73300556D02*
X97877261Y-74826902D01*
X97877261Y-74826902D02*
X97850000Y-74854163D01*
X98188352Y-73611648D02*
X98263352Y-73686648D01*
X99150000Y-74854163D02*
X99395837Y-74854163D01*
X99395837Y-74854163D02*
X99413352Y-74836648D01*
X97297056Y-73897056D02*
X97522056Y-73672056D01*
X97877261Y-73316851D02*
X97877261Y-73300556D01*
X99413352Y-74836648D02*
X102636395Y-78059690D01*
X102636395Y-78059690D02*
X102636395Y-83653368D01*
%TO.N,/Dout*%
X99100698Y-72077403D02*
X104432447Y-77409152D01*
X104432447Y-77409152D02*
X104432447Y-85449419D01*
%TO.N,+3.3V*%
X91408652Y-73498203D02*
X91408652Y-73486426D01*
X91408652Y-73486426D02*
X89929616Y-72007390D01*
X89929616Y-72007390D02*
X89505352Y-72431654D01*
X89505352Y-72431654D02*
X87808295Y-72431654D01*
%TO.N,/D5*%
X81689973Y-57228858D02*
X81727177Y-57266062D01*
X81727177Y-57266062D02*
X81727177Y-60410839D01*
X81727177Y-60410839D02*
X93122556Y-71806218D01*
X93122556Y-71806218D02*
X93127928Y-71806218D01*
X93127928Y-71806218D02*
X93821710Y-72500000D01*
%TO.N,Net-(LED1-DI)*%
X94841708Y-72500000D02*
X94891708Y-72500000D01*
X94891708Y-72500000D02*
X94919175Y-72527467D01*
X94919175Y-72527467D02*
X97094574Y-72527467D01*
X97094574Y-72527467D02*
X97099373Y-72522668D01*
%TO.N,+3.3V*%
X112025404Y-66225404D02*
X111882472Y-66368336D01*
X112025000Y-66975000D02*
X112200000Y-67150000D01*
X105687614Y-72371426D02*
X105773015Y-72456827D01*
X106080182Y-72170625D02*
X106080182Y-72369818D01*
X83070680Y-65296947D02*
X82646416Y-65721211D01*
X83424233Y-65502008D02*
X83205030Y-65721211D01*
X82370644Y-65721211D02*
X82646416Y-65721211D01*
X105182157Y-72078101D02*
X105631594Y-72527538D01*
X112025404Y-66225404D02*
X111700404Y-66550404D01*
X105182157Y-72290233D02*
X105419462Y-72527538D01*
X105227995Y-71558253D02*
X105227995Y-71699675D01*
X112200000Y-67150000D02*
X112200000Y-67514136D01*
X112050000Y-66250000D02*
X112050000Y-66950000D01*
X106350000Y-73068651D02*
X106100000Y-73068651D01*
X111425662Y-80351250D02*
X105182157Y-74107745D01*
X105278040Y-72598248D02*
X105652559Y-72598248D01*
X106350000Y-72950000D02*
X106731349Y-72950000D01*
X105278040Y-72739670D02*
X105511138Y-72739670D01*
X111142819Y-81058357D02*
X111425662Y-80775514D01*
X106080182Y-72750000D02*
X106080182Y-73048833D01*
X106850000Y-73068651D02*
X106350000Y-73068651D01*
X111849926Y-80351250D02*
X111425662Y-80351250D01*
X105511138Y-72739670D02*
X105635734Y-72864266D01*
X106080182Y-73048833D02*
X106100000Y-73068651D01*
X76706719Y-71385136D02*
X76667828Y-71424027D01*
X105347902Y-71438346D02*
X105227995Y-71558253D01*
X105182157Y-72643786D02*
X105182157Y-73068651D01*
X83070680Y-65148454D02*
X83070680Y-65296947D01*
X106100000Y-73068651D02*
X105900000Y-73068651D01*
X105773015Y-72456827D02*
X105793981Y-72456827D01*
X111425662Y-80421961D02*
X111496373Y-80421961D01*
X105611531Y-73068651D02*
X105740091Y-72940091D01*
X112050000Y-66950000D02*
X112025000Y-66975000D01*
X105347902Y-71438346D02*
X102211460Y-68301903D01*
X112935759Y-65315049D02*
X112025404Y-66225404D01*
X105419462Y-72527538D02*
X105631594Y-72527538D01*
X105723270Y-72527538D02*
X105652559Y-72598248D01*
X83070680Y-65021175D02*
X83070680Y-64441347D01*
X105698946Y-72170626D02*
X106080182Y-72170626D01*
X105635734Y-72864266D02*
X105550000Y-72864266D01*
X105793981Y-72456827D02*
X105793981Y-72493981D01*
X112025404Y-66225404D02*
X112050000Y-66250000D01*
D41*
X83070680Y-65148454D02*
X83070680Y-64441347D01*
D40*
X105900000Y-73068651D02*
X105900000Y-72800000D01*
X83282812Y-65360586D02*
X82922188Y-65721211D01*
X106265091Y-72934909D02*
X106080182Y-72750000D01*
X75380894Y-71424027D02*
X77104749Y-73147882D01*
X105793981Y-72493981D02*
X105875000Y-72575000D01*
X106080182Y-72600000D02*
X106080182Y-72750000D01*
X111468336Y-66782472D02*
X112200000Y-67514136D01*
X105182157Y-72502365D02*
X105278040Y-72598248D01*
X76667828Y-71424027D02*
X75380894Y-71424027D01*
X105635734Y-72864266D02*
X105711559Y-72940091D01*
X107568651Y-73068651D02*
X106850000Y-73068651D01*
X105900000Y-72800000D02*
X105890091Y-72790091D01*
X105740091Y-72940091D02*
X105890091Y-72790091D01*
X75000000Y-34800000D02*
X75000000Y-56298831D01*
X105227995Y-71699675D02*
X105698946Y-72170626D01*
X83205030Y-65721211D02*
X83643437Y-65721211D01*
X105550000Y-73068651D02*
X105611531Y-73068651D01*
X76609974Y-25653325D02*
X72969973Y-29293326D01*
X105182157Y-72078101D02*
X105182157Y-72290233D01*
X105793981Y-72456827D02*
X105723270Y-72527538D01*
X105182157Y-71653837D02*
X105182157Y-71865969D01*
X106350000Y-72950000D02*
X106350000Y-72440443D01*
X106080182Y-72170626D02*
X105793981Y-72456827D01*
X75000000Y-56298831D02*
X74069973Y-57228858D01*
X106350000Y-73019818D02*
X106350000Y-72950000D01*
X106080182Y-72170626D02*
X105888415Y-72170626D01*
X107600000Y-73100000D02*
X107568651Y-73068651D01*
X105182157Y-74107745D02*
X105182157Y-73068651D01*
X106265091Y-72934909D02*
X106265091Y-72355534D01*
X105990091Y-72690091D02*
X106080182Y-72600000D01*
X112200000Y-66050807D02*
X112200000Y-67150000D01*
X111882472Y-66832472D02*
X112025000Y-66975000D01*
X82646416Y-65721211D02*
X82922188Y-65721211D01*
X83643437Y-65721211D02*
X84541462Y-66619236D01*
X83643437Y-65721211D02*
X83424233Y-65502008D01*
X76714864Y-71385136D02*
X82370644Y-65729356D01*
X111425662Y-80421961D02*
X111425662Y-80775514D01*
X105890091Y-72790091D02*
X105990091Y-72690091D01*
X111425662Y-80351250D02*
X111425662Y-80421961D01*
X105844402Y-72790091D02*
X105890091Y-72790091D01*
X97219533Y-63309977D02*
X102211460Y-68301903D01*
X82922188Y-65721211D02*
X83205030Y-65721211D01*
X105711559Y-72940091D02*
X105740091Y-72940091D01*
X106350000Y-73068651D02*
X106350000Y-73019818D01*
X106731349Y-72950000D02*
X106850000Y-73068651D01*
X106080182Y-72369818D02*
X105875000Y-72575000D01*
X97212816Y-63309977D02*
X97219533Y-63309977D01*
X111637794Y-80563382D02*
X112924728Y-79276448D01*
X82299933Y-63529179D02*
X83070680Y-64299926D01*
X76706719Y-71385136D02*
X76714864Y-71385136D01*
X105182157Y-72502365D02*
X105182157Y-72643786D01*
X105182157Y-71272600D02*
X105182157Y-71653837D01*
X83282812Y-65360586D02*
X83070680Y-65148454D01*
X105182157Y-71653837D02*
X105227995Y-71699675D01*
X83070680Y-64299926D02*
X83070680Y-64441347D01*
X82370644Y-65729356D02*
X82370644Y-65721211D01*
X112935759Y-65315048D02*
X112200000Y-66050807D01*
X111882472Y-66368336D02*
X111882472Y-66832472D01*
X105652559Y-72598248D02*
X105844402Y-72790091D01*
X105182157Y-73068651D02*
X105550000Y-73068651D01*
X105182157Y-71865969D02*
X105687614Y-72371426D01*
X112200000Y-67514136D02*
X112200000Y-68500000D01*
X111700404Y-66550404D02*
X111468336Y-66782472D01*
X105875000Y-72575000D02*
X105990091Y-72690091D01*
X105182157Y-72290233D02*
X105182157Y-72502365D01*
X83424233Y-65502008D02*
X83282812Y-65360586D01*
X105631594Y-72527538D02*
X105723270Y-72527538D01*
X87101189Y-60410839D02*
X96576420Y-60410839D01*
X106350000Y-73019818D02*
X106265091Y-72934909D01*
X111700404Y-66550404D02*
X111700404Y-66650404D01*
X105888415Y-72170626D02*
X105687614Y-72371426D01*
X96576420Y-60410839D02*
X97212816Y-61047235D01*
X76706719Y-72749852D02*
X76706719Y-71385136D01*
X105386542Y-72864266D02*
X105182157Y-73068651D01*
X111496373Y-80421961D02*
X111637794Y-80563382D01*
X72969973Y-29293326D02*
X72969973Y-32769973D01*
X106080182Y-72170626D02*
X105347902Y-71438346D01*
X105652559Y-72598248D02*
X105511138Y-72739670D01*
X105550000Y-72864266D02*
X105386542Y-72864266D01*
X105182157Y-71865969D02*
X105182157Y-72078101D01*
X77104749Y-73147882D02*
X76706719Y-72749852D01*
X105511138Y-72739670D02*
X105182157Y-73068651D01*
X105182157Y-72643786D02*
X105278040Y-72739670D01*
D42*
X71529973Y-57228858D02*
X74069973Y-57228858D01*
D40*
X106080182Y-72170625D02*
X106080182Y-72600000D01*
X106350000Y-72440443D02*
X106080182Y-72170625D01*
X105550000Y-73068651D02*
X105550000Y-72864266D01*
X82370644Y-65721211D02*
X83070680Y-65021175D01*
X105900000Y-73068651D02*
X105182157Y-73068651D01*
X111425662Y-80775514D02*
X111637794Y-80563382D01*
X72969973Y-32769973D02*
X75000000Y-34800000D01*
X111700404Y-66650404D02*
X111882472Y-66832472D01*
%TO.N,GND*%
X87198133Y-73129639D02*
X88338626Y-74270132D01*
X127230665Y-48945067D02*
X127482961Y-49197363D01*
D43*
X89308210Y-63648539D02*
X92002287Y-66342616D01*
D40*
X126143983Y-48945067D02*
X127230665Y-48945067D01*
X86142148Y-90057852D02*
X86100000Y-90100000D01*
X110011448Y-89685059D02*
X109870027Y-89826481D01*
X113016936Y-69183064D02*
X114200000Y-68000000D01*
X108788083Y-75111917D02*
X108788083Y-75139802D01*
X121618500Y-44419583D02*
X121618500Y-43332902D01*
X117962299Y-74238878D02*
X117961122Y-74238878D01*
X110200000Y-73600000D02*
X110100000Y-73700000D01*
X87512159Y-61852488D02*
X87352488Y-61852488D01*
X121618500Y-44419583D02*
X120480417Y-44419583D01*
X113000536Y-93574147D02*
X113052008Y-93574147D01*
X110100000Y-73700000D02*
X110100000Y-73800000D01*
X117961122Y-74238878D02*
X117200000Y-75000000D01*
X120480417Y-44419583D02*
X120100000Y-44800000D01*
X110100000Y-73800000D02*
X108788083Y-75111917D01*
X81241395Y-69041395D02*
X83200000Y-71000000D01*
X81241395Y-69011237D02*
X81241395Y-69041395D01*
X121618500Y-43332902D02*
X121366345Y-43080747D01*
X112906485Y-69183064D02*
X113016936Y-69183064D01*
X87352488Y-61852488D02*
X85650000Y-60150000D01*
X87300000Y-75500000D02*
X87212353Y-75587647D01*
%TO.N,+5V*%
D44*
X101562686Y-84727078D02*
X101562686Y-86187314D01*
X127403484Y-32412202D02*
X127403484Y-19383915D01*
D45*
X123800031Y-44359515D02*
X124719269Y-43440276D01*
D44*
X122329974Y-57228858D02*
X122329974Y-51627847D01*
X100261430Y-84623368D02*
X100261430Y-84886058D01*
X123446477Y-50511344D02*
X124365716Y-49592105D01*
D40*
X122668236Y-44500936D02*
X123517188Y-44500936D01*
D44*
X125992062Y-46439540D02*
X125992062Y-44713068D01*
X124719269Y-43440276D02*
X125738886Y-44459892D01*
X123658609Y-42379616D02*
X121749421Y-40470428D01*
D40*
X122310943Y-60183357D02*
X122270100Y-60224200D01*
D44*
X124365716Y-49592105D02*
X125284955Y-50511344D01*
X98665724Y-83290351D02*
X99968740Y-84593368D01*
X121749421Y-38066264D02*
X127403484Y-32412202D01*
D46*
X123658609Y-44359515D02*
X123800031Y-44359515D01*
D44*
X101562686Y-86187314D02*
X100231430Y-84856058D01*
D46*
X123517188Y-44500936D02*
X123658609Y-44359515D01*
D44*
X122329974Y-57228858D02*
X122329974Y-59152914D01*
X102636395Y-83653368D02*
X101636396Y-84653368D01*
D40*
X125992062Y-47965759D02*
X125992062Y-47237510D01*
X122329974Y-57228858D02*
X122310943Y-57247889D01*
D44*
X122329974Y-51627847D02*
X122810081Y-51147740D01*
D40*
X102303984Y-83320957D02*
X102636395Y-83653368D01*
D44*
X132426733Y-82215408D02*
X127824238Y-86842781D01*
X127403484Y-19383915D02*
X127311584Y-19292016D01*
X89027418Y-85530030D02*
X91267097Y-83290351D01*
X99968740Y-84593368D02*
X100231430Y-84593368D01*
X122810081Y-51147740D02*
X123446477Y-50511344D01*
X116415257Y-98251762D02*
X114501762Y-98251762D01*
X127824238Y-86842781D02*
X116415257Y-98251762D01*
D46*
X125992062Y-46439540D02*
X125992062Y-47237510D01*
X123658609Y-44359515D02*
X123658609Y-42379616D01*
D44*
X122329974Y-59152914D02*
X126432306Y-63255246D01*
X113625373Y-98250000D02*
X101562686Y-86187314D01*
X102636396Y-83653368D02*
X101562686Y-84727078D01*
D46*
X124153584Y-44500936D02*
X125697842Y-44500936D01*
D44*
X114500000Y-98250000D02*
X113625373Y-98250000D01*
X123446477Y-50511344D02*
X125284955Y-50511344D01*
D40*
X122184044Y-44985128D02*
X122668236Y-44500936D01*
D44*
X121749421Y-40470428D02*
X121749421Y-38066264D01*
X114501762Y-98251762D02*
X114500000Y-98250000D01*
X125992062Y-44713068D02*
X125738886Y-44459892D01*
X123658609Y-42379616D02*
X124719269Y-43440276D01*
D40*
X122310943Y-57247889D02*
X122310943Y-60183357D01*
D46*
X125697842Y-44500936D02*
X125738886Y-44459892D01*
D44*
X100171430Y-84653368D02*
X101636396Y-84653368D01*
D46*
X123517188Y-44500936D02*
X124153584Y-44500936D01*
D44*
X132426733Y-57653122D02*
X132426733Y-82215408D01*
X91267097Y-83290351D02*
X98665724Y-83290351D01*
D40*
X125457630Y-48500191D02*
X125992062Y-47965759D01*
D46*
X125578369Y-48379452D02*
X124365716Y-49592105D01*
D44*
X125284955Y-50511344D02*
X132426733Y-57653122D01*
%TO.N,Net-(USBC1-CC1)*%
D40*
X124156978Y-48174356D02*
X124765125Y-47566209D01*
X122463599Y-48524374D02*
X122813617Y-48174356D01*
X122813617Y-48174356D02*
X124156978Y-48174356D01*
%TO.N,Net-(USBC1-CC2)*%
X121049385Y-47110160D02*
X122643805Y-45515740D01*
X122643805Y-45515740D02*
X122643805Y-45444888D01*
%TO.N,/D4*%
X79163110Y-54259010D02*
X79179900Y-54275800D01*
X79149974Y-54305726D02*
X79179900Y-54275800D01*
X87422528Y-67237560D02*
X87422528Y-68180216D01*
X79149974Y-57228858D02*
X79149974Y-54305726D01*
X79181593Y-57260477D02*
X79181593Y-58996625D01*
X79149974Y-57228858D02*
X79181593Y-57260477D01*
X80807938Y-60622971D02*
X81020070Y-60835103D01*
X80878649Y-60835103D02*
X81020070Y-60835103D01*
X87422528Y-68180216D02*
X81788658Y-73814085D01*
X80807938Y-60622971D02*
X80807938Y-60905813D01*
X81020070Y-60835103D02*
X81090781Y-60905813D01*
X79181593Y-58996625D02*
X80807938Y-60622971D01*
X81788658Y-73814085D02*
X81788658Y-77831791D01*
X79149974Y-54259010D02*
X79163110Y-54259010D01*
X78333065Y-63380687D02*
X80807938Y-60905813D01*
X80807938Y-60905813D02*
X80878649Y-60835103D01*
X81788658Y-77831791D02*
X82142320Y-78185453D01*
X81090781Y-60905813D02*
X87422528Y-67237560D01*
X80807938Y-60905813D02*
X81090781Y-60905813D01*
%TO.N,/I0B*%
X83989919Y-89826481D02*
X84230335Y-90066897D01*
X85819346Y-74508427D02*
X86178556Y-74867637D01*
X86178556Y-80736482D02*
X83989919Y-82925119D01*
X83989919Y-82925119D02*
X83989919Y-89826481D01*
X86178556Y-74867637D02*
X86178556Y-80736482D01*
%TO.N,/I1B*%
X85359726Y-74968046D02*
X85757686Y-75366006D01*
X83566324Y-82783028D02*
X83566324Y-88977283D01*
X85757686Y-80591666D02*
X83566324Y-82783028D01*
X82434284Y-90109324D02*
X82434284Y-91862948D01*
X83566324Y-88977283D02*
X82434284Y-90109324D01*
X85757686Y-75366006D02*
X85757686Y-80591666D01*
%TO.N,/I2B*%
X82434284Y-83349383D02*
X82434284Y-88270846D01*
X85259317Y-75786876D02*
X85259317Y-80524350D01*
X84900107Y-75427665D02*
X85259317Y-75786876D01*
X85259317Y-80524350D02*
X82434284Y-83349383D01*
%TO.N,/I3B*%
X84739936Y-80478045D02*
X81868599Y-83349383D01*
X84799698Y-76246495D02*
X84799698Y-80418284D01*
X84799698Y-80418284D02*
X84711168Y-80506813D01*
X81868599Y-83349383D02*
X81868599Y-87040480D01*
X84440487Y-75887285D02*
X84799698Y-76246495D01*
X80638233Y-88270846D02*
X80638233Y-90066897D01*
X81868599Y-87040480D02*
X80638233Y-88270846D01*
%TO.N,/I4B*%
X84339937Y-80312359D02*
X81207939Y-83444357D01*
X81207939Y-85905089D02*
X80638233Y-86474795D01*
X84339937Y-76706256D02*
X84339937Y-80312359D01*
X81207939Y-83444357D02*
X81207939Y-85905089D01*
X83980726Y-76347046D02*
X84339937Y-76706256D01*
%TO.N,/I5B*%
X78842181Y-86488937D02*
X78842181Y-88270846D01*
X83880317Y-77165875D02*
X83880317Y-80206293D01*
X80807938Y-84523180D02*
X78842181Y-86488937D01*
X83880317Y-80206293D02*
X80807938Y-83278672D01*
X80807938Y-83278672D02*
X80807938Y-84523180D01*
X83521107Y-76806665D02*
X83880317Y-77165875D01*
%TO.N,/I6B*%
X83420698Y-77625495D02*
X83420698Y-80100227D01*
X83061488Y-77266285D02*
X83420698Y-77625495D01*
X83420698Y-80100227D02*
X78842181Y-84678743D01*
%TO.N,/I7B*%
X82961078Y-79057952D02*
X77046130Y-84972900D01*
X82961078Y-78085114D02*
X82961078Y-79057952D01*
X77046130Y-84972900D02*
X77046130Y-86474795D01*
X82601868Y-77725904D02*
X82961078Y-78085114D01*
%TO.N,/I14B*%
X80322156Y-69930476D02*
X80681366Y-70289686D01*
X80681366Y-70289686D02*
X80681366Y-79247456D01*
X80681366Y-79247456D02*
X77046130Y-82882692D01*
%TO.N,/I15B*%
X76751974Y-84678743D02*
X75250079Y-84678743D01*
X80807938Y-69497019D02*
X80807938Y-69532516D01*
X80807938Y-69532516D02*
X81161492Y-69886070D01*
X81161492Y-69886070D02*
X81161492Y-80269226D01*
X80781775Y-69470857D02*
X80807938Y-69497019D01*
X81161492Y-80269226D02*
X76751974Y-84678743D01*
%TO.N,/I12B*%
X79817989Y-76518731D02*
X75250079Y-81086641D01*
X79402917Y-70849715D02*
X79817989Y-71264786D01*
X79817989Y-71264786D02*
X79817989Y-76518731D01*
%TO.N,/I13B*%
X75235937Y-82882692D02*
X73454028Y-82882692D01*
X79862537Y-70390095D02*
X80221747Y-70749306D01*
X80221747Y-70749306D02*
X80221747Y-77896882D01*
X80221747Y-77896882D02*
X75235937Y-82882692D01*
%TO.N,/I10B*%
X78842747Y-72128305D02*
X78842747Y-74838080D01*
X74885212Y-78795615D02*
X73949003Y-78795615D01*
X73949003Y-78795615D02*
X73454028Y-79290590D01*
X78483537Y-71769095D02*
X78842747Y-72128305D01*
X78842747Y-74838080D02*
X74885212Y-78795615D01*
%TO.N,/I11B*%
X73159871Y-81086641D02*
X71657977Y-81086641D01*
X79323014Y-74923498D02*
X73159871Y-81086641D01*
X79323014Y-71689333D02*
X79323014Y-74923498D01*
X78943156Y-71309476D02*
X79323014Y-71689333D01*
%TO.N,/I8B*%
X77917960Y-74631496D02*
X75054918Y-77494539D01*
X75054918Y-77494539D02*
X71657977Y-77494539D01*
X77917960Y-73041995D02*
X77917960Y-74631496D01*
X77564298Y-72688334D02*
X77917960Y-73041995D01*
%TO.N,/I9B*%
X78383128Y-74732014D02*
X75097344Y-78017798D01*
X72888342Y-78017798D02*
X71615550Y-79290590D01*
X71615550Y-79290590D02*
X69861925Y-79290590D01*
X78023918Y-72228714D02*
X78383128Y-72587925D01*
X75097344Y-78017798D02*
X72888342Y-78017798D01*
X78383128Y-72587925D02*
X78383128Y-74732014D01*
%TO.N,/D7*%
X83129973Y-60682264D02*
X90998973Y-68551264D01*
X93385742Y-68551264D02*
X93798338Y-68138667D01*
X83129973Y-56773223D02*
X83129973Y-60682264D01*
X90998973Y-68551264D02*
X93385742Y-68551264D01*
X86769973Y-57228858D02*
X85669973Y-56128858D01*
X86769973Y-57228858D02*
X86769973Y-57251196D01*
X86769973Y-57251196D02*
X88091138Y-58572361D01*
X88091138Y-58572361D02*
X103258225Y-58572361D01*
X83774338Y-56128858D02*
X83129973Y-56773223D01*
X103258225Y-58572361D02*
X107599613Y-62913749D01*
X85669973Y-56128858D02*
X83774338Y-56128858D01*
%TO.N,/D6*%
X87384031Y-59562311D02*
X102452123Y-59562311D01*
X84229973Y-57228858D02*
X84272762Y-57271647D01*
X85050579Y-57228858D02*
X87384031Y-59562311D01*
X84272762Y-57271647D02*
X84272762Y-60693681D01*
X84272762Y-60693681D02*
X91232319Y-67653239D01*
X91232319Y-67653239D02*
X92487716Y-67653239D01*
X102452123Y-59562311D02*
X106701588Y-63811775D01*
X84229973Y-57228858D02*
X85050579Y-57228858D01*
X92487716Y-67653239D02*
X92900313Y-67240642D01*
%TO.N,/RCO*%
X110157713Y-67267901D02*
X110570310Y-67680497D01*
X105696223Y-67267901D02*
X110157713Y-67267901D01*
X89052803Y-62107895D02*
X100536218Y-62107895D01*
X100536218Y-62107895D02*
X105696223Y-67267901D01*
X88410185Y-62750514D02*
X89052803Y-62107895D01*
%TO.N,/QD2*%
X83176746Y-69108252D02*
X83848498Y-69108252D01*
X83848498Y-69108252D02*
X85439488Y-67517262D01*
X82160563Y-68092069D02*
X83176746Y-69108252D01*
%TO.N,/QC2*%
X84866731Y-69886070D02*
X86337513Y-68415288D01*
X83035466Y-69886070D02*
X84866731Y-69886070D01*
X81701014Y-68551618D02*
X83035466Y-69886070D01*
%TO.N,/QB2*%
X86278965Y-74048807D02*
X85616264Y-73386107D01*
X85616264Y-70932588D02*
X87235539Y-69313313D01*
X85616264Y-73386107D02*
X85616264Y-70932588D01*
%TO.N,/QA2*%
X86738584Y-73589188D02*
X86323371Y-73173975D01*
X86323371Y-73173975D02*
X86323371Y-72021532D01*
X86323371Y-72021532D02*
X88133565Y-70211339D01*
%TO.N,/QD1*%
X107868915Y-74220634D02*
X108600000Y-73489549D01*
X108600000Y-73489549D02*
X108600000Y-72894392D01*
X108600000Y-72894392D02*
X106978208Y-71272600D01*
%TO.N,/QC1*%
X108328464Y-74680183D02*
X109600000Y-73408647D01*
X109600000Y-72098341D02*
X107876233Y-70374574D01*
X109600000Y-73408647D02*
X109600000Y-72098341D01*
%TO.N,/QB1*%
X112727885Y-71200000D02*
X110497710Y-71200000D01*
X113825653Y-70102232D02*
X112727885Y-71200000D01*
X110497710Y-71200000D02*
X108774259Y-69476549D01*
%TO.N,/QA1*%
X112808647Y-70200000D02*
X111293762Y-70200000D01*
X113366034Y-69642613D02*
X112808647Y-70200000D01*
X111293762Y-70200000D02*
X109672285Y-68578523D01*
%TO.N,/RST*%
X76609975Y-34509975D02*
X75169973Y-33069973D01*
X75169973Y-29633325D02*
X76609974Y-28193324D01*
X76609975Y-57228858D02*
X76609975Y-34509975D01*
X75169973Y-33069973D02*
X75169973Y-29633325D01*
%TO.N,/D15*%
X78049974Y-45968858D02*
X78049974Y-31150026D01*
X79149974Y-30050026D02*
X79149974Y-28193324D01*
X78049974Y-31150026D02*
X79149974Y-30050026D01*
X89309974Y-57228858D02*
X78049974Y-45968858D01*
%TO.N,/D16*%
X91849974Y-57228858D02*
X80589973Y-45968858D01*
X80589973Y-45968858D02*
X80589973Y-31060027D01*
X80589973Y-31060027D02*
X81689973Y-29960027D01*
X81689973Y-29960027D02*
X81689973Y-28193324D01*
%TO.N,/D17*%
X83129973Y-45968858D02*
X83129973Y-31120027D01*
X94389973Y-57228858D02*
X83129973Y-45968858D01*
X83129973Y-31120027D02*
X84229973Y-30020027D01*
X84229973Y-30020027D02*
X84229973Y-28193324D01*
%TO.N,/D18*%
X86769974Y-30030026D02*
X86769974Y-28193325D01*
X85669973Y-31130027D02*
X86769974Y-30030026D01*
X96929973Y-57228858D02*
X85669973Y-45968858D01*
X85669973Y-45968858D02*
X85669973Y-31130027D01*
%TO.N,/D8*%
X99469974Y-57228858D02*
X88209974Y-45968858D01*
X88209974Y-45968858D02*
X88209974Y-31273223D01*
X88209974Y-31273223D02*
X89309974Y-30173223D01*
X89309974Y-30173223D02*
X89309974Y-28193324D01*
%TO.N,/D3*%
X102009974Y-57228858D02*
X90749974Y-45968858D01*
X91849974Y-30100026D02*
X91849974Y-28193324D01*
X90749974Y-45968858D02*
X90749974Y-31200026D01*
X90749974Y-31200026D02*
X91849974Y-30100026D01*
%TO.N,/D46*%
X93289973Y-45968858D02*
X93289973Y-31110027D01*
X93289973Y-31110027D02*
X94389973Y-30010027D01*
X94389973Y-30010027D02*
X94389973Y-28193324D01*
X104549973Y-57228858D02*
X93289973Y-45968858D01*
%TO.N,/D9*%
X107089973Y-57228858D02*
X95829973Y-45968858D01*
X95829973Y-45968858D02*
X95829973Y-31273223D01*
X95829973Y-31273223D02*
X96929974Y-30173222D01*
X96929974Y-30173222D02*
X96929974Y-28193325D01*
%TO.N,/D10*%
X109629974Y-57228858D02*
X98369974Y-45968858D01*
X98369974Y-31180026D02*
X99469974Y-30080026D01*
X99469974Y-30080026D02*
X99469974Y-28193324D01*
X98369974Y-45968858D02*
X98369974Y-31180026D01*
%TO.N,/D11*%
X100909974Y-45968858D02*
X100909974Y-31140026D01*
X102009974Y-30040026D02*
X102009974Y-28193324D01*
X100909974Y-31140026D02*
X102009974Y-30040026D01*
X112169974Y-57228858D02*
X100909974Y-45968858D01*
%TO.N,/D12*%
X114709974Y-57228858D02*
X103364645Y-45883529D01*
X103364645Y-45883529D02*
X103364645Y-31185355D01*
X103364645Y-31185355D02*
X104549973Y-30000027D01*
X104549973Y-30000027D02*
X104549973Y-28193324D01*
%TO.N,/D13*%
X117249973Y-57228858D02*
X105800000Y-45778885D01*
X105800000Y-31450000D02*
X107089974Y-30160026D01*
X105800000Y-45778885D02*
X105800000Y-31450000D01*
X107089974Y-30160026D02*
X107089974Y-28193325D01*
%TO.N,/D14*%
X108300000Y-45738885D02*
X108300000Y-31350000D01*
X108300000Y-31350000D02*
X109629974Y-30020026D01*
X109629974Y-30020026D02*
X109629974Y-28193324D01*
X119789973Y-57228858D02*
X108300000Y-45738885D01*
%TO.N,Net-(R4-Pad2)*%
X81578685Y-62807931D02*
X78333065Y-66053552D01*
X78333065Y-66053552D02*
X78333065Y-66972790D01*
%TO.N,/I7A*%
X118001755Y-83253216D02*
X118001755Y-81270489D01*
X119910943Y-79361300D02*
X119910943Y-74827049D01*
X120900893Y-84650459D02*
X119398998Y-84650459D01*
X117856411Y-73425667D02*
X117502750Y-73779329D01*
X118001755Y-81270489D02*
X119910943Y-79361300D01*
X119398998Y-84650459D02*
X118001755Y-83253216D01*
X118509562Y-73425667D02*
X117856411Y-73425667D01*
X119910943Y-74827049D02*
X118509562Y-73425667D01*
%TO.N,/I6A*%
X120310944Y-74661364D02*
X120310943Y-79526986D01*
X120310943Y-79526986D02*
X119104842Y-80733088D01*
X118576209Y-72926629D02*
X120310944Y-74661364D01*
X117043130Y-73319709D02*
X117436211Y-72926629D01*
X119104842Y-80733088D02*
X119104842Y-82854408D01*
X117436211Y-72926629D02*
X118576209Y-72926629D01*
%TO.N,/I5A*%
X119838893Y-80618462D02*
X119838893Y-81551992D01*
X119838893Y-81551992D02*
X121141309Y-82854408D01*
X116583511Y-72860090D02*
X116975248Y-72468353D01*
X120710944Y-74495679D02*
X120710944Y-79746411D01*
X116975248Y-72468353D02*
X118683618Y-72468353D01*
X118683618Y-72468353D02*
X120710944Y-74495679D01*
X121141309Y-82854408D02*
X122696944Y-82854408D01*
X120710944Y-79746411D02*
X119838893Y-80618462D01*
%TO.N,/I4A*%
X116123892Y-72400471D02*
X116516972Y-72007390D01*
X118788341Y-72007390D02*
X121110945Y-74329994D01*
X121110945Y-74329994D02*
X121110945Y-80848305D01*
X116516972Y-72007390D02*
X118788341Y-72007390D01*
X121110945Y-80848305D02*
X120900893Y-81058357D01*
%TO.N,/I3A*%
X122991100Y-81058357D02*
X124492995Y-81058357D01*
X118895609Y-71548973D02*
X121537289Y-74190653D01*
X115664131Y-71940710D02*
X116055868Y-71548973D01*
X121537289Y-74190653D02*
X121537289Y-79604545D01*
X121537289Y-79604545D02*
X122991100Y-81058357D01*
X116055868Y-71548973D02*
X118895609Y-71548973D01*
%TO.N,/I2A*%
X119039821Y-71127500D02*
X122696944Y-74784623D01*
X122696944Y-74784623D02*
X122696944Y-79262306D01*
X115204511Y-71481090D02*
X115558102Y-71127500D01*
X115558102Y-71127500D02*
X119039821Y-71127500D01*
%TO.N,/I1A*%
X124787152Y-79262306D02*
X126289047Y-79262306D01*
X115136629Y-70629734D02*
X119107741Y-70629734D01*
X123430995Y-77906149D02*
X124787152Y-79262306D01*
X119107741Y-70629734D02*
X123430995Y-74952988D01*
X114744892Y-71021471D02*
X115136629Y-70629734D01*
X123430995Y-74952988D02*
X123430995Y-77906149D01*
%TO.N,/I0A*%
X114285273Y-70561852D02*
X114677010Y-70170114D01*
X114677010Y-70170114D02*
X119213807Y-70170114D01*
X119213807Y-70170114D02*
X124492995Y-75449303D01*
X124492995Y-75449303D02*
X124492995Y-77466254D01*
%TO.N,/I15A*%
X117601755Y-83418901D02*
X119104842Y-84921988D01*
X109601293Y-75245831D02*
X114664103Y-75245831D01*
X114664103Y-75245831D02*
X117601755Y-78183483D01*
X109247702Y-75599422D02*
X109601293Y-75245831D01*
X117601755Y-78183483D02*
X117601755Y-83418901D01*
X119104842Y-84921988D02*
X119104842Y-86446510D01*
%TO.N,/I14A*%
X117201754Y-78349168D02*
X117201754Y-84543423D01*
X110099059Y-75667304D02*
X114519891Y-75667304D01*
X117201754Y-84543423D02*
X117308790Y-84650459D01*
X114519891Y-75667304D02*
X117201754Y-78349168D01*
X109707322Y-76059041D02*
X110099059Y-75667304D01*
%TO.N,/I13A*%
X110166941Y-76518661D02*
X110576992Y-76108609D01*
X114395510Y-76108609D02*
X115912740Y-77625838D01*
X110576992Y-76108609D02*
X114395510Y-76108609D01*
X115912740Y-77625838D02*
X115912740Y-85121170D01*
X115912740Y-85121170D02*
X117308790Y-86517221D01*
X117308790Y-86517221D02*
X117308790Y-88242562D01*
%TO.N,/I12A*%
X110626561Y-76978280D02*
X111018298Y-76586543D01*
X115512739Y-77791523D02*
X115512739Y-86446510D01*
X114307758Y-76586543D02*
X115512739Y-77791523D01*
X111018298Y-76586543D02*
X114307758Y-76586543D01*
%TO.N,/I11A*%
X111086321Y-77438041D02*
X111478059Y-77046304D01*
X114450739Y-86006616D02*
X114450739Y-87336125D01*
X114450739Y-87336125D02*
X115512739Y-88398125D01*
X111478059Y-77046304D02*
X114201835Y-77046304D01*
X115112739Y-85344616D02*
X114450739Y-86006616D01*
X115512739Y-88398125D02*
X115512739Y-90038613D01*
X115112739Y-77957208D02*
X115112739Y-85344616D01*
X114201835Y-77046304D02*
X115112739Y-77957208D01*
%TO.N,/I10A*%
X114678353Y-78371351D02*
X114678353Y-85213316D01*
X114678353Y-85213316D02*
X113688404Y-86203266D01*
X113688404Y-86203266D02*
X113688404Y-88214277D01*
X111937678Y-77505923D02*
X113812925Y-77505923D01*
X113812925Y-77505923D02*
X114678353Y-78371351D01*
X113688404Y-88214277D02*
X113716688Y-88242562D01*
X111545941Y-77897660D02*
X111937678Y-77505923D01*
%TO.N,/I9A*%
X112654688Y-89270769D02*
X113716688Y-90332769D01*
X112654688Y-86671296D02*
X112654688Y-89270769D01*
X114139538Y-78398221D02*
X114139538Y-85186446D01*
X112397297Y-77965542D02*
X113706859Y-77965542D01*
X113716688Y-90332769D02*
X113716688Y-91834664D01*
X113706859Y-77965542D02*
X114139538Y-78398221D01*
X114139538Y-85186446D02*
X112654688Y-86671296D01*
X112005560Y-78357280D02*
X112397297Y-77965542D01*
%TO.N,/I8A*%
X111920637Y-86785922D02*
X111920637Y-90038613D01*
X112856917Y-78425162D02*
X113439795Y-78425162D01*
X113739537Y-84967021D02*
X111920637Y-86785922D01*
X113739537Y-78724904D02*
X113739537Y-84967021D01*
X112465180Y-78816899D02*
X112856917Y-78425162D01*
X113439795Y-78425162D02*
X113739537Y-78724904D01*
%TO.N,/TX*%
X74069973Y-29035749D02*
X76141034Y-26964688D01*
X74069973Y-31728858D02*
X74069973Y-29035749D01*
X77838610Y-26964688D02*
X79149974Y-25653325D01*
X76141034Y-26964688D02*
X77838610Y-26964688D01*
%TO.N,/RX*%
X77838090Y-27671795D02*
X78545197Y-26964688D01*
X76609974Y-31728858D02*
X77838090Y-30500742D01*
X77838090Y-30500742D02*
X77838090Y-27671795D01*
X80378610Y-26964688D02*
X81689973Y-25653325D01*
X78545197Y-26964688D02*
X80378610Y-26964688D01*
%TO.N,/D1*%
X81161492Y-26893977D02*
X82989320Y-26893977D01*
X79149974Y-31728858D02*
X80400000Y-30478832D01*
X80400000Y-30478832D02*
X80400000Y-27655469D01*
X80400000Y-27655469D02*
X81161492Y-26893977D01*
X82989320Y-26893977D02*
X84229973Y-25653325D01*
%TO.N,/D2*%
X81689973Y-31728858D02*
X82929259Y-30489573D01*
X82929259Y-30489573D02*
X82929259Y-27671795D01*
X82929259Y-27671795D02*
X83636365Y-26964688D01*
X85458609Y-26964688D02*
X86769974Y-25653324D01*
X83636365Y-26964688D02*
X85458609Y-26964688D01*
%TO.N,/D42*%
X86181950Y-26964688D02*
X87998610Y-26964688D01*
X84229973Y-31728858D02*
X85474843Y-30483988D01*
X85474843Y-27671795D02*
X86181950Y-26964688D01*
X87998610Y-26964688D02*
X89309974Y-25653325D01*
X85474843Y-30483988D02*
X85474843Y-27671795D01*
%TO.N,/D41*%
X88020428Y-30478403D02*
X88020428Y-27671795D01*
X86769973Y-31728858D02*
X88020428Y-30478403D01*
X88020428Y-27671795D02*
X88727534Y-26964688D01*
X90538610Y-26964688D02*
X91849974Y-25653325D01*
X88727534Y-26964688D02*
X90538610Y-26964688D01*
%TO.N,/D40*%
X90566012Y-27671795D02*
X91273119Y-26964688D01*
X90566012Y-30472820D02*
X90566012Y-27671795D01*
X91273119Y-26964688D02*
X93078610Y-26964688D01*
X93078610Y-26964688D02*
X94389973Y-25653325D01*
X89309974Y-31728858D02*
X90566012Y-30472820D01*
%TO.N,/D39*%
X95618609Y-26964688D02*
X96929974Y-25653324D01*
X93111596Y-27671795D02*
X93818703Y-26964688D01*
X93111596Y-30467235D02*
X93111596Y-27671795D01*
X91849974Y-31728858D02*
X93111596Y-30467235D01*
X93818703Y-26964688D02*
X95618609Y-26964688D01*
%TO.N,/D38*%
X95657181Y-27671795D02*
X96364288Y-26964688D01*
X94389973Y-31728858D02*
X95657181Y-30461651D01*
X98158611Y-26964688D02*
X99469974Y-25653325D01*
X95657181Y-30461651D02*
X95657181Y-27671795D01*
X96364288Y-26964688D02*
X98158611Y-26964688D01*
%TO.N,/D37*%
X96929973Y-31728858D02*
X98202765Y-30456066D01*
X98909872Y-26964688D02*
X100698610Y-26964688D01*
X98202765Y-27671795D02*
X98909872Y-26964688D01*
X100698610Y-26964688D02*
X102009974Y-25653325D01*
X98202765Y-30456066D02*
X98202765Y-27671795D01*
%TO.N,/D36*%
X100748350Y-27671795D02*
X101526167Y-26893977D01*
X103309321Y-26893977D02*
X104549973Y-25653325D01*
X100748350Y-30450483D02*
X100748350Y-27671795D01*
X101526167Y-26893977D02*
X103309321Y-26893977D01*
X99469974Y-31728858D02*
X100748350Y-30450483D01*
%TO.N,/D35*%
X105778610Y-26964688D02*
X107089974Y-25653324D01*
X103293934Y-27671795D02*
X104001041Y-26964688D01*
X104001041Y-26964688D02*
X105778610Y-26964688D01*
X103293934Y-30444898D02*
X103293934Y-27671795D01*
X102009974Y-31728858D02*
X103293934Y-30444898D01*
%TO.N,/D0*%
X106546625Y-26964688D02*
X108318611Y-26964688D01*
X105839518Y-27671795D02*
X106546625Y-26964688D01*
X104549973Y-31728858D02*
X105839518Y-30439313D01*
X108318611Y-26964688D02*
X109629974Y-25653325D01*
X105839518Y-30439313D02*
X105839518Y-27671795D01*
%TO.N,/D45*%
X108314392Y-30504439D02*
X108314392Y-27742505D01*
X109092210Y-26964688D02*
X110858610Y-26964688D01*
X107089973Y-31728858D02*
X108314392Y-30504439D01*
X110858610Y-26964688D02*
X112169974Y-25653325D01*
X108314392Y-27742505D02*
X109092210Y-26964688D01*
%TO.N,/D48*%
X113398610Y-26964688D02*
X114709974Y-25653325D01*
X110859977Y-30498856D02*
X110859977Y-27742505D01*
X109629974Y-31728858D02*
X110859977Y-30498856D01*
X111637794Y-26964688D02*
X113398610Y-26964688D01*
X110859977Y-27742505D02*
X111637794Y-26964688D01*
%TO.N,/D47*%
X112169974Y-31728858D02*
X112169974Y-28193324D01*
%TO.N,/D21*%
X114709974Y-31728858D02*
X114709974Y-28193324D01*
%TO.N,/D20*%
X117249973Y-31728858D02*
X117249973Y-28193324D01*
%TO.N,/D19*%
X119789973Y-28193324D02*
X117249973Y-25653325D01*
X119789973Y-31728858D02*
X119789973Y-28193324D01*
%TD*%
%TA.AperFunction,Conductor*%
%TO.N,GND*%
G36*
X133242539Y-15920185D02*
G01*
X133288294Y-15972989D01*
X133299500Y-16024500D01*
X133299500Y-28230229D01*
X133279815Y-28297268D01*
X133276974Y-28301496D01*
X133252155Y-28336835D01*
X133243185Y-28348145D01*
X133237096Y-28354966D01*
X133232830Y-28359510D01*
X128910762Y-32736989D01*
X128849653Y-32770864D01*
X128779931Y-32766323D01*
X128723732Y-32724809D01*
X128698899Y-32659502D01*
X128700050Y-32630478D01*
X128718234Y-32515675D01*
X128718234Y-19838154D01*
X128724303Y-19799836D01*
X128754673Y-19706367D01*
X128775138Y-19643384D01*
X128800760Y-19481614D01*
X128812085Y-19410113D01*
X128812085Y-19173918D01*
X128775138Y-18940647D01*
X128702151Y-18716019D01*
X128645587Y-18605007D01*
X128594928Y-18505583D01*
X128456102Y-18314506D01*
X128289095Y-18147499D01*
X128098018Y-18008673D01*
X127887581Y-17901449D01*
X127662953Y-17828462D01*
X127429682Y-17791516D01*
X127429677Y-17791516D01*
X127193493Y-17791516D01*
X127193488Y-17791516D01*
X126960216Y-17828462D01*
X126735588Y-17901449D01*
X126525151Y-18008673D01*
X126416135Y-18087878D01*
X126334075Y-18147499D01*
X126334073Y-18147501D01*
X126334072Y-18147501D01*
X126167070Y-18314503D01*
X126167070Y-18314504D01*
X126167068Y-18314506D01*
X126166829Y-18314835D01*
X126141590Y-18349572D01*
X126086258Y-18392236D01*
X126016645Y-18398212D01*
X125954851Y-18365605D01*
X125940956Y-18349568D01*
X125915721Y-18314835D01*
X125915716Y-18314829D01*
X125748769Y-18147882D01*
X125557754Y-18009101D01*
X125347385Y-17901913D01*
X125122830Y-17828950D01*
X125021583Y-17812913D01*
X125021583Y-18692014D01*
X124961181Y-18666995D01*
X124835602Y-18642016D01*
X124707564Y-18642016D01*
X124581985Y-18666995D01*
X124521583Y-18692014D01*
X124521583Y-17812913D01*
X124420335Y-17828950D01*
X124195780Y-17901913D01*
X123985411Y-18009101D01*
X123794396Y-18147882D01*
X123627449Y-18314829D01*
X123488668Y-18505844D01*
X123381480Y-18716213D01*
X123308517Y-18940768D01*
X123292481Y-19042016D01*
X124171582Y-19042016D01*
X124146562Y-19102418D01*
X124121583Y-19227997D01*
X124121583Y-19356035D01*
X124146562Y-19481614D01*
X124171582Y-19542016D01*
X123292481Y-19542016D01*
X123308517Y-19643263D01*
X123381480Y-19867818D01*
X123488668Y-20078187D01*
X123627449Y-20269202D01*
X123794396Y-20436149D01*
X123985411Y-20574930D01*
X124195778Y-20682118D01*
X124420327Y-20755079D01*
X124420333Y-20755081D01*
X124521583Y-20771117D01*
X124521583Y-19892017D01*
X124581985Y-19917037D01*
X124707564Y-19942016D01*
X124835602Y-19942016D01*
X124961181Y-19917037D01*
X125021583Y-19892017D01*
X125021583Y-20771116D01*
X125122832Y-20755081D01*
X125122838Y-20755079D01*
X125347387Y-20682118D01*
X125557754Y-20574930D01*
X125748769Y-20436149D01*
X125877053Y-20307866D01*
X125938376Y-20274381D01*
X126008068Y-20279365D01*
X126064001Y-20321237D01*
X126088418Y-20386701D01*
X126088734Y-20395547D01*
X126088734Y-30813012D01*
X126069049Y-30880051D01*
X126016245Y-30925806D01*
X125947087Y-30935750D01*
X125883531Y-30906725D01*
X125864417Y-30885899D01*
X125861559Y-30881965D01*
X125716869Y-30737275D01*
X125551323Y-30616998D01*
X125369003Y-30524102D01*
X125174387Y-30460867D01*
X125119974Y-30452248D01*
X125119974Y-31266978D01*
X125072616Y-31239636D01*
X124939092Y-31203858D01*
X124800856Y-31203858D01*
X124667332Y-31239636D01*
X124619974Y-31266978D01*
X124619974Y-30452248D01*
X124565560Y-30460867D01*
X124370944Y-30524102D01*
X124188624Y-30616998D01*
X124023079Y-30737275D01*
X124023078Y-30737275D01*
X123878391Y-30881962D01*
X123878391Y-30881963D01*
X123758112Y-31047510D01*
X123710458Y-31141037D01*
X123662484Y-31191832D01*
X123594663Y-31208627D01*
X123528528Y-31186089D01*
X123489489Y-31141036D01*
X123441834Y-31047508D01*
X123321557Y-30881963D01*
X123321557Y-30881962D01*
X123176870Y-30737275D01*
X123011324Y-30616998D01*
X122829004Y-30524102D01*
X122634388Y-30460867D01*
X122579975Y-30452248D01*
X122579975Y-31266978D01*
X122532617Y-31239636D01*
X122399093Y-31203858D01*
X122260857Y-31203858D01*
X122127333Y-31239636D01*
X122079975Y-31266978D01*
X122079975Y-30452248D01*
X122025561Y-30460867D01*
X121830945Y-30524102D01*
X121648625Y-30616998D01*
X121483080Y-30737275D01*
X121483079Y-30737275D01*
X121338392Y-30881962D01*
X121338392Y-30881963D01*
X121218115Y-31047508D01*
X121170739Y-31140489D01*
X121122764Y-31191285D01*
X121054943Y-31208080D01*
X120988808Y-31185542D01*
X120949769Y-31140489D01*
X120902392Y-31047508D01*
X120902260Y-31047248D01*
X120894529Y-31036607D01*
X120781944Y-30881644D01*
X120637186Y-30736886D01*
X120471583Y-30616570D01*
X120458173Y-30609737D01*
X120407379Y-30561761D01*
X120390473Y-30499255D01*
X120390473Y-28282383D01*
X120390474Y-28282370D01*
X120390474Y-28114269D01*
X120390474Y-28114267D01*
X120349550Y-27961539D01*
X120310670Y-27894197D01*
X120270493Y-27824608D01*
X120158689Y-27712804D01*
X120158688Y-27712803D01*
X120154358Y-27708473D01*
X120154347Y-27708463D01*
X118586792Y-26140908D01*
X118553307Y-26079585D01*
X118550473Y-26053227D01*
X118550473Y-24805453D01*
X118550472Y-24805447D01*
X118544065Y-24745840D01*
X118493771Y-24610995D01*
X118493767Y-24610988D01*
X118407521Y-24495779D01*
X118407518Y-24495776D01*
X118292309Y-24409530D01*
X118292302Y-24409526D01*
X118157456Y-24359232D01*
X118157457Y-24359232D01*
X118097857Y-24352825D01*
X118097855Y-24352824D01*
X118097847Y-24352824D01*
X118097838Y-24352824D01*
X116402103Y-24352824D01*
X116402097Y-24352825D01*
X116342490Y-24359232D01*
X116207645Y-24409526D01*
X116207638Y-24409530D01*
X116092429Y-24495776D01*
X116092426Y-24495779D01*
X116006180Y-24610988D01*
X116006176Y-24610995D01*
X115955882Y-24745840D01*
X115951913Y-24782764D01*
X115925175Y-24847315D01*
X115867783Y-24887163D01*
X115797957Y-24889656D01*
X115737869Y-24854003D01*
X115728306Y-24842394D01*
X115701941Y-24806106D01*
X115557187Y-24661352D01*
X115391587Y-24541039D01*
X115391586Y-24541038D01*
X115391584Y-24541037D01*
X115334627Y-24512015D01*
X115209197Y-24448105D01*
X115014508Y-24384846D01*
X114839969Y-24357202D01*
X114812326Y-24352824D01*
X114607622Y-24352824D01*
X114583303Y-24356675D01*
X114405439Y-24384846D01*
X114210750Y-24448105D01*
X114028360Y-24541039D01*
X113862760Y-24661352D01*
X113718002Y-24806110D01*
X113597689Y-24971710D01*
X113550459Y-25064404D01*
X113502484Y-25115200D01*
X113434663Y-25131995D01*
X113368528Y-25109458D01*
X113329489Y-25064404D01*
X113328857Y-25063164D01*
X113282261Y-24971714D01*
X113220832Y-24887163D01*
X113161945Y-24806110D01*
X113017187Y-24661352D01*
X112851587Y-24541039D01*
X112851586Y-24541038D01*
X112851584Y-24541037D01*
X112794627Y-24512015D01*
X112669197Y-24448105D01*
X112474508Y-24384846D01*
X112299969Y-24357202D01*
X112272326Y-24352824D01*
X112067622Y-24352824D01*
X112043303Y-24356675D01*
X111865439Y-24384846D01*
X111670750Y-24448105D01*
X111488360Y-24541039D01*
X111322760Y-24661352D01*
X111178002Y-24806110D01*
X111057686Y-24971713D01*
X111057685Y-24971715D01*
X111010458Y-25064403D01*
X110962484Y-25115199D01*
X110894663Y-25131994D01*
X110828528Y-25109456D01*
X110789489Y-25064403D01*
X110742262Y-24971715D01*
X110742262Y-24971714D01*
X110742260Y-24971711D01*
X110742259Y-24971709D01*
X110621946Y-24806110D01*
X110477188Y-24661352D01*
X110311588Y-24541039D01*
X110311587Y-24541038D01*
X110311585Y-24541037D01*
X110254628Y-24512015D01*
X110129198Y-24448105D01*
X109934509Y-24384846D01*
X109759970Y-24357202D01*
X109732327Y-24352824D01*
X109527623Y-24352824D01*
X109503304Y-24356675D01*
X109325440Y-24384846D01*
X109130751Y-24448105D01*
X108948361Y-24541039D01*
X108782761Y-24661352D01*
X108638003Y-24806110D01*
X108517688Y-24971712D01*
X108470458Y-25064405D01*
X108422483Y-25115200D01*
X108354662Y-25131995D01*
X108288528Y-25109457D01*
X108249489Y-25064404D01*
X108249488Y-25064403D01*
X108202261Y-24971713D01*
X108202259Y-24971710D01*
X108202258Y-24971708D01*
X108081945Y-24806109D01*
X107937187Y-24661351D01*
X107771587Y-24541038D01*
X107771586Y-24541037D01*
X107771584Y-24541036D01*
X107714627Y-24512014D01*
X107589197Y-24448104D01*
X107394508Y-24384845D01*
X107219969Y-24357201D01*
X107192326Y-24352823D01*
X106987622Y-24352823D01*
X106963303Y-24356674D01*
X106785439Y-24384845D01*
X106590750Y-24448104D01*
X106408360Y-24541038D01*
X106242760Y-24661351D01*
X106098002Y-24806109D01*
X105977687Y-24971711D01*
X105930457Y-25064404D01*
X105882482Y-25115199D01*
X105814661Y-25131994D01*
X105748527Y-25109456D01*
X105709488Y-25064403D01*
X105662261Y-24971715D01*
X105662261Y-24971714D01*
X105662259Y-24971711D01*
X105662258Y-24971709D01*
X105541945Y-24806110D01*
X105397187Y-24661352D01*
X105231587Y-24541039D01*
X105231586Y-24541038D01*
X105231584Y-24541037D01*
X105174627Y-24512015D01*
X105049197Y-24448105D01*
X104854508Y-24384846D01*
X104679969Y-24357202D01*
X104652326Y-24352824D01*
X104447622Y-24352824D01*
X104423303Y-24356675D01*
X104245439Y-24384846D01*
X104050750Y-24448105D01*
X103868360Y-24541039D01*
X103702760Y-24661352D01*
X103558002Y-24806110D01*
X103437689Y-24971710D01*
X103390459Y-25064404D01*
X103342484Y-25115200D01*
X103274663Y-25131995D01*
X103208528Y-25109458D01*
X103169489Y-25064404D01*
X103168857Y-25063164D01*
X103122261Y-24971714D01*
X103060832Y-24887163D01*
X103001945Y-24806110D01*
X102857187Y-24661352D01*
X102691587Y-24541039D01*
X102691586Y-24541038D01*
X102691584Y-24541037D01*
X102634627Y-24512015D01*
X102509197Y-24448105D01*
X102314508Y-24384846D01*
X102139969Y-24357202D01*
X102112326Y-24352824D01*
X101907622Y-24352824D01*
X101883303Y-24356675D01*
X101705439Y-24384846D01*
X101510750Y-24448105D01*
X101328360Y-24541039D01*
X101162760Y-24661352D01*
X101018002Y-24806110D01*
X100897689Y-24971710D01*
X100850459Y-25064404D01*
X100802484Y-25115200D01*
X100734663Y-25131995D01*
X100668528Y-25109458D01*
X100629489Y-25064404D01*
X100628857Y-25063164D01*
X100582261Y-24971714D01*
X100520832Y-24887163D01*
X100461945Y-24806110D01*
X100317187Y-24661352D01*
X100151587Y-24541039D01*
X100151586Y-24541038D01*
X100151584Y-24541037D01*
X100094627Y-24512015D01*
X99969197Y-24448105D01*
X99774508Y-24384846D01*
X99599969Y-24357202D01*
X99572326Y-24352824D01*
X99367622Y-24352824D01*
X99343303Y-24356675D01*
X99165439Y-24384846D01*
X98970750Y-24448105D01*
X98788360Y-24541039D01*
X98622760Y-24661352D01*
X98478002Y-24806110D01*
X98357686Y-24971713D01*
X98357685Y-24971715D01*
X98310458Y-25064403D01*
X98262484Y-25115199D01*
X98194663Y-25131994D01*
X98128528Y-25109456D01*
X98089489Y-25064403D01*
X98088857Y-25063163D01*
X98042261Y-24971713D01*
X97982644Y-24889656D01*
X97921945Y-24806109D01*
X97777187Y-24661351D01*
X97611587Y-24541038D01*
X97611586Y-24541037D01*
X97611584Y-24541036D01*
X97554627Y-24512014D01*
X97429197Y-24448104D01*
X97234508Y-24384845D01*
X97059969Y-24357201D01*
X97032326Y-24352823D01*
X96827622Y-24352823D01*
X96803303Y-24356674D01*
X96625439Y-24384845D01*
X96430750Y-24448104D01*
X96248360Y-24541038D01*
X96082760Y-24661351D01*
X95938002Y-24806109D01*
X95817687Y-24971711D01*
X95770457Y-25064404D01*
X95722482Y-25115199D01*
X95654661Y-25131994D01*
X95588527Y-25109456D01*
X95549488Y-25064403D01*
X95502261Y-24971715D01*
X95502261Y-24971714D01*
X95502259Y-24971711D01*
X95502258Y-24971709D01*
X95381945Y-24806110D01*
X95237187Y-24661352D01*
X95071587Y-24541039D01*
X95071586Y-24541038D01*
X95071584Y-24541037D01*
X95014627Y-24512015D01*
X94889197Y-24448105D01*
X94694508Y-24384846D01*
X94519969Y-24357202D01*
X94492326Y-24352824D01*
X94287622Y-24352824D01*
X94263303Y-24356675D01*
X94085439Y-24384846D01*
X93890750Y-24448105D01*
X93708360Y-24541039D01*
X93542760Y-24661352D01*
X93398002Y-24806110D01*
X93277689Y-24971710D01*
X93230459Y-25064404D01*
X93182484Y-25115200D01*
X93114663Y-25131995D01*
X93048528Y-25109458D01*
X93009489Y-25064404D01*
X93008857Y-25063164D01*
X92962261Y-24971714D01*
X92900832Y-24887163D01*
X92841945Y-24806110D01*
X92697187Y-24661352D01*
X92531587Y-24541039D01*
X92531586Y-24541038D01*
X92531584Y-24541037D01*
X92474627Y-24512015D01*
X92349197Y-24448105D01*
X92154508Y-24384846D01*
X91979969Y-24357202D01*
X91952326Y-24352824D01*
X91747622Y-24352824D01*
X91723303Y-24356675D01*
X91545439Y-24384846D01*
X91350750Y-24448105D01*
X91168360Y-24541039D01*
X91002760Y-24661352D01*
X90858002Y-24806110D01*
X90737689Y-24971710D01*
X90690459Y-25064404D01*
X90642484Y-25115200D01*
X90574663Y-25131995D01*
X90508528Y-25109458D01*
X90469489Y-25064404D01*
X90468857Y-25063164D01*
X90422261Y-24971714D01*
X90360832Y-24887163D01*
X90301945Y-24806110D01*
X90157187Y-24661352D01*
X89991587Y-24541039D01*
X89991586Y-24541038D01*
X89991584Y-24541037D01*
X89934627Y-24512015D01*
X89809197Y-24448105D01*
X89614508Y-24384846D01*
X89439969Y-24357202D01*
X89412326Y-24352824D01*
X89207622Y-24352824D01*
X89183303Y-24356675D01*
X89005439Y-24384846D01*
X88810750Y-24448105D01*
X88628360Y-24541039D01*
X88462760Y-24661352D01*
X88318002Y-24806110D01*
X88197686Y-24971713D01*
X88197685Y-24971715D01*
X88150458Y-25064403D01*
X88102484Y-25115199D01*
X88034663Y-25131994D01*
X87968528Y-25109456D01*
X87929489Y-25064403D01*
X87928857Y-25063163D01*
X87882261Y-24971713D01*
X87822644Y-24889656D01*
X87761945Y-24806109D01*
X87617187Y-24661351D01*
X87451587Y-24541038D01*
X87451586Y-24541037D01*
X87451584Y-24541036D01*
X87394627Y-24512014D01*
X87269197Y-24448104D01*
X87074508Y-24384845D01*
X86899969Y-24357201D01*
X86872326Y-24352823D01*
X86667622Y-24352823D01*
X86643303Y-24356674D01*
X86465439Y-24384845D01*
X86270750Y-24448104D01*
X86088360Y-24541038D01*
X85922760Y-24661351D01*
X85778002Y-24806109D01*
X85657686Y-24971712D01*
X85657685Y-24971714D01*
X85610457Y-25064404D01*
X85562483Y-25115200D01*
X85494662Y-25131995D01*
X85428527Y-25109457D01*
X85389488Y-25064404D01*
X85388856Y-25063164D01*
X85342260Y-24971714D01*
X85280831Y-24887163D01*
X85221944Y-24806110D01*
X85077186Y-24661352D01*
X84911586Y-24541039D01*
X84911585Y-24541038D01*
X84911583Y-24541037D01*
X84854626Y-24512015D01*
X84729196Y-24448105D01*
X84534507Y-24384846D01*
X84359968Y-24357202D01*
X84332325Y-24352824D01*
X84127621Y-24352824D01*
X84103302Y-24356675D01*
X83925438Y-24384846D01*
X83730749Y-24448105D01*
X83548359Y-24541039D01*
X83382759Y-24661352D01*
X83238001Y-24806110D01*
X83117685Y-24971713D01*
X83117684Y-24971715D01*
X83070457Y-25064403D01*
X83022483Y-25115199D01*
X82954662Y-25131994D01*
X82888527Y-25109456D01*
X82849488Y-25064403D01*
X82802261Y-24971715D01*
X82802261Y-24971714D01*
X82802259Y-24971711D01*
X82802258Y-24971709D01*
X82681945Y-24806110D01*
X82537187Y-24661352D01*
X82371587Y-24541039D01*
X82371586Y-24541038D01*
X82371584Y-24541037D01*
X82314627Y-24512015D01*
X82189197Y-24448105D01*
X81994508Y-24384846D01*
X81819969Y-24357202D01*
X81792326Y-24352824D01*
X81587622Y-24352824D01*
X81563303Y-24356675D01*
X81385439Y-24384846D01*
X81190750Y-24448105D01*
X81008360Y-24541039D01*
X80842760Y-24661352D01*
X80698002Y-24806110D01*
X80577689Y-24971710D01*
X80530459Y-25064404D01*
X80482484Y-25115200D01*
X80414663Y-25131995D01*
X80348528Y-25109458D01*
X80309489Y-25064404D01*
X80308857Y-25063164D01*
X80262261Y-24971714D01*
X80200832Y-24887163D01*
X80141945Y-24806110D01*
X79997187Y-24661352D01*
X79831587Y-24541039D01*
X79831586Y-24541038D01*
X79831584Y-24541037D01*
X79774627Y-24512015D01*
X79649197Y-24448105D01*
X79454508Y-24384846D01*
X79279969Y-24357202D01*
X79252326Y-24352824D01*
X79047622Y-24352824D01*
X79023303Y-24356675D01*
X78845439Y-24384846D01*
X78650750Y-24448105D01*
X78468360Y-24541039D01*
X78302760Y-24661352D01*
X78158002Y-24806110D01*
X78037689Y-24971710D01*
X77990459Y-25064404D01*
X77942484Y-25115200D01*
X77874663Y-25131995D01*
X77808528Y-25109458D01*
X77769489Y-25064404D01*
X77768857Y-25063164D01*
X77722261Y-24971714D01*
X77660832Y-24887163D01*
X77601945Y-24806110D01*
X77457187Y-24661352D01*
X77291587Y-24541039D01*
X77291586Y-24541038D01*
X77291584Y-24541037D01*
X77234627Y-24512015D01*
X77109197Y-24448105D01*
X76914508Y-24384846D01*
X76739969Y-24357202D01*
X76712326Y-24352824D01*
X76507622Y-24352824D01*
X76483303Y-24356675D01*
X76305439Y-24384846D01*
X76110750Y-24448105D01*
X75928360Y-24541039D01*
X75762760Y-24661352D01*
X75618002Y-24806110D01*
X75497689Y-24971710D01*
X75404755Y-25154100D01*
X75341496Y-25348789D01*
X75309474Y-25550972D01*
X75309474Y-25755675D01*
X75341496Y-25957858D01*
X75346147Y-25972172D01*
X75348139Y-26042014D01*
X75315895Y-26098166D01*
X72603941Y-28810121D01*
X72603933Y-28810129D01*
X72601259Y-28812804D01*
X72601257Y-28812806D01*
X72489453Y-28924610D01*
X72470931Y-28956692D01*
X72464688Y-28967504D01*
X72464687Y-28967506D01*
X72410397Y-29061539D01*
X72410396Y-29061541D01*
X72369472Y-29214269D01*
X72369472Y-29214271D01*
X72369472Y-29382372D01*
X72369473Y-29382385D01*
X72369473Y-30304858D01*
X72349788Y-30371897D01*
X72296984Y-30417652D01*
X72245473Y-30428858D01*
X71779974Y-30428858D01*
X71779974Y-31266978D01*
X71732616Y-31239636D01*
X71599092Y-31203858D01*
X71460856Y-31203858D01*
X71327332Y-31239636D01*
X71279974Y-31266978D01*
X71279974Y-30428858D01*
X70682129Y-30428858D01*
X70622601Y-30435259D01*
X70622594Y-30435261D01*
X70487887Y-30485503D01*
X70487880Y-30485507D01*
X70372786Y-30571667D01*
X70372783Y-30571670D01*
X70286623Y-30686764D01*
X70286619Y-30686771D01*
X70236377Y-30821478D01*
X70236375Y-30821485D01*
X70229974Y-30881013D01*
X70229974Y-31478858D01*
X71068094Y-31478858D01*
X71040752Y-31526216D01*
X71004974Y-31659740D01*
X71004974Y-31797976D01*
X71040752Y-31931500D01*
X71068094Y-31978858D01*
X70229974Y-31978858D01*
X70229974Y-32576702D01*
X70236375Y-32636230D01*
X70236377Y-32636237D01*
X70286619Y-32770944D01*
X70286623Y-32770951D01*
X70372783Y-32886045D01*
X70372786Y-32886048D01*
X70487880Y-32972208D01*
X70487887Y-32972212D01*
X70622594Y-33022454D01*
X70622601Y-33022456D01*
X70682129Y-33028857D01*
X70682146Y-33028858D01*
X71279974Y-33028858D01*
X71279974Y-32190737D01*
X71327332Y-32218080D01*
X71460856Y-32253858D01*
X71599092Y-32253858D01*
X71732616Y-32218080D01*
X71779974Y-32190737D01*
X71779974Y-33028858D01*
X72354451Y-33028858D01*
X72421490Y-33048543D01*
X72461837Y-33090857D01*
X72477327Y-33117686D01*
X72489452Y-33138688D01*
X72608322Y-33257558D01*
X72608328Y-33257563D01*
X74363181Y-35012416D01*
X74396666Y-35073739D01*
X74399500Y-35100097D01*
X74399500Y-55616660D01*
X74379815Y-55683699D01*
X74327011Y-55729454D01*
X74257853Y-55739398D01*
X74256103Y-55739133D01*
X74188071Y-55728358D01*
X74188065Y-55728358D01*
X71411881Y-55728358D01*
X71411876Y-55728358D01*
X71178603Y-55765305D01*
X71178600Y-55765305D01*
X70953984Y-55838288D01*
X70953983Y-55838288D01*
X70803734Y-55914843D01*
X70747442Y-55928358D01*
X70682104Y-55928358D01*
X70682097Y-55928359D01*
X70622490Y-55934766D01*
X70487645Y-55985060D01*
X70487638Y-55985064D01*
X70372429Y-56071310D01*
X70372426Y-56071313D01*
X70286180Y-56186522D01*
X70286176Y-56186529D01*
X70235882Y-56321375D01*
X70229475Y-56380974D01*
X70229474Y-56380993D01*
X70229474Y-56446324D01*
X70215959Y-56502619D01*
X70139407Y-56652861D01*
X70066419Y-56877489D01*
X70029473Y-57110760D01*
X70029473Y-57346955D01*
X70066419Y-57580226D01*
X70139406Y-57804854D01*
X70189537Y-57903241D01*
X70215959Y-57955098D01*
X70229474Y-58011389D01*
X70229474Y-58076727D01*
X70229475Y-58076734D01*
X70235882Y-58136341D01*
X70286176Y-58271186D01*
X70286180Y-58271193D01*
X70372426Y-58386402D01*
X70372429Y-58386405D01*
X70487638Y-58472651D01*
X70487645Y-58472655D01*
X70622490Y-58522949D01*
X70648393Y-58525733D01*
X70682101Y-58529358D01*
X70747441Y-58529357D01*
X70803736Y-58542871D01*
X70852972Y-58567959D01*
X70953976Y-58619424D01*
X70953978Y-58619424D01*
X70953981Y-58619426D01*
X71031600Y-58644646D01*
X71178604Y-58692411D01*
X71411876Y-58729358D01*
X71411881Y-58729358D01*
X74188070Y-58729358D01*
X74421341Y-58692411D01*
X74645965Y-58619426D01*
X74856406Y-58512201D01*
X75047483Y-58373375D01*
X75214490Y-58206368D01*
X75353316Y-58015291D01*
X75353323Y-58015276D01*
X75355857Y-58011143D01*
X75357250Y-58011996D01*
X75400316Y-57966386D01*
X75468135Y-57949581D01*
X75534273Y-57972110D01*
X75563159Y-58000583D01*
X75618003Y-58076071D01*
X75762761Y-58220829D01*
X75915573Y-58331851D01*
X75928365Y-58341145D01*
X76017187Y-58386402D01*
X76110751Y-58434076D01*
X76110753Y-58434076D01*
X76110756Y-58434078D01*
X76215112Y-58467985D01*
X76305440Y-58497335D01*
X76399293Y-58512200D01*
X76507623Y-58529358D01*
X76507624Y-58529358D01*
X76712326Y-58529358D01*
X76712327Y-58529358D01*
X76914509Y-58497335D01*
X77109194Y-58434078D01*
X77291585Y-58341145D01*
X77421375Y-58246848D01*
X77457188Y-58220829D01*
X77457190Y-58220826D01*
X77457194Y-58220824D01*
X77601941Y-58076077D01*
X77601943Y-58076073D01*
X77601946Y-58076071D01*
X77722261Y-57910469D01*
X77722395Y-57910207D01*
X77769490Y-57817777D01*
X77817463Y-57766983D01*
X77885284Y-57750187D01*
X77951419Y-57772724D01*
X77990459Y-57817778D01*
X78037689Y-57910471D01*
X78158002Y-58076071D01*
X78302760Y-58220829D01*
X78468362Y-58341144D01*
X78468364Y-58341145D01*
X78506686Y-58360671D01*
X78513387Y-58364085D01*
X78564183Y-58412058D01*
X78581093Y-58474570D01*
X78581093Y-58909954D01*
X78581092Y-58909972D01*
X78581092Y-58917567D01*
X78581092Y-59075682D01*
X78607132Y-59172861D01*
X78622016Y-59228410D01*
X78622019Y-59228415D01*
X78701068Y-59365334D01*
X78701074Y-59365342D01*
X78819942Y-59484210D01*
X78819948Y-59484215D01*
X80012442Y-60676710D01*
X80045927Y-60738033D01*
X80040943Y-60807725D01*
X80012442Y-60852072D01*
X78857267Y-62007248D01*
X78795944Y-62040733D01*
X78731268Y-62037498D01*
X78693243Y-62025143D01*
X78661017Y-62014672D01*
X78552151Y-61997429D01*
X78443287Y-61980187D01*
X78222843Y-61980187D01*
X78150266Y-61991682D01*
X78005112Y-62014672D01*
X77795461Y-62082790D01*
X77795458Y-62082791D01*
X77599039Y-62182874D01*
X77420706Y-62312439D01*
X77420701Y-62312443D01*
X77264821Y-62468323D01*
X77264817Y-62468328D01*
X77135252Y-62646661D01*
X77035169Y-62843080D01*
X77035168Y-62843083D01*
X76967050Y-63052734D01*
X76949431Y-63163975D01*
X76932565Y-63270465D01*
X76932565Y-63490909D01*
X76938116Y-63525958D01*
X76967050Y-63708639D01*
X77035168Y-63918290D01*
X77035169Y-63918293D01*
X77072801Y-63992148D01*
X77134754Y-64113736D01*
X77135252Y-64114712D01*
X77264817Y-64293045D01*
X77264821Y-64293050D01*
X77420701Y-64448930D01*
X77420706Y-64448934D01*
X77521241Y-64521976D01*
X77599043Y-64578502D01*
X77727440Y-64643924D01*
X77795458Y-64678582D01*
X77795461Y-64678583D01*
X77891540Y-64709800D01*
X78005114Y-64746702D01*
X78222843Y-64781187D01*
X78222844Y-64781187D01*
X78443274Y-64781187D01*
X78443287Y-64781187D01*
X78443299Y-64781184D01*
X78447828Y-64780828D01*
X78516207Y-64795184D01*
X78565970Y-64844229D01*
X78581317Y-64912392D01*
X78557376Y-64978032D01*
X78545253Y-64992126D01*
X78099914Y-65437467D01*
X77964351Y-65573030D01*
X77964349Y-65573032D01*
X77949206Y-65588175D01*
X77915792Y-65621587D01*
X77915777Y-65621595D01*
X77866433Y-65651833D01*
X77795464Y-65674893D01*
X77795461Y-65674894D01*
X77795459Y-65674895D01*
X77642762Y-65752699D01*
X77599039Y-65774977D01*
X77420706Y-65904542D01*
X77420701Y-65904546D01*
X77264821Y-66060426D01*
X77264817Y-66060431D01*
X77135252Y-66238764D01*
X77035169Y-66435183D01*
X77035168Y-66435186D01*
X76967050Y-66644837D01*
X76939354Y-66819706D01*
X76932565Y-66862568D01*
X76932565Y-67083012D01*
X76948274Y-67182192D01*
X76967050Y-67300742D01*
X77035168Y-67510393D01*
X77035169Y-67510396D01*
X77088051Y-67614180D01*
X77135079Y-67706477D01*
X77135252Y-67706815D01*
X77264817Y-67885148D01*
X77264821Y-67885153D01*
X77420701Y-68041033D01*
X77420706Y-68041037D01*
X77558649Y-68141257D01*
X77599043Y-68170605D01*
X77712357Y-68228342D01*
X77795458Y-68270685D01*
X77795461Y-68270686D01*
X77831065Y-68282254D01*
X78005114Y-68338805D01*
X78222843Y-68373290D01*
X78222844Y-68373290D01*
X78443286Y-68373290D01*
X78443287Y-68373290D01*
X78582250Y-68351280D01*
X78651542Y-68360234D01*
X78704994Y-68405230D01*
X78725634Y-68471982D01*
X78706909Y-68539296D01*
X78689328Y-68561434D01*
X76463557Y-70787208D01*
X76402234Y-70820693D01*
X76375876Y-70823527D01*
X75893124Y-70823527D01*
X75826085Y-70803842D01*
X75805443Y-70787209D01*
X75775932Y-70757698D01*
X75686807Y-70668574D01*
X75686801Y-70668569D01*
X75686798Y-70668566D01*
X75640126Y-70630953D01*
X75509211Y-70571165D01*
X75509207Y-70571164D01*
X75366752Y-70550684D01*
X75224296Y-70571164D01*
X75224292Y-70571165D01*
X75093379Y-70630952D01*
X75093377Y-70630953D01*
X75046706Y-70668563D01*
X75046693Y-70668574D01*
X74625445Y-71089824D01*
X74625436Y-71089834D01*
X74587823Y-71136506D01*
X74587818Y-71136515D01*
X74578951Y-71155931D01*
X74533195Y-71208733D01*
X74517674Y-71217208D01*
X74499537Y-71225491D01*
X74452910Y-71263066D01*
X74452903Y-71263072D01*
X74419087Y-71296889D01*
X74474249Y-71352051D01*
X74507734Y-71413374D01*
X74509306Y-71422086D01*
X74528032Y-71552339D01*
X74528033Y-71552343D01*
X74587819Y-71683254D01*
X74587822Y-71683260D01*
X74608469Y-71708880D01*
X74625440Y-71729939D01*
X74962593Y-72067090D01*
X75074971Y-72179469D01*
X75074983Y-72179480D01*
X75121661Y-72217098D01*
X75252576Y-72276886D01*
X75252577Y-72276886D01*
X75252579Y-72276887D01*
X75365821Y-72293167D01*
X75429376Y-72322191D01*
X75435856Y-72328224D01*
X76119237Y-73011605D01*
X76146117Y-73051833D01*
X76165526Y-73098692D01*
X76165531Y-73098701D01*
X76237154Y-73205891D01*
X76237157Y-73205895D01*
X77046736Y-74015473D01*
X77046744Y-74015479D01*
X77153934Y-74087101D01*
X77153941Y-74087105D01*
X77175759Y-74096142D01*
X77240913Y-74123130D01*
X77295316Y-74166969D01*
X77317381Y-74233263D01*
X77317460Y-74237690D01*
X77317460Y-74331398D01*
X77297775Y-74398437D01*
X77281141Y-74419079D01*
X76663601Y-75036620D01*
X75437097Y-76263125D01*
X74842502Y-76857720D01*
X74781179Y-76891205D01*
X74754821Y-76894039D01*
X72844707Y-76894039D01*
X72777668Y-76874354D01*
X72740783Y-76836671D01*
X72740627Y-76836786D01*
X72739853Y-76835721D01*
X72738980Y-76834829D01*
X72737766Y-76832849D01*
X72737764Y-76832846D01*
X72737763Y-76832844D01*
X72620957Y-76672074D01*
X72480440Y-76531557D01*
X72319670Y-76414751D01*
X72264160Y-76386467D01*
X72142608Y-76324532D01*
X72142605Y-76324531D01*
X71953613Y-76263125D01*
X71855474Y-76247581D01*
X71757337Y-76232038D01*
X71558615Y-76232038D01*
X71493190Y-76242400D01*
X71362338Y-76263125D01*
X71173346Y-76324531D01*
X71173343Y-76324532D01*
X70996281Y-76414751D01*
X70835509Y-76531559D01*
X70694997Y-76672071D01*
X70578189Y-76832843D01*
X70487970Y-77009905D01*
X70487969Y-77009908D01*
X70426563Y-77198900D01*
X70426563Y-77198902D01*
X70395476Y-77395177D01*
X70395476Y-77593899D01*
X70404068Y-77648147D01*
X70426563Y-77790175D01*
X70480830Y-77957194D01*
X70482825Y-78027036D01*
X70446744Y-78086868D01*
X70384043Y-78117696D01*
X70324581Y-78113443D01*
X70157562Y-78059176D01*
X69978983Y-78030892D01*
X69961286Y-78028089D01*
X69762564Y-78028089D01*
X69744867Y-78030892D01*
X69566287Y-78059176D01*
X69377295Y-78120582D01*
X69377292Y-78120583D01*
X69200230Y-78210802D01*
X69039458Y-78327610D01*
X68898946Y-78468122D01*
X68782138Y-78628894D01*
X68691919Y-78805956D01*
X68691918Y-78805959D01*
X68630512Y-78994951D01*
X68621311Y-79053046D01*
X68599425Y-79191228D01*
X68599425Y-79389950D01*
X68614659Y-79486131D01*
X68630512Y-79586226D01*
X68691918Y-79775218D01*
X68691919Y-79775221D01*
X68768924Y-79926349D01*
X68782138Y-79952283D01*
X68898944Y-80113053D01*
X69039461Y-80253570D01*
X69200231Y-80370376D01*
X69251822Y-80396663D01*
X69377292Y-80460594D01*
X69377295Y-80460595D01*
X69455919Y-80486141D01*
X69566289Y-80522002D01*
X69762564Y-80553089D01*
X69762565Y-80553089D01*
X69961285Y-80553089D01*
X69961286Y-80553089D01*
X70157561Y-80522002D01*
X70324582Y-80467733D01*
X70394422Y-80465739D01*
X70454255Y-80501819D01*
X70485083Y-80564520D01*
X70480830Y-80623982D01*
X70426563Y-80791001D01*
X70399956Y-80958996D01*
X70395476Y-80987280D01*
X70395476Y-81186002D01*
X70400062Y-81214955D01*
X70426563Y-81382278D01*
X70487969Y-81571270D01*
X70487970Y-81571273D01*
X70567799Y-81727944D01*
X70578189Y-81748335D01*
X70694995Y-81909105D01*
X70835512Y-82049622D01*
X70996282Y-82166428D01*
X71028051Y-82182615D01*
X71173343Y-82256646D01*
X71173346Y-82256647D01*
X71251207Y-82281945D01*
X71362340Y-82318054D01*
X71558615Y-82349141D01*
X71558616Y-82349141D01*
X71757336Y-82349141D01*
X71757337Y-82349141D01*
X71953612Y-82318054D01*
X72120633Y-82263785D01*
X72190474Y-82261791D01*
X72250307Y-82297871D01*
X72281135Y-82360572D01*
X72276882Y-82420034D01*
X72222615Y-82587052D01*
X72191528Y-82783331D01*
X72191528Y-82982052D01*
X72222615Y-83178329D01*
X72284021Y-83367321D01*
X72284022Y-83367324D01*
X72374241Y-83544386D01*
X72491047Y-83705156D01*
X72631564Y-83845673D01*
X72792334Y-83962479D01*
X72843923Y-83988765D01*
X72969395Y-84052697D01*
X72969398Y-84052698D01*
X73048019Y-84078243D01*
X73158392Y-84114105D01*
X73354667Y-84145192D01*
X73354668Y-84145192D01*
X73553388Y-84145192D01*
X73553389Y-84145192D01*
X73749664Y-84114105D01*
X73916685Y-84059836D01*
X73986525Y-84057842D01*
X74046358Y-84093922D01*
X74077186Y-84156623D01*
X74072933Y-84216085D01*
X74018666Y-84383103D01*
X74004601Y-84471907D01*
X73987579Y-84579382D01*
X73987579Y-84778104D01*
X73990378Y-84795776D01*
X74018666Y-84974380D01*
X74080072Y-85163372D01*
X74080073Y-85163375D01*
X74165647Y-85331321D01*
X74170292Y-85340437D01*
X74287098Y-85501207D01*
X74427615Y-85641724D01*
X74588385Y-85758530D01*
X74639974Y-85784816D01*
X74765446Y-85848748D01*
X74765449Y-85848749D01*
X74859945Y-85879452D01*
X74954443Y-85910156D01*
X75150718Y-85941243D01*
X75150719Y-85941243D01*
X75349439Y-85941243D01*
X75349440Y-85941243D01*
X75545715Y-85910156D01*
X75712736Y-85855887D01*
X75782576Y-85853893D01*
X75842409Y-85889973D01*
X75873237Y-85952674D01*
X75868984Y-86012136D01*
X75814717Y-86179154D01*
X75783630Y-86375433D01*
X75783630Y-86574154D01*
X75814717Y-86770431D01*
X75876123Y-86959423D01*
X75876124Y-86959426D01*
X75961721Y-87127417D01*
X75966343Y-87136488D01*
X76083149Y-87297258D01*
X76223666Y-87437775D01*
X76384436Y-87554581D01*
X76436025Y-87580867D01*
X76561497Y-87644799D01*
X76561500Y-87644800D01*
X76607731Y-87659821D01*
X76750494Y-87706207D01*
X76946769Y-87737294D01*
X76946770Y-87737294D01*
X77145490Y-87737294D01*
X77145491Y-87737294D01*
X77341766Y-87706207D01*
X77508787Y-87651938D01*
X77578627Y-87649944D01*
X77638460Y-87686024D01*
X77669288Y-87748725D01*
X77665035Y-87808187D01*
X77610768Y-87975205D01*
X77579681Y-88171484D01*
X77579681Y-88370205D01*
X77610768Y-88566482D01*
X77672174Y-88755474D01*
X77672175Y-88755477D01*
X77755456Y-88918922D01*
X77762394Y-88932539D01*
X77879200Y-89093309D01*
X78019717Y-89233826D01*
X78180487Y-89350632D01*
X78232076Y-89376918D01*
X78357548Y-89440850D01*
X78357551Y-89440851D01*
X78452047Y-89471554D01*
X78546545Y-89502258D01*
X78742820Y-89533345D01*
X78742821Y-89533345D01*
X78941541Y-89533345D01*
X78941542Y-89533345D01*
X79137817Y-89502258D01*
X79304838Y-89447989D01*
X79374678Y-89445995D01*
X79434511Y-89482075D01*
X79465339Y-89544776D01*
X79461086Y-89604238D01*
X79406819Y-89771257D01*
X79375732Y-89967536D01*
X79375732Y-90166257D01*
X79406819Y-90362534D01*
X79468225Y-90551526D01*
X79468226Y-90551529D01*
X79555951Y-90723696D01*
X79558445Y-90728591D01*
X79675251Y-90889361D01*
X79815768Y-91029878D01*
X79976538Y-91146684D01*
X80028127Y-91172970D01*
X80153599Y-91236902D01*
X80153602Y-91236903D01*
X80248098Y-91267606D01*
X80342596Y-91298310D01*
X80538871Y-91329397D01*
X80538872Y-91329397D01*
X80737592Y-91329397D01*
X80737593Y-91329397D01*
X80933868Y-91298310D01*
X81100889Y-91244041D01*
X81170730Y-91242047D01*
X81230563Y-91278127D01*
X81261391Y-91340828D01*
X81257138Y-91400290D01*
X81202871Y-91567308D01*
X81171784Y-91763587D01*
X81171784Y-91962308D01*
X81202871Y-92158585D01*
X81264277Y-92347577D01*
X81264278Y-92347580D01*
X81354497Y-92524642D01*
X81471303Y-92685412D01*
X81611820Y-92825929D01*
X81772590Y-92942735D01*
X81859433Y-92986983D01*
X81949651Y-93032953D01*
X81949654Y-93032954D01*
X82044150Y-93063657D01*
X82138648Y-93094361D01*
X82334923Y-93125448D01*
X82334924Y-93125448D01*
X82533644Y-93125448D01*
X82533645Y-93125448D01*
X82729920Y-93094361D01*
X82918916Y-93032953D01*
X83095978Y-92942735D01*
X83256748Y-92825929D01*
X83397265Y-92685412D01*
X83514071Y-92524642D01*
X83604289Y-92347580D01*
X83665697Y-92158584D01*
X83696784Y-91962309D01*
X83696784Y-91763587D01*
X83665697Y-91567312D01*
X83611428Y-91400290D01*
X83609434Y-91330450D01*
X83645514Y-91270617D01*
X83708215Y-91239789D01*
X83767677Y-91244041D01*
X83934699Y-91298310D01*
X84130974Y-91329397D01*
X84130975Y-91329397D01*
X84329695Y-91329397D01*
X84329696Y-91329397D01*
X84525971Y-91298310D01*
X84714967Y-91236902D01*
X84892029Y-91146684D01*
X85052799Y-91029878D01*
X85193316Y-90889361D01*
X85310122Y-90728591D01*
X85400340Y-90551529D01*
X85461748Y-90362533D01*
X85492835Y-90166258D01*
X85492835Y-89967536D01*
X85461748Y-89771261D01*
X85431044Y-89676763D01*
X85400341Y-89582267D01*
X85400340Y-89582264D01*
X85331052Y-89446281D01*
X85310122Y-89405203D01*
X85193316Y-89244433D01*
X85052799Y-89103916D01*
X84892029Y-88987110D01*
X84834138Y-88957613D01*
X84714968Y-88896892D01*
X84676098Y-88884262D01*
X84618424Y-88844824D01*
X84591227Y-88780464D01*
X84590419Y-88766332D01*
X84590419Y-83225215D01*
X84610104Y-83158176D01*
X84626733Y-83137539D01*
X86537062Y-81227209D01*
X86537067Y-81227206D01*
X86547270Y-81217002D01*
X86547272Y-81217002D01*
X86659076Y-81105198D01*
X86715433Y-81007584D01*
X86738133Y-80968267D01*
X86779056Y-80815539D01*
X86779056Y-80657425D01*
X86779056Y-80173837D01*
X92711743Y-80173837D01*
X92732203Y-80316150D01*
X92732204Y-80316155D01*
X92791930Y-80446934D01*
X92829510Y-80493569D01*
X93269917Y-80933976D01*
X95037683Y-79166210D01*
X95744791Y-79166210D01*
X96504930Y-79926349D01*
X97952961Y-78478319D01*
X97952965Y-78478315D01*
X97990545Y-78431680D01*
X98050271Y-78300901D01*
X98050272Y-78300896D01*
X98070732Y-78158583D01*
X98050272Y-78016269D01*
X98050271Y-78016264D01*
X97990545Y-77885485D01*
X97952965Y-77838850D01*
X97512558Y-77398443D01*
X95744791Y-79166210D01*
X95037683Y-79166210D01*
X95037684Y-79166209D01*
X95037684Y-79166208D01*
X94277544Y-78406070D01*
X94277543Y-78406070D01*
X92829514Y-79854100D01*
X92829510Y-79854104D01*
X92791930Y-79900739D01*
X92732204Y-80031518D01*
X92732203Y-80031523D01*
X92711743Y-80173837D01*
X86779056Y-80173837D01*
X86779056Y-78052515D01*
X94631098Y-78052515D01*
X94631098Y-78052516D01*
X95391236Y-78812656D01*
X95391237Y-78812656D01*
X97159004Y-77044889D01*
X96718597Y-76604482D01*
X96671962Y-76566902D01*
X96541183Y-76507176D01*
X96541178Y-76507175D01*
X96398865Y-76486715D01*
X96256551Y-76507175D01*
X96256546Y-76507176D01*
X96125767Y-76566902D01*
X96079132Y-76604482D01*
X96079128Y-76604486D01*
X94631098Y-78052515D01*
X86779056Y-78052515D01*
X86779056Y-75152855D01*
X86788494Y-75105405D01*
X86794450Y-75091025D01*
X86838290Y-75036620D01*
X86861559Y-75023914D01*
X86871754Y-75019691D01*
X86948197Y-74988027D01*
X87055394Y-74916400D01*
X87146558Y-74825236D01*
X87163806Y-74799422D01*
X90460987Y-74799422D01*
X90508949Y-74847384D01*
X90555584Y-74884964D01*
X90686363Y-74944690D01*
X90686368Y-74944691D01*
X90828682Y-74965151D01*
X90970995Y-74944691D01*
X90971000Y-74944690D01*
X91101779Y-74884964D01*
X91148414Y-74847384D01*
X91148418Y-74847380D01*
X91182235Y-74813564D01*
X90814540Y-74445869D01*
X90460987Y-74799422D01*
X87163806Y-74799422D01*
X87218185Y-74718039D01*
X87254071Y-74631402D01*
X87297911Y-74576999D01*
X87321178Y-74564295D01*
X87407816Y-74528408D01*
X87515013Y-74456781D01*
X87606177Y-74365617D01*
X87677804Y-74258420D01*
X87713940Y-74171178D01*
X87752438Y-74120702D01*
X87807193Y-74078173D01*
X89941703Y-74078173D01*
X89962163Y-74220486D01*
X89962164Y-74220491D01*
X90021890Y-74351270D01*
X90059470Y-74397905D01*
X90107433Y-74445868D01*
X90460986Y-74092315D01*
X90093291Y-73724620D01*
X90059474Y-73758436D01*
X90059470Y-73758440D01*
X90021890Y-73805075D01*
X89962164Y-73935854D01*
X89962163Y-73935859D01*
X89941703Y-74078173D01*
X87807193Y-74078173D01*
X87875682Y-74024976D01*
X87783275Y-73932569D01*
X87749790Y-73871246D01*
X87749339Y-73869079D01*
X87728270Y-73763158D01*
X87734497Y-73693567D01*
X87777360Y-73638389D01*
X87843250Y-73615145D01*
X87911247Y-73631213D01*
X87937568Y-73651286D01*
X88116083Y-73829801D01*
X88136911Y-73798631D01*
X88136912Y-73798629D01*
X88186207Y-73679619D01*
X88186211Y-73679605D01*
X88211341Y-73553267D01*
X88211342Y-73553264D01*
X88211342Y-73424434D01*
X88211341Y-73424430D01*
X88186211Y-73298091D01*
X88186208Y-73298081D01*
X88174481Y-73269768D01*
X88167012Y-73200298D01*
X88198287Y-73137819D01*
X88220145Y-73119217D01*
X88318584Y-73053443D01*
X88318583Y-73053443D01*
X88319171Y-73053051D01*
X88385849Y-73032174D01*
X88388061Y-73032154D01*
X88801495Y-73032154D01*
X88868534Y-73051839D01*
X88889177Y-73068474D01*
X88934670Y-73113968D01*
X88934674Y-73113971D01*
X89065940Y-73201681D01*
X89065949Y-73201686D01*
X89076111Y-73205895D01*
X89211811Y-73262104D01*
X89337772Y-73287159D01*
X89366654Y-73292904D01*
X89366658Y-73292905D01*
X89366659Y-73292905D01*
X89524542Y-73292905D01*
X89524543Y-73292904D01*
X89679389Y-73262104D01*
X89825253Y-73201685D01*
X89956526Y-73113971D01*
X89984063Y-73086432D01*
X90045383Y-73052949D01*
X90115075Y-73057933D01*
X90159424Y-73086434D01*
X90502475Y-73429485D01*
X90535960Y-73490808D01*
X90537532Y-73499520D01*
X90555790Y-73626516D01*
X90555791Y-73626520D01*
X90615577Y-73757431D01*
X90615580Y-73757437D01*
X90632970Y-73779015D01*
X90653198Y-73804116D01*
X90990351Y-74141267D01*
X91102729Y-74253646D01*
X91102741Y-74253657D01*
X91149419Y-74291275D01*
X91280334Y-74351063D01*
X91280335Y-74351063D01*
X91280337Y-74351064D01*
X91410591Y-74369790D01*
X91474146Y-74398814D01*
X91480626Y-74404847D01*
X91535789Y-74460010D01*
X91569605Y-74426193D01*
X91569609Y-74426189D01*
X91607186Y-74379558D01*
X91607188Y-74379555D01*
X91615467Y-74361427D01*
X91649182Y-74317426D01*
X91661820Y-74306961D01*
X91696167Y-74291276D01*
X91717366Y-74274193D01*
X94873000Y-74274193D01*
X94893460Y-74416506D01*
X94893461Y-74416511D01*
X94953187Y-74547290D01*
X94990767Y-74593925D01*
X95024588Y-74627746D01*
X95392283Y-74260051D01*
X95038730Y-73906498D01*
X94990771Y-73954456D01*
X94990767Y-73954460D01*
X94953187Y-74001095D01*
X94893461Y-74131874D01*
X94893460Y-74131879D01*
X94873000Y-74274193D01*
X91717366Y-74274193D01*
X91742850Y-74253657D01*
X92164104Y-73832401D01*
X92201725Y-73785718D01*
X92261513Y-73654802D01*
X92276157Y-73552944D01*
X95392284Y-73552944D01*
X95745837Y-73906497D01*
X96113532Y-73538802D01*
X96079711Y-73504981D01*
X96033076Y-73467401D01*
X95902297Y-73407675D01*
X95902292Y-73407674D01*
X95759979Y-73387214D01*
X95617665Y-73407674D01*
X95617660Y-73407675D01*
X95486881Y-73467401D01*
X95440246Y-73504981D01*
X95440242Y-73504985D01*
X95392284Y-73552944D01*
X92276157Y-73552944D01*
X92281994Y-73512345D01*
X92280935Y-73504981D01*
X92261513Y-73369889D01*
X92261512Y-73369885D01*
X92201726Y-73238974D01*
X92201723Y-73238969D01*
X92164109Y-73192294D01*
X92164103Y-73192287D01*
X91714574Y-72742759D01*
X91714562Y-72742748D01*
X91667884Y-72705130D01*
X91536967Y-72645342D01*
X91536961Y-72645341D01*
X91437478Y-72631038D01*
X91373922Y-72602013D01*
X91367443Y-72595981D01*
X91008660Y-72237198D01*
X90975175Y-72175875D01*
X90980159Y-72106183D01*
X91008657Y-72061838D01*
X91036196Y-72034301D01*
X91123910Y-71903028D01*
X91184329Y-71757164D01*
X91215130Y-71602317D01*
X91215130Y-71444434D01*
X91215130Y-71444431D01*
X91215129Y-71444429D01*
X91213495Y-71436214D01*
X91184329Y-71289587D01*
X91154349Y-71217208D01*
X91123913Y-71143728D01*
X91123906Y-71143715D01*
X91036196Y-71012449D01*
X91036193Y-71012445D01*
X90924559Y-70900811D01*
X90924555Y-70900808D01*
X90793289Y-70813098D01*
X90793276Y-70813091D01*
X90647422Y-70752677D01*
X90647410Y-70752674D01*
X90492574Y-70721875D01*
X90492571Y-70721875D01*
X90441105Y-70721875D01*
X90374066Y-70702190D01*
X90328311Y-70649386D01*
X90317105Y-70597875D01*
X90317105Y-70546405D01*
X90317104Y-70546403D01*
X90298756Y-70454161D01*
X90286304Y-70391561D01*
X90267621Y-70346455D01*
X90225888Y-70245702D01*
X90225881Y-70245689D01*
X90138171Y-70114423D01*
X90138168Y-70114419D01*
X90026534Y-70002785D01*
X90026530Y-70002782D01*
X89895264Y-69915072D01*
X89895251Y-69915065D01*
X89749397Y-69854651D01*
X89749385Y-69854648D01*
X89594549Y-69823849D01*
X89594546Y-69823849D01*
X89543079Y-69823849D01*
X89476040Y-69804164D01*
X89430285Y-69751360D01*
X89419079Y-69699849D01*
X89419079Y-69648380D01*
X89419078Y-69648378D01*
X89410659Y-69606052D01*
X89388278Y-69493536D01*
X89388084Y-69493067D01*
X89327862Y-69347677D01*
X89327855Y-69347664D01*
X89240145Y-69216398D01*
X89240142Y-69216394D01*
X89128508Y-69104760D01*
X89128504Y-69104757D01*
X88997238Y-69017047D01*
X88997225Y-69017040D01*
X88851371Y-68956626D01*
X88851359Y-68956623D01*
X88696523Y-68925824D01*
X88696520Y-68925824D01*
X88645053Y-68925824D01*
X88578014Y-68906139D01*
X88532259Y-68853335D01*
X88521053Y-68801824D01*
X88521053Y-68750354D01*
X88521052Y-68750352D01*
X88507240Y-68680916D01*
X88490252Y-68595510D01*
X88472283Y-68552129D01*
X88429836Y-68449651D01*
X88429829Y-68449638D01*
X88342119Y-68318372D01*
X88342116Y-68318368D01*
X88230482Y-68206734D01*
X88230478Y-68206731D01*
X88099212Y-68119021D01*
X88093836Y-68116148D01*
X88094433Y-68115030D01*
X88045164Y-68075318D01*
X88023107Y-68009022D01*
X88023028Y-68004609D01*
X88023028Y-67855287D01*
X88042713Y-67788248D01*
X88095517Y-67742493D01*
X88164675Y-67732549D01*
X88228231Y-67761574D01*
X88234709Y-67767606D01*
X92753835Y-72286734D01*
X92760284Y-72291682D01*
X92760153Y-72291852D01*
X92778096Y-72305621D01*
X93014891Y-72542416D01*
X93048376Y-72603739D01*
X93051210Y-72630096D01*
X93051210Y-72749168D01*
X93051211Y-72749192D01*
X93054045Y-72785205D01*
X93098839Y-72939388D01*
X93098841Y-72939393D01*
X93180573Y-73077595D01*
X93180579Y-73077603D01*
X93294106Y-73191130D01*
X93294110Y-73191133D01*
X93294112Y-73191135D01*
X93432317Y-73272869D01*
X93472978Y-73284682D01*
X93586501Y-73317664D01*
X93586504Y-73317664D01*
X93586506Y-73317665D01*
X93622529Y-73320500D01*
X94020890Y-73320499D01*
X94056914Y-73317665D01*
X94211103Y-73272869D01*
X94268416Y-73238974D01*
X94268587Y-73238873D01*
X94336311Y-73221689D01*
X94394831Y-73238873D01*
X94452311Y-73272867D01*
X94452313Y-73272867D01*
X94452315Y-73272869D01*
X94452317Y-73272869D01*
X94452318Y-73272870D01*
X94606499Y-73317664D01*
X94606502Y-73317664D01*
X94606504Y-73317665D01*
X94642527Y-73320500D01*
X95040888Y-73320499D01*
X95076912Y-73317665D01*
X95231101Y-73272869D01*
X95369306Y-73191135D01*
X95369311Y-73191130D01*
X95396156Y-73164286D01*
X95457479Y-73130801D01*
X95483837Y-73127967D01*
X96379811Y-73127967D01*
X96446850Y-73147652D01*
X96467492Y-73164286D01*
X96603763Y-73300557D01*
X96736360Y-73433153D01*
X96769845Y-73494476D01*
X96764861Y-73564167D01*
X96736361Y-73608514D01*
X96706500Y-73638376D01*
X96678342Y-73666534D01*
X96678340Y-73666536D01*
X96553341Y-73791535D01*
X96553340Y-73791536D01*
X96394909Y-73949966D01*
X96333588Y-73983449D01*
X96324876Y-73985021D01*
X96211635Y-74001301D01*
X96211631Y-74001302D01*
X96080720Y-74061088D01*
X96080715Y-74061091D01*
X96034040Y-74098705D01*
X96034033Y-74098711D01*
X95809266Y-74323480D01*
X95584505Y-74548240D01*
X95584494Y-74548252D01*
X95546876Y-74594930D01*
X95487088Y-74725845D01*
X95487087Y-74725849D01*
X95468361Y-74856101D01*
X95439336Y-74919657D01*
X95433305Y-74926135D01*
X95378142Y-74981299D01*
X95411965Y-75015122D01*
X95458596Y-75052699D01*
X95476724Y-75060978D01*
X95529528Y-75106732D01*
X95538008Y-75122261D01*
X95546875Y-75141677D01*
X95546876Y-75141679D01*
X95584486Y-75188350D01*
X95584495Y-75188361D01*
X96005751Y-75609615D01*
X96005755Y-75609618D01*
X96005757Y-75609620D01*
X96052433Y-75647236D01*
X96183347Y-75707023D01*
X96183348Y-75707023D01*
X96183350Y-75707024D01*
X96325807Y-75727505D01*
X96468264Y-75707024D01*
X96599180Y-75647236D01*
X96645862Y-75609617D01*
X96717130Y-75538349D01*
X96764497Y-75490982D01*
X96825820Y-75457497D01*
X96852178Y-75454663D01*
X96870942Y-75454663D01*
X96870943Y-75454663D01*
X96970943Y-75454663D01*
X97120943Y-75454663D01*
X97270943Y-75454663D01*
X97420939Y-75454663D01*
X97420943Y-75454664D01*
X97579057Y-75454664D01*
X97579061Y-75454663D01*
X97620943Y-75454663D01*
X97763331Y-75454663D01*
X97763347Y-75454664D01*
X97770943Y-75454664D01*
X97936653Y-75454664D01*
X97936669Y-75454663D01*
X97970943Y-75454663D01*
X98120943Y-75454663D01*
X98270943Y-75454663D01*
X98370939Y-75454663D01*
X98370943Y-75454664D01*
X98529057Y-75454664D01*
X98529061Y-75454663D01*
X98570943Y-75454663D01*
X98720943Y-75454663D01*
X98820943Y-75454663D01*
X99070943Y-75454663D01*
X99130770Y-75454663D01*
X99197809Y-75474348D01*
X99218451Y-75490982D01*
X101999576Y-78272106D01*
X102033061Y-78333429D01*
X102035895Y-78359787D01*
X102035895Y-82199299D01*
X102016210Y-82266338D01*
X101968191Y-82309783D01*
X101849965Y-82370023D01*
X101754424Y-82439438D01*
X101658886Y-82508851D01*
X101658884Y-82508853D01*
X101658883Y-82508853D01*
X101491881Y-82675855D01*
X101491881Y-82675856D01*
X101491879Y-82675858D01*
X101440845Y-82746100D01*
X101353053Y-82866934D01*
X101245829Y-83077372D01*
X101203420Y-83207891D01*
X101173172Y-83257251D01*
X101128128Y-83302297D01*
X101066806Y-83335784D01*
X101040445Y-83338618D01*
X100643966Y-83338618D01*
X100605646Y-83332548D01*
X100577093Y-83323270D01*
X100527732Y-83293021D01*
X99522227Y-82287516D01*
X99450635Y-82235502D01*
X99356399Y-82167036D01*
X99356393Y-82167028D01*
X99356393Y-82167030D01*
X99354810Y-82165879D01*
X99170408Y-82071922D01*
X99111661Y-82052835D01*
X99111660Y-82052835D01*
X98973596Y-82007975D01*
X98973594Y-82007974D01*
X98973592Y-82007974D01*
X98830879Y-81985370D01*
X98769198Y-81975601D01*
X98769197Y-81975601D01*
X94747505Y-81975601D01*
X94680466Y-81955916D01*
X94634711Y-81903112D01*
X94624767Y-81833954D01*
X94653792Y-81770398D01*
X94669700Y-81755049D01*
X94703334Y-81727944D01*
X94703347Y-81727933D01*
X96151377Y-80279903D01*
X96151377Y-80279902D01*
X95391239Y-79519763D01*
X95391238Y-79519763D01*
X93623471Y-81287530D01*
X94063874Y-81727933D01*
X94063887Y-81727944D01*
X94097522Y-81755049D01*
X94137371Y-81812441D01*
X94139866Y-81882266D01*
X94104214Y-81942355D01*
X94041735Y-81973631D01*
X94019717Y-81975601D01*
X91370570Y-81975601D01*
X91163624Y-81975601D01*
X91116241Y-81983105D01*
X90959228Y-82007974D01*
X90959227Y-82007974D01*
X90821161Y-82052835D01*
X90821160Y-82052835D01*
X90762412Y-82071922D01*
X90578017Y-82165876D01*
X90532015Y-82199299D01*
X90453084Y-82256646D01*
X90453083Y-82256647D01*
X90410598Y-82287512D01*
X90410596Y-82287514D01*
X89787949Y-82910160D01*
X89765446Y-82927967D01*
X89761680Y-82930293D01*
X89714980Y-82967926D01*
X86465311Y-86217598D01*
X86465302Y-86217608D01*
X86427687Y-86264283D01*
X86367899Y-86395200D01*
X86347418Y-86537657D01*
X86367899Y-86680113D01*
X86427687Y-86811029D01*
X86427690Y-86811034D01*
X86465303Y-86857710D01*
X86465310Y-86857718D01*
X87503065Y-87895470D01*
X87699735Y-88092140D01*
X87746418Y-88129760D01*
X87877334Y-88189548D01*
X87877333Y-88189548D01*
X87895240Y-88192122D01*
X88019791Y-88210030D01*
X88162248Y-88189548D01*
X88293164Y-88129760D01*
X88339846Y-88092142D01*
X91589528Y-84842458D01*
X91627148Y-84795776D01*
X91627152Y-84795766D01*
X91629470Y-84792016D01*
X91647282Y-84769501D01*
X91775366Y-84641418D01*
X91836689Y-84607935D01*
X91863046Y-84605101D01*
X97187724Y-84605101D01*
X97254763Y-84624786D01*
X97300518Y-84677590D01*
X97310462Y-84746748D01*
X97281437Y-84810304D01*
X97275405Y-84816781D01*
X93266050Y-88826136D01*
X81287680Y-100804505D01*
X81226357Y-100837990D01*
X81156665Y-100833006D01*
X81112318Y-100804505D01*
X72071400Y-91763587D01*
X62979321Y-82671507D01*
X62969842Y-82660870D01*
X62931971Y-82613111D01*
X62918564Y-82592199D01*
X62886573Y-82529176D01*
X62878899Y-82510387D01*
X62842066Y-82393688D01*
X62838168Y-82377710D01*
X62810501Y-82219238D01*
X62808942Y-82206371D01*
X62808458Y-82199299D01*
X62800789Y-82087138D01*
X62800500Y-82078679D01*
X62800500Y-72725245D01*
X74433229Y-72725245D01*
X74481191Y-72773207D01*
X74527826Y-72810787D01*
X74658605Y-72870513D01*
X74658610Y-72870514D01*
X74800924Y-72890974D01*
X74943237Y-72870514D01*
X74943242Y-72870513D01*
X75074021Y-72810787D01*
X75120656Y-72773207D01*
X75120660Y-72773203D01*
X75154477Y-72739387D01*
X74786782Y-72371692D01*
X74433229Y-72725245D01*
X62800500Y-72725245D01*
X62800500Y-72003996D01*
X73913945Y-72003996D01*
X73934405Y-72146309D01*
X73934406Y-72146314D01*
X73994132Y-72277093D01*
X74031712Y-72323728D01*
X74079675Y-72371691D01*
X74433228Y-72018138D01*
X74065533Y-71650443D01*
X74031716Y-71684259D01*
X74031712Y-71684263D01*
X73994132Y-71730898D01*
X73934406Y-71861677D01*
X73934405Y-71861682D01*
X73913945Y-72003996D01*
X62800500Y-72003996D01*
X62800500Y-67728711D01*
X65649500Y-67728711D01*
X65649500Y-67971288D01*
X65681161Y-68211785D01*
X65743947Y-68446104D01*
X65836773Y-68670205D01*
X65836776Y-68670212D01*
X65958064Y-68880289D01*
X65958066Y-68880292D01*
X65958067Y-68880293D01*
X66105733Y-69072736D01*
X66105739Y-69072743D01*
X66277256Y-69244260D01*
X66277263Y-69244266D01*
X66310458Y-69269737D01*
X66469711Y-69391936D01*
X66679788Y-69513224D01*
X66903900Y-69606054D01*
X67138211Y-69668838D01*
X67295879Y-69689595D01*
X67378711Y-69700500D01*
X67378712Y-69700500D01*
X67621289Y-69700500D01*
X67669388Y-69694167D01*
X67861789Y-69668838D01*
X68096100Y-69606054D01*
X68320212Y-69513224D01*
X68530289Y-69391936D01*
X68722738Y-69244265D01*
X68894265Y-69072738D01*
X69041936Y-68880289D01*
X69163224Y-68670212D01*
X69256054Y-68446100D01*
X69318838Y-68211789D01*
X69350500Y-67971288D01*
X69350500Y-67728712D01*
X69350118Y-67725814D01*
X69328287Y-67559987D01*
X69318838Y-67488211D01*
X69256054Y-67253900D01*
X69163224Y-67029788D01*
X69041936Y-66819711D01*
X68922628Y-66664225D01*
X68894266Y-66627263D01*
X68894260Y-66627256D01*
X68722743Y-66455739D01*
X68722736Y-66455733D01*
X68530293Y-66308067D01*
X68530292Y-66308066D01*
X68530289Y-66308064D01*
X68323008Y-66188390D01*
X68320214Y-66186777D01*
X68320205Y-66186773D01*
X68096104Y-66093947D01*
X67970999Y-66060425D01*
X67861789Y-66031162D01*
X67861788Y-66031161D01*
X67861785Y-66031161D01*
X67621289Y-65999500D01*
X67621288Y-65999500D01*
X67378712Y-65999500D01*
X67378711Y-65999500D01*
X67138214Y-66031161D01*
X66903895Y-66093947D01*
X66679794Y-66186773D01*
X66679785Y-66186777D01*
X66469706Y-66308067D01*
X66277263Y-66455733D01*
X66277256Y-66455739D01*
X66105739Y-66627256D01*
X66105733Y-66627263D01*
X65958067Y-66819706D01*
X65958064Y-66819710D01*
X65958064Y-66819711D01*
X65950122Y-66833467D01*
X65836777Y-67029785D01*
X65836773Y-67029794D01*
X65743947Y-67253895D01*
X65681161Y-67488214D01*
X65649500Y-67728711D01*
X62800500Y-67728711D01*
X62800500Y-63270465D01*
X73340462Y-63270465D01*
X73340462Y-63490909D01*
X73346013Y-63525958D01*
X73374947Y-63708639D01*
X73443065Y-63918290D01*
X73443066Y-63918293D01*
X73480698Y-63992148D01*
X73542651Y-64113736D01*
X73543149Y-64114712D01*
X73672714Y-64293045D01*
X73672718Y-64293050D01*
X73828598Y-64448930D01*
X73828603Y-64448934D01*
X73929138Y-64521976D01*
X74006940Y-64578502D01*
X74135337Y-64643924D01*
X74203355Y-64678582D01*
X74203358Y-64678583D01*
X74299437Y-64709800D01*
X74413011Y-64746702D01*
X74630740Y-64781187D01*
X74630741Y-64781187D01*
X74851183Y-64781187D01*
X74851184Y-64781187D01*
X75068913Y-64746702D01*
X75278568Y-64678582D01*
X75474984Y-64578502D01*
X75653327Y-64448929D01*
X75809204Y-64293052D01*
X75938777Y-64114709D01*
X76038857Y-63918293D01*
X76106977Y-63708638D01*
X76141462Y-63490909D01*
X76141462Y-63270465D01*
X76106977Y-63052736D01*
X76067384Y-62930880D01*
X76038858Y-62843083D01*
X76038857Y-62843080D01*
X75977979Y-62723603D01*
X75938777Y-62646665D01*
X75922222Y-62623879D01*
X75809209Y-62468328D01*
X75809205Y-62468323D01*
X75653325Y-62312443D01*
X75653320Y-62312439D01*
X75474987Y-62182874D01*
X75474986Y-62182873D01*
X75474984Y-62182872D01*
X75412058Y-62150809D01*
X75278568Y-62082791D01*
X75278565Y-62082790D01*
X75068914Y-62014672D01*
X74960048Y-61997429D01*
X74851184Y-61980187D01*
X74630740Y-61980187D01*
X74558163Y-61991682D01*
X74413009Y-62014672D01*
X74203358Y-62082790D01*
X74203355Y-62082791D01*
X74006936Y-62182874D01*
X73828603Y-62312439D01*
X73828598Y-62312443D01*
X73672718Y-62468323D01*
X73672714Y-62468328D01*
X73543149Y-62646661D01*
X73443066Y-62843080D01*
X73443065Y-62843083D01*
X73374947Y-63052734D01*
X73357328Y-63163975D01*
X73340462Y-63270465D01*
X62800500Y-63270465D01*
X62800500Y-21778711D01*
X66949500Y-21778711D01*
X66949500Y-22021288D01*
X66981161Y-22261785D01*
X67043947Y-22496104D01*
X67136773Y-22720205D01*
X67136776Y-22720212D01*
X67258064Y-22930289D01*
X67258066Y-22930292D01*
X67258067Y-22930293D01*
X67405733Y-23122736D01*
X67405739Y-23122743D01*
X67577256Y-23294260D01*
X67577262Y-23294265D01*
X67769711Y-23441936D01*
X67979788Y-23563224D01*
X68203900Y-23656054D01*
X68438211Y-23718838D01*
X68618586Y-23742584D01*
X68678711Y-23750500D01*
X68678712Y-23750500D01*
X68921289Y-23750500D01*
X68969388Y-23744167D01*
X69161789Y-23718838D01*
X69396100Y-23656054D01*
X69620212Y-23563224D01*
X69830289Y-23441936D01*
X70022738Y-23294265D01*
X70194265Y-23122738D01*
X70341936Y-22930289D01*
X70463224Y-22720212D01*
X70556054Y-22496100D01*
X70618838Y-22261789D01*
X70650500Y-22021288D01*
X70650500Y-21778712D01*
X70618838Y-21538211D01*
X70556054Y-21303900D01*
X70463224Y-21079788D01*
X70341936Y-20869711D01*
X70266282Y-20771116D01*
X70194266Y-20677263D01*
X70194260Y-20677256D01*
X70022743Y-20505739D01*
X70022736Y-20505733D01*
X69830293Y-20358067D01*
X69830292Y-20358066D01*
X69830289Y-20358064D01*
X69620212Y-20236776D01*
X69620205Y-20236773D01*
X69396104Y-20143947D01*
X69161785Y-20081161D01*
X68921289Y-20049500D01*
X68921288Y-20049500D01*
X68678712Y-20049500D01*
X68678711Y-20049500D01*
X68438214Y-20081161D01*
X68203895Y-20143947D01*
X67979794Y-20236773D01*
X67979785Y-20236777D01*
X67769706Y-20358067D01*
X67577263Y-20505733D01*
X67577256Y-20505739D01*
X67405739Y-20677256D01*
X67405733Y-20677263D01*
X67258067Y-20869706D01*
X67136777Y-21079785D01*
X67136773Y-21079794D01*
X67043947Y-21303895D01*
X66981161Y-21538214D01*
X66949500Y-21778711D01*
X62800500Y-21778711D01*
X62800500Y-16024500D01*
X62820185Y-15957461D01*
X62872989Y-15911706D01*
X62924500Y-15900500D01*
X133175500Y-15900500D01*
X133242539Y-15920185D01*
G37*
%TD.AperFunction*%
%TA.AperFunction,Conductor*%
G36*
X124756045Y-51845779D02*
G01*
X124776687Y-51862413D01*
X131075664Y-58161390D01*
X131109149Y-58222713D01*
X131111983Y-58249071D01*
X131111983Y-81621728D01*
X131092298Y-81688767D01*
X131075900Y-81709173D01*
X126893282Y-85914398D01*
X126893046Y-85914634D01*
X115906989Y-96900693D01*
X115845666Y-96934178D01*
X115819308Y-96937012D01*
X114624358Y-96937012D01*
X114604954Y-96935484D01*
X114603477Y-96935250D01*
X114603473Y-96935250D01*
X114221322Y-96935250D01*
X114154283Y-96915565D01*
X114133641Y-96898931D01*
X110177444Y-92942734D01*
X106191859Y-88957150D01*
X106158375Y-88895828D01*
X106163359Y-88826136D01*
X106205231Y-88770203D01*
X106270695Y-88745786D01*
X106279541Y-88745470D01*
X106346550Y-88745470D01*
X106579745Y-88708535D01*
X106804300Y-88635572D01*
X107014661Y-88528388D01*
X107014667Y-88528384D01*
X107097602Y-88468128D01*
X107097603Y-88468128D01*
X106475986Y-87846511D01*
X106536388Y-87821492D01*
X106642849Y-87750358D01*
X106733386Y-87659821D01*
X106804520Y-87553360D01*
X106829539Y-87492958D01*
X107451156Y-88114575D01*
X107451156Y-88114574D01*
X107511412Y-88031639D01*
X107511416Y-88031633D01*
X107618600Y-87821272D01*
X107691563Y-87596717D01*
X107728498Y-87363522D01*
X107728498Y-87127417D01*
X107691563Y-86894222D01*
X107618600Y-86669667D01*
X107511412Y-86459298D01*
X107451156Y-86376364D01*
X107451156Y-86376363D01*
X106829539Y-86997981D01*
X106804520Y-86937580D01*
X106733386Y-86831119D01*
X106642849Y-86740582D01*
X106536388Y-86669448D01*
X106475985Y-86644428D01*
X107097603Y-86022810D01*
X107097602Y-86022808D01*
X107014672Y-85962557D01*
X106804300Y-85855367D01*
X106579745Y-85782404D01*
X106579746Y-85782404D01*
X106346550Y-85745470D01*
X106110443Y-85745470D01*
X106068036Y-85752186D01*
X105998743Y-85743230D01*
X105945291Y-85698233D01*
X105924653Y-85631481D01*
X105926166Y-85610323D01*
X105932947Y-85567511D01*
X105932947Y-85331327D01*
X105932947Y-85331321D01*
X105896000Y-85098050D01*
X105823013Y-84873422D01*
X105758469Y-84746748D01*
X105715790Y-84662986D01*
X105576964Y-84471909D01*
X105409957Y-84304902D01*
X105257467Y-84194111D01*
X105218878Y-84166074D01*
X105100651Y-84105834D01*
X105049856Y-84057860D01*
X105032947Y-83995350D01*
X105032947Y-82373717D01*
X111369236Y-82373717D01*
X111403056Y-82407537D01*
X111449691Y-82445117D01*
X111580470Y-82504843D01*
X111580475Y-82504844D01*
X111722789Y-82525304D01*
X111865102Y-82504844D01*
X111865107Y-82504843D01*
X111995886Y-82445117D01*
X112042521Y-82407537D01*
X112042525Y-82407533D01*
X112090484Y-82359575D01*
X111736931Y-82006022D01*
X111369236Y-82373717D01*
X105032947Y-82373717D01*
X105032947Y-77498212D01*
X105032948Y-77498199D01*
X105032948Y-77330096D01*
X104997794Y-77198902D01*
X104992024Y-77177368D01*
X104988126Y-77170616D01*
X104912971Y-77040442D01*
X104912965Y-77040434D01*
X102558785Y-74686254D01*
X100188001Y-72315471D01*
X100154517Y-72254149D01*
X100152945Y-72210144D01*
X100161545Y-72150329D01*
X100172030Y-72077403D01*
X100151548Y-71934946D01*
X100091760Y-71804030D01*
X100091757Y-71804025D01*
X100054144Y-71757349D01*
X100054137Y-71757341D01*
X99420761Y-71123968D01*
X99420754Y-71123961D01*
X99374071Y-71086341D01*
X99374069Y-71086340D01*
X99367471Y-71082264D01*
X99368139Y-71081182D01*
X99321315Y-71040607D01*
X99314476Y-71028082D01*
X99313445Y-71026413D01*
X99275868Y-70979782D01*
X99275864Y-70979778D01*
X99135983Y-70839896D01*
X98957650Y-71018227D01*
X98921482Y-71043339D01*
X98827323Y-71086341D01*
X98780644Y-71123956D01*
X98780636Y-71123963D01*
X98551628Y-71352972D01*
X98490305Y-71386457D01*
X98420613Y-71381473D01*
X98376266Y-71352972D01*
X98322809Y-71299515D01*
X98233713Y-71388611D01*
X98172390Y-71422096D01*
X98102698Y-71417112D01*
X98058351Y-71388611D01*
X97509636Y-70839896D01*
X97369753Y-70979778D01*
X97369749Y-70979782D01*
X97332169Y-71026417D01*
X97272443Y-71157196D01*
X97272442Y-71157201D01*
X97251982Y-71299515D01*
X97253919Y-71312988D01*
X97243975Y-71382147D01*
X97198219Y-71434950D01*
X97131180Y-71454634D01*
X97113535Y-71453372D01*
X97099374Y-71451336D01*
X97099373Y-71451336D01*
X96956916Y-71471817D01*
X96826000Y-71531605D01*
X96825995Y-71531608D01*
X96779320Y-71569220D01*
X96717387Y-71631154D01*
X96457892Y-71890649D01*
X96396571Y-71924133D01*
X96370213Y-71926967D01*
X95538771Y-71926967D01*
X95471732Y-71907282D01*
X95451090Y-71890648D01*
X95369311Y-71808869D01*
X95369303Y-71808863D01*
X95231101Y-71727131D01*
X95231096Y-71727129D01*
X95076916Y-71682335D01*
X95076910Y-71682334D01*
X95040889Y-71679500D01*
X94642538Y-71679500D01*
X94642516Y-71679501D01*
X94606502Y-71682335D01*
X94452319Y-71727129D01*
X94452316Y-71727130D01*
X94394829Y-71761128D01*
X94327105Y-71778310D01*
X94268589Y-71761128D01*
X94220853Y-71732897D01*
X94211103Y-71727131D01*
X94211102Y-71727130D01*
X94211101Y-71727130D01*
X94211098Y-71727129D01*
X94056918Y-71682335D01*
X94056912Y-71682334D01*
X94020898Y-71679500D01*
X94020891Y-71679500D01*
X93901807Y-71679500D01*
X93834768Y-71659815D01*
X93814126Y-71643181D01*
X93616383Y-71445438D01*
X93608449Y-71437504D01*
X93608448Y-71437502D01*
X93496644Y-71325698D01*
X93484973Y-71318959D01*
X93474080Y-71308475D01*
X93473711Y-71307829D01*
X93472388Y-71306814D01*
X92651916Y-70486342D01*
X97863190Y-70486342D01*
X98322809Y-70945961D01*
X98782428Y-70486342D01*
X98642541Y-70346455D01*
X98595906Y-70308875D01*
X98465127Y-70249149D01*
X98465122Y-70249148D01*
X98322809Y-70228688D01*
X98180495Y-70249148D01*
X98180490Y-70249149D01*
X98049711Y-70308875D01*
X98003076Y-70346455D01*
X98003072Y-70346459D01*
X97863190Y-70486342D01*
X92651916Y-70486342D01*
X92108670Y-69943096D01*
X100923818Y-69943096D01*
X100923818Y-69943098D01*
X101286837Y-70306117D01*
X101286841Y-70306120D01*
X101418026Y-70393776D01*
X101418039Y-70393783D01*
X101563801Y-70454159D01*
X101563811Y-70454162D01*
X101718554Y-70484944D01*
X101876343Y-70484944D01*
X102031086Y-70454162D01*
X102031090Y-70454161D01*
X102160507Y-70400554D01*
X101313433Y-69553481D01*
X101313432Y-69553481D01*
X100923818Y-69943096D01*
X92108670Y-69943096D01*
X91529019Y-69363445D01*
X91495534Y-69302122D01*
X91500518Y-69232430D01*
X91542390Y-69176497D01*
X91607854Y-69152080D01*
X91616700Y-69151764D01*
X92658551Y-69151764D01*
X92725590Y-69171449D01*
X92746227Y-69188078D01*
X92776761Y-69218612D01*
X92803398Y-69245249D01*
X92934663Y-69332958D01*
X92934669Y-69332961D01*
X92934670Y-69332962D01*
X93080534Y-69393381D01*
X93235377Y-69424181D01*
X93235381Y-69424182D01*
X93235382Y-69424182D01*
X93393265Y-69424182D01*
X93393266Y-69424181D01*
X93548112Y-69393381D01*
X93693976Y-69332962D01*
X93825249Y-69245248D01*
X94174182Y-68896315D01*
X94275690Y-68794807D01*
X100028417Y-68794807D01*
X100059199Y-68949550D01*
X100059202Y-68949560D01*
X100119578Y-69095322D01*
X100119585Y-69095335D01*
X100207240Y-69226519D01*
X100207243Y-69226523D01*
X100570263Y-69589543D01*
X100570264Y-69589543D01*
X100959880Y-69199928D01*
X100112806Y-68352854D01*
X100059199Y-68482276D01*
X100028418Y-68637018D01*
X100028418Y-68794807D01*
X100028417Y-68794807D01*
X94275690Y-68794807D01*
X94527250Y-68543248D01*
X94904916Y-68165581D01*
X94904919Y-68165578D01*
X94992633Y-68034305D01*
X95053052Y-67888441D01*
X95083853Y-67733594D01*
X95083853Y-67575711D01*
X95083853Y-67575708D01*
X95083852Y-67575706D01*
X95066448Y-67488211D01*
X95053052Y-67420864D01*
X95028893Y-67362538D01*
X94992636Y-67275005D01*
X94992629Y-67274992D01*
X94904919Y-67143726D01*
X94904916Y-67143722D01*
X94793282Y-67032088D01*
X94793278Y-67032085D01*
X94662012Y-66944375D01*
X94661999Y-66944368D01*
X94516145Y-66883954D01*
X94516133Y-66883951D01*
X94361297Y-66853152D01*
X94361294Y-66853152D01*
X94309827Y-66853152D01*
X94242788Y-66833467D01*
X94197033Y-66780663D01*
X94185827Y-66729152D01*
X94185827Y-66677683D01*
X94185826Y-66677681D01*
X94169362Y-66594912D01*
X94155026Y-66522839D01*
X94135008Y-66474510D01*
X94094610Y-66376980D01*
X94094603Y-66376967D01*
X94006893Y-66245701D01*
X94006890Y-66245697D01*
X93895256Y-66134063D01*
X93895252Y-66134060D01*
X93763986Y-66046350D01*
X93763973Y-66046343D01*
X93618119Y-65985929D01*
X93618107Y-65985926D01*
X93463271Y-65955127D01*
X93463268Y-65955127D01*
X93411303Y-65955127D01*
X93344264Y-65935442D01*
X93298509Y-65882638D01*
X93287303Y-65831127D01*
X93287303Y-65779706D01*
X93256521Y-65624963D01*
X93256520Y-65624959D01*
X93202913Y-65495541D01*
X92266744Y-66431711D01*
X92205421Y-66465196D01*
X92135729Y-66460212D01*
X92091382Y-66431711D01*
X92002287Y-66342616D01*
X91913191Y-66431712D01*
X91851868Y-66465196D01*
X91782176Y-66460212D01*
X91737829Y-66431711D01*
X91261245Y-65955127D01*
X90927484Y-65621367D01*
X90787026Y-65480909D01*
X90750706Y-65444589D01*
X91457814Y-65444589D01*
X91457814Y-65444590D01*
X92002286Y-65989062D01*
X92849360Y-65141988D01*
X92719949Y-65088384D01*
X92719939Y-65088381D01*
X92565196Y-65057600D01*
X92513277Y-65057600D01*
X92446238Y-65037915D01*
X92400483Y-64985111D01*
X92389277Y-64933600D01*
X92389277Y-64881680D01*
X92358495Y-64726937D01*
X92358494Y-64726933D01*
X92304887Y-64597515D01*
X91457814Y-65444589D01*
X90750706Y-65444589D01*
X90361935Y-65055817D01*
X90029459Y-64723342D01*
X89889001Y-64582884D01*
X89852681Y-64546564D01*
X90559789Y-64546564D01*
X90559789Y-64546565D01*
X91104260Y-65091036D01*
X91951334Y-64243962D01*
X91821923Y-64190358D01*
X91821913Y-64190355D01*
X91667170Y-64159574D01*
X91615252Y-64159574D01*
X91548213Y-64139889D01*
X91502458Y-64087085D01*
X91491252Y-64035574D01*
X91491252Y-63983655D01*
X91460470Y-63828912D01*
X91460469Y-63828908D01*
X91406862Y-63699490D01*
X90559789Y-64546564D01*
X89852681Y-64546564D01*
X89465692Y-64159574D01*
X89219114Y-63912996D01*
X89185629Y-63851673D01*
X89190613Y-63781981D01*
X89219114Y-63737634D01*
X89397305Y-63559443D01*
X89458628Y-63525958D01*
X89528320Y-63530942D01*
X89572667Y-63559443D01*
X90206235Y-64193011D01*
X91053309Y-63345937D01*
X90923898Y-63292333D01*
X90923888Y-63292330D01*
X90769145Y-63261549D01*
X90717226Y-63261549D01*
X90650187Y-63241864D01*
X90604432Y-63189060D01*
X90593226Y-63137549D01*
X90593226Y-63085629D01*
X90562444Y-62930886D01*
X90562442Y-62930880D01*
X90541304Y-62879848D01*
X90533835Y-62810379D01*
X90565110Y-62747900D01*
X90625199Y-62712247D01*
X90655865Y-62708395D01*
X96420039Y-62708395D01*
X96487078Y-62728080D01*
X96532833Y-62780884D01*
X96542777Y-62850042D01*
X96523141Y-62901287D01*
X96503422Y-62930797D01*
X96503418Y-62930804D01*
X96443080Y-63076475D01*
X96443077Y-63076487D01*
X96412316Y-63231130D01*
X96412316Y-63388823D01*
X96443077Y-63543466D01*
X96443080Y-63543478D01*
X96503418Y-63689149D01*
X96503425Y-63689162D01*
X96591026Y-63820265D01*
X96591029Y-63820269D01*
X96702523Y-63931763D01*
X96702527Y-63931766D01*
X96833630Y-64019367D01*
X96833643Y-64019374D01*
X96979314Y-64079712D01*
X96979319Y-64079714D01*
X97037583Y-64091303D01*
X97139948Y-64111666D01*
X97139536Y-64113736D01*
X97195439Y-64136300D01*
X97206194Y-64145873D01*
X99046250Y-65985929D01*
X100773912Y-67713590D01*
X100807397Y-67774913D01*
X100802413Y-67844605D01*
X100760541Y-67900538D01*
X100710424Y-67922888D01*
X100595782Y-67945693D01*
X100466360Y-67999300D01*
X101490211Y-69023151D01*
X102514060Y-70047001D01*
X102567667Y-69917584D01*
X102567668Y-69917580D01*
X102590473Y-69802939D01*
X102622858Y-69741028D01*
X102683574Y-69706454D01*
X102753344Y-69710195D01*
X102799771Y-69739450D01*
X104545337Y-71485016D01*
X104578822Y-71546339D01*
X104581656Y-71572697D01*
X104581656Y-71688839D01*
X104561971Y-71755878D01*
X104509167Y-71801633D01*
X104481851Y-71810456D01*
X104464354Y-71813936D01*
X104464352Y-71813937D01*
X104318491Y-71874354D01*
X104318482Y-71874359D01*
X104187216Y-71962069D01*
X104187212Y-71962072D01*
X104075578Y-72073706D01*
X104075575Y-72073710D01*
X103987865Y-72204976D01*
X103987860Y-72204985D01*
X103927443Y-72350846D01*
X103927441Y-72350854D01*
X103896642Y-72505690D01*
X103896642Y-72663581D01*
X103927441Y-72818417D01*
X103927443Y-72818425D01*
X103987860Y-72964286D01*
X103987865Y-72964295D01*
X104075575Y-73095561D01*
X104075578Y-73095565D01*
X104545338Y-73565324D01*
X104578823Y-73626647D01*
X104581657Y-73653005D01*
X104581657Y-74021075D01*
X104581656Y-74021093D01*
X104581656Y-74186799D01*
X104581655Y-74186799D01*
X104596098Y-74240700D01*
X104622580Y-74339530D01*
X104644434Y-74377382D01*
X104646974Y-74381780D01*
X104646975Y-74381784D01*
X104701632Y-74476454D01*
X104701638Y-74476462D01*
X104820506Y-74595330D01*
X104820512Y-74595335D01*
X110594811Y-80369634D01*
X110628296Y-80430957D01*
X110623312Y-80500649D01*
X110594812Y-80544995D01*
X110515827Y-80623982D01*
X110387363Y-80752447D01*
X110387359Y-80752451D01*
X110349746Y-80799123D01*
X110289958Y-80930038D01*
X110289957Y-80930042D01*
X110269477Y-81072498D01*
X110289957Y-81214953D01*
X110289958Y-81214957D01*
X110349745Y-81345870D01*
X110349746Y-81345872D01*
X110379083Y-81382277D01*
X110387365Y-81392554D01*
X110808621Y-81813808D01*
X110855304Y-81851429D01*
X110874718Y-81860295D01*
X110927523Y-81906049D01*
X110936002Y-81921578D01*
X110944281Y-81939708D01*
X110981861Y-81986342D01*
X111015682Y-82020163D01*
X111070843Y-81965001D01*
X111132166Y-81931515D01*
X111140864Y-81929945D01*
X111271134Y-81911217D01*
X111402050Y-81851429D01*
X111402051Y-81851427D01*
X111402053Y-81851427D01*
X111412847Y-81842728D01*
X111448732Y-81813810D01*
X111610073Y-81652468D01*
X112090485Y-81652468D01*
X112444038Y-82006021D01*
X112491996Y-81958062D01*
X112492000Y-81958058D01*
X112529580Y-81911423D01*
X112589306Y-81780644D01*
X112589307Y-81780639D01*
X112609767Y-81638326D01*
X112589307Y-81496012D01*
X112589306Y-81496007D01*
X112529580Y-81365228D01*
X112492000Y-81318593D01*
X112458180Y-81284773D01*
X112090485Y-81652468D01*
X111610073Y-81652468D01*
X111898271Y-81364269D01*
X111935892Y-81317587D01*
X111995680Y-81186671D01*
X112011961Y-81073426D01*
X112040984Y-81009873D01*
X112046998Y-81003411D01*
X112118313Y-80932098D01*
X112118312Y-80932098D01*
X112208432Y-80841978D01*
X112208437Y-80841974D01*
X112218640Y-80831770D01*
X112218642Y-80831770D01*
X112330446Y-80719966D01*
X112330447Y-80719964D01*
X112788456Y-80261954D01*
X112815393Y-80241534D01*
X112821836Y-80237913D01*
X112875541Y-80215669D01*
X112950127Y-80165831D01*
X112954297Y-80163489D01*
X112983866Y-80156680D01*
X113012823Y-80147614D01*
X113017578Y-80148918D01*
X113022385Y-80147812D01*
X113050937Y-80158069D01*
X113080203Y-80166098D01*
X113083499Y-80169767D01*
X113088140Y-80171435D01*
X113106615Y-80195501D01*
X113126894Y-80218077D01*
X113128131Y-80223528D01*
X113130686Y-80226857D01*
X113131737Y-80239424D01*
X113139037Y-80271594D01*
X113139037Y-84666924D01*
X113119352Y-84733963D01*
X113102718Y-84754605D01*
X111440118Y-86417204D01*
X111440116Y-86417207D01*
X111373343Y-86532864D01*
X111373341Y-86532867D01*
X111361060Y-86554136D01*
X111320136Y-86706866D01*
X111320136Y-86874969D01*
X111320137Y-86874982D01*
X111320137Y-88851883D01*
X111300452Y-88918922D01*
X111262770Y-88955804D01*
X111262885Y-88955962D01*
X111261813Y-88956740D01*
X111260922Y-88957613D01*
X111258946Y-88958823D01*
X111098170Y-89075634D01*
X110957658Y-89216146D01*
X110840850Y-89376918D01*
X110750631Y-89553980D01*
X110750630Y-89553983D01*
X110689224Y-89742975D01*
X110658137Y-89939252D01*
X110658137Y-90137973D01*
X110689224Y-90334250D01*
X110750630Y-90523242D01*
X110750631Y-90523245D01*
X110840850Y-90700307D01*
X110957656Y-90861077D01*
X111098173Y-91001594D01*
X111258943Y-91118400D01*
X111345786Y-91162648D01*
X111436004Y-91208618D01*
X111436007Y-91208619D01*
X111523055Y-91236902D01*
X111625001Y-91270026D01*
X111821276Y-91301113D01*
X111821277Y-91301113D01*
X112019997Y-91301113D01*
X112019998Y-91301113D01*
X112216273Y-91270026D01*
X112383294Y-91215757D01*
X112453134Y-91213763D01*
X112512967Y-91249843D01*
X112543795Y-91312544D01*
X112539542Y-91372006D01*
X112485275Y-91539024D01*
X112454188Y-91735303D01*
X112454188Y-91934024D01*
X112485275Y-92130301D01*
X112546681Y-92319293D01*
X112546682Y-92319296D01*
X112561094Y-92347580D01*
X112636901Y-92496358D01*
X112753707Y-92657128D01*
X112894224Y-92797645D01*
X113054994Y-92914451D01*
X113141837Y-92958699D01*
X113232055Y-93004669D01*
X113232058Y-93004670D01*
X113319106Y-93032953D01*
X113421052Y-93066077D01*
X113617327Y-93097164D01*
X113617328Y-93097164D01*
X113816048Y-93097164D01*
X113816049Y-93097164D01*
X114012324Y-93066077D01*
X114201320Y-93004669D01*
X114378382Y-92914451D01*
X114539152Y-92797645D01*
X114679669Y-92657128D01*
X114796475Y-92496358D01*
X114886693Y-92319296D01*
X114948101Y-92130300D01*
X114979188Y-91934025D01*
X114979188Y-91735303D01*
X114948101Y-91539028D01*
X114893832Y-91372006D01*
X114891838Y-91302166D01*
X114927918Y-91242333D01*
X114990619Y-91211505D01*
X115050082Y-91215758D01*
X115115158Y-91236902D01*
X115217104Y-91270026D01*
X115413379Y-91301113D01*
X115413380Y-91301113D01*
X115612100Y-91301113D01*
X115612101Y-91301113D01*
X115808376Y-91270026D01*
X115997372Y-91208618D01*
X116174434Y-91118400D01*
X116335204Y-91001594D01*
X116475721Y-90861077D01*
X116592527Y-90700307D01*
X116682745Y-90523245D01*
X116744153Y-90334249D01*
X116775240Y-90137974D01*
X116775240Y-89939252D01*
X116744153Y-89742977D01*
X116713775Y-89649482D01*
X116689885Y-89575955D01*
X116687890Y-89506114D01*
X116723971Y-89446281D01*
X116786672Y-89415453D01*
X116846133Y-89419705D01*
X117013155Y-89473974D01*
X117209430Y-89505061D01*
X117209431Y-89505061D01*
X117408151Y-89505061D01*
X117408152Y-89505061D01*
X117604427Y-89473974D01*
X117793423Y-89412566D01*
X117970485Y-89322348D01*
X118131255Y-89205542D01*
X118271772Y-89065025D01*
X118388578Y-88904255D01*
X118478796Y-88727193D01*
X118540204Y-88538197D01*
X118571291Y-88341922D01*
X118571291Y-88143200D01*
X118540204Y-87946925D01*
X118485935Y-87779903D01*
X118483941Y-87710063D01*
X118520021Y-87650230D01*
X118582722Y-87619402D01*
X118642184Y-87623654D01*
X118809206Y-87677923D01*
X119005481Y-87709010D01*
X119005482Y-87709010D01*
X119204202Y-87709010D01*
X119204203Y-87709010D01*
X119400478Y-87677923D01*
X119589474Y-87616515D01*
X119766536Y-87526297D01*
X119927306Y-87409491D01*
X120067823Y-87268974D01*
X120184629Y-87108204D01*
X120274847Y-86931142D01*
X120336255Y-86742146D01*
X120367342Y-86545871D01*
X120367342Y-86347149D01*
X120336255Y-86150874D01*
X120281986Y-85983852D01*
X120279992Y-85914012D01*
X120316072Y-85854179D01*
X120378773Y-85823351D01*
X120438235Y-85827603D01*
X120605257Y-85881872D01*
X120801532Y-85912959D01*
X120801533Y-85912959D01*
X121000253Y-85912959D01*
X121000254Y-85912959D01*
X121196529Y-85881872D01*
X121385525Y-85820464D01*
X121562587Y-85730246D01*
X121723357Y-85613440D01*
X121863874Y-85472923D01*
X121980680Y-85312153D01*
X122070898Y-85135091D01*
X122132306Y-84946095D01*
X122163393Y-84749820D01*
X122163393Y-84551098D01*
X122132306Y-84354823D01*
X122078037Y-84187801D01*
X122076043Y-84117961D01*
X122112123Y-84058128D01*
X122174824Y-84027300D01*
X122234286Y-84031552D01*
X122401308Y-84085821D01*
X122597583Y-84116908D01*
X122597584Y-84116908D01*
X122796304Y-84116908D01*
X122796305Y-84116908D01*
X122992580Y-84085821D01*
X123181576Y-84024413D01*
X123358638Y-83934195D01*
X123519408Y-83817389D01*
X123659925Y-83676872D01*
X123776731Y-83516102D01*
X123866949Y-83339040D01*
X123928357Y-83150044D01*
X123959444Y-82953769D01*
X123959444Y-82755047D01*
X123928357Y-82558772D01*
X123874088Y-82391750D01*
X123872094Y-82321910D01*
X123908174Y-82262077D01*
X123970875Y-82231249D01*
X124030338Y-82235502D01*
X124086987Y-82253908D01*
X124197360Y-82289770D01*
X124393635Y-82320857D01*
X124393636Y-82320857D01*
X124592356Y-82320857D01*
X124592357Y-82320857D01*
X124788632Y-82289770D01*
X124977628Y-82228362D01*
X125154690Y-82138144D01*
X125315460Y-82021338D01*
X125455977Y-81880821D01*
X125572783Y-81720051D01*
X125663001Y-81542989D01*
X125724409Y-81353993D01*
X125755496Y-81157718D01*
X125755496Y-80958996D01*
X125724409Y-80762721D01*
X125690197Y-80657425D01*
X125670141Y-80595699D01*
X125668146Y-80525858D01*
X125704227Y-80466025D01*
X125766928Y-80435197D01*
X125826389Y-80439449D01*
X125993411Y-80493718D01*
X126189686Y-80524805D01*
X126189687Y-80524805D01*
X126388407Y-80524805D01*
X126388408Y-80524805D01*
X126584683Y-80493718D01*
X126773679Y-80432310D01*
X126950741Y-80342092D01*
X127111511Y-80225286D01*
X127252028Y-80084769D01*
X127368834Y-79923999D01*
X127459052Y-79746937D01*
X127520460Y-79557941D01*
X127551547Y-79361666D01*
X127551547Y-79162944D01*
X127520460Y-78966669D01*
X127459052Y-78777673D01*
X127459052Y-78777672D01*
X127401409Y-78664543D01*
X127368834Y-78600611D01*
X127252028Y-78439841D01*
X127111511Y-78299324D01*
X126950741Y-78182518D01*
X126773679Y-78092299D01*
X126773676Y-78092298D01*
X126584684Y-78030892D01*
X126486545Y-78015348D01*
X126388408Y-77999805D01*
X126189686Y-77999805D01*
X126150431Y-78006022D01*
X125993407Y-78030892D01*
X125826389Y-78085159D01*
X125756548Y-78087154D01*
X125696716Y-78051073D01*
X125665888Y-77988372D01*
X125670141Y-77928910D01*
X125724409Y-77761890D01*
X125755496Y-77565615D01*
X125755496Y-77366893D01*
X125724409Y-77170618D01*
X125663001Y-76981622D01*
X125663001Y-76981621D01*
X125588660Y-76835721D01*
X125572783Y-76804560D01*
X125455977Y-76643790D01*
X125315460Y-76503273D01*
X125154690Y-76386467D01*
X125154688Y-76386466D01*
X125154684Y-76386463D01*
X125152705Y-76385250D01*
X125152110Y-76384592D01*
X125150748Y-76383603D01*
X125150955Y-76383316D01*
X125105830Y-76333438D01*
X125093495Y-76279523D01*
X125093495Y-75538362D01*
X125093496Y-75538349D01*
X125093496Y-75370248D01*
X125093496Y-75370246D01*
X125052572Y-75217518D01*
X125019769Y-75160702D01*
X124973515Y-75080587D01*
X124861711Y-74968783D01*
X124861710Y-74968782D01*
X124857380Y-74964452D01*
X124857369Y-74964442D01*
X119701397Y-69808469D01*
X119701395Y-69808466D01*
X119582524Y-69689595D01*
X119582523Y-69689594D01*
X119495161Y-69639156D01*
X119445592Y-69610537D01*
X119292864Y-69569613D01*
X119134750Y-69569613D01*
X119127154Y-69569613D01*
X119127138Y-69569614D01*
X114904315Y-69569614D01*
X114837276Y-69549929D01*
X114791521Y-69497125D01*
X114789754Y-69493067D01*
X114764873Y-69433001D01*
X114764871Y-69432997D01*
X114693249Y-69325807D01*
X114693243Y-69325799D01*
X114602085Y-69234641D01*
X114602077Y-69234635D01*
X114494887Y-69163013D01*
X114494883Y-69163011D01*
X114408248Y-69127125D01*
X114353844Y-69083283D01*
X114341140Y-69060017D01*
X114305254Y-68973381D01*
X114283459Y-68940763D01*
X114233631Y-68866189D01*
X114233623Y-68866179D01*
X114201763Y-68834319D01*
X121242142Y-68834319D01*
X121523450Y-69115627D01*
X121570085Y-69153207D01*
X121700866Y-69212933D01*
X121843183Y-69233394D01*
X121985499Y-69212933D01*
X122116280Y-69153207D01*
X122162915Y-69115627D01*
X123257396Y-68021146D01*
X123257396Y-68021145D01*
X122656357Y-67420105D01*
X122656356Y-67420105D01*
X121242142Y-68834319D01*
X114201763Y-68834319D01*
X114142466Y-68775022D01*
X114142458Y-68775016D01*
X114035268Y-68703394D01*
X114035264Y-68703392D01*
X113948025Y-68667256D01*
X113893622Y-68623415D01*
X113880917Y-68600148D01*
X113845263Y-68514073D01*
X113845259Y-68514065D01*
X113824435Y-68482900D01*
X113709413Y-68597922D01*
X113648090Y-68631406D01*
X113645924Y-68631857D01*
X113540005Y-68652926D01*
X113470413Y-68646699D01*
X113415236Y-68603836D01*
X113391991Y-68537946D01*
X113408059Y-68469949D01*
X113428132Y-68443628D01*
X113606648Y-68265112D01*
X113575478Y-68244286D01*
X113456461Y-68194988D01*
X113456451Y-68194985D01*
X113330113Y-68169855D01*
X113201276Y-68169855D01*
X113074935Y-68194985D01*
X113074921Y-68194989D01*
X113074407Y-68195203D01*
X113074115Y-68195234D01*
X113069095Y-68196757D01*
X113068806Y-68195804D01*
X113004937Y-68202665D01*
X112942461Y-68171384D01*
X112922466Y-68147390D01*
X112916587Y-68138187D01*
X112909394Y-68120821D01*
X112821789Y-67989711D01*
X112821656Y-67989578D01*
X112820001Y-67986987D01*
X112810585Y-67954594D01*
X112800520Y-67922447D01*
X112800500Y-67920234D01*
X112800500Y-67879724D01*
X120489514Y-67879724D01*
X120489514Y-67879725D01*
X120509974Y-68022041D01*
X120569700Y-68152822D01*
X120607280Y-68199457D01*
X120888588Y-68480765D01*
X122302801Y-67066552D01*
X123009909Y-67066552D01*
X123610949Y-67667592D01*
X124705427Y-66573115D01*
X124705431Y-66573111D01*
X124743011Y-66526476D01*
X124802737Y-66395695D01*
X124823198Y-66253379D01*
X124823198Y-66253378D01*
X124802737Y-66111062D01*
X124743011Y-65980281D01*
X124705431Y-65933646D01*
X124424123Y-65652338D01*
X123009909Y-67066552D01*
X122302801Y-67066552D01*
X122302802Y-67066551D01*
X122302802Y-67066550D01*
X121701761Y-66465511D01*
X121701760Y-66465511D01*
X120607284Y-67559987D01*
X120569700Y-67606627D01*
X120509974Y-67737408D01*
X120489514Y-67879724D01*
X112800500Y-67879724D01*
X112800500Y-66630409D01*
X113162176Y-66630409D01*
X113195995Y-66664228D01*
X113242631Y-66701809D01*
X113373410Y-66761535D01*
X113373415Y-66761536D01*
X113515729Y-66781996D01*
X113658042Y-66761536D01*
X113658047Y-66761535D01*
X113788826Y-66701809D01*
X113835463Y-66664228D01*
X113835465Y-66664225D01*
X113883424Y-66616267D01*
X113529871Y-66262714D01*
X113162176Y-66630409D01*
X112800500Y-66630409D01*
X112800500Y-66350905D01*
X112820185Y-66283866D01*
X112836818Y-66263225D01*
X112880795Y-66219247D01*
X112942118Y-66185761D01*
X112950811Y-66184192D01*
X113064074Y-66167909D01*
X113194990Y-66108121D01*
X113194991Y-66108119D01*
X113194993Y-66108119D01*
X113205787Y-66099420D01*
X113241672Y-66070502D01*
X113403013Y-65909160D01*
X113883425Y-65909160D01*
X114236978Y-66262713D01*
X114284936Y-66214754D01*
X114284940Y-66214750D01*
X114322520Y-66168115D01*
X114348167Y-66111956D01*
X122055315Y-66111956D01*
X122055315Y-66111957D01*
X122656354Y-66712998D01*
X122656355Y-66712998D01*
X124070569Y-65298784D01*
X123789261Y-65017476D01*
X123742626Y-64979896D01*
X123611845Y-64920170D01*
X123469529Y-64899710D01*
X123327212Y-64920170D01*
X123196431Y-64979896D01*
X123149791Y-65017480D01*
X122055315Y-66111956D01*
X114348167Y-66111956D01*
X114382246Y-66037336D01*
X114382247Y-66037330D01*
X114402707Y-65895018D01*
X114382247Y-65752704D01*
X114382246Y-65752699D01*
X114322520Y-65621920D01*
X114284940Y-65575285D01*
X114251120Y-65541465D01*
X113883425Y-65909160D01*
X113403013Y-65909160D01*
X113691211Y-65620961D01*
X113728832Y-65574279D01*
X113788620Y-65443363D01*
X113807346Y-65313107D01*
X113836370Y-65249553D01*
X113842404Y-65243072D01*
X113897566Y-65187911D01*
X113863745Y-65154090D01*
X113817111Y-65116510D01*
X113798978Y-65108229D01*
X113746175Y-65062472D01*
X113737700Y-65046949D01*
X113728835Y-65027540D01*
X113728832Y-65027533D01*
X113691213Y-64980850D01*
X113269957Y-64559596D01*
X113267947Y-64557976D01*
X113223274Y-64521974D01*
X113092360Y-64462187D01*
X113092356Y-64462186D01*
X112949901Y-64441706D01*
X112807445Y-64462186D01*
X112807441Y-64462187D01*
X112676530Y-64521973D01*
X112676525Y-64521976D01*
X112629850Y-64559590D01*
X112629843Y-64559596D01*
X112180315Y-65009125D01*
X112180304Y-65009137D01*
X112142686Y-65055815D01*
X112082898Y-65186730D01*
X112082897Y-65186733D01*
X112066616Y-65299977D01*
X112037591Y-65363533D01*
X112031559Y-65370011D01*
X111920662Y-65480909D01*
X111831286Y-65570285D01*
X111831284Y-65570287D01*
X111758936Y-65642635D01*
X111716368Y-65685203D01*
X111716367Y-65685202D01*
X111716363Y-65685206D01*
X111716364Y-65685207D01*
X111698148Y-65703424D01*
X111636825Y-65736910D01*
X111567134Y-65731928D01*
X111522783Y-65703426D01*
X111495250Y-65675893D01*
X111495246Y-65675890D01*
X111363980Y-65588180D01*
X111363971Y-65588175D01*
X111218110Y-65527758D01*
X111218102Y-65527756D01*
X111063266Y-65496957D01*
X111063262Y-65496957D01*
X110905380Y-65496957D01*
X110905375Y-65496957D01*
X110750539Y-65527756D01*
X110750531Y-65527758D01*
X110604670Y-65588175D01*
X110604661Y-65588180D01*
X110473395Y-65675890D01*
X110473391Y-65675893D01*
X110361757Y-65787527D01*
X110361754Y-65787531D01*
X110274044Y-65918797D01*
X110274039Y-65918806D01*
X110213622Y-66064667D01*
X110213620Y-66064675D01*
X110182821Y-66219511D01*
X110182821Y-66270982D01*
X110163136Y-66338021D01*
X110110332Y-66383776D01*
X110058821Y-66394982D01*
X110007349Y-66394982D01*
X109852513Y-66425781D01*
X109852505Y-66425783D01*
X109706644Y-66486200D01*
X109706635Y-66486205D01*
X109575370Y-66573914D01*
X109554373Y-66594912D01*
X109518201Y-66631083D01*
X109456881Y-66664567D01*
X109430522Y-66667401D01*
X106200316Y-66667401D01*
X106133277Y-66647716D01*
X106087522Y-66594912D01*
X106077578Y-66525754D01*
X106097214Y-66474510D01*
X106099389Y-66471253D01*
X106099390Y-66471252D01*
X106159767Y-66325488D01*
X106159770Y-66325478D01*
X106190552Y-66170735D01*
X106190552Y-66118816D01*
X106210237Y-66051777D01*
X106263041Y-66006022D01*
X106314552Y-65994816D01*
X106366471Y-65994816D01*
X106521214Y-65964034D01*
X106521218Y-65964033D01*
X106650635Y-65910426D01*
X105803561Y-65063353D01*
X105803560Y-65063353D01*
X105646079Y-65220835D01*
X105159917Y-65706997D01*
X105098594Y-65740482D01*
X105028902Y-65735498D01*
X104984555Y-65706997D01*
X103684756Y-64407198D01*
X104058462Y-64407198D01*
X104905535Y-65254272D01*
X104905536Y-65254272D01*
X105278126Y-64881683D01*
X105450008Y-64709800D01*
X105450008Y-64709799D01*
X104602934Y-63862726D01*
X104549327Y-63992148D01*
X104518546Y-64146890D01*
X104518546Y-64198810D01*
X104498861Y-64265849D01*
X104446057Y-64311604D01*
X104394546Y-64322810D01*
X104342627Y-64322810D01*
X104187884Y-64353591D01*
X104058462Y-64407198D01*
X103684756Y-64407198D01*
X101023808Y-61746250D01*
X101023806Y-61746247D01*
X100904935Y-61627376D01*
X100904934Y-61627375D01*
X100818122Y-61577255D01*
X100818122Y-61577254D01*
X100818118Y-61577253D01*
X100768003Y-61548318D01*
X100615275Y-61507394D01*
X100457161Y-61507394D01*
X100449565Y-61507394D01*
X100449549Y-61507395D01*
X98074245Y-61507395D01*
X98007206Y-61487710D01*
X97961451Y-61434906D01*
X97951507Y-61365748D01*
X97959684Y-61335942D01*
X97982553Y-61280732D01*
X98013316Y-61126077D01*
X98013316Y-60968393D01*
X98013316Y-60968390D01*
X98013315Y-60968388D01*
X97982554Y-60813745D01*
X97982553Y-60813738D01*
X97980062Y-60807725D01*
X97922213Y-60668062D01*
X97922206Y-60668049D01*
X97834605Y-60536946D01*
X97834602Y-60536942D01*
X97723108Y-60425448D01*
X97723104Y-60425445D01*
X97669927Y-60389913D01*
X97625122Y-60336301D01*
X97616415Y-60266976D01*
X97646570Y-60203948D01*
X97706013Y-60167229D01*
X97738818Y-60162811D01*
X102152026Y-60162811D01*
X102219065Y-60182496D01*
X102239707Y-60199130D01*
X103803969Y-61763392D01*
X105264040Y-63223462D01*
X105297525Y-63284785D01*
X105292541Y-63354477D01*
X105250669Y-63410410D01*
X105200552Y-63432760D01*
X105085910Y-63455565D01*
X104956488Y-63509172D01*
X105980339Y-64533023D01*
X107004188Y-65556873D01*
X107057795Y-65427456D01*
X107057796Y-65427452D01*
X107088578Y-65272709D01*
X107088578Y-65221290D01*
X107108263Y-65154251D01*
X107161067Y-65108496D01*
X107212578Y-65097290D01*
X107264546Y-65097290D01*
X107264547Y-65097289D01*
X107419391Y-65066489D01*
X107557852Y-65009137D01*
X107565249Y-65006073D01*
X107565249Y-65006072D01*
X107565256Y-65006070D01*
X107696529Y-64918356D01*
X107808169Y-64806716D01*
X107895883Y-64675443D01*
X107956302Y-64529578D01*
X107987103Y-64374731D01*
X107987103Y-64323264D01*
X108006788Y-64256225D01*
X108059592Y-64210470D01*
X108111103Y-64199264D01*
X108162571Y-64199264D01*
X108162572Y-64199263D01*
X108317416Y-64168463D01*
X108463281Y-64108044D01*
X108594554Y-64020330D01*
X108706194Y-63908690D01*
X108793908Y-63777417D01*
X108854327Y-63631552D01*
X108885128Y-63476705D01*
X108885128Y-63318822D01*
X108885128Y-63318819D01*
X108885127Y-63318817D01*
X108866586Y-63225607D01*
X108854327Y-63163975D01*
X108793908Y-63018111D01*
X108793907Y-63018110D01*
X108793904Y-63018104D01*
X108706194Y-62886838D01*
X108706191Y-62886834D01*
X107626527Y-61807170D01*
X107626523Y-61807167D01*
X107495257Y-61719457D01*
X107495248Y-61719452D01*
X107349387Y-61659035D01*
X107349379Y-61659033D01*
X107192477Y-61627823D01*
X107130566Y-61595438D01*
X107128987Y-61593887D01*
X106077144Y-60542044D01*
X120679900Y-60542044D01*
X120686301Y-60601572D01*
X120686303Y-60601579D01*
X120736545Y-60736286D01*
X120736549Y-60736293D01*
X120822709Y-60851387D01*
X120822712Y-60851390D01*
X120937806Y-60937550D01*
X120937813Y-60937554D01*
X121072520Y-60987796D01*
X121072527Y-60987798D01*
X121132055Y-60994199D01*
X121132072Y-60994200D01*
X121179900Y-60994200D01*
X121179900Y-60474200D01*
X120679900Y-60474200D01*
X120679900Y-60542044D01*
X106077144Y-60542044D01*
X104262203Y-58727103D01*
X104228718Y-58665780D01*
X104233702Y-58596088D01*
X104275574Y-58540155D01*
X104341038Y-58515738D01*
X104369273Y-58516948D01*
X104447622Y-58529358D01*
X104447624Y-58529358D01*
X104652325Y-58529358D01*
X104652326Y-58529358D01*
X104854508Y-58497335D01*
X105049193Y-58434078D01*
X105231584Y-58341145D01*
X105361374Y-58246848D01*
X105397187Y-58220829D01*
X105397189Y-58220826D01*
X105397193Y-58220824D01*
X105541940Y-58076077D01*
X105541942Y-58076073D01*
X105541945Y-58076071D01*
X105662258Y-57910472D01*
X105662260Y-57910469D01*
X105662261Y-57910468D01*
X105709490Y-57817775D01*
X105757463Y-57766981D01*
X105825284Y-57750186D01*
X105891419Y-57772723D01*
X105930457Y-57817775D01*
X105930460Y-57817779D01*
X105977689Y-57910472D01*
X106098002Y-58076071D01*
X106242760Y-58220829D01*
X106395572Y-58331851D01*
X106408364Y-58341145D01*
X106497186Y-58386402D01*
X106590750Y-58434076D01*
X106590752Y-58434076D01*
X106590755Y-58434078D01*
X106695111Y-58467985D01*
X106785439Y-58497335D01*
X106879292Y-58512200D01*
X106987622Y-58529358D01*
X106987623Y-58529358D01*
X107192325Y-58529358D01*
X107192326Y-58529358D01*
X107394508Y-58497335D01*
X107589193Y-58434078D01*
X107771584Y-58341145D01*
X107901374Y-58246848D01*
X107937187Y-58220829D01*
X107937189Y-58220826D01*
X107937193Y-58220824D01*
X108081940Y-58076077D01*
X108081942Y-58076073D01*
X108081945Y-58076071D01*
X108202260Y-57910469D01*
X108202261Y-57910468D01*
X108249490Y-57817775D01*
X108297463Y-57766981D01*
X108365284Y-57750185D01*
X108431419Y-57772722D01*
X108470459Y-57817776D01*
X108517690Y-57910471D01*
X108638003Y-58076071D01*
X108782761Y-58220829D01*
X108935573Y-58331851D01*
X108948365Y-58341145D01*
X109037187Y-58386402D01*
X109130751Y-58434076D01*
X109130753Y-58434076D01*
X109130756Y-58434078D01*
X109235112Y-58467985D01*
X109325440Y-58497335D01*
X109419293Y-58512200D01*
X109527623Y-58529358D01*
X109527624Y-58529358D01*
X109732326Y-58529358D01*
X109732327Y-58529358D01*
X109934509Y-58497335D01*
X110129194Y-58434078D01*
X110311585Y-58341145D01*
X110441375Y-58246848D01*
X110477188Y-58220829D01*
X110477190Y-58220826D01*
X110477194Y-58220824D01*
X110621941Y-58076077D01*
X110621943Y-58076073D01*
X110621946Y-58076071D01*
X110742261Y-57910469D01*
X110742395Y-57910207D01*
X110789490Y-57817777D01*
X110837463Y-57766983D01*
X110905284Y-57750187D01*
X110971419Y-57772724D01*
X111010459Y-57817778D01*
X111057689Y-57910471D01*
X111178002Y-58076071D01*
X111322760Y-58220829D01*
X111475572Y-58331851D01*
X111488364Y-58341145D01*
X111577186Y-58386402D01*
X111670750Y-58434076D01*
X111670752Y-58434076D01*
X111670755Y-58434078D01*
X111775111Y-58467985D01*
X111865439Y-58497335D01*
X111959292Y-58512200D01*
X112067622Y-58529358D01*
X112067623Y-58529358D01*
X112272325Y-58529358D01*
X112272326Y-58529358D01*
X112474508Y-58497335D01*
X112669193Y-58434078D01*
X112851584Y-58341145D01*
X112981374Y-58246848D01*
X113017187Y-58220829D01*
X113017189Y-58220826D01*
X113017193Y-58220824D01*
X113161940Y-58076077D01*
X113161942Y-58076073D01*
X113161945Y-58076071D01*
X113282258Y-57910472D01*
X113282260Y-57910469D01*
X113282261Y-57910468D01*
X113329490Y-57817775D01*
X113377463Y-57766981D01*
X113445284Y-57750186D01*
X113511419Y-57772723D01*
X113550457Y-57817775D01*
X113550460Y-57817779D01*
X113597689Y-57910472D01*
X113718002Y-58076071D01*
X113862760Y-58220829D01*
X114015572Y-58331851D01*
X114028364Y-58341145D01*
X114117186Y-58386402D01*
X114210750Y-58434076D01*
X114210752Y-58434076D01*
X114210755Y-58434078D01*
X114315111Y-58467985D01*
X114405439Y-58497335D01*
X114499292Y-58512200D01*
X114607622Y-58529358D01*
X114607623Y-58529358D01*
X114812325Y-58529358D01*
X114812326Y-58529358D01*
X115014508Y-58497335D01*
X115209193Y-58434078D01*
X115391584Y-58341145D01*
X115521374Y-58246848D01*
X115557187Y-58220829D01*
X115557189Y-58220826D01*
X115557193Y-58220824D01*
X115701940Y-58076077D01*
X115701942Y-58076073D01*
X115701945Y-58076071D01*
X115822258Y-57910472D01*
X115822260Y-57910469D01*
X115822261Y-57910468D01*
X115869490Y-57817775D01*
X115917463Y-57766981D01*
X115985284Y-57750186D01*
X116051419Y-57772723D01*
X116090457Y-57817775D01*
X116090460Y-57817779D01*
X116137689Y-57910472D01*
X116258002Y-58076071D01*
X116402760Y-58220829D01*
X116555572Y-58331851D01*
X116568364Y-58341145D01*
X116657186Y-58386402D01*
X116750750Y-58434076D01*
X116750752Y-58434076D01*
X116750755Y-58434078D01*
X116855111Y-58467985D01*
X116945439Y-58497335D01*
X117039292Y-58512200D01*
X117147622Y-58529358D01*
X117147623Y-58529358D01*
X117352325Y-58529358D01*
X117352326Y-58529358D01*
X117554508Y-58497335D01*
X117749193Y-58434078D01*
X117931584Y-58341145D01*
X118061374Y-58246848D01*
X118097187Y-58220829D01*
X118097189Y-58220826D01*
X118097193Y-58220824D01*
X118241940Y-58076077D01*
X118241942Y-58076073D01*
X118241945Y-58076071D01*
X118362260Y-57910469D01*
X118362394Y-57910207D01*
X118409489Y-57817777D01*
X118457462Y-57766983D01*
X118525283Y-57750187D01*
X118591418Y-57772724D01*
X118630458Y-57817778D01*
X118677688Y-57910471D01*
X118798001Y-58076071D01*
X118942759Y-58220829D01*
X119095571Y-58331851D01*
X119108363Y-58341145D01*
X119197185Y-58386402D01*
X119290749Y-58434076D01*
X119290751Y-58434076D01*
X119290754Y-58434078D01*
X119395110Y-58467985D01*
X119485438Y-58497335D01*
X119579291Y-58512200D01*
X119687621Y-58529358D01*
X119687622Y-58529358D01*
X119892324Y-58529358D01*
X119892325Y-58529358D01*
X120094507Y-58497335D01*
X120289192Y-58434078D01*
X120471583Y-58341145D01*
X120601373Y-58246848D01*
X120637186Y-58220829D01*
X120637188Y-58220826D01*
X120637192Y-58220824D01*
X120781939Y-58076077D01*
X120781943Y-58076071D01*
X120790905Y-58063737D01*
X120846234Y-58021070D01*
X120915848Y-58015090D01*
X120977643Y-58047696D01*
X121012001Y-58108534D01*
X121015224Y-58136621D01*
X121015224Y-59256386D01*
X121033099Y-59369244D01*
X121024144Y-59438538D01*
X120979148Y-59491989D01*
X120953961Y-59504823D01*
X120937814Y-59510845D01*
X120822709Y-59597013D01*
X120736549Y-59712106D01*
X120736545Y-59712113D01*
X120686303Y-59846820D01*
X120686301Y-59846827D01*
X120679900Y-59906355D01*
X120679900Y-59974200D01*
X121240561Y-59974200D01*
X121307600Y-59993885D01*
X121328242Y-60010519D01*
X121393581Y-60075858D01*
X121427066Y-60137181D01*
X121429900Y-60163539D01*
X121429900Y-60224200D01*
X121444158Y-60238458D01*
X121462639Y-60243885D01*
X121508394Y-60296689D01*
X121519600Y-60348199D01*
X121519600Y-60542069D01*
X121519601Y-60542076D01*
X121526008Y-60601683D01*
X121576302Y-60736528D01*
X121576303Y-60736530D01*
X121576304Y-60736531D01*
X121634106Y-60813745D01*
X121655167Y-60841878D01*
X121679584Y-60907342D01*
X121679900Y-60916189D01*
X121679900Y-60994200D01*
X121727728Y-60994200D01*
X121727744Y-60994199D01*
X121787274Y-60987798D01*
X121805947Y-60980833D01*
X121875638Y-60975846D01*
X121892612Y-60980829D01*
X121912617Y-60988291D01*
X121972227Y-60994700D01*
X122261060Y-60994699D01*
X122328099Y-61014383D01*
X122348741Y-61031018D01*
X124654463Y-63336740D01*
X124687948Y-63398063D01*
X124682964Y-63467755D01*
X124654463Y-63512102D01*
X124382856Y-63783709D01*
X124345227Y-63830403D01*
X124345225Y-63830405D01*
X124285440Y-63961315D01*
X124285439Y-63961319D01*
X124264959Y-64103775D01*
X124285439Y-64246230D01*
X124285440Y-64246234D01*
X124345226Y-64377145D01*
X124345229Y-64377150D01*
X124369444Y-64407198D01*
X124382847Y-64423830D01*
X125299078Y-65340060D01*
X125299082Y-65340063D01*
X125299084Y-65340065D01*
X125345759Y-65377680D01*
X125476673Y-65437467D01*
X125476674Y-65437467D01*
X125476676Y-65437468D01*
X125619133Y-65457949D01*
X125761590Y-65437468D01*
X125892506Y-65377680D01*
X125939189Y-65340061D01*
X126721272Y-64557975D01*
X126770636Y-64527726D01*
X126936989Y-64473675D01*
X126936995Y-64473673D01*
X126959539Y-64462186D01*
X127121385Y-64379721D01*
X127288808Y-64258081D01*
X127435141Y-64111748D01*
X127556781Y-63944325D01*
X127650733Y-63759935D01*
X127673733Y-63689149D01*
X127704786Y-63593575D01*
X127735034Y-63544213D01*
X128481764Y-62797485D01*
X128519384Y-62750802D01*
X128579172Y-62619886D01*
X128599653Y-62477429D01*
X128579172Y-62334972D01*
X128568883Y-62312443D01*
X128519385Y-62204058D01*
X128519382Y-62204053D01*
X128481768Y-62157378D01*
X128481762Y-62157371D01*
X127565537Y-61241147D01*
X127565527Y-61241138D01*
X127518852Y-61203523D01*
X127387938Y-61143736D01*
X127387934Y-61143735D01*
X127245479Y-61123255D01*
X127103023Y-61143735D01*
X127103019Y-61143736D01*
X126972108Y-61203522D01*
X126925413Y-61241151D01*
X126689162Y-61477403D01*
X126627839Y-61510888D01*
X126558147Y-61505904D01*
X126513800Y-61477403D01*
X123681043Y-58644646D01*
X123647558Y-58583323D01*
X123644724Y-58556965D01*
X123644724Y-58135771D01*
X123664409Y-58068732D01*
X123717213Y-58022977D01*
X123786371Y-58013033D01*
X123849927Y-58042058D01*
X123869042Y-58062886D01*
X123878386Y-58075747D01*
X123878391Y-58075753D01*
X124023078Y-58220440D01*
X124188624Y-58340717D01*
X124370942Y-58433612D01*
X124565552Y-58496846D01*
X124619974Y-58505465D01*
X124619974Y-57690737D01*
X124667332Y-57718080D01*
X124800856Y-57753858D01*
X124939092Y-57753858D01*
X125072616Y-57718080D01*
X125119974Y-57690737D01*
X125119974Y-58505464D01*
X125174395Y-58496846D01*
X125369005Y-58433612D01*
X125551323Y-58340717D01*
X125716868Y-58220440D01*
X125716869Y-58220440D01*
X125861556Y-58075753D01*
X125861556Y-58075752D01*
X125981833Y-57910207D01*
X126074729Y-57727887D01*
X126137964Y-57533271D01*
X126146583Y-57478858D01*
X125331854Y-57478858D01*
X125359196Y-57431500D01*
X125394974Y-57297976D01*
X125394974Y-57159740D01*
X125359196Y-57026216D01*
X125331854Y-56978858D01*
X126146583Y-56978858D01*
X126137964Y-56924444D01*
X126074729Y-56729828D01*
X125981833Y-56547508D01*
X125861556Y-56381963D01*
X125861556Y-56381962D01*
X125716869Y-56237275D01*
X125551323Y-56116998D01*
X125369003Y-56024102D01*
X125174387Y-55960867D01*
X125119974Y-55952248D01*
X125119974Y-56766978D01*
X125072616Y-56739636D01*
X124939092Y-56703858D01*
X124800856Y-56703858D01*
X124667332Y-56739636D01*
X124619974Y-56766978D01*
X124619974Y-55952248D01*
X124565560Y-55960867D01*
X124370944Y-56024102D01*
X124188624Y-56116998D01*
X124023079Y-56237275D01*
X124023078Y-56237275D01*
X123878391Y-56381962D01*
X123878386Y-56381968D01*
X123869040Y-56394832D01*
X123813709Y-56437496D01*
X123744095Y-56443474D01*
X123682301Y-56410866D01*
X123647946Y-56350026D01*
X123644724Y-56321944D01*
X123644724Y-52223796D01*
X123664409Y-52156757D01*
X123681043Y-52136115D01*
X123954745Y-51862413D01*
X124016068Y-51828928D01*
X124042426Y-51826094D01*
X124689006Y-51826094D01*
X124756045Y-51845779D01*
G37*
%TD.AperFunction*%
%TA.AperFunction,Conductor*%
G36*
X113471866Y-71407766D02*
G01*
X113503747Y-71426109D01*
X113503779Y-71426062D01*
X113504485Y-71426533D01*
X113507195Y-71428093D01*
X113508844Y-71429446D01*
X113616034Y-71501069D01*
X113616038Y-71501071D01*
X113616041Y-71501073D01*
X113702678Y-71536959D01*
X113757080Y-71580798D01*
X113769785Y-71604067D01*
X113805667Y-71690696D01*
X113805674Y-71690709D01*
X113877297Y-71797899D01*
X113877300Y-71797903D01*
X113968459Y-71889062D01*
X113968463Y-71889065D01*
X114075653Y-71960688D01*
X114075666Y-71960695D01*
X114162296Y-71996578D01*
X114216700Y-72040419D01*
X114229405Y-72063687D01*
X114265287Y-72150316D01*
X114265294Y-72150329D01*
X114336917Y-72257519D01*
X114336920Y-72257523D01*
X114428079Y-72348682D01*
X114428083Y-72348685D01*
X114535273Y-72420308D01*
X114535277Y-72420310D01*
X114535280Y-72420312D01*
X114621917Y-72456198D01*
X114676319Y-72500037D01*
X114689024Y-72523306D01*
X114724906Y-72609935D01*
X114724913Y-72609948D01*
X114796536Y-72717138D01*
X114796539Y-72717142D01*
X114887698Y-72808301D01*
X114887702Y-72808304D01*
X114994892Y-72879927D01*
X114994904Y-72879934D01*
X115081635Y-72915858D01*
X115136039Y-72959698D01*
X115148744Y-72982967D01*
X115184667Y-73069697D01*
X115184674Y-73069709D01*
X115256297Y-73176899D01*
X115256300Y-73176903D01*
X115347459Y-73268062D01*
X115347463Y-73268065D01*
X115454653Y-73339688D01*
X115454657Y-73339690D01*
X115454660Y-73339692D01*
X115541297Y-73375578D01*
X115595699Y-73419417D01*
X115608404Y-73442686D01*
X115644286Y-73529315D01*
X115644293Y-73529328D01*
X115715916Y-73636518D01*
X115715919Y-73636522D01*
X115807078Y-73727681D01*
X115807082Y-73727684D01*
X115914272Y-73799307D01*
X115914285Y-73799314D01*
X116000915Y-73835197D01*
X116055319Y-73879038D01*
X116068024Y-73902306D01*
X116103906Y-73988935D01*
X116103913Y-73988948D01*
X116175536Y-74096138D01*
X116175539Y-74096142D01*
X116266698Y-74187301D01*
X116266702Y-74187304D01*
X116373892Y-74258927D01*
X116373896Y-74258929D01*
X116373899Y-74258931D01*
X116460536Y-74294817D01*
X116514938Y-74338656D01*
X116527643Y-74361925D01*
X116563525Y-74448554D01*
X116563532Y-74448567D01*
X116635155Y-74555757D01*
X116635158Y-74555761D01*
X116726317Y-74646920D01*
X116726321Y-74646923D01*
X116833511Y-74718546D01*
X116833524Y-74718553D01*
X116920758Y-74754686D01*
X116975162Y-74798526D01*
X116987867Y-74821794D01*
X117023521Y-74907871D01*
X117044346Y-74939040D01*
X117159369Y-74824019D01*
X117220692Y-74790535D01*
X117222859Y-74790084D01*
X117328777Y-74769016D01*
X117398369Y-74775243D01*
X117453546Y-74818107D01*
X117476790Y-74883996D01*
X117460722Y-74951993D01*
X117440649Y-74978314D01*
X117262134Y-75156828D01*
X117293305Y-75177655D01*
X117412323Y-75226954D01*
X117412329Y-75226956D01*
X117538672Y-75252088D01*
X117667505Y-75252088D01*
X117793848Y-75226956D01*
X117793854Y-75226954D01*
X117912872Y-75177655D01*
X118019990Y-75106082D01*
X118315852Y-74810219D01*
X117944337Y-74438705D01*
X117910852Y-74377382D01*
X117915836Y-74307691D01*
X117944335Y-74263345D01*
X117986765Y-74220915D01*
X118048088Y-74187431D01*
X118117780Y-74192417D01*
X118162126Y-74220917D01*
X118533640Y-74592430D01*
X118592684Y-74533387D01*
X118654007Y-74499902D01*
X118723699Y-74504886D01*
X118768047Y-74533387D01*
X119274124Y-75039464D01*
X119307609Y-75100787D01*
X119310443Y-75127145D01*
X119310443Y-79061203D01*
X119290758Y-79128242D01*
X119274124Y-79148884D01*
X118413936Y-80009072D01*
X118352613Y-80042557D01*
X118282921Y-80037573D01*
X118226988Y-79995701D01*
X118202571Y-79930237D01*
X118202255Y-79921391D01*
X118202255Y-78104423D01*
X118200228Y-78096859D01*
X118200228Y-78096860D01*
X118200227Y-78096855D01*
X118161332Y-77951698D01*
X118118597Y-77877679D01*
X118082275Y-77814767D01*
X117970471Y-77702963D01*
X117970470Y-77702962D01*
X117966140Y-77698632D01*
X117966129Y-77698622D01*
X115151693Y-74884186D01*
X115151691Y-74884183D01*
X115032820Y-74765312D01*
X115032812Y-74765306D01*
X114940056Y-74711754D01*
X114940054Y-74711753D01*
X114895893Y-74686256D01*
X114895892Y-74686255D01*
X114883366Y-74682898D01*
X114743160Y-74645330D01*
X114585046Y-74645330D01*
X114577450Y-74645330D01*
X114577434Y-74645331D01*
X109905700Y-74645331D01*
X109858248Y-74635892D01*
X109829644Y-74624044D01*
X109775240Y-74580204D01*
X109762535Y-74556935D01*
X109726863Y-74470814D01*
X109726857Y-74470803D01*
X109706033Y-74439637D01*
X109704958Y-74439532D01*
X109640171Y-74413370D01*
X109599812Y-74356336D01*
X109596696Y-74286535D01*
X109629430Y-74228450D01*
X109958506Y-73899375D01*
X109958511Y-73899371D01*
X109968714Y-73889167D01*
X109968716Y-73889167D01*
X110080520Y-73777363D01*
X110159577Y-73640431D01*
X110193526Y-73513730D01*
X110200500Y-73487705D01*
X110200500Y-73329590D01*
X110200500Y-72187401D01*
X110200501Y-72187388D01*
X110200501Y-72019285D01*
X110200194Y-72018138D01*
X110176056Y-71928056D01*
X110177719Y-71858208D01*
X110216881Y-71800346D01*
X110281109Y-71772841D01*
X110327924Y-71776189D01*
X110418653Y-71800501D01*
X110418654Y-71800501D01*
X110584364Y-71800501D01*
X110584380Y-71800500D01*
X112641216Y-71800500D01*
X112641232Y-71800501D01*
X112648828Y-71800501D01*
X112806939Y-71800501D01*
X112806942Y-71800501D01*
X112959670Y-71759577D01*
X113015868Y-71727131D01*
X113015869Y-71727131D01*
X113096594Y-71680524D01*
X113096593Y-71680524D01*
X113096601Y-71680520D01*
X113208405Y-71568716D01*
X113208405Y-71568714D01*
X113218609Y-71558511D01*
X113218612Y-71558506D01*
X113340854Y-71436265D01*
X113402174Y-71402782D01*
X113471866Y-71407766D01*
G37*
%TD.AperFunction*%
%TA.AperFunction,Conductor*%
G36*
X82071137Y-69820899D02*
G01*
X82094656Y-69819849D01*
X82105509Y-69825965D01*
X82116974Y-69827655D01*
X82132408Y-69841124D01*
X82152747Y-69852586D01*
X82550605Y-70250444D01*
X82550615Y-70250455D01*
X82554945Y-70254785D01*
X82554946Y-70254786D01*
X82666750Y-70366590D01*
X82740094Y-70408934D01*
X82753561Y-70416709D01*
X82753563Y-70416711D01*
X82791617Y-70438681D01*
X82803681Y-70445647D01*
X82956409Y-70486570D01*
X83114523Y-70486570D01*
X83967576Y-70486570D01*
X84034615Y-70506255D01*
X84080370Y-70559059D01*
X84090314Y-70628217D01*
X84061289Y-70691773D01*
X84055257Y-70698251D01*
X81973673Y-72779835D01*
X81912350Y-72813320D01*
X81842658Y-72808336D01*
X81786725Y-72766464D01*
X81762308Y-72701000D01*
X81761992Y-72692154D01*
X81761992Y-70094336D01*
X81781677Y-70027297D01*
X81805119Y-70000338D01*
X81984193Y-69846269D01*
X82005641Y-69836564D01*
X82024856Y-69822968D01*
X82036882Y-69822430D01*
X82047851Y-69817468D01*
X82071137Y-69820899D01*
G37*
%TD.AperFunction*%
%TA.AperFunction,Conductor*%
G36*
X100303160Y-62728080D02*
G01*
X100323801Y-62744713D01*
X102799922Y-65220835D01*
X105211362Y-67632275D01*
X105211372Y-67632286D01*
X105215702Y-67636616D01*
X105215703Y-67636617D01*
X105327507Y-67748421D01*
X105411885Y-67797136D01*
X105464438Y-67827478D01*
X105617166Y-67868402D01*
X105617169Y-67868402D01*
X105782876Y-67868402D01*
X105782892Y-67868401D01*
X108264949Y-67868401D01*
X108331988Y-67888086D01*
X108346625Y-67904978D01*
X108346760Y-67905043D01*
X108346956Y-67905360D01*
X108377743Y-67940890D01*
X108382020Y-67962032D01*
X108383522Y-67964460D01*
X108384259Y-67973102D01*
X108388896Y-67996020D01*
X108388592Y-68006402D01*
X108386770Y-68015567D01*
X108386770Y-68068837D01*
X108386717Y-68070653D01*
X108376434Y-68102233D01*
X108367085Y-68134073D01*
X108365666Y-68135301D01*
X108365085Y-68137089D01*
X108339347Y-68158107D01*
X108314281Y-68179828D01*
X108312195Y-68180281D01*
X108310968Y-68181284D01*
X108303859Y-68182095D01*
X108262770Y-68191034D01*
X108211298Y-68191034D01*
X108056462Y-68221833D01*
X108056454Y-68221835D01*
X107910593Y-68282252D01*
X107910584Y-68282257D01*
X107779318Y-68369967D01*
X107779314Y-68369970D01*
X107667680Y-68481604D01*
X107667677Y-68481608D01*
X107579967Y-68612874D01*
X107579962Y-68612883D01*
X107519545Y-68758744D01*
X107519543Y-68758752D01*
X107488744Y-68913588D01*
X107488744Y-68965059D01*
X107469059Y-69032098D01*
X107416255Y-69077853D01*
X107364744Y-69089059D01*
X107313273Y-69089059D01*
X107158437Y-69119858D01*
X107158429Y-69119860D01*
X107012568Y-69180277D01*
X107012559Y-69180282D01*
X106881293Y-69267992D01*
X106881289Y-69267995D01*
X106769655Y-69379629D01*
X106769652Y-69379633D01*
X106681942Y-69510899D01*
X106681937Y-69510908D01*
X106621520Y-69656769D01*
X106621518Y-69656777D01*
X106590719Y-69811613D01*
X106590719Y-69863085D01*
X106571034Y-69930124D01*
X106518230Y-69975879D01*
X106466719Y-69987085D01*
X106415247Y-69987085D01*
X106260411Y-70017884D01*
X106260403Y-70017886D01*
X106114542Y-70078303D01*
X106114533Y-70078308D01*
X105983267Y-70166018D01*
X105983263Y-70166021D01*
X105871629Y-70277655D01*
X105871626Y-70277659D01*
X105783916Y-70408925D01*
X105783911Y-70408934D01*
X105723494Y-70554795D01*
X105723492Y-70554803D01*
X105700744Y-70669165D01*
X105668359Y-70731076D01*
X105607644Y-70765650D01*
X105537874Y-70761911D01*
X105491446Y-70732655D01*
X103649006Y-68890214D01*
X103615521Y-68828891D01*
X103620505Y-68759199D01*
X103662377Y-68703266D01*
X103712495Y-68680916D01*
X103827137Y-68658111D01*
X103827141Y-68658110D01*
X103956558Y-68604503D01*
X102932708Y-67580654D01*
X102755929Y-67403875D01*
X103463038Y-67403875D01*
X103463038Y-67403876D01*
X104310111Y-68250950D01*
X104363718Y-68121533D01*
X104363719Y-68121529D01*
X104394501Y-67966786D01*
X104394501Y-67914867D01*
X104414186Y-67847828D01*
X104466990Y-67802073D01*
X104518501Y-67790867D01*
X104570420Y-67790867D01*
X104725163Y-67760085D01*
X104725167Y-67760084D01*
X104854584Y-67706477D01*
X104007510Y-66859404D01*
X104007509Y-66859404D01*
X103850526Y-67016388D01*
X103463038Y-67403875D01*
X102755929Y-67403875D01*
X101908857Y-66556803D01*
X101855250Y-66686225D01*
X101832445Y-66800867D01*
X101800059Y-66862778D01*
X101739343Y-66897351D01*
X101669573Y-66893610D01*
X101623147Y-66864355D01*
X100962041Y-66203249D01*
X102262411Y-66203249D01*
X103109484Y-67050323D01*
X103109485Y-67050323D01*
X103495581Y-66664228D01*
X103653957Y-66505851D01*
X103653957Y-66505850D01*
X102806883Y-65658777D01*
X102753276Y-65788199D01*
X102722495Y-65942941D01*
X102722495Y-65994861D01*
X102702810Y-66061900D01*
X102650006Y-66107655D01*
X102598495Y-66118861D01*
X102546576Y-66118861D01*
X102391833Y-66149642D01*
X102262411Y-66203249D01*
X100962041Y-66203249D01*
X98045722Y-63286930D01*
X98012237Y-63225607D01*
X98011786Y-63223440D01*
X97982554Y-63076487D01*
X97982553Y-63076480D01*
X97943618Y-62982481D01*
X97922213Y-62930804D01*
X97922209Y-62930797D01*
X97902491Y-62901287D01*
X97881613Y-62834609D01*
X97900097Y-62767229D01*
X97952076Y-62720538D01*
X98005593Y-62708395D01*
X100236121Y-62708395D01*
X100303160Y-62728080D01*
G37*
%TD.AperFunction*%
%TA.AperFunction,Conductor*%
G36*
X85192628Y-58226557D02*
G01*
X85219333Y-58246847D01*
X86588537Y-59616052D01*
X86622021Y-59677373D01*
X86617037Y-59747065D01*
X86588537Y-59791412D01*
X86479399Y-59900550D01*
X86391798Y-60031653D01*
X86391791Y-60031666D01*
X86331453Y-60177337D01*
X86331450Y-60177349D01*
X86300689Y-60331992D01*
X86300689Y-60489685D01*
X86331450Y-60644328D01*
X86331453Y-60644340D01*
X86391791Y-60790011D01*
X86391798Y-60790024D01*
X86479399Y-60921127D01*
X86479402Y-60921131D01*
X86590896Y-61032625D01*
X86590900Y-61032628D01*
X86722003Y-61120229D01*
X86722016Y-61120236D01*
X86867687Y-61180574D01*
X86867692Y-61180576D01*
X86983049Y-61203522D01*
X87022342Y-61211338D01*
X87022345Y-61211339D01*
X87173201Y-61211339D01*
X87240240Y-61231024D01*
X87260882Y-61247658D01*
X87601254Y-61588030D01*
X87634739Y-61649353D01*
X87629755Y-61719045D01*
X87601254Y-61763392D01*
X87423063Y-61941584D01*
X87361740Y-61975069D01*
X87292049Y-61970085D01*
X87247701Y-61941584D01*
X86768989Y-61462872D01*
X86768988Y-61462872D01*
X86417769Y-61814091D01*
X86356446Y-61847576D01*
X86286754Y-61842592D01*
X86242407Y-61814091D01*
X84909581Y-60481265D01*
X84876096Y-60419942D01*
X84873262Y-60393584D01*
X84873262Y-58432169D01*
X84892947Y-58365130D01*
X84924377Y-58331851D01*
X85058768Y-58234211D01*
X85124574Y-58210731D01*
X85192628Y-58226557D01*
G37*
%TD.AperFunction*%
%TA.AperFunction,Conductor*%
G36*
X77415678Y-46004121D02*
G01*
X77453452Y-46062899D01*
X77454234Y-46065683D01*
X77490397Y-46200643D01*
X77501935Y-46220627D01*
X77503320Y-46223026D01*
X77503332Y-46223049D01*
X77569449Y-46337567D01*
X77569455Y-46337575D01*
X77688323Y-46456443D01*
X77688329Y-46456448D01*
X86948557Y-55716677D01*
X86982042Y-55778000D01*
X86977058Y-55847692D01*
X86935186Y-55903625D01*
X86869722Y-55928042D01*
X86860876Y-55928358D01*
X86667621Y-55928358D01*
X86629572Y-55934384D01*
X86465441Y-55960380D01*
X86456690Y-55963223D01*
X86451127Y-55965031D01*
X86381286Y-55967025D01*
X86325130Y-55934780D01*
X86157563Y-55767213D01*
X86157561Y-55767210D01*
X86038690Y-55648339D01*
X86038689Y-55648338D01*
X85951877Y-55598218D01*
X85951877Y-55598217D01*
X85951873Y-55598216D01*
X85901758Y-55569281D01*
X85749030Y-55528357D01*
X85590916Y-55528357D01*
X85583320Y-55528357D01*
X85583304Y-55528358D01*
X83861008Y-55528358D01*
X83860992Y-55528357D01*
X83853396Y-55528357D01*
X83695281Y-55528357D01*
X83618917Y-55548819D01*
X83542552Y-55569281D01*
X83542547Y-55569284D01*
X83405628Y-55648333D01*
X83405620Y-55648339D01*
X82764811Y-56289148D01*
X82703488Y-56322633D01*
X82633796Y-56317649D01*
X82589449Y-56289148D01*
X82537187Y-56236886D01*
X82371587Y-56116573D01*
X82371586Y-56116572D01*
X82371584Y-56116571D01*
X82314627Y-56087549D01*
X82189197Y-56023639D01*
X81994508Y-55960380D01*
X81819969Y-55932736D01*
X81792326Y-55928358D01*
X81587622Y-55928358D01*
X81563303Y-55932209D01*
X81385439Y-55960380D01*
X81190750Y-56023639D01*
X81008360Y-56116573D01*
X80842760Y-56236886D01*
X80698002Y-56381644D01*
X80577689Y-56547244D01*
X80530459Y-56639938D01*
X80482484Y-56690734D01*
X80414663Y-56707529D01*
X80348528Y-56684992D01*
X80309489Y-56639938D01*
X80262393Y-56547508D01*
X80262261Y-56547248D01*
X80254530Y-56536607D01*
X80141945Y-56381644D01*
X79997187Y-56236886D01*
X79831584Y-56116570D01*
X79818174Y-56109737D01*
X79767380Y-56061761D01*
X79750474Y-55999255D01*
X79750474Y-55116788D01*
X79751536Y-55100595D01*
X79758754Y-55045800D01*
X80270100Y-55045800D01*
X80317928Y-55045800D01*
X80317944Y-55045799D01*
X80377472Y-55039398D01*
X80377479Y-55039396D01*
X80512186Y-54989154D01*
X80512193Y-54989150D01*
X80627287Y-54902990D01*
X80627290Y-54902987D01*
X80713450Y-54787893D01*
X80713454Y-54787886D01*
X80763696Y-54653179D01*
X80763698Y-54653172D01*
X80770099Y-54593644D01*
X80770100Y-54593627D01*
X80770100Y-54525800D01*
X80270100Y-54525800D01*
X80270100Y-55045800D01*
X79758754Y-55045800D01*
X79771162Y-54951596D01*
X79782140Y-54926782D01*
X79789785Y-54900750D01*
X79794833Y-54893478D01*
X79835059Y-54839743D01*
X79873696Y-54788131D01*
X79923991Y-54653283D01*
X79930400Y-54593673D01*
X79930399Y-54025800D01*
X80270100Y-54025800D01*
X80770100Y-54025800D01*
X80770100Y-53957972D01*
X80770099Y-53957955D01*
X80763698Y-53898427D01*
X80763696Y-53898420D01*
X80713454Y-53763713D01*
X80713450Y-53763706D01*
X80627290Y-53648612D01*
X80627287Y-53648609D01*
X80512193Y-53562449D01*
X80512186Y-53562445D01*
X80377479Y-53512203D01*
X80377472Y-53512201D01*
X80317944Y-53505800D01*
X80270100Y-53505800D01*
X80270100Y-54025800D01*
X79930399Y-54025800D01*
X79930399Y-53957928D01*
X79923991Y-53898317D01*
X79873784Y-53763706D01*
X79873697Y-53763471D01*
X79873695Y-53763468D01*
X79794833Y-53658121D01*
X79770416Y-53592656D01*
X79770100Y-53583810D01*
X79770100Y-53505800D01*
X79722255Y-53505800D01*
X79662727Y-53512201D01*
X79662717Y-53512203D01*
X79644044Y-53519168D01*
X79574352Y-53524150D01*
X79557383Y-53519168D01*
X79537386Y-53511710D01*
X79537385Y-53511709D01*
X79537383Y-53511709D01*
X79477773Y-53505300D01*
X79477763Y-53505300D01*
X78882029Y-53505300D01*
X78882023Y-53505301D01*
X78822416Y-53511708D01*
X78687571Y-53562002D01*
X78687564Y-53562006D01*
X78572355Y-53648252D01*
X78572352Y-53648255D01*
X78486106Y-53763464D01*
X78486102Y-53763471D01*
X78435810Y-53898313D01*
X78435809Y-53898317D01*
X78429400Y-53957927D01*
X78429400Y-53957934D01*
X78429400Y-53957935D01*
X78429400Y-54593670D01*
X78429401Y-54593676D01*
X78435808Y-54653283D01*
X78486102Y-54788128D01*
X78486103Y-54788130D01*
X78524741Y-54839743D01*
X78549158Y-54905207D01*
X78549474Y-54914054D01*
X78549474Y-55999255D01*
X78529789Y-56066294D01*
X78481774Y-56109737D01*
X78468363Y-56116570D01*
X78302760Y-56236886D01*
X78158002Y-56381644D01*
X78037686Y-56547247D01*
X78037685Y-56547249D01*
X77990458Y-56639937D01*
X77942484Y-56690733D01*
X77874663Y-56707528D01*
X77808528Y-56684990D01*
X77769489Y-56639937D01*
X77722262Y-56547249D01*
X77722262Y-56547248D01*
X77722260Y-56547245D01*
X77722259Y-56547243D01*
X77601946Y-56381644D01*
X77457188Y-56236886D01*
X77291585Y-56116570D01*
X77278175Y-56109737D01*
X77227381Y-56061761D01*
X77210475Y-55999255D01*
X77210475Y-46097834D01*
X77230160Y-46030795D01*
X77282964Y-45985040D01*
X77352122Y-45975096D01*
X77415678Y-46004121D01*
G37*
%TD.AperFunction*%
%TA.AperFunction,Conductor*%
G36*
X125122555Y-36640584D02*
G01*
X125135991Y-36641545D01*
X125153717Y-36654815D01*
X125173860Y-36664014D01*
X125181142Y-36675345D01*
X125191924Y-36683417D01*
X125199661Y-36704162D01*
X125211634Y-36722792D01*
X125214946Y-36745141D01*
X125216341Y-36748881D01*
X125216607Y-36756353D01*
X125216652Y-36756651D01*
X125216657Y-36757227D01*
X125216657Y-36877153D01*
X125217743Y-36882617D01*
X125217744Y-36882623D01*
X125246759Y-37028487D01*
X125246762Y-37028497D01*
X125305808Y-37171048D01*
X125305809Y-37171050D01*
X125305810Y-37171052D01*
X125305811Y-37171053D01*
X125391539Y-37299353D01*
X125399499Y-37307313D01*
X133120677Y-45028491D01*
X133130157Y-45039128D01*
X133168030Y-45086890D01*
X133181439Y-45107807D01*
X133213421Y-45170811D01*
X133221101Y-45189617D01*
X133257928Y-45306302D01*
X133261830Y-45322296D01*
X133289497Y-45480759D01*
X133291056Y-45493625D01*
X133299211Y-45612859D01*
X133299500Y-45621320D01*
X133299500Y-56367190D01*
X133279815Y-56434229D01*
X133227011Y-56479984D01*
X133157853Y-56489928D01*
X133094297Y-56460903D01*
X133087819Y-56454871D01*
X127395222Y-50762274D01*
X127361737Y-50700951D01*
X127366721Y-50631259D01*
X127408593Y-50575326D01*
X127453964Y-50554017D01*
X127457707Y-50553118D01*
X127622363Y-50499619D01*
X127776642Y-50421010D01*
X127916719Y-50319239D01*
X128084001Y-50151957D01*
X128084001Y-50151956D01*
X127589027Y-49656982D01*
X127942580Y-49303429D01*
X128437555Y-49798403D01*
X128604837Y-49631121D01*
X128706608Y-49491044D01*
X128785217Y-49336765D01*
X128838717Y-49172105D01*
X128865804Y-49001091D01*
X128865804Y-48827948D01*
X128838717Y-48656934D01*
X128785215Y-48492268D01*
X128785212Y-48492260D01*
X128706607Y-48337993D01*
X128702094Y-48331782D01*
X128702094Y-48331781D01*
X128165805Y-48868070D01*
X128165805Y-48861859D01*
X128138545Y-48760125D01*
X128085884Y-48668914D01*
X128011410Y-48594440D01*
X127920199Y-48541779D01*
X127818465Y-48514519D01*
X127812249Y-48514519D01*
X128348540Y-47978228D01*
X128348540Y-47978226D01*
X128342335Y-47973718D01*
X128342333Y-47973717D01*
X128188058Y-47895109D01*
X128188055Y-47895108D01*
X128023389Y-47841606D01*
X127852375Y-47814520D01*
X127679233Y-47814520D01*
X127586685Y-47829178D01*
X127517391Y-47820223D01*
X127463939Y-47775227D01*
X127445670Y-47730898D01*
X127430279Y-47653518D01*
X127383127Y-47539684D01*
X127383126Y-47539683D01*
X127383123Y-47539677D01*
X127314674Y-47437237D01*
X127314671Y-47437233D01*
X127311962Y-47434524D01*
X127311955Y-47434518D01*
X127227549Y-47350112D01*
X127146057Y-47295661D01*
X127140919Y-47291360D01*
X127125093Y-47267637D01*
X127106812Y-47245762D01*
X127105956Y-47238950D01*
X127102145Y-47233237D01*
X127101657Y-47204723D01*
X127098105Y-47176437D01*
X127101039Y-47168529D01*
X127100951Y-47163377D01*
X127105945Y-47155305D01*
X127114790Y-47131468D01*
X127116523Y-47128637D01*
X127116537Y-47128619D01*
X127210488Y-46944229D01*
X127249033Y-46825599D01*
X127274437Y-46747415D01*
X127274437Y-46747414D01*
X127274438Y-46747411D01*
X127306812Y-46543013D01*
X127306812Y-46367358D01*
X129126393Y-46367358D01*
X129126393Y-46540501D01*
X129153479Y-46711515D01*
X129206979Y-46876175D01*
X129285590Y-47030457D01*
X129290102Y-47036666D01*
X129290102Y-47036667D01*
X129826393Y-46500375D01*
X129826393Y-46506591D01*
X129853652Y-46608325D01*
X129906313Y-46699536D01*
X129980787Y-46774010D01*
X130071998Y-46826671D01*
X130173732Y-46853930D01*
X130179945Y-46853930D01*
X129643654Y-47390219D01*
X129643655Y-47390220D01*
X129649863Y-47394731D01*
X129804147Y-47473343D01*
X129968807Y-47526843D01*
X130139822Y-47553930D01*
X130312964Y-47553930D01*
X130483978Y-47526843D01*
X130648638Y-47473343D01*
X130802917Y-47394734D01*
X130942994Y-47292963D01*
X131039565Y-47196391D01*
X131039565Y-47196390D01*
X130544592Y-46701417D01*
X130898144Y-46347864D01*
X131393118Y-46842838D01*
X131393119Y-46842838D01*
X131489690Y-46746267D01*
X131591461Y-46606190D01*
X131670070Y-46451911D01*
X131723570Y-46287251D01*
X131750657Y-46116237D01*
X131750657Y-45943094D01*
X131723570Y-45772080D01*
X131670070Y-45607420D01*
X131591458Y-45453136D01*
X131586947Y-45446928D01*
X131586946Y-45446927D01*
X131050657Y-45983217D01*
X131050657Y-45977005D01*
X131023398Y-45875271D01*
X130970737Y-45784060D01*
X130896263Y-45709586D01*
X130805052Y-45656925D01*
X130703318Y-45629666D01*
X130697102Y-45629666D01*
X131233394Y-45093375D01*
X131227184Y-45088863D01*
X131072902Y-45010252D01*
X130908242Y-44956752D01*
X130737228Y-44929666D01*
X130564086Y-44929666D01*
X130393071Y-44956752D01*
X130228411Y-45010252D01*
X130074128Y-45088864D01*
X129934055Y-45190632D01*
X129837484Y-45287203D01*
X130332458Y-45782178D01*
X129978905Y-46135731D01*
X129483930Y-45640757D01*
X129387359Y-45737328D01*
X129285591Y-45877401D01*
X129206979Y-46031684D01*
X129153479Y-46196344D01*
X129126393Y-46367358D01*
X127306812Y-46367358D01*
X127306812Y-44609595D01*
X127274438Y-44405197D01*
X127274437Y-44405193D01*
X127274437Y-44405192D01*
X127210489Y-44208381D01*
X127116536Y-44023988D01*
X126994897Y-43856566D01*
X126848564Y-43710233D01*
X126595388Y-43457057D01*
X126085635Y-42947304D01*
X125572675Y-42434343D01*
X125572644Y-42434314D01*
X124628218Y-41489888D01*
X124594733Y-41428565D01*
X124599717Y-41358873D01*
X124641589Y-41302940D01*
X124659606Y-41291721D01*
X124686302Y-41278118D01*
X124826379Y-41176348D01*
X124922950Y-41079776D01*
X124427976Y-40584802D01*
X124781529Y-40231249D01*
X125276503Y-40726223D01*
X125276504Y-40726223D01*
X125373075Y-40629652D01*
X125474846Y-40489575D01*
X125553455Y-40335296D01*
X125606955Y-40170636D01*
X125634042Y-39999622D01*
X125634042Y-39826479D01*
X125606955Y-39655465D01*
X125553455Y-39490805D01*
X125474843Y-39336521D01*
X125470332Y-39330313D01*
X125470331Y-39330312D01*
X124934042Y-39866602D01*
X124934042Y-39860390D01*
X124906783Y-39758656D01*
X124854122Y-39667445D01*
X124779648Y-39592971D01*
X124688437Y-39540310D01*
X124586703Y-39513051D01*
X124580487Y-39513051D01*
X125116779Y-38976760D01*
X125110569Y-38972248D01*
X124956287Y-38893637D01*
X124791627Y-38840137D01*
X124620613Y-38813051D01*
X124447471Y-38813051D01*
X124276456Y-38840137D01*
X124111796Y-38893637D01*
X123957513Y-38972249D01*
X123817440Y-39074017D01*
X123720869Y-39170588D01*
X124215843Y-39665563D01*
X123862290Y-40019117D01*
X123367315Y-39524142D01*
X123367314Y-39524142D01*
X123275852Y-39615604D01*
X123214529Y-39649089D01*
X123144837Y-39644105D01*
X123088904Y-39602233D01*
X123064487Y-39536769D01*
X123064171Y-39527923D01*
X123064171Y-38662213D01*
X123083856Y-38595174D01*
X123100490Y-38574532D01*
X125004976Y-36670046D01*
X125024412Y-36659433D01*
X125041146Y-36644933D01*
X125054477Y-36643016D01*
X125066299Y-36636561D01*
X125088385Y-36638140D01*
X125110304Y-36634989D01*
X125122555Y-36640584D01*
G37*
%TD.AperFunction*%
%TA.AperFunction,Conductor*%
G36*
X122579975Y-33005464D02*
G01*
X122634396Y-32996846D01*
X122829006Y-32933612D01*
X123011324Y-32840717D01*
X123176869Y-32720440D01*
X123176870Y-32720440D01*
X123321557Y-32575753D01*
X123321557Y-32575752D01*
X123441836Y-32410205D01*
X123489489Y-32316680D01*
X123537463Y-32265884D01*
X123605284Y-32249088D01*
X123671419Y-32271625D01*
X123710459Y-32316679D01*
X123758114Y-32410207D01*
X123878391Y-32575752D01*
X123878391Y-32575753D01*
X124023078Y-32720440D01*
X124188624Y-32840717D01*
X124370942Y-32933613D01*
X124565556Y-32996848D01*
X124665269Y-33012641D01*
X124728404Y-33042570D01*
X124765335Y-33101882D01*
X124764337Y-33171744D01*
X124733552Y-33222795D01*
X120875477Y-37080869D01*
X120875478Y-37080870D01*
X120746585Y-37209763D01*
X120624946Y-37377184D01*
X120530993Y-37561577D01*
X120467045Y-37758388D01*
X120467045Y-37758391D01*
X120434671Y-37962791D01*
X120434671Y-40573900D01*
X120467045Y-40778300D01*
X120467045Y-40778303D01*
X120530993Y-40975114D01*
X120624946Y-41159507D01*
X120694429Y-41255142D01*
X120746583Y-41326926D01*
X120746588Y-41326932D01*
X121088210Y-41668554D01*
X121121695Y-41729877D01*
X121116711Y-41799569D01*
X121074839Y-41855502D01*
X121073414Y-41856553D01*
X120932589Y-41958867D01*
X120932582Y-41958873D01*
X120765304Y-42126151D01*
X120765304Y-42126152D01*
X121260279Y-42621127D01*
X120906725Y-42974680D01*
X120411750Y-42479706D01*
X120411749Y-42479706D01*
X120244471Y-42646984D01*
X120142697Y-42787065D01*
X120064088Y-42941344D01*
X120010588Y-43106004D01*
X119983502Y-43277018D01*
X119983502Y-43450161D01*
X120010588Y-43621175D01*
X120064088Y-43785835D01*
X120142699Y-43940116D01*
X120147211Y-43946325D01*
X120683502Y-43410034D01*
X120683502Y-43416251D01*
X120710761Y-43517985D01*
X120763422Y-43609196D01*
X120837896Y-43683670D01*
X120929107Y-43736331D01*
X121030841Y-43763590D01*
X121037054Y-43763590D01*
X120500765Y-44299879D01*
X120502415Y-44320856D01*
X120510404Y-44331218D01*
X120516377Y-44400832D01*
X120503682Y-44435622D01*
X120473588Y-44490734D01*
X120473587Y-44490737D01*
X120443036Y-44631182D01*
X120443036Y-44631186D01*
X120453290Y-44774555D01*
X120453291Y-44774560D01*
X120503519Y-44909230D01*
X120503521Y-44909233D01*
X120589659Y-45024299D01*
X120589669Y-45024311D01*
X121013903Y-45448545D01*
X121013925Y-45448565D01*
X121068379Y-45495749D01*
X121071374Y-45497385D01*
X121111213Y-45531905D01*
X121154851Y-45590198D01*
X121154855Y-45590202D01*
X121154860Y-45590208D01*
X121349800Y-45785147D01*
X121383285Y-45846470D01*
X121378301Y-45916161D01*
X121349800Y-45960509D01*
X121098242Y-46212068D01*
X121036919Y-46245553D01*
X121010561Y-46248387D01*
X120933743Y-46248387D01*
X120778224Y-46288318D01*
X120637525Y-46365667D01*
X120637525Y-46365668D01*
X120610047Y-46389136D01*
X120610030Y-46389152D01*
X120328379Y-46670804D01*
X120328368Y-46670816D01*
X120304894Y-46698298D01*
X120227543Y-46838999D01*
X120227541Y-46839005D01*
X120210790Y-46904244D01*
X120175050Y-46964281D01*
X120121525Y-46993508D01*
X120057160Y-47010034D01*
X119930144Y-47079862D01*
X120320763Y-47470481D01*
X120327371Y-47477629D01*
X120328353Y-47478779D01*
X120328367Y-47478794D01*
X120504559Y-47654986D01*
X120680759Y-47831185D01*
X120680760Y-47831186D01*
X120681905Y-47832164D01*
X120689051Y-47838770D01*
X121079681Y-48229401D01*
X121149510Y-48102384D01*
X121149511Y-48102380D01*
X121166035Y-48038022D01*
X121201772Y-47977984D01*
X121255298Y-47948756D01*
X121320543Y-47932004D01*
X121383168Y-47897576D01*
X121461244Y-47854654D01*
X121461244Y-47854653D01*
X121461247Y-47854652D01*
X121488724Y-47831184D01*
X121770407Y-47549500D01*
X121793876Y-47522023D01*
X121871228Y-47381319D01*
X121911159Y-47225799D01*
X121911159Y-47148982D01*
X121930844Y-47081943D01*
X121947474Y-47061305D01*
X122204229Y-46804549D01*
X122265550Y-46771066D01*
X122335241Y-46776050D01*
X122388459Y-46814426D01*
X122397467Y-46825604D01*
X122677302Y-47105437D01*
X122677307Y-47105441D01*
X122677314Y-47105447D01*
X122707819Y-47130030D01*
X122726564Y-47148774D01*
X122751162Y-47179299D01*
X122934039Y-47362175D01*
X122967524Y-47423497D01*
X122962540Y-47493189D01*
X122920669Y-47549123D01*
X122855205Y-47573540D01*
X122846358Y-47573856D01*
X122734559Y-47573856D01*
X122581830Y-47614779D01*
X122557284Y-47628952D01*
X122557283Y-47628951D01*
X122534004Y-47642392D01*
X122527779Y-47645986D01*
X122465779Y-47662600D01*
X122347956Y-47662600D01*
X122192437Y-47702531D01*
X122051738Y-47779880D01*
X122051738Y-47779881D01*
X122024260Y-47803349D01*
X122024243Y-47803365D01*
X121742592Y-48085017D01*
X121742581Y-48085029D01*
X121719107Y-48112511D01*
X121641756Y-48253212D01*
X121641754Y-48253218D01*
X121625003Y-48318457D01*
X121589263Y-48378494D01*
X121535738Y-48407721D01*
X121471373Y-48424247D01*
X121344357Y-48494075D01*
X121734976Y-48884694D01*
X121735298Y-48885017D01*
X121738571Y-48888315D01*
X121742575Y-48893002D01*
X121831243Y-48981670D01*
X121831413Y-48981841D01*
X121847965Y-49012420D01*
X121864576Y-49042841D01*
X121864559Y-49043077D01*
X121864672Y-49043286D01*
X121862069Y-49077890D01*
X121859592Y-49112533D01*
X121859447Y-49112758D01*
X121859432Y-49112959D01*
X121858663Y-49113977D01*
X121831092Y-49156880D01*
X121742350Y-49245622D01*
X121742350Y-49245623D01*
X121831445Y-49334718D01*
X121864930Y-49396041D01*
X121859946Y-49465733D01*
X121831445Y-49510080D01*
X121374702Y-49966821D01*
X121374702Y-49966822D01*
X121401488Y-49989700D01*
X121401490Y-49989701D01*
X121542088Y-50066996D01*
X121542094Y-50066998D01*
X121697482Y-50106895D01*
X121705230Y-50107874D01*
X121704883Y-50110612D01*
X121759265Y-50126581D01*
X121805020Y-50179385D01*
X121814964Y-50248543D01*
X121785939Y-50312099D01*
X121779907Y-50318577D01*
X121327141Y-50771342D01*
X121327141Y-50771343D01*
X121327139Y-50771345D01*
X121274899Y-50843246D01*
X121205499Y-50938767D01*
X121111546Y-51123160D01*
X121047598Y-51319971D01*
X121047598Y-51319974D01*
X121015224Y-51524374D01*
X121015224Y-56321094D01*
X120995539Y-56388133D01*
X120942735Y-56433888D01*
X120873577Y-56443832D01*
X120810021Y-56414807D01*
X120790907Y-56393981D01*
X120781942Y-56381642D01*
X120637186Y-56236886D01*
X120471586Y-56116573D01*
X120471585Y-56116572D01*
X120471583Y-56116571D01*
X120414626Y-56087549D01*
X120289196Y-56023639D01*
X120094507Y-55960380D01*
X119919968Y-55932736D01*
X119892325Y-55928358D01*
X119687621Y-55928358D01*
X119647184Y-55934762D01*
X119485435Y-55960381D01*
X119485433Y-55960381D01*
X119471122Y-55965031D01*
X119401281Y-55967022D01*
X119345130Y-55934779D01*
X112540393Y-49130042D01*
X120881076Y-49130042D01*
X120881076Y-49290489D01*
X120920973Y-49445877D01*
X120920976Y-49445887D01*
X120998265Y-49586474D01*
X121021149Y-49613268D01*
X121388796Y-49245621D01*
X120990804Y-48847629D01*
X120990803Y-48847629D01*
X120920975Y-48974647D01*
X120881076Y-49130042D01*
X112540393Y-49130042D01*
X111962959Y-48552608D01*
X119960489Y-48552608D01*
X119960489Y-48552609D01*
X119987275Y-48575487D01*
X119987277Y-48575488D01*
X120127875Y-48652783D01*
X120127881Y-48652785D01*
X120283269Y-48692682D01*
X120283277Y-48692683D01*
X120443711Y-48692683D01*
X120443716Y-48692682D01*
X120599105Y-48652785D01*
X120599109Y-48652783D01*
X120726129Y-48582953D01*
X120328137Y-48184962D01*
X119960489Y-48552608D01*
X111962959Y-48552608D01*
X111126180Y-47715829D01*
X119466863Y-47715829D01*
X119466863Y-47876276D01*
X119506760Y-48031664D01*
X119506763Y-48031674D01*
X119584052Y-48172261D01*
X119606936Y-48199055D01*
X119974583Y-47831408D01*
X119576591Y-47433416D01*
X119576590Y-47433416D01*
X119506762Y-47560434D01*
X119466863Y-47715829D01*
X111126180Y-47715829D01*
X108936819Y-45526468D01*
X108903334Y-45465145D01*
X108900500Y-45438787D01*
X108900500Y-40628711D01*
X112949500Y-40628711D01*
X112949500Y-40871288D01*
X112981161Y-41111785D01*
X113043947Y-41346104D01*
X113136773Y-41570205D01*
X113136776Y-41570212D01*
X113258064Y-41780289D01*
X113258066Y-41780292D01*
X113258067Y-41780293D01*
X113405733Y-41972736D01*
X113405739Y-41972743D01*
X113577256Y-42144260D01*
X113577262Y-42144265D01*
X113769711Y-42291936D01*
X113979788Y-42413224D01*
X114203900Y-42506054D01*
X114438211Y-42568838D01*
X114618586Y-42592584D01*
X114678711Y-42600500D01*
X114678712Y-42600500D01*
X114921289Y-42600500D01*
X114969388Y-42594167D01*
X115161789Y-42568838D01*
X115396100Y-42506054D01*
X115620212Y-42413224D01*
X115830289Y-42291936D01*
X116022738Y-42144265D01*
X116194265Y-41972738D01*
X116341936Y-41780289D01*
X116463224Y-41570212D01*
X116556054Y-41346100D01*
X116618838Y-41111789D01*
X116650500Y-40871288D01*
X116650500Y-40628712D01*
X116618838Y-40388211D01*
X116556054Y-40153900D01*
X116463224Y-39929788D01*
X116341936Y-39719711D01*
X116194265Y-39527262D01*
X116194260Y-39527256D01*
X116022743Y-39355739D01*
X116022736Y-39355733D01*
X115830293Y-39208067D01*
X115830292Y-39208066D01*
X115830289Y-39208064D01*
X115620212Y-39086776D01*
X115589409Y-39074017D01*
X115396104Y-38993947D01*
X115161785Y-38931161D01*
X114921289Y-38899500D01*
X114921288Y-38899500D01*
X114678712Y-38899500D01*
X114678711Y-38899500D01*
X114438214Y-38931161D01*
X114203895Y-38993947D01*
X113979794Y-39086773D01*
X113979785Y-39086777D01*
X113769706Y-39208067D01*
X113577263Y-39355733D01*
X113577256Y-39355739D01*
X113405739Y-39527256D01*
X113405733Y-39527263D01*
X113258067Y-39719706D01*
X113136777Y-39929785D01*
X113136773Y-39929794D01*
X113043947Y-40153895D01*
X112981161Y-40388214D01*
X112949500Y-40628711D01*
X108900500Y-40628711D01*
X108900500Y-33019106D01*
X108920185Y-32952067D01*
X108972989Y-32906312D01*
X109042147Y-32896368D01*
X109080796Y-32908622D01*
X109130749Y-32934075D01*
X109130752Y-32934075D01*
X109130756Y-32934078D01*
X109248850Y-32972449D01*
X109325440Y-32997335D01*
X109404734Y-33009894D01*
X109527623Y-33029358D01*
X109527624Y-33029358D01*
X109732326Y-33029358D01*
X109732327Y-33029358D01*
X109934509Y-32997335D01*
X110129194Y-32934078D01*
X110311585Y-32841145D01*
X110408319Y-32770864D01*
X110477188Y-32720829D01*
X110477190Y-32720826D01*
X110477194Y-32720824D01*
X110621941Y-32576077D01*
X110621943Y-32576073D01*
X110621946Y-32576071D01*
X110742261Y-32410469D01*
X110742395Y-32410207D01*
X110789490Y-32317777D01*
X110837463Y-32266983D01*
X110905284Y-32250187D01*
X110971419Y-32272724D01*
X111010459Y-32317778D01*
X111057689Y-32410471D01*
X111178002Y-32576071D01*
X111322760Y-32720829D01*
X111460964Y-32821238D01*
X111488364Y-32841145D01*
X111596745Y-32896368D01*
X111670750Y-32934076D01*
X111670752Y-32934076D01*
X111670755Y-32934078D01*
X111732669Y-32954195D01*
X111865439Y-32997335D01*
X111944733Y-33009894D01*
X112067622Y-33029358D01*
X112067623Y-33029358D01*
X112272325Y-33029358D01*
X112272326Y-33029358D01*
X112474508Y-32997335D01*
X112669193Y-32934078D01*
X112851584Y-32841145D01*
X112948318Y-32770864D01*
X113017187Y-32720829D01*
X113017189Y-32720826D01*
X113017193Y-32720824D01*
X113161940Y-32576077D01*
X113161942Y-32576073D01*
X113161945Y-32576071D01*
X113282258Y-32410472D01*
X113282260Y-32410469D01*
X113282261Y-32410468D01*
X113329490Y-32317775D01*
X113377463Y-32266981D01*
X113445284Y-32250186D01*
X113511419Y-32272723D01*
X113550457Y-32317775D01*
X113550460Y-32317779D01*
X113597689Y-32410472D01*
X113718002Y-32576071D01*
X113862760Y-32720829D01*
X114000964Y-32821238D01*
X114028364Y-32841145D01*
X114136745Y-32896368D01*
X114210750Y-32934076D01*
X114210752Y-32934076D01*
X114210755Y-32934078D01*
X114272669Y-32954195D01*
X114405439Y-32997335D01*
X114484733Y-33009894D01*
X114607622Y-33029358D01*
X114607623Y-33029358D01*
X114812325Y-33029358D01*
X114812326Y-33029358D01*
X115014508Y-32997335D01*
X115209193Y-32934078D01*
X115391584Y-32841145D01*
X115488318Y-32770864D01*
X115557187Y-32720829D01*
X115557189Y-32720826D01*
X115557193Y-32720824D01*
X115701940Y-32576077D01*
X115701942Y-32576073D01*
X115701945Y-32576071D01*
X115822258Y-32410472D01*
X115822260Y-32410469D01*
X115822261Y-32410468D01*
X115869490Y-32317775D01*
X115917463Y-32266981D01*
X115985284Y-32250186D01*
X116051419Y-32272723D01*
X116090457Y-32317775D01*
X116090460Y-32317779D01*
X116137689Y-32410472D01*
X116258002Y-32576071D01*
X116402760Y-32720829D01*
X116540964Y-32821238D01*
X116568364Y-32841145D01*
X116676745Y-32896368D01*
X116750750Y-32934076D01*
X116750752Y-32934076D01*
X116750755Y-32934078D01*
X116812669Y-32954195D01*
X116945439Y-32997335D01*
X117024733Y-33009894D01*
X117147622Y-33029358D01*
X117147623Y-33029358D01*
X117352325Y-33029358D01*
X117352326Y-33029358D01*
X117554508Y-32997335D01*
X117749193Y-32934078D01*
X117931584Y-32841145D01*
X118028318Y-32770864D01*
X118097187Y-32720829D01*
X118097189Y-32720826D01*
X118097193Y-32720824D01*
X118241940Y-32576077D01*
X118241942Y-32576073D01*
X118241945Y-32576071D01*
X118362260Y-32410469D01*
X118362394Y-32410207D01*
X118409489Y-32317777D01*
X118457462Y-32266983D01*
X118525283Y-32250187D01*
X118591418Y-32272724D01*
X118630458Y-32317778D01*
X118677688Y-32410471D01*
X118798001Y-32576071D01*
X118942759Y-32720829D01*
X119080963Y-32821238D01*
X119108363Y-32841145D01*
X119216744Y-32896368D01*
X119290749Y-32934076D01*
X119290751Y-32934076D01*
X119290754Y-32934078D01*
X119352668Y-32954195D01*
X119485438Y-32997335D01*
X119564732Y-33009894D01*
X119687621Y-33029358D01*
X119687622Y-33029358D01*
X119892324Y-33029358D01*
X119892325Y-33029358D01*
X120094507Y-32997335D01*
X120289192Y-32934078D01*
X120471583Y-32841145D01*
X120568317Y-32770864D01*
X120637186Y-32720829D01*
X120637188Y-32720826D01*
X120637192Y-32720824D01*
X120781939Y-32576077D01*
X120781941Y-32576073D01*
X120781944Y-32576071D01*
X120902257Y-32410472D01*
X120902259Y-32410469D01*
X120902260Y-32410468D01*
X120949769Y-32317225D01*
X120997744Y-32266430D01*
X121065565Y-32249635D01*
X121131699Y-32272172D01*
X121170739Y-32317226D01*
X121218115Y-32410207D01*
X121338392Y-32575752D01*
X121338392Y-32575753D01*
X121483079Y-32720440D01*
X121648625Y-32840717D01*
X121830943Y-32933612D01*
X122025553Y-32996846D01*
X122079975Y-33005465D01*
X122079975Y-32190737D01*
X122127333Y-32218080D01*
X122260857Y-32253858D01*
X122399093Y-32253858D01*
X122532617Y-32218080D01*
X122579975Y-32190737D01*
X122579975Y-33005464D01*
G37*
%TD.AperFunction*%
%TA.AperFunction,Conductor*%
G36*
X124380752Y-31526216D02*
G01*
X124344974Y-31659740D01*
X124344974Y-31797976D01*
X124380752Y-31931500D01*
X124408094Y-31978858D01*
X122791855Y-31978858D01*
X122819197Y-31931500D01*
X122854975Y-31797976D01*
X122854975Y-31659740D01*
X122819197Y-31526216D01*
X122791855Y-31478858D01*
X124408094Y-31478858D01*
X124380752Y-31526216D01*
G37*
%TD.AperFunction*%
%TD*%
M02*
