M48
; DRILL file KiCad 10.0.0 date 2026-07-02T13:10:22
; FORMAT={-:-/ absolute / metric / decimal}
; #@! TF.CreationDate,2026-07-02T13:10:22+10:00
; #@! TF.GenerationSoftware,Kicad,Pcbnew,10.0.0
; #@! TF.FileFunction,Plated,1,2,PTH
FMAT,2
METRIC
; #@! TA.AperFunction,Plated,PTH,ViaDrill
T1C0.300
; #@! TA.AperFunction,Plated,PTH,ComponentDrill
T2C0.800
; #@! TA.AperFunction,Plated,PTH,ComponentDrill
T3C0.900
; #@! TA.AperFunction,Plated,PTH,ComponentDrill
T4C1.050
; #@! TA.AperFunction,Plated,PTH,ComponentDrill
T5C1.100
; #@! TA.AperFunction,Plated,PTH,ComponentDrill
T6C1.300
%
G90
G05
T1
X64.0Y-58.1
X64.2Y-72.7
X64.6Y-38.4
X64.85Y-50.2
X65.0Y-28.8
X65.0Y-80.6
X68.8Y-31.8
X69.2Y-74.7
X69.4Y-85.8
X69.7Y-55.0
X70.4Y-62.2
X71.25Y-40.15
X71.5Y-47.7
X71.75Y-28.95
X71.75Y-34.65
X72.35Y-69.5
X74.0Y-72.8
X74.5Y-91.3
X74.55Y-23.7
X78.7Y-18.1
X78.95Y-50.85
X80.1Y-96.1
X81.586Y-54.33
X82.3Y-22.6
X82.717Y-93.928
X83.071Y-64.441
X83.2Y-71.0
X83.99Y-92.655
X85.0Y-83.8
X85.0Y-85.449
X85.0Y-87.3
X85.263Y-91.382
X85.35Y-59.1
X85.5Y-88.9
X85.65Y-60.15
X85.9Y-82.5
X86.1Y-90.1
X87.101Y-60.411
X87.2Y-81.1
X87.3Y-75.5
X87.3Y-77.4
X87.3Y-79.2
X87.808Y-72.432
X88.334Y-74.266
X88.7Y-17.5
X90.1Y-74.7
X90.5Y-81.5
X90.8Y-77.2
X90.8Y-88.9
X91.8Y-63.2
X92.8Y-64.0
X92.8Y-79.1
X93.4Y-86.3
X93.7Y-64.9
X94.1Y-77.9
X94.5Y-23.3
X95.05Y-74.9
X95.8Y-81.5
X96.8Y-65.0
X96.8Y-80.4
X97.15Y-70.1
X97.213Y-61.047
X97.213Y-63.31
X97.7Y-76.8
X98.2Y-78.9
X99.8Y-67.7
X99.9Y-17.7
X101.7Y-66.15
X102.4Y-65.4
X106.45Y-78.8
X106.8Y-23.3
X107.5Y-85.8
X107.6Y-73.1
X107.7Y-88.6
X108.8Y-60.4
X109.1Y-84.6
X110.011Y-89.685
X110.2Y-73.6
X110.506Y-91.029
X110.9Y-82.4
X111.2Y-44.5
X111.284Y-86.612
X111.284Y-88.412
X111.779Y-92.301
X112.0Y-35.5
X112.2Y-68.5
X113.052Y-93.574
X113.9Y-18.2
X114.2Y-68.0
X114.254Y-93.362
X114.3Y-66.7
X115.1Y-48.4
X115.3Y-61.4
X115.527Y-92.089
X116.7Y-94.8
X116.8Y-90.816
X116.8Y-75.5
X117.6Y-64.1
X118.072Y-89.544
X118.1Y-67.8
X118.7Y-75.2
X118.7Y-78.8
X119.0Y-53.0
X119.345Y-88.271
X119.4Y-35.4
X119.4Y-48.7
X120.1Y-44.8
X120.2Y-60.2
X120.3Y-66.8
X120.618Y-86.998
X120.8Y-68.9
X120.9Y-90.6
X121.0Y-50.1
X121.2Y-65.7
X121.45Y-61.45
X121.5Y-25.0
X121.891Y-85.725
X122.0Y-19.3
X122.2Y-64.8
X122.8Y-69.1
X123.164Y-84.452
X124.0Y-68.2
X124.436Y-83.18
X124.7Y-16.8
X124.8Y-21.8
X124.8Y-28.3
X124.8Y-54.7
X124.9Y-67.1
X125.709Y-81.907
X125.78Y-76.462
X125.8Y-41.2
X126.4Y-85.5
X126.996Y-80.648
X127.053Y-77.735
X127.5Y-57.3
X128.184Y-79.149
X128.5Y-69.2
X128.6Y-43.8
X129.0Y-50.5
X129.3Y-73.9
X129.9Y-63.1
X131.1Y-27.2
X131.3Y-18.2
X132.3Y-48.1
T3
X74.741Y-63.381
X78.333Y-63.381
X78.333Y-66.973
T4
X71.53Y-31.729
X71.53Y-57.229
X74.07Y-31.729
X74.07Y-57.229
X76.61Y-25.653
X76.61Y-28.193
X76.61Y-31.729
X76.61Y-57.229
X79.15Y-25.653
X79.15Y-28.193
X79.15Y-31.729
X79.15Y-57.229
X81.69Y-25.653
X81.69Y-28.193
X81.69Y-31.729
X81.69Y-57.229
X84.23Y-25.653
X84.23Y-28.193
X84.23Y-31.729
X84.23Y-57.229
X86.77Y-31.729
X86.77Y-57.229
X86.77Y-25.653
X86.77Y-28.193
X89.31Y-25.653
X89.31Y-28.193
X89.31Y-31.729
X89.31Y-57.229
X91.85Y-25.653
X91.85Y-28.193
X91.85Y-31.729
X91.85Y-57.229
X94.39Y-25.653
X94.39Y-28.193
X94.39Y-31.729
X94.39Y-57.229
X96.93Y-31.729
X96.93Y-57.229
X96.93Y-25.653
X96.93Y-28.193
X99.47Y-25.653
X99.47Y-28.193
X99.47Y-31.729
X99.47Y-57.229
X102.01Y-25.653
X102.01Y-28.193
X102.01Y-31.729
X102.01Y-57.229
X104.55Y-25.653
X104.55Y-28.193
X104.55Y-31.729
X104.55Y-57.229
X107.09Y-25.653
X107.09Y-28.193
X107.09Y-31.729
X107.09Y-57.229
X109.63Y-25.653
X109.63Y-28.193
X109.63Y-31.729
X109.63Y-57.229
X112.17Y-25.653
X112.17Y-28.193
X112.17Y-31.729
X112.17Y-57.229
X114.71Y-25.653
X114.71Y-28.193
X114.71Y-31.729
X114.71Y-57.229
X117.25Y-25.653
X117.25Y-28.193
X117.25Y-31.729
X117.25Y-57.229
X119.79Y-31.729
X119.79Y-57.229
X122.33Y-31.729
X122.33Y-57.229
X124.87Y-31.729
X124.87Y-57.229
T5
X69.862Y-79.291
X71.658Y-77.495
X71.658Y-81.087
X73.454Y-79.291
X73.454Y-82.883
X75.25Y-81.087
X75.25Y-84.679
X77.046Y-82.883
X77.046Y-86.475
X78.842Y-84.679
X78.842Y-88.271
X80.638Y-86.475
X80.638Y-90.067
X82.434Y-88.271
X82.434Y-91.863
X84.23Y-90.067
X111.921Y-90.039
X113.717Y-88.243
X113.717Y-91.835
X115.513Y-86.447
X115.513Y-90.039
X117.309Y-84.65
X117.309Y-88.243
X119.105Y-82.854
X119.105Y-86.447
X120.901Y-81.058
X120.901Y-84.65
X122.697Y-79.262
X122.697Y-82.854
X124.493Y-77.466
X124.493Y-81.058
X126.289Y-79.262
T6
X102.636Y-83.653
X104.432Y-85.449
X106.228Y-87.245
X124.772Y-19.292
X127.312Y-19.292
T2
G00X121.084Y-43.364
M15
G01X121.649Y-42.798
M16
G05
G00X124.11Y-40.337
M15
G01X124.534Y-39.913
M16
G05
G00X127.2Y-49.48
M15
G01X127.766Y-48.915
M16
G05
G00X130.226Y-46.454
M15
G01X130.651Y-46.03
M16
G05
M30
