%TF.GenerationSoftware,KiCad,Pcbnew,10.0.0*%
%TF.CreationDate,2026-07-02T13:10:19+10:00*%
%TF.ProjectId,pressure_sense,70726573-7375-4726-955f-73656e73652e,0*%
%TF.SameCoordinates,Original*%
%TF.FileFunction,Copper,L2,Bot*%
%TF.FilePolarity,Positive*%
%FSLAX46Y46*%
G04 Gerber Fmt 4.6, Leading zero omitted, Abs format (unit mm)*
G04 Created by KiCad (PCBNEW 10.0.0) date 2026-07-02 13:10:19*
%MOMM*%
%LPD*%
G01*
G04 APERTURE LIST*
G04 Aperture macros list*
%AMHorizOval*
0 Thick line with rounded ends*
0 $1 width*
0 $2 $3 position (X,Y) of the first rounded end (center of the circle)*
0 $4 $5 position (X,Y) of the second rounded end (center of the circle)*
0 Add line between two ends*
20,1,$1,$2,$3,$4,$5,0*
0 Add two circle primitives to create the rounded ends*
1,1,$1,$2,$3*
1,1,$1,$4,$5*%
G04 Aperture macros list end*
%TA.AperFunction,ComponentPad*%
%ADD10HorizOval,1.200000X0.282843X0.282843X-0.282843X-0.282843X0*%
%TD*%
%TA.AperFunction,ComponentPad*%
%ADD11HorizOval,1.200000X0.212132X0.212132X-0.212132X-0.212132X0*%
%TD*%
%TA.AperFunction,ComponentPad*%
%ADD12HorizOval,1.524000X0.000000X0.000000X0.000000X0.000000X0*%
%TD*%
%TA.AperFunction,ComponentPad*%
%ADD13R,1.600000X1.600000*%
%TD*%
%TA.AperFunction,ComponentPad*%
%ADD14O,1.600000X1.600000*%
%TD*%
%TA.AperFunction,ComponentPad*%
%ADD15HorizOval,1.800000X0.000000X0.000000X0.000000X0.000000X0*%
%TD*%
%TA.AperFunction,ComponentPad*%
%ADD16HorizOval,2.000000X0.000000X0.000000X0.000000X0.000000X0*%
%TD*%
%TA.AperFunction,ComponentPad*%
%ADD17HorizOval,1.524000X0.000000X0.000000X0.000000X0.000000X0*%
%TD*%
%TA.AperFunction,ComponentPad*%
%ADD18O,2.000000X2.000000*%
%TD*%
%TA.AperFunction,ViaPad*%
%ADD19C,0.600000*%
%TD*%
%TA.AperFunction,Conductor*%
%ADD20C,0.200000*%
%TD*%
G04 APERTURE END LIST*
D10*
%TO.P,USBC1,1,EH_1*%
%TO.N,GND*%
X121366345Y-43080747D03*
D11*
%TO.P,USBC1,2,EH_2*%
X124321910Y-40125183D03*
%TO.P,USBC1,3,EH_3*%
X130438525Y-46241798D03*
D10*
%TO.P,USBC1,4,EH_4*%
X127482961Y-49197363D03*
%TD*%
D12*
%TO.P,JB1,1,Pin_1_1*%
%TO.N,/I0B*%
X84230335Y-90066897D03*
%TO.P,JB1,2,Pin_2_2*%
%TO.N,/I1B*%
X82434284Y-91862948D03*
%TO.P,JB1,3,Pin_3_3*%
%TO.N,/I2B*%
X82434284Y-88270845D03*
%TO.P,JB1,4,Pin_4_4*%
%TO.N,/I3B*%
X80638232Y-90066897D03*
%TO.P,JB1,5,Pin_5_5*%
%TO.N,/I4B*%
X80638232Y-86474794D03*
%TO.P,JB1,6,Pin_6_6*%
%TO.N,/I5B*%
X78842181Y-88270845D03*
%TO.P,JB1,7,Pin_7_7*%
%TO.N,/I6B*%
X78842181Y-84678743D03*
%TO.P,JB1,8,Pin_8_8*%
%TO.N,/I7B*%
X77046130Y-86474794D03*
%TO.P,JB1,9,Pin_9_9*%
%TO.N,/I14B*%
X77046130Y-82882692D03*
%TO.P,JB1,10,Pin_10_10*%
%TO.N,/I15B*%
X75250079Y-84678743D03*
%TO.P,JB1,11,Pin_11_11*%
%TO.N,/I12B*%
X75250079Y-81086641D03*
%TO.P,JB1,12,Pin_12_12*%
%TO.N,/I13B*%
X73454028Y-82882692D03*
%TO.P,JB1,13,Pin_13_13*%
%TO.N,/I10B*%
X73454028Y-79290589D03*
%TO.P,JB1,14,Pin_14_14*%
%TO.N,/I11B*%
X71657976Y-81086641D03*
%TO.P,JB1,15,Pin_15_15*%
%TO.N,/I8B*%
X71657976Y-77494538D03*
%TO.P,JB1,16,Pin_16_16*%
%TO.N,/I9B*%
X69861925Y-79290589D03*
%TD*%
D13*
%TO.P,JL1,1,Pin_1_1*%
%TO.N,+3.3V*%
X71529974Y-57228858D03*
D14*
%TO.P,JL1,2,Pin_2_2*%
X74069973Y-57228858D03*
%TO.P,JL1,3,Pin_3_3*%
%TO.N,/RST*%
X76609975Y-57228858D03*
%TO.P,JL1,4,Pin_4_4*%
%TO.N,/D4*%
X79149974Y-57228858D03*
%TO.P,JL1,5,Pin_5_5*%
%TO.N,/D5*%
X81689974Y-57228858D03*
%TO.P,JL1,6,Pin_6_6*%
%TO.N,/D6*%
X84229974Y-57228858D03*
%TO.P,JL1,7,Pin_7_7*%
%TO.N,/D7*%
X86769973Y-57228858D03*
%TO.P,JL1,8,Pin_8_8*%
%TO.N,/D15*%
X89309974Y-57228858D03*
%TO.P,JL1,9,Pin_9_9*%
%TO.N,/D16*%
X91849974Y-57228858D03*
%TO.P,JL1,10,Pin_10_10*%
%TO.N,/D17*%
X94389974Y-57228858D03*
%TO.P,JL1,11,Pin_11_11*%
%TO.N,/D18*%
X96929973Y-57228858D03*
%TO.P,JL1,12,Pin_12_12*%
%TO.N,/D8*%
X99469975Y-57228858D03*
%TO.P,JL1,13,Pin_13_13*%
%TO.N,/D3*%
X102009974Y-57228858D03*
%TO.P,JL1,14,Pin_14_14*%
%TO.N,/D46*%
X104549974Y-57228858D03*
%TO.P,JL1,15,Pin_15_15*%
%TO.N,/D9*%
X107089974Y-57228858D03*
%TO.P,JL1,16,Pin_16_16*%
%TO.N,/D10*%
X109629975Y-57228858D03*
%TO.P,JL1,17,Pin_17_17*%
%TO.N,/D11*%
X112169974Y-57228858D03*
%TO.P,JL1,18,Pin_18_18*%
%TO.N,/D12*%
X114709974Y-57228858D03*
%TO.P,JL1,19,Pin_19_19*%
%TO.N,/D13*%
X117249974Y-57228858D03*
%TO.P,JL1,20,Pin_20_20*%
%TO.N,/D14*%
X119789973Y-57228858D03*
%TO.P,JL1,21,Pin_21_21*%
%TO.N,+5V*%
X122329975Y-57228858D03*
%TO.P,JL1,22,Pin_22_22*%
%TO.N,GND*%
X124869974Y-57228858D03*
%TD*%
D15*
%TO.P,RV1,1,1_1*%
%TO.N,unconnected-(RV1-Pad1)*%
X74740962Y-63380687D03*
%TO.P,RV1,2,2_2*%
%TO.N,/D4*%
X78333065Y-63380687D03*
%TO.P,RV1,3,3_3*%
%TO.N,Net-(R4-Pad2)*%
X78333065Y-66972790D03*
%TD*%
D16*
%TO.P,JLED1,1,Pin_1_1*%
%TO.N,+5V*%
X102636396Y-83653368D03*
%TO.P,JLED1,2,Pin_2_2*%
%TO.N,/Dout*%
X104432447Y-85449419D03*
%TO.P,JLED1,3,Pin_3_3*%
%TO.N,GND*%
X106228498Y-87245470D03*
%TD*%
D13*
%TO.P,JR1,1,Pin_1_1*%
%TO.N,GND*%
X71529974Y-31728858D03*
D14*
%TO.P,JR1,2,Pin_2_2*%
%TO.N,/TX*%
X74069973Y-31728858D03*
%TO.P,JR1,3,Pin_3_3*%
%TO.N,/RX*%
X76609975Y-31728858D03*
%TO.P,JR1,4,Pin_4_4*%
%TO.N,/D1*%
X79149974Y-31728858D03*
%TO.P,JR1,5,Pin_5_5*%
%TO.N,/D2*%
X81689974Y-31728858D03*
%TO.P,JR1,6,Pin_6_6*%
%TO.N,/D42*%
X84229974Y-31728858D03*
%TO.P,JR1,7,Pin_7_7*%
%TO.N,/D41*%
X86769973Y-31728858D03*
%TO.P,JR1,8,Pin_8_8*%
%TO.N,/D40*%
X89309974Y-31728858D03*
%TO.P,JR1,9,Pin_9_9*%
%TO.N,/D39*%
X91849974Y-31728858D03*
%TO.P,JR1,10,Pin_10_10*%
%TO.N,/D38*%
X94389974Y-31728858D03*
%TO.P,JR1,11,Pin_11_11*%
%TO.N,/D37*%
X96929973Y-31728858D03*
%TO.P,JR1,12,Pin_12_12*%
%TO.N,/D36*%
X99469975Y-31728858D03*
%TO.P,JR1,13,Pin_13_13*%
%TO.N,/D35*%
X102009974Y-31728858D03*
%TO.P,JR1,14,Pin_14_14*%
%TO.N,/D0*%
X104549974Y-31728858D03*
%TO.P,JR1,15,Pin_15_15*%
%TO.N,/D45*%
X107089974Y-31728858D03*
%TO.P,JR1,16,Pin_16_16*%
%TO.N,/D48*%
X109629975Y-31728858D03*
%TO.P,JR1,17,Pin_17_17*%
%TO.N,/D47*%
X112169974Y-31728858D03*
%TO.P,JR1,18,Pin_18_18*%
%TO.N,/D21*%
X114709974Y-31728858D03*
%TO.P,JR1,19,Pin_19_19*%
%TO.N,/D20*%
X117249974Y-31728858D03*
%TO.P,JR1,20,Pin_20_20*%
%TO.N,/D19*%
X119789973Y-31728858D03*
%TO.P,JR1,21,Pin_21_21*%
%TO.N,GND*%
X122329975Y-31728858D03*
%TO.P,JR1,22,Pin_22_22*%
X124869974Y-31728858D03*
%TD*%
D17*
%TO.P,JA1,1,Pin_1_1*%
%TO.N,/I0A*%
X124492996Y-77466254D03*
%TO.P,JA1,2,Pin_2_2*%
%TO.N,/I1A*%
X126289047Y-79262305D03*
%TO.P,JA1,3,Pin_3_3*%
%TO.N,/I2A*%
X122696944Y-79262305D03*
%TO.P,JA1,4,Pin_4_4*%
%TO.N,/I3A*%
X124492996Y-81058357D03*
%TO.P,JA1,5,Pin_5_5*%
%TO.N,/I4A*%
X120900893Y-81058357D03*
%TO.P,JA1,6,Pin_6_6*%
%TO.N,/I5A*%
X122696944Y-82854408D03*
%TO.P,JA1,7,Pin_7_7*%
%TO.N,/I6A*%
X119104842Y-82854408D03*
%TO.P,JA1,8,Pin_8_8*%
%TO.N,/I7A*%
X120900893Y-84650459D03*
%TO.P,JA1,9,Pin_9_9*%
%TO.N,/I14A*%
X117308791Y-84650459D03*
%TO.P,JA1,10,Pin_10_10*%
%TO.N,/I15A*%
X119104842Y-86446510D03*
%TO.P,JA1,11,Pin_11_11*%
%TO.N,/I12A*%
X115512740Y-86446510D03*
%TO.P,JA1,12,Pin_12_12*%
%TO.N,/I13A*%
X117308791Y-88242561D03*
%TO.P,JA1,13,Pin_13_13*%
%TO.N,/I10A*%
X113716688Y-88242561D03*
%TO.P,JA1,14,Pin_14_14*%
%TO.N,/I11A*%
X115512740Y-90038613D03*
%TO.P,JA1,15,Pin_15_15*%
%TO.N,/I8A*%
X111920637Y-90038613D03*
%TO.P,JA1,16,Pin_16_16*%
%TO.N,/I9A*%
X113716688Y-91834664D03*
%TD*%
D13*
%TO.P,H1,1,1_1*%
%TO.N,/D19*%
X117249974Y-25653324D03*
D14*
%TO.P,H1,2,2_2*%
%TO.N,/D20*%
X117249974Y-28193324D03*
%TO.P,H1,3,3_3*%
%TO.N,/D48*%
X114709974Y-25653324D03*
%TO.P,H1,4,4_4*%
%TO.N,/D21*%
X114709974Y-28193324D03*
%TO.P,H1,5,5_5*%
%TO.N,/D45*%
X112169974Y-25653324D03*
%TO.P,H1,6,6_6*%
%TO.N,/D47*%
X112169974Y-28193324D03*
%TO.P,H1,7,7_7*%
%TO.N,/D0*%
X109629975Y-25653324D03*
%TO.P,H1,8,8_8*%
%TO.N,/D14*%
X109629975Y-28193324D03*
%TO.P,H1,9,9_9*%
%TO.N,/D35*%
X107089974Y-25653323D03*
%TO.P,H1,10,10_10*%
%TO.N,/D13*%
X107089974Y-28193325D03*
%TO.P,H1,11,11_11*%
%TO.N,/D36*%
X104549974Y-25653324D03*
%TO.P,H1,12,12_12*%
%TO.N,/D12*%
X104549974Y-28193324D03*
%TO.P,H1,13,13_13*%
%TO.N,/D37*%
X102009974Y-25653324D03*
%TO.P,H1,14,14_14*%
%TO.N,/D11*%
X102009974Y-28193324D03*
%TO.P,H1,15,15_15*%
%TO.N,/D38*%
X99469974Y-25653324D03*
%TO.P,H1,16,16_16*%
%TO.N,/D10*%
X99469974Y-28193324D03*
%TO.P,H1,17,17_17*%
%TO.N,/D39*%
X96929974Y-25653323D03*
%TO.P,H1,18,18_18*%
%TO.N,/D9*%
X96929974Y-28193325D03*
%TO.P,H1,19,19_19*%
%TO.N,/D40*%
X94389974Y-25653324D03*
%TO.P,H1,20,20_20*%
%TO.N,/D46*%
X94389974Y-28193324D03*
%TO.P,H1,21,21_21*%
%TO.N,/D41*%
X91849974Y-25653324D03*
%TO.P,H1,22,22_22*%
%TO.N,/D3*%
X91849974Y-28193324D03*
%TO.P,H1,23,23_23*%
%TO.N,/D42*%
X89309974Y-25653324D03*
%TO.P,H1,24,24_24*%
%TO.N,/D8*%
X89309974Y-28193324D03*
%TO.P,H1,25,25_25*%
%TO.N,/D2*%
X86769974Y-25653323D03*
%TO.P,H1,26,26_26*%
%TO.N,/D18*%
X86769974Y-28193325D03*
%TO.P,H1,27,27_27*%
%TO.N,/D1*%
X84229973Y-25653324D03*
%TO.P,H1,28,28_28*%
%TO.N,/D17*%
X84229973Y-28193324D03*
%TO.P,H1,29,29_29*%
%TO.N,/RX*%
X81689974Y-25653324D03*
%TO.P,H1,30,30_30*%
%TO.N,/D16*%
X81689974Y-28193324D03*
%TO.P,H1,31,31_31*%
%TO.N,/TX*%
X79149974Y-25653324D03*
%TO.P,H1,32,32_32*%
%TO.N,/D15*%
X79149974Y-28193324D03*
%TO.P,H1,33,33_33*%
%TO.N,+3.3V*%
X76609974Y-25653324D03*
%TO.P,H1,34,34_34*%
%TO.N,/RST*%
X76609974Y-28193324D03*
%TD*%
D18*
%TO.P,JPWR1,1,Pin_1_1*%
%TO.N,+5V*%
X127311585Y-19292016D03*
%TO.P,JPWR1,2,Pin_2_2*%
%TO.N,GND*%
X124771583Y-19292016D03*
%TD*%
D19*
%TO.N,+3.3V*%
X97212816Y-63309977D03*
X87808295Y-72431654D03*
X97212816Y-61047235D03*
X83070680Y-64441347D03*
X87101189Y-60410839D03*
X112200000Y-68500000D03*
X107600000Y-73100000D03*
%TO.N,GND*%
X120800000Y-68900000D03*
X98200000Y-78900000D03*
X90800000Y-88900000D03*
X120200000Y-60200000D03*
X115300000Y-61400000D03*
X93700000Y-64900000D03*
X87300000Y-75500000D03*
X83200000Y-71000000D03*
X91800000Y-63200000D03*
X78700000Y-18100000D03*
X87300000Y-77400000D03*
X113052008Y-93574147D03*
X65000000Y-80600000D03*
X97150000Y-70100000D03*
X96800000Y-65000000D03*
X124800000Y-28300000D03*
X119345258Y-88270846D03*
X106450000Y-78800000D03*
X122000000Y-19300000D03*
X92800000Y-79100000D03*
X93400000Y-86300000D03*
X118700000Y-78800000D03*
X85350000Y-59100000D03*
X97700000Y-76800000D03*
X118700000Y-75200000D03*
X120300000Y-66800000D03*
X125709219Y-81906885D03*
X111284241Y-86612268D03*
X123163635Y-84452469D03*
X74550000Y-23700000D03*
X99900000Y-17700000D03*
X69200000Y-74700000D03*
X110900000Y-82400000D03*
X126996153Y-80648235D03*
X129300000Y-73900000D03*
X90100000Y-74700000D03*
X131100000Y-27200000D03*
X124900000Y-67100000D03*
X74500000Y-91300000D03*
X85262711Y-91382116D03*
X129900000Y-63100000D03*
X72350000Y-69500000D03*
X85500000Y-88900000D03*
X120618050Y-86998054D03*
X116800000Y-75500000D03*
X114300000Y-66700000D03*
X83989919Y-92654908D03*
X110011448Y-89685059D03*
X121000000Y-50100000D03*
X129000000Y-50500000D03*
X90500000Y-81500000D03*
X85900000Y-82500000D03*
X71750000Y-28950000D03*
X64600000Y-38400000D03*
X114200000Y-68000000D03*
X96800000Y-80400000D03*
X78950000Y-50850000D03*
X71750000Y-34650000D03*
X80100000Y-96100000D03*
X74000000Y-72800000D03*
X132300000Y-48100000D03*
X116799674Y-90816430D03*
X115526881Y-92089223D03*
X111284241Y-88412267D03*
X64200000Y-72700000D03*
X115100000Y-48400000D03*
X119400000Y-48700000D03*
X95050000Y-74900000D03*
X86100000Y-90100000D03*
X127500000Y-57300000D03*
X124000000Y-68200000D03*
X128184093Y-79149168D03*
X107500000Y-85800000D03*
X102400000Y-65400000D03*
X127052722Y-77734955D03*
X110200000Y-73600000D03*
X106800000Y-23300000D03*
X94500000Y-23300000D03*
X81585756Y-54329720D03*
X87200000Y-81100000D03*
X82717127Y-93927700D03*
X124436427Y-83179677D03*
X121500000Y-25000000D03*
X120100000Y-44800000D03*
X88334247Y-74265753D03*
X121890842Y-85725262D03*
X71250000Y-40150000D03*
X64000000Y-58100000D03*
X114254089Y-93362015D03*
X64850000Y-50200000D03*
X94100000Y-77900000D03*
X119000000Y-53000000D03*
X125779930Y-76462163D03*
X85000000Y-87300000D03*
X65000000Y-28800000D03*
X95800000Y-81500000D03*
X108800000Y-60400000D03*
X118100000Y-67800000D03*
X69700000Y-55000000D03*
X92800000Y-64000000D03*
X128500000Y-69200000D03*
X85000000Y-85448664D03*
X122200000Y-64800000D03*
X112000000Y-35500000D03*
X107700000Y-88600000D03*
X87300000Y-79200000D03*
X101700000Y-66150000D03*
X118072466Y-89543638D03*
X122800000Y-69100000D03*
X131300000Y-18200000D03*
X119400000Y-35400000D03*
X71500000Y-47700000D03*
X68800000Y-31800000D03*
X88700000Y-17500000D03*
X85650000Y-60150000D03*
X121450000Y-61450000D03*
X111200000Y-44500000D03*
X85000000Y-83800000D03*
X113900000Y-18200000D03*
X109100000Y-84600000D03*
X90800000Y-77200000D03*
X124800000Y-21800000D03*
X120900000Y-90600000D03*
X121200000Y-65700000D03*
X128600000Y-43800000D03*
X117600000Y-64100000D03*
X124800000Y-54700000D03*
X124700000Y-16800000D03*
X125800000Y-41200000D03*
X126400000Y-85500000D03*
X116700000Y-94800000D03*
X82300000Y-22600000D03*
X69400000Y-85800000D03*
X99800000Y-67700000D03*
X70400000Y-62200000D03*
X110506423Y-91028562D03*
X111779215Y-92301355D03*
%TD*%
%TO.N,+3.3V*%
D20*
X81656466Y-64441347D02*
X74443977Y-57228858D01*
X82350000Y-64441347D02*
X81656466Y-64441347D01*
X83070680Y-64950000D02*
X83070680Y-64750000D01*
X112200000Y-68500000D02*
X107600000Y-73100000D01*
X83070680Y-64441347D02*
X82350000Y-64441347D01*
X82600000Y-64479320D02*
X83070680Y-64950000D01*
X74069973Y-57228858D02*
X74069973Y-57279118D01*
X82350000Y-64441347D02*
X82600000Y-64441347D01*
X83070680Y-64441347D02*
X87101189Y-60410839D01*
X97212816Y-61047235D02*
X97212816Y-63309977D01*
X83070680Y-67694039D02*
X83070680Y-64950000D01*
X82600000Y-64441347D02*
X82600000Y-64479320D01*
X83070680Y-64750000D02*
X83070680Y-64441347D01*
X87808295Y-72431654D02*
X83070680Y-67694039D01*
X82762027Y-64441347D02*
X83070680Y-64750000D01*
X74443977Y-57228858D02*
X74069973Y-57228858D01*
X82600000Y-64441347D02*
X82762027Y-64441347D01*
%TD*%
%TA.AperFunction,Conductor*%
%TO.N,GND*%
G36*
X124380752Y-31526216D02*
G01*
X124344974Y-31659740D01*
X124344974Y-31797976D01*
X124380752Y-31931500D01*
X124408094Y-31978858D01*
X122791855Y-31978858D01*
X122819197Y-31931500D01*
X122854975Y-31797976D01*
X122854975Y-31659740D01*
X122819197Y-31526216D01*
X122791855Y-31478858D01*
X124408094Y-31478858D01*
X124380752Y-31526216D01*
G37*
%TD.AperFunction*%
%TA.AperFunction,Conductor*%
G36*
X133242539Y-15920185D02*
G01*
X133288294Y-15972989D01*
X133299500Y-16024500D01*
X133299500Y-28230229D01*
X133279815Y-28297268D01*
X133276974Y-28301496D01*
X133252155Y-28336835D01*
X133243185Y-28348145D01*
X133237096Y-28354966D01*
X133232830Y-28359510D01*
X125445208Y-36246973D01*
X125444653Y-36247532D01*
X125391536Y-36300650D01*
X125305809Y-36428949D01*
X125305808Y-36428951D01*
X125246762Y-36571502D01*
X125246759Y-36571512D01*
X125216657Y-36722844D01*
X125216657Y-36722847D01*
X125216657Y-36877153D01*
X125216657Y-36877155D01*
X125216656Y-36877155D01*
X125246759Y-37028487D01*
X125246762Y-37028497D01*
X125305808Y-37171048D01*
X125305809Y-37171050D01*
X125305810Y-37171052D01*
X125305811Y-37171053D01*
X125391539Y-37299353D01*
X125399499Y-37307313D01*
X133120677Y-45028491D01*
X133130157Y-45039128D01*
X133168030Y-45086890D01*
X133181439Y-45107807D01*
X133213421Y-45170811D01*
X133221101Y-45189617D01*
X133257928Y-45306302D01*
X133261830Y-45322296D01*
X133289497Y-45480759D01*
X133291056Y-45493625D01*
X133299211Y-45612859D01*
X133299500Y-45621320D01*
X133299500Y-82179518D01*
X133299234Y-82187642D01*
X133295864Y-82238969D01*
X133294273Y-82252226D01*
X133272304Y-82377727D01*
X133268016Y-82394898D01*
X133234846Y-82496301D01*
X133226734Y-82515477D01*
X133192829Y-82579932D01*
X133179586Y-82600074D01*
X133130860Y-82660457D01*
X133122277Y-82670032D01*
X115086723Y-100803076D01*
X115025491Y-100836726D01*
X114955786Y-100831929D01*
X114911125Y-100803312D01*
X104129875Y-90022061D01*
X104047066Y-89939252D01*
X110658137Y-89939252D01*
X110658137Y-90137973D01*
X110689224Y-90334250D01*
X110750630Y-90523242D01*
X110750631Y-90523245D01*
X110820064Y-90659513D01*
X110840850Y-90700307D01*
X110957656Y-90861077D01*
X111098173Y-91001594D01*
X111258943Y-91118400D01*
X111345786Y-91162648D01*
X111436004Y-91208618D01*
X111436007Y-91208619D01*
X111523055Y-91236902D01*
X111625001Y-91270026D01*
X111821276Y-91301113D01*
X111821277Y-91301113D01*
X112019997Y-91301113D01*
X112019998Y-91301113D01*
X112216273Y-91270026D01*
X112383294Y-91215757D01*
X112453134Y-91213763D01*
X112512967Y-91249843D01*
X112543795Y-91312544D01*
X112539542Y-91372006D01*
X112485275Y-91539024D01*
X112454188Y-91735303D01*
X112454188Y-91934024D01*
X112485275Y-92130301D01*
X112546681Y-92319293D01*
X112546682Y-92319296D01*
X112561094Y-92347580D01*
X112636901Y-92496358D01*
X112753707Y-92657128D01*
X112894224Y-92797645D01*
X113054994Y-92914451D01*
X113141837Y-92958699D01*
X113232055Y-93004669D01*
X113232058Y-93004670D01*
X113319106Y-93032953D01*
X113421052Y-93066077D01*
X113617327Y-93097164D01*
X113617328Y-93097164D01*
X113816048Y-93097164D01*
X113816049Y-93097164D01*
X114012324Y-93066077D01*
X114201320Y-93004669D01*
X114378382Y-92914451D01*
X114539152Y-92797645D01*
X114679669Y-92657128D01*
X114796475Y-92496358D01*
X114886693Y-92319296D01*
X114948101Y-92130300D01*
X114979188Y-91934025D01*
X114979188Y-91735303D01*
X114948101Y-91539028D01*
X114893832Y-91372006D01*
X114891838Y-91302166D01*
X114927918Y-91242333D01*
X114990619Y-91211505D01*
X115050082Y-91215758D01*
X115115158Y-91236902D01*
X115217104Y-91270026D01*
X115413379Y-91301113D01*
X115413380Y-91301113D01*
X115612100Y-91301113D01*
X115612101Y-91301113D01*
X115808376Y-91270026D01*
X115997372Y-91208618D01*
X116174434Y-91118400D01*
X116335204Y-91001594D01*
X116475721Y-90861077D01*
X116592527Y-90700307D01*
X116682745Y-90523245D01*
X116744153Y-90334249D01*
X116775240Y-90137974D01*
X116775240Y-89939252D01*
X116744153Y-89742977D01*
X116699075Y-89604239D01*
X116689885Y-89575955D01*
X116687890Y-89506114D01*
X116723971Y-89446281D01*
X116786672Y-89415453D01*
X116846133Y-89419705D01*
X117013155Y-89473974D01*
X117209430Y-89505061D01*
X117209431Y-89505061D01*
X117408151Y-89505061D01*
X117408152Y-89505061D01*
X117604427Y-89473974D01*
X117793423Y-89412566D01*
X117970485Y-89322348D01*
X118131255Y-89205542D01*
X118271772Y-89065025D01*
X118388578Y-88904255D01*
X118478796Y-88727193D01*
X118540204Y-88538197D01*
X118571291Y-88341922D01*
X118571291Y-88143200D01*
X118540204Y-87946925D01*
X118485935Y-87779903D01*
X118483941Y-87710063D01*
X118520021Y-87650230D01*
X118582722Y-87619402D01*
X118642184Y-87623654D01*
X118809206Y-87677923D01*
X119005481Y-87709010D01*
X119005482Y-87709010D01*
X119204202Y-87709010D01*
X119204203Y-87709010D01*
X119400478Y-87677923D01*
X119589474Y-87616515D01*
X119766536Y-87526297D01*
X119927306Y-87409491D01*
X120067823Y-87268974D01*
X120184629Y-87108204D01*
X120274847Y-86931142D01*
X120336255Y-86742146D01*
X120367342Y-86545871D01*
X120367342Y-86347149D01*
X120336255Y-86150874D01*
X120281986Y-85983852D01*
X120279992Y-85914012D01*
X120316072Y-85854179D01*
X120378773Y-85823351D01*
X120438235Y-85827603D01*
X120605257Y-85881872D01*
X120801532Y-85912959D01*
X120801533Y-85912959D01*
X121000253Y-85912959D01*
X121000254Y-85912959D01*
X121196529Y-85881872D01*
X121385525Y-85820464D01*
X121562587Y-85730246D01*
X121723357Y-85613440D01*
X121863874Y-85472923D01*
X121980680Y-85312153D01*
X122070898Y-85135091D01*
X122132306Y-84946095D01*
X122163393Y-84749820D01*
X122163393Y-84551098D01*
X122132306Y-84354823D01*
X122078037Y-84187801D01*
X122076043Y-84117961D01*
X122112123Y-84058128D01*
X122174824Y-84027300D01*
X122234286Y-84031552D01*
X122401308Y-84085821D01*
X122597583Y-84116908D01*
X122597584Y-84116908D01*
X122796304Y-84116908D01*
X122796305Y-84116908D01*
X122992580Y-84085821D01*
X123181576Y-84024413D01*
X123358638Y-83934195D01*
X123519408Y-83817389D01*
X123659925Y-83676872D01*
X123776731Y-83516102D01*
X123866949Y-83339040D01*
X123928357Y-83150044D01*
X123959444Y-82953769D01*
X123959444Y-82755047D01*
X123928357Y-82558772D01*
X123874088Y-82391750D01*
X123872094Y-82321910D01*
X123908174Y-82262077D01*
X123970875Y-82231249D01*
X124030338Y-82235502D01*
X124081810Y-82252226D01*
X124197360Y-82289770D01*
X124393635Y-82320857D01*
X124393636Y-82320857D01*
X124592356Y-82320857D01*
X124592357Y-82320857D01*
X124788632Y-82289770D01*
X124977628Y-82228362D01*
X125154690Y-82138144D01*
X125315460Y-82021338D01*
X125455977Y-81880821D01*
X125572783Y-81720051D01*
X125663001Y-81542989D01*
X125724409Y-81353993D01*
X125755496Y-81157718D01*
X125755496Y-80958996D01*
X125724409Y-80762721D01*
X125679331Y-80623983D01*
X125670141Y-80595699D01*
X125668146Y-80525858D01*
X125704227Y-80466025D01*
X125766928Y-80435197D01*
X125826389Y-80439449D01*
X125993411Y-80493718D01*
X126189686Y-80524805D01*
X126189687Y-80524805D01*
X126388407Y-80524805D01*
X126388408Y-80524805D01*
X126584683Y-80493718D01*
X126773679Y-80432310D01*
X126950741Y-80342092D01*
X127111511Y-80225286D01*
X127252028Y-80084769D01*
X127368834Y-79923999D01*
X127459052Y-79746937D01*
X127520460Y-79557941D01*
X127551547Y-79361666D01*
X127551547Y-79162944D01*
X127520460Y-78966669D01*
X127459052Y-78777673D01*
X127459052Y-78777672D01*
X127401409Y-78664543D01*
X127368834Y-78600611D01*
X127252028Y-78439841D01*
X127111511Y-78299324D01*
X126950741Y-78182518D01*
X126773679Y-78092299D01*
X126773676Y-78092298D01*
X126584684Y-78030892D01*
X126486545Y-78015348D01*
X126388408Y-77999805D01*
X126189686Y-77999805D01*
X126150431Y-78006022D01*
X125993407Y-78030892D01*
X125826389Y-78085159D01*
X125756548Y-78087154D01*
X125696716Y-78051073D01*
X125665888Y-77988372D01*
X125670141Y-77928910D01*
X125724409Y-77761890D01*
X125755496Y-77565615D01*
X125755496Y-77366893D01*
X125724409Y-77170618D01*
X125663001Y-76981622D01*
X125663001Y-76981621D01*
X125572782Y-76804559D01*
X125476524Y-76672071D01*
X125455977Y-76643790D01*
X125315460Y-76503273D01*
X125154690Y-76386467D01*
X124977628Y-76296248D01*
X124977625Y-76296247D01*
X124788633Y-76234841D01*
X124690494Y-76219297D01*
X124592357Y-76203754D01*
X124393635Y-76203754D01*
X124328210Y-76214116D01*
X124197358Y-76234841D01*
X124008366Y-76296247D01*
X124008363Y-76296248D01*
X123831301Y-76386467D01*
X123670529Y-76503275D01*
X123530017Y-76643787D01*
X123413209Y-76804559D01*
X123322990Y-76981621D01*
X123322989Y-76981624D01*
X123261583Y-77170616D01*
X123230496Y-77366893D01*
X123230496Y-77565614D01*
X123261583Y-77761891D01*
X123315850Y-77928910D01*
X123317845Y-77998752D01*
X123281764Y-78058584D01*
X123219063Y-78089412D01*
X123159602Y-78085159D01*
X122992582Y-78030892D01*
X122992583Y-78030892D01*
X122845373Y-78007576D01*
X122796305Y-77999805D01*
X122597583Y-77999805D01*
X122532158Y-78010167D01*
X122401306Y-78030892D01*
X122212314Y-78092298D01*
X122212311Y-78092299D01*
X122035249Y-78182518D01*
X121874477Y-78299326D01*
X121733965Y-78439838D01*
X121617157Y-78600610D01*
X121526938Y-78777672D01*
X121526937Y-78777675D01*
X121465531Y-78966667D01*
X121434444Y-79162944D01*
X121434444Y-79361665D01*
X121465531Y-79557944D01*
X121519798Y-79724963D01*
X121521793Y-79794804D01*
X121485712Y-79854636D01*
X121423011Y-79885464D01*
X121363549Y-79881211D01*
X121196530Y-79826944D01*
X121098391Y-79811400D01*
X121000254Y-79795857D01*
X120801532Y-79795857D01*
X120736107Y-79806219D01*
X120605255Y-79826944D01*
X120416263Y-79888350D01*
X120416260Y-79888351D01*
X120239198Y-79978570D01*
X120078426Y-80095378D01*
X119937914Y-80235890D01*
X119821106Y-80396662D01*
X119730887Y-80573724D01*
X119730886Y-80573727D01*
X119669480Y-80762719D01*
X119638393Y-80958996D01*
X119638393Y-81157717D01*
X119669480Y-81353994D01*
X119723747Y-81521013D01*
X119725742Y-81590855D01*
X119689661Y-81650687D01*
X119626960Y-81681515D01*
X119567498Y-81677262D01*
X119400479Y-81622995D01*
X119302340Y-81607451D01*
X119204203Y-81591908D01*
X119005481Y-81591908D01*
X118940056Y-81602270D01*
X118809204Y-81622995D01*
X118620212Y-81684401D01*
X118620209Y-81684402D01*
X118443147Y-81774621D01*
X118282375Y-81891429D01*
X118141863Y-82031941D01*
X118025055Y-82192713D01*
X117934836Y-82369775D01*
X117934835Y-82369778D01*
X117873429Y-82558770D01*
X117857258Y-82660870D01*
X117842342Y-82755047D01*
X117842342Y-82953769D01*
X117846822Y-82982052D01*
X117873429Y-83150045D01*
X117927696Y-83317064D01*
X117929691Y-83386906D01*
X117893610Y-83446738D01*
X117830909Y-83477566D01*
X117771447Y-83473313D01*
X117604428Y-83419046D01*
X117506289Y-83403502D01*
X117408152Y-83387959D01*
X117209430Y-83387959D01*
X117144005Y-83398321D01*
X117013153Y-83419046D01*
X116824161Y-83480452D01*
X116824158Y-83480453D01*
X116647096Y-83570672D01*
X116486324Y-83687480D01*
X116345812Y-83827992D01*
X116229004Y-83988764D01*
X116138785Y-84165826D01*
X116138784Y-84165829D01*
X116077378Y-84354821D01*
X116046291Y-84551098D01*
X116046291Y-84749819D01*
X116077378Y-84946096D01*
X116131645Y-85113115D01*
X116133640Y-85182957D01*
X116097559Y-85242789D01*
X116034858Y-85273617D01*
X115975396Y-85269364D01*
X115808377Y-85215097D01*
X115710238Y-85199553D01*
X115612101Y-85184010D01*
X115413379Y-85184010D01*
X115347954Y-85194372D01*
X115217102Y-85215097D01*
X115028110Y-85276503D01*
X115028107Y-85276504D01*
X114851045Y-85366723D01*
X114690273Y-85483531D01*
X114549761Y-85624043D01*
X114432953Y-85784815D01*
X114342734Y-85961877D01*
X114342733Y-85961880D01*
X114281327Y-86150872D01*
X114250240Y-86347149D01*
X114250240Y-86545870D01*
X114281327Y-86742147D01*
X114335594Y-86909166D01*
X114337589Y-86979008D01*
X114301508Y-87038840D01*
X114238807Y-87069668D01*
X114179346Y-87065415D01*
X114012326Y-87011148D01*
X114012327Y-87011148D01*
X113865117Y-86987832D01*
X113816049Y-86980061D01*
X113617327Y-86980061D01*
X113551902Y-86990423D01*
X113421050Y-87011148D01*
X113232058Y-87072554D01*
X113232055Y-87072555D01*
X113054993Y-87162774D01*
X112894221Y-87279582D01*
X112753709Y-87420094D01*
X112636901Y-87580866D01*
X112546682Y-87757928D01*
X112546681Y-87757931D01*
X112485275Y-87946923D01*
X112454188Y-88143200D01*
X112454188Y-88341921D01*
X112485275Y-88538200D01*
X112539542Y-88705219D01*
X112541537Y-88775060D01*
X112505456Y-88834892D01*
X112442755Y-88865720D01*
X112383293Y-88861467D01*
X112216274Y-88807200D01*
X112118135Y-88791656D01*
X112019998Y-88776113D01*
X111821276Y-88776113D01*
X111755851Y-88786475D01*
X111624999Y-88807200D01*
X111436007Y-88868606D01*
X111436004Y-88868607D01*
X111258942Y-88958826D01*
X111098170Y-89075634D01*
X110957658Y-89216146D01*
X110840850Y-89376918D01*
X110750631Y-89553980D01*
X110750630Y-89553983D01*
X110689224Y-89742975D01*
X110658137Y-89939252D01*
X104047066Y-89939252D01*
X98407316Y-84299502D01*
X98407315Y-84299501D01*
X98407314Y-84299500D01*
X98350250Y-84266554D01*
X98293187Y-84233608D01*
X98227789Y-84216085D01*
X98165892Y-84199500D01*
X98034107Y-84199500D01*
X97922667Y-84229360D01*
X97922666Y-84229359D01*
X97906816Y-84233607D01*
X97906811Y-84233609D01*
X97792689Y-84299498D01*
X97792683Y-84299502D01*
X97699498Y-84392688D01*
X81287680Y-100804505D01*
X81226357Y-100837990D01*
X81156665Y-100833006D01*
X81112318Y-100804505D01*
X72071400Y-91763587D01*
X62979321Y-82671507D01*
X62969842Y-82660870D01*
X62931971Y-82613111D01*
X62918564Y-82592199D01*
X62886573Y-82529176D01*
X62878899Y-82510387D01*
X62842066Y-82393688D01*
X62838168Y-82377710D01*
X62810501Y-82219238D01*
X62808942Y-82206371D01*
X62807661Y-82187642D01*
X62800789Y-82087138D01*
X62800500Y-82078679D01*
X62800500Y-79191228D01*
X68599425Y-79191228D01*
X68599425Y-79389949D01*
X68630512Y-79586226D01*
X68691918Y-79775218D01*
X68691919Y-79775221D01*
X68782138Y-79952283D01*
X68898944Y-80113053D01*
X69039461Y-80253570D01*
X69200231Y-80370376D01*
X69251820Y-80396662D01*
X69377292Y-80460594D01*
X69377295Y-80460595D01*
X69471791Y-80491298D01*
X69566289Y-80522002D01*
X69762564Y-80553089D01*
X69762565Y-80553089D01*
X69961285Y-80553089D01*
X69961286Y-80553089D01*
X70157561Y-80522002D01*
X70324582Y-80467733D01*
X70394422Y-80465739D01*
X70454255Y-80501819D01*
X70485083Y-80564520D01*
X70480830Y-80623982D01*
X70426563Y-80791001D01*
X70395476Y-80987280D01*
X70395476Y-81186001D01*
X70426563Y-81382278D01*
X70487969Y-81571270D01*
X70487970Y-81571273D01*
X70578189Y-81748335D01*
X70694995Y-81909105D01*
X70835512Y-82049622D01*
X70996282Y-82166428D01*
X71047869Y-82192713D01*
X71173343Y-82256646D01*
X71173346Y-82256647D01*
X71251207Y-82281945D01*
X71362340Y-82318054D01*
X71558615Y-82349141D01*
X71558616Y-82349141D01*
X71757336Y-82349141D01*
X71757337Y-82349141D01*
X71953612Y-82318054D01*
X72120633Y-82263785D01*
X72190474Y-82261791D01*
X72250307Y-82297871D01*
X72281135Y-82360572D01*
X72276882Y-82420034D01*
X72222615Y-82587052D01*
X72191528Y-82783331D01*
X72191528Y-82982052D01*
X72222615Y-83178329D01*
X72284021Y-83367321D01*
X72284022Y-83367324D01*
X72369596Y-83535270D01*
X72374241Y-83544386D01*
X72491047Y-83705156D01*
X72631564Y-83845673D01*
X72792334Y-83962479D01*
X72843921Y-83988764D01*
X72969395Y-84052697D01*
X72969398Y-84052698D01*
X73063894Y-84083401D01*
X73158392Y-84114105D01*
X73354667Y-84145192D01*
X73354668Y-84145192D01*
X73553388Y-84145192D01*
X73553389Y-84145192D01*
X73749664Y-84114105D01*
X73916685Y-84059836D01*
X73986525Y-84057842D01*
X74046358Y-84093922D01*
X74077186Y-84156623D01*
X74072933Y-84216085D01*
X74018666Y-84383103D01*
X73987579Y-84579382D01*
X73987579Y-84778103D01*
X74018666Y-84974380D01*
X74080072Y-85163372D01*
X74080073Y-85163375D01*
X74165647Y-85331321D01*
X74170292Y-85340437D01*
X74287098Y-85501207D01*
X74427615Y-85641724D01*
X74588385Y-85758530D01*
X74639972Y-85784815D01*
X74765446Y-85848748D01*
X74765449Y-85848749D01*
X74859945Y-85879452D01*
X74954443Y-85910156D01*
X75150718Y-85941243D01*
X75150719Y-85941243D01*
X75349439Y-85941243D01*
X75349440Y-85941243D01*
X75545715Y-85910156D01*
X75712736Y-85855887D01*
X75782576Y-85853893D01*
X75842409Y-85889973D01*
X75873237Y-85952674D01*
X75868984Y-86012136D01*
X75814717Y-86179154D01*
X75783630Y-86375433D01*
X75783630Y-86574154D01*
X75814717Y-86770431D01*
X75876123Y-86959423D01*
X75876124Y-86959426D01*
X75961720Y-87127415D01*
X75966343Y-87136488D01*
X76083149Y-87297258D01*
X76223666Y-87437775D01*
X76384436Y-87554581D01*
X76436023Y-87580866D01*
X76561497Y-87644799D01*
X76561500Y-87644800D01*
X76655996Y-87675503D01*
X76750494Y-87706207D01*
X76946769Y-87737294D01*
X76946770Y-87737294D01*
X77145490Y-87737294D01*
X77145491Y-87737294D01*
X77341766Y-87706207D01*
X77508787Y-87651938D01*
X77578627Y-87649944D01*
X77638460Y-87686024D01*
X77669288Y-87748725D01*
X77665035Y-87808187D01*
X77610768Y-87975205D01*
X77579681Y-88171484D01*
X77579681Y-88370205D01*
X77610768Y-88566482D01*
X77672174Y-88755474D01*
X77672175Y-88755477D01*
X77762394Y-88932539D01*
X77879200Y-89093309D01*
X78019717Y-89233826D01*
X78180487Y-89350632D01*
X78232076Y-89376918D01*
X78357548Y-89440850D01*
X78357551Y-89440851D01*
X78452047Y-89471554D01*
X78546545Y-89502258D01*
X78742820Y-89533345D01*
X78742821Y-89533345D01*
X78941541Y-89533345D01*
X78941542Y-89533345D01*
X79137817Y-89502258D01*
X79304838Y-89447989D01*
X79374678Y-89445995D01*
X79434511Y-89482075D01*
X79465339Y-89544776D01*
X79461086Y-89604238D01*
X79406819Y-89771257D01*
X79375732Y-89967536D01*
X79375732Y-90166257D01*
X79406819Y-90362534D01*
X79468225Y-90551526D01*
X79468226Y-90551529D01*
X79558445Y-90728591D01*
X79675251Y-90889361D01*
X79815768Y-91029878D01*
X79976538Y-91146684D01*
X80028127Y-91172970D01*
X80153599Y-91236902D01*
X80153602Y-91236903D01*
X80248098Y-91267606D01*
X80342596Y-91298310D01*
X80538871Y-91329397D01*
X80538872Y-91329397D01*
X80737592Y-91329397D01*
X80737593Y-91329397D01*
X80933868Y-91298310D01*
X81100889Y-91244041D01*
X81170730Y-91242047D01*
X81230563Y-91278127D01*
X81261391Y-91340828D01*
X81257138Y-91400290D01*
X81202871Y-91567308D01*
X81171784Y-91763587D01*
X81171784Y-91962308D01*
X81202871Y-92158585D01*
X81264277Y-92347577D01*
X81264278Y-92347580D01*
X81354497Y-92524642D01*
X81471303Y-92685412D01*
X81611820Y-92825929D01*
X81772590Y-92942735D01*
X81859433Y-92986983D01*
X81949651Y-93032953D01*
X81949654Y-93032954D01*
X82044150Y-93063657D01*
X82138648Y-93094361D01*
X82334923Y-93125448D01*
X82334924Y-93125448D01*
X82533644Y-93125448D01*
X82533645Y-93125448D01*
X82729920Y-93094361D01*
X82918916Y-93032953D01*
X83095978Y-92942735D01*
X83256748Y-92825929D01*
X83397265Y-92685412D01*
X83514071Y-92524642D01*
X83604289Y-92347580D01*
X83665697Y-92158584D01*
X83696784Y-91962309D01*
X83696784Y-91763587D01*
X83665697Y-91567312D01*
X83611428Y-91400290D01*
X83609434Y-91330450D01*
X83645514Y-91270617D01*
X83708215Y-91239789D01*
X83767677Y-91244041D01*
X83934699Y-91298310D01*
X84130974Y-91329397D01*
X84130975Y-91329397D01*
X84329695Y-91329397D01*
X84329696Y-91329397D01*
X84525971Y-91298310D01*
X84714967Y-91236902D01*
X84892029Y-91146684D01*
X85052799Y-91029878D01*
X85193316Y-90889361D01*
X85310122Y-90728591D01*
X85400340Y-90551529D01*
X85461748Y-90362533D01*
X85492835Y-90166258D01*
X85492835Y-89967536D01*
X85461748Y-89771261D01*
X85407480Y-89604239D01*
X85400341Y-89582267D01*
X85400340Y-89582264D01*
X85331052Y-89446281D01*
X85310122Y-89405203D01*
X85193316Y-89244433D01*
X85052799Y-89103916D01*
X84892029Y-88987110D01*
X84836519Y-88958826D01*
X84714967Y-88896891D01*
X84714964Y-88896890D01*
X84525972Y-88835484D01*
X84347393Y-88807200D01*
X84329696Y-88804397D01*
X84130974Y-88804397D01*
X84113277Y-88807200D01*
X83934695Y-88835484D01*
X83767677Y-88889751D01*
X83697836Y-88891746D01*
X83638004Y-88855665D01*
X83607176Y-88792964D01*
X83611429Y-88733502D01*
X83643248Y-88635572D01*
X83665697Y-88566481D01*
X83696784Y-88370206D01*
X83696784Y-88171484D01*
X83665697Y-87975209D01*
X83604289Y-87786213D01*
X83604289Y-87786212D01*
X83538828Y-87657740D01*
X83514071Y-87609151D01*
X83397265Y-87448381D01*
X83256748Y-87307864D01*
X83095978Y-87191058D01*
X83040468Y-87162774D01*
X82918916Y-87100839D01*
X82918913Y-87100838D01*
X82729921Y-87039432D01*
X82551342Y-87011148D01*
X82533645Y-87008345D01*
X82334923Y-87008345D01*
X82317226Y-87011148D01*
X82138644Y-87039432D01*
X81971625Y-87093699D01*
X81901784Y-87095694D01*
X81841951Y-87059613D01*
X81811124Y-86996912D01*
X81815377Y-86937450D01*
X81817428Y-86931139D01*
X81869645Y-86770430D01*
X81900732Y-86574155D01*
X81900732Y-86375433D01*
X81869645Y-86179158D01*
X81838941Y-86084660D01*
X81808238Y-85990164D01*
X81808237Y-85990161D01*
X81742776Y-85861689D01*
X81718019Y-85813100D01*
X81601213Y-85652330D01*
X81460696Y-85511813D01*
X81299926Y-85395007D01*
X81244416Y-85366723D01*
X81122864Y-85304788D01*
X81122861Y-85304787D01*
X80933869Y-85243381D01*
X80755290Y-85215097D01*
X80737593Y-85212294D01*
X80538871Y-85212294D01*
X80521174Y-85215097D01*
X80342592Y-85243381D01*
X80175574Y-85297648D01*
X80105733Y-85299643D01*
X80045901Y-85263562D01*
X80015073Y-85200861D01*
X80019326Y-85141399D01*
X80021377Y-85135088D01*
X80073594Y-84974379D01*
X80104681Y-84778104D01*
X80104681Y-84579382D01*
X80073594Y-84383107D01*
X80025019Y-84233607D01*
X80012187Y-84194113D01*
X80012186Y-84194110D01*
X79946725Y-84065638D01*
X79921968Y-84017049D01*
X79805162Y-83856279D01*
X79664645Y-83715762D01*
X79547596Y-83630721D01*
X79547595Y-83630720D01*
X79503878Y-83598958D01*
X79503877Y-83598957D01*
X79503875Y-83598956D01*
X79447149Y-83570052D01*
X79378886Y-83535270D01*
X101135896Y-83535270D01*
X101135896Y-83771465D01*
X101172842Y-84004736D01*
X101245829Y-84229364D01*
X101329048Y-84392688D01*
X101353053Y-84439801D01*
X101491879Y-84630878D01*
X101658886Y-84797885D01*
X101849963Y-84936711D01*
X101923891Y-84974379D01*
X102060399Y-85043934D01*
X102060401Y-85043934D01*
X102060404Y-85043936D01*
X102180808Y-85083057D01*
X102285027Y-85116921D01*
X102518299Y-85153868D01*
X102518304Y-85153868D01*
X102754485Y-85153868D01*
X102754488Y-85153868D01*
X102796774Y-85147170D01*
X102866064Y-85156124D01*
X102919516Y-85201119D01*
X102940157Y-85267870D01*
X102938644Y-85289039D01*
X102931947Y-85331326D01*
X102931947Y-85567516D01*
X102968893Y-85800787D01*
X103041880Y-86025415D01*
X103120215Y-86179154D01*
X103149104Y-86235852D01*
X103287930Y-86426929D01*
X103454937Y-86593936D01*
X103646014Y-86732762D01*
X103719942Y-86770430D01*
X103856450Y-86839985D01*
X103856452Y-86839985D01*
X103856455Y-86839987D01*
X103976859Y-86879108D01*
X104081078Y-86912972D01*
X104314350Y-86949919D01*
X104314355Y-86949919D01*
X104550537Y-86949919D01*
X104550539Y-86949919D01*
X104593344Y-86943139D01*
X104662634Y-86952093D01*
X104716087Y-86997089D01*
X104736727Y-87063840D01*
X104735214Y-87085008D01*
X104728498Y-87127415D01*
X104728498Y-87363522D01*
X104765432Y-87596717D01*
X104838395Y-87821272D01*
X104945585Y-88031644D01*
X105005836Y-88114574D01*
X105005838Y-88114575D01*
X105627456Y-87492957D01*
X105652476Y-87553360D01*
X105723610Y-87659821D01*
X105814147Y-87750358D01*
X105920608Y-87821492D01*
X105981009Y-87846511D01*
X105359391Y-88468128D01*
X105442326Y-88528384D01*
X105652695Y-88635572D01*
X105877250Y-88708535D01*
X105877249Y-88708535D01*
X106110446Y-88745470D01*
X106346550Y-88745470D01*
X106579745Y-88708535D01*
X106804300Y-88635572D01*
X107014661Y-88528388D01*
X107014667Y-88528384D01*
X107097602Y-88468128D01*
X107097603Y-88468128D01*
X106475986Y-87846511D01*
X106536388Y-87821492D01*
X106642849Y-87750358D01*
X106733386Y-87659821D01*
X106804520Y-87553360D01*
X106829539Y-87492958D01*
X107451156Y-88114575D01*
X107451156Y-88114574D01*
X107511412Y-88031639D01*
X107511416Y-88031633D01*
X107618600Y-87821272D01*
X107691563Y-87596717D01*
X107728498Y-87363522D01*
X107728498Y-87127417D01*
X107691563Y-86894222D01*
X107618600Y-86669667D01*
X107511412Y-86459298D01*
X107451156Y-86376364D01*
X107451156Y-86376363D01*
X106829539Y-86997981D01*
X106804520Y-86937580D01*
X106733386Y-86831119D01*
X106642849Y-86740582D01*
X106536388Y-86669448D01*
X106475985Y-86644428D01*
X107097603Y-86022810D01*
X107097602Y-86022808D01*
X107014672Y-85962557D01*
X106804300Y-85855367D01*
X106579745Y-85782404D01*
X106579746Y-85782404D01*
X106346550Y-85745470D01*
X106110443Y-85745470D01*
X106068036Y-85752186D01*
X105998743Y-85743230D01*
X105945291Y-85698233D01*
X105924653Y-85631481D01*
X105926166Y-85610323D01*
X105932947Y-85567511D01*
X105932947Y-85331327D01*
X105932947Y-85331326D01*
X105932947Y-85331321D01*
X105896000Y-85098050D01*
X105823013Y-84873422D01*
X105715789Y-84662985D01*
X105576964Y-84471909D01*
X105409957Y-84304902D01*
X105218880Y-84166076D01*
X105218389Y-84165826D01*
X105008443Y-84058852D01*
X104783815Y-83985865D01*
X104550544Y-83948919D01*
X104550539Y-83948919D01*
X104314355Y-83948919D01*
X104314354Y-83948919D01*
X104272067Y-83955616D01*
X104202774Y-83946660D01*
X104149322Y-83901663D01*
X104128684Y-83834911D01*
X104130197Y-83813755D01*
X104136896Y-83771460D01*
X104136896Y-83535276D01*
X104136896Y-83535270D01*
X104099949Y-83301999D01*
X104026962Y-83077371D01*
X103936502Y-82899834D01*
X103919739Y-82866935D01*
X103780913Y-82675858D01*
X103613906Y-82508851D01*
X103422829Y-82370025D01*
X103413087Y-82365061D01*
X103212392Y-82262801D01*
X102987764Y-82189814D01*
X102754493Y-82152868D01*
X102754488Y-82152868D01*
X102518304Y-82152868D01*
X102518299Y-82152868D01*
X102285027Y-82189814D01*
X102060399Y-82262801D01*
X101849962Y-82370025D01*
X101740946Y-82449230D01*
X101658886Y-82508851D01*
X101658884Y-82508853D01*
X101658883Y-82508853D01*
X101491881Y-82675855D01*
X101491881Y-82675856D01*
X101491879Y-82675858D01*
X101434345Y-82755047D01*
X101353053Y-82866934D01*
X101245829Y-83077371D01*
X101172842Y-83301999D01*
X101135896Y-83535270D01*
X79378886Y-83535270D01*
X79326813Y-83508737D01*
X79326810Y-83508736D01*
X79137818Y-83447330D01*
X78959239Y-83419046D01*
X78941542Y-83416243D01*
X78742820Y-83416243D01*
X78725123Y-83419046D01*
X78546541Y-83447330D01*
X78379523Y-83501597D01*
X78309682Y-83503592D01*
X78249850Y-83467511D01*
X78219022Y-83404810D01*
X78223275Y-83345348D01*
X78235984Y-83306234D01*
X78277543Y-83178328D01*
X78308630Y-82982053D01*
X78308630Y-82783331D01*
X78277543Y-82587056D01*
X78246839Y-82492558D01*
X78216136Y-82398062D01*
X78216135Y-82398059D01*
X78150674Y-82269587D01*
X78125917Y-82220998D01*
X78009111Y-82060228D01*
X77868594Y-81919711D01*
X77707824Y-81802905D01*
X77652314Y-81774621D01*
X77530762Y-81712686D01*
X77530759Y-81712685D01*
X77341767Y-81651279D01*
X77163188Y-81622995D01*
X77145491Y-81620192D01*
X76946769Y-81620192D01*
X76929072Y-81622995D01*
X76750490Y-81651279D01*
X76583472Y-81705546D01*
X76513631Y-81707541D01*
X76453799Y-81671460D01*
X76422971Y-81608759D01*
X76427224Y-81549297D01*
X76436414Y-81521013D01*
X76481492Y-81382277D01*
X76512579Y-81186002D01*
X76512579Y-80987280D01*
X76481492Y-80791005D01*
X76427224Y-80623983D01*
X76420085Y-80602011D01*
X76420084Y-80602008D01*
X76364718Y-80493347D01*
X76329866Y-80424947D01*
X76213060Y-80264177D01*
X76072543Y-80123660D01*
X75911773Y-80006854D01*
X75856263Y-79978570D01*
X75734711Y-79916635D01*
X75734708Y-79916634D01*
X75545716Y-79855228D01*
X75367137Y-79826944D01*
X75349440Y-79824141D01*
X75150718Y-79824141D01*
X75133021Y-79826944D01*
X74954439Y-79855228D01*
X74787421Y-79909495D01*
X74717580Y-79911490D01*
X74657748Y-79875409D01*
X74626920Y-79812708D01*
X74631173Y-79753246D01*
X74640363Y-79724962D01*
X74685441Y-79586225D01*
X74716528Y-79389950D01*
X74716528Y-79191228D01*
X74685441Y-78994953D01*
X74624033Y-78805957D01*
X74624033Y-78805956D01*
X74558572Y-78677484D01*
X74533815Y-78628895D01*
X74417009Y-78468125D01*
X74276492Y-78327608D01*
X74115722Y-78210802D01*
X74060212Y-78182518D01*
X73938660Y-78120583D01*
X73938657Y-78120582D01*
X73749665Y-78059176D01*
X73571086Y-78030892D01*
X73553389Y-78028089D01*
X73354667Y-78028089D01*
X73336970Y-78030892D01*
X73158388Y-78059176D01*
X72991369Y-78113443D01*
X72921528Y-78115438D01*
X72861695Y-78079357D01*
X72830868Y-78016656D01*
X72835121Y-77957194D01*
X72844311Y-77928910D01*
X72889389Y-77790174D01*
X72920476Y-77593899D01*
X72920476Y-77395177D01*
X72889389Y-77198902D01*
X72827981Y-77009906D01*
X72827981Y-77009905D01*
X72737762Y-76832843D01*
X72620957Y-76672074D01*
X72480440Y-76531557D01*
X72319670Y-76414751D01*
X72264160Y-76386467D01*
X72142608Y-76324532D01*
X72142605Y-76324531D01*
X71953613Y-76263125D01*
X71775034Y-76234841D01*
X71757337Y-76232038D01*
X71558615Y-76232038D01*
X71540918Y-76234841D01*
X71362338Y-76263125D01*
X71173346Y-76324531D01*
X71173343Y-76324532D01*
X70996281Y-76414751D01*
X70835509Y-76531559D01*
X70694997Y-76672071D01*
X70578189Y-76832843D01*
X70487970Y-77009905D01*
X70487969Y-77009908D01*
X70426563Y-77198900D01*
X70395476Y-77395177D01*
X70395476Y-77593898D01*
X70426563Y-77790175D01*
X70480830Y-77957194D01*
X70482825Y-78027036D01*
X70446744Y-78086868D01*
X70384043Y-78117696D01*
X70324581Y-78113443D01*
X70157562Y-78059176D01*
X69978983Y-78030892D01*
X69961286Y-78028089D01*
X69762564Y-78028089D01*
X69744867Y-78030892D01*
X69566287Y-78059176D01*
X69377295Y-78120582D01*
X69377292Y-78120583D01*
X69200230Y-78210802D01*
X69039458Y-78327610D01*
X68898946Y-78468122D01*
X68782138Y-78628894D01*
X68691919Y-78805956D01*
X68691918Y-78805959D01*
X68630512Y-78994951D01*
X68599425Y-79191228D01*
X62800500Y-79191228D01*
X62800500Y-67728711D01*
X65649500Y-67728711D01*
X65649500Y-67971288D01*
X65681161Y-68211785D01*
X65743947Y-68446104D01*
X65760199Y-68485339D01*
X65836776Y-68670212D01*
X65958064Y-68880289D01*
X65958066Y-68880292D01*
X65958067Y-68880293D01*
X66105733Y-69072736D01*
X66105739Y-69072743D01*
X66277256Y-69244260D01*
X66277262Y-69244265D01*
X66469711Y-69391936D01*
X66679788Y-69513224D01*
X66903900Y-69606054D01*
X67138211Y-69668838D01*
X67318586Y-69692584D01*
X67378711Y-69700500D01*
X67378712Y-69700500D01*
X67621289Y-69700500D01*
X67669388Y-69694167D01*
X67861789Y-69668838D01*
X68096100Y-69606054D01*
X68320212Y-69513224D01*
X68530289Y-69391936D01*
X68722738Y-69244265D01*
X68894265Y-69072738D01*
X69041936Y-68880289D01*
X69163224Y-68670212D01*
X69256054Y-68446100D01*
X69318838Y-68211789D01*
X69350500Y-67971288D01*
X69350500Y-67728712D01*
X69318838Y-67488211D01*
X69256054Y-67253900D01*
X69163224Y-67029788D01*
X69066679Y-66862568D01*
X76932565Y-66862568D01*
X76932565Y-67083011D01*
X76967050Y-67300742D01*
X77035168Y-67510393D01*
X77035169Y-67510396D01*
X77084590Y-67607387D01*
X77131524Y-67699500D01*
X77135252Y-67706815D01*
X77264817Y-67885148D01*
X77264821Y-67885153D01*
X77420701Y-68041033D01*
X77420706Y-68041037D01*
X77530511Y-68120814D01*
X77599043Y-68170605D01*
X77727440Y-68236027D01*
X77795458Y-68270685D01*
X77795461Y-68270686D01*
X77900286Y-68304745D01*
X78005114Y-68338805D01*
X78222843Y-68373290D01*
X78222844Y-68373290D01*
X78443286Y-68373290D01*
X78443287Y-68373290D01*
X78661016Y-68338805D01*
X78870671Y-68270685D01*
X79067087Y-68170605D01*
X79245430Y-68041032D01*
X79401307Y-67885155D01*
X79530880Y-67706812D01*
X79630960Y-67510396D01*
X79699080Y-67300741D01*
X79733565Y-67083012D01*
X79733565Y-66862568D01*
X79699080Y-66644839D01*
X79637639Y-66455739D01*
X79630961Y-66435186D01*
X79630960Y-66435183D01*
X79566188Y-66308064D01*
X79530880Y-66238768D01*
X79493104Y-66186773D01*
X79401312Y-66060431D01*
X79401308Y-66060426D01*
X79245428Y-65904546D01*
X79245423Y-65904542D01*
X79067090Y-65774977D01*
X79067089Y-65774976D01*
X79067087Y-65774975D01*
X79004161Y-65742912D01*
X78870671Y-65674894D01*
X78870668Y-65674893D01*
X78661017Y-65606775D01*
X78552151Y-65589532D01*
X78443287Y-65572290D01*
X78222843Y-65572290D01*
X78150266Y-65583785D01*
X78005112Y-65606775D01*
X77795461Y-65674893D01*
X77795458Y-65674894D01*
X77599039Y-65774977D01*
X77420706Y-65904542D01*
X77420701Y-65904546D01*
X77264821Y-66060426D01*
X77264817Y-66060431D01*
X77135252Y-66238764D01*
X77035169Y-66435183D01*
X77035168Y-66435186D01*
X76967050Y-66644837D01*
X76932565Y-66862568D01*
X69066679Y-66862568D01*
X69041936Y-66819711D01*
X68894265Y-66627262D01*
X68894260Y-66627256D01*
X68722743Y-66455739D01*
X68722736Y-66455733D01*
X68530293Y-66308067D01*
X68530292Y-66308066D01*
X68530289Y-66308064D01*
X68320212Y-66186776D01*
X68320205Y-66186773D01*
X68096104Y-66093947D01*
X67861785Y-66031161D01*
X67621289Y-65999500D01*
X67621288Y-65999500D01*
X67378712Y-65999500D01*
X67378711Y-65999500D01*
X67138214Y-66031161D01*
X66903895Y-66093947D01*
X66679794Y-66186773D01*
X66679785Y-66186777D01*
X66469706Y-66308067D01*
X66277263Y-66455733D01*
X66277256Y-66455739D01*
X66105739Y-66627256D01*
X66105733Y-66627263D01*
X65958067Y-66819706D01*
X65836777Y-67029785D01*
X65836773Y-67029794D01*
X65743947Y-67253895D01*
X65681161Y-67488214D01*
X65649500Y-67728711D01*
X62800500Y-67728711D01*
X62800500Y-63270465D01*
X73340462Y-63270465D01*
X73340462Y-63490908D01*
X73374947Y-63708639D01*
X73443065Y-63918290D01*
X73443066Y-63918293D01*
X73494567Y-64019367D01*
X73540990Y-64110476D01*
X73543149Y-64114712D01*
X73672714Y-64293045D01*
X73672718Y-64293050D01*
X73828598Y-64448930D01*
X73828603Y-64448934D01*
X73984154Y-64561947D01*
X74006940Y-64578502D01*
X74135337Y-64643924D01*
X74203355Y-64678582D01*
X74203358Y-64678583D01*
X74308183Y-64712642D01*
X74413011Y-64746702D01*
X74630740Y-64781187D01*
X74630741Y-64781187D01*
X74851183Y-64781187D01*
X74851184Y-64781187D01*
X75068913Y-64746702D01*
X75278568Y-64678582D01*
X75474984Y-64578502D01*
X75653327Y-64448929D01*
X75809204Y-64293052D01*
X75938777Y-64114709D01*
X76038857Y-63918293D01*
X76106977Y-63708638D01*
X76141462Y-63490909D01*
X76141462Y-63270465D01*
X76106977Y-63052736D01*
X76072917Y-62947908D01*
X76038858Y-62843083D01*
X76038857Y-62843080D01*
X75981346Y-62730211D01*
X75938777Y-62646665D01*
X75922222Y-62623879D01*
X75809209Y-62468328D01*
X75809205Y-62468323D01*
X75653325Y-62312443D01*
X75653320Y-62312439D01*
X75474987Y-62182874D01*
X75474986Y-62182873D01*
X75474984Y-62182872D01*
X75412058Y-62150809D01*
X75278568Y-62082791D01*
X75278565Y-62082790D01*
X75068914Y-62014672D01*
X74960048Y-61997429D01*
X74851184Y-61980187D01*
X74630740Y-61980187D01*
X74558163Y-61991682D01*
X74413009Y-62014672D01*
X74203358Y-62082790D01*
X74203355Y-62082791D01*
X74006936Y-62182874D01*
X73828603Y-62312439D01*
X73828598Y-62312443D01*
X73672718Y-62468323D01*
X73672714Y-62468328D01*
X73543149Y-62646661D01*
X73443066Y-62843080D01*
X73443065Y-62843083D01*
X73374947Y-63052734D01*
X73340462Y-63270465D01*
X62800500Y-63270465D01*
X62800500Y-56380993D01*
X70229474Y-56380993D01*
X70229474Y-58076728D01*
X70229475Y-58076734D01*
X70235882Y-58136341D01*
X70286176Y-58271186D01*
X70286180Y-58271193D01*
X70372426Y-58386402D01*
X70372429Y-58386405D01*
X70487638Y-58472651D01*
X70487645Y-58472655D01*
X70622491Y-58522949D01*
X70622490Y-58522949D01*
X70629418Y-58523693D01*
X70682101Y-58529358D01*
X72377846Y-58529357D01*
X72437457Y-58522949D01*
X72572305Y-58472654D01*
X72687520Y-58386404D01*
X72773770Y-58271189D01*
X72824065Y-58136341D01*
X72828034Y-58099416D01*
X72854770Y-58034869D01*
X72912162Y-57995020D01*
X72981987Y-57992525D01*
X73042076Y-58028177D01*
X73051641Y-58039788D01*
X73078005Y-58076075D01*
X73222759Y-58220829D01*
X73377722Y-58333414D01*
X73388363Y-58341145D01*
X73472838Y-58384187D01*
X73570749Y-58434076D01*
X73570751Y-58434076D01*
X73570754Y-58434078D01*
X73675110Y-58467985D01*
X73765438Y-58497335D01*
X73866530Y-58513346D01*
X73967621Y-58529358D01*
X73967622Y-58529358D01*
X74172324Y-58529358D01*
X74172325Y-58529358D01*
X74374507Y-58497335D01*
X74569192Y-58434078D01*
X74641796Y-58397083D01*
X74710463Y-58384187D01*
X74775204Y-58410463D01*
X74785771Y-58419887D01*
X78157137Y-61791254D01*
X78190622Y-61852577D01*
X78185638Y-61922269D01*
X78143766Y-61978202D01*
X78088855Y-62001408D01*
X78005112Y-62014672D01*
X77795461Y-62082790D01*
X77795458Y-62082791D01*
X77599039Y-62182874D01*
X77420706Y-62312439D01*
X77420701Y-62312443D01*
X77264821Y-62468323D01*
X77264817Y-62468328D01*
X77135252Y-62646661D01*
X77035169Y-62843080D01*
X77035168Y-62843083D01*
X76967050Y-63052734D01*
X76932565Y-63270465D01*
X76932565Y-63490908D01*
X76967050Y-63708639D01*
X77035168Y-63918290D01*
X77035169Y-63918293D01*
X77086670Y-64019367D01*
X77133093Y-64110476D01*
X77135252Y-64114712D01*
X77264817Y-64293045D01*
X77264821Y-64293050D01*
X77420701Y-64448930D01*
X77420706Y-64448934D01*
X77576257Y-64561947D01*
X77599043Y-64578502D01*
X77727440Y-64643924D01*
X77795458Y-64678582D01*
X77795461Y-64678583D01*
X77900286Y-64712642D01*
X78005114Y-64746702D01*
X78222843Y-64781187D01*
X78222844Y-64781187D01*
X78443286Y-64781187D01*
X78443287Y-64781187D01*
X78661016Y-64746702D01*
X78870671Y-64678582D01*
X79067087Y-64578502D01*
X79245430Y-64448929D01*
X79401307Y-64293052D01*
X79530880Y-64114709D01*
X79630960Y-63918293D01*
X79699080Y-63708638D01*
X79712343Y-63624896D01*
X79742272Y-63561762D01*
X79801583Y-63524830D01*
X79871445Y-63525828D01*
X79922496Y-63556612D01*
X81287750Y-64921867D01*
X81287752Y-64921868D01*
X81287756Y-64921871D01*
X81424675Y-65000920D01*
X81424682Y-65000924D01*
X81577409Y-65041848D01*
X81577411Y-65041848D01*
X81743120Y-65041848D01*
X81743136Y-65041847D01*
X82261930Y-65041847D01*
X82328969Y-65061532D01*
X82349611Y-65078166D01*
X82433861Y-65162416D01*
X82467346Y-65223739D01*
X82470180Y-65250097D01*
X82470180Y-67607369D01*
X82470179Y-67607387D01*
X82470179Y-67773093D01*
X82470178Y-67773093D01*
X82498345Y-67878210D01*
X82511103Y-67925824D01*
X82537352Y-67971288D01*
X82577619Y-68041033D01*
X82590159Y-68062753D01*
X82590161Y-68062756D01*
X82709029Y-68181624D01*
X82709035Y-68181629D01*
X86973720Y-72446314D01*
X87007205Y-72507637D01*
X87007656Y-72509803D01*
X87038556Y-72665145D01*
X87038559Y-72665155D01*
X87098897Y-72810826D01*
X87098904Y-72810839D01*
X87186505Y-72941942D01*
X87186508Y-72941946D01*
X87298002Y-73053440D01*
X87298006Y-73053443D01*
X87429109Y-73141044D01*
X87429122Y-73141051D01*
X87520359Y-73178842D01*
X87574798Y-73201391D01*
X87729448Y-73232153D01*
X87729451Y-73232154D01*
X87729453Y-73232154D01*
X87887139Y-73232154D01*
X87887140Y-73232153D01*
X88041792Y-73201391D01*
X88187474Y-73141048D01*
X88318584Y-73053443D01*
X88350874Y-73021153D01*
X106799500Y-73021153D01*
X106799500Y-73178846D01*
X106830261Y-73333489D01*
X106830264Y-73333501D01*
X106890602Y-73479172D01*
X106890609Y-73479185D01*
X106978210Y-73610288D01*
X106978213Y-73610292D01*
X107089707Y-73721786D01*
X107089711Y-73721789D01*
X107220814Y-73809390D01*
X107220827Y-73809397D01*
X107366498Y-73869735D01*
X107366503Y-73869737D01*
X107521153Y-73900499D01*
X107521156Y-73900500D01*
X107521158Y-73900500D01*
X107678844Y-73900500D01*
X107678845Y-73900499D01*
X107833497Y-73869737D01*
X107979179Y-73809394D01*
X108110289Y-73721789D01*
X108221789Y-73610289D01*
X108309394Y-73479179D01*
X108369737Y-73333497D01*
X108389896Y-73232153D01*
X108400638Y-73178150D01*
X108433023Y-73116239D01*
X108434518Y-73114716D01*
X112214662Y-69334572D01*
X112275983Y-69301089D01*
X112278150Y-69300638D01*
X112336085Y-69289113D01*
X112433497Y-69269737D01*
X112579179Y-69209394D01*
X112710289Y-69121789D01*
X112821789Y-69010289D01*
X112909394Y-68879179D01*
X112969737Y-68733497D01*
X113000500Y-68578842D01*
X113000500Y-68421158D01*
X113000500Y-68421155D01*
X113000499Y-68421153D01*
X112984119Y-68338805D01*
X112969737Y-68266503D01*
X112947072Y-68211785D01*
X112909397Y-68120827D01*
X112909390Y-68120814D01*
X112821789Y-67989711D01*
X112821786Y-67989707D01*
X112710292Y-67878213D01*
X112710288Y-67878210D01*
X112579185Y-67790609D01*
X112579172Y-67790602D01*
X112433501Y-67730264D01*
X112433489Y-67730261D01*
X112278845Y-67699500D01*
X112278842Y-67699500D01*
X112121158Y-67699500D01*
X112121155Y-67699500D01*
X111966510Y-67730261D01*
X111966498Y-67730264D01*
X111820827Y-67790602D01*
X111820814Y-67790609D01*
X111689711Y-67878210D01*
X111689707Y-67878213D01*
X111578213Y-67989707D01*
X111578210Y-67989711D01*
X111490609Y-68120814D01*
X111490602Y-68120827D01*
X111430264Y-68266498D01*
X111430261Y-68266508D01*
X111399361Y-68421850D01*
X111366976Y-68483761D01*
X111365425Y-68485339D01*
X107585339Y-72265425D01*
X107524016Y-72298910D01*
X107521850Y-72299361D01*
X107366508Y-72330261D01*
X107366498Y-72330264D01*
X107220827Y-72390602D01*
X107220814Y-72390609D01*
X107089711Y-72478210D01*
X107089707Y-72478213D01*
X106978213Y-72589707D01*
X106978210Y-72589711D01*
X106890609Y-72720814D01*
X106890602Y-72720827D01*
X106830264Y-72866498D01*
X106830261Y-72866510D01*
X106799500Y-73021153D01*
X88350874Y-73021153D01*
X88430084Y-72941943D01*
X88517689Y-72810833D01*
X88578032Y-72665151D01*
X88608795Y-72510496D01*
X88608795Y-72352812D01*
X88608795Y-72352809D01*
X88608794Y-72352807D01*
X88604309Y-72330261D01*
X88578032Y-72198157D01*
X88578030Y-72198152D01*
X88517692Y-72052481D01*
X88517685Y-72052468D01*
X88430084Y-71921365D01*
X88430081Y-71921361D01*
X88318587Y-71809867D01*
X88318583Y-71809864D01*
X88187480Y-71722263D01*
X88187467Y-71722256D01*
X88041796Y-71661918D01*
X88041786Y-71661915D01*
X87886444Y-71631015D01*
X87824533Y-71598630D01*
X87822955Y-71597079D01*
X83707499Y-67481623D01*
X83674014Y-67420300D01*
X83671180Y-67393942D01*
X83671180Y-65039052D01*
X83671181Y-65021104D01*
X83683467Y-64979267D01*
X83690866Y-64954072D01*
X83690869Y-64954066D01*
X83690871Y-64954064D01*
X83692079Y-64952220D01*
X83780070Y-64820532D01*
X83780070Y-64820531D01*
X83780074Y-64820526D01*
X83840417Y-64674844D01*
X83871180Y-64520189D01*
X83871318Y-64519497D01*
X83903703Y-64457586D01*
X83905198Y-64456063D01*
X87115851Y-61245411D01*
X87177172Y-61211928D01*
X87179339Y-61211477D01*
X87237274Y-61199952D01*
X87334686Y-61180576D01*
X87466250Y-61126081D01*
X87480361Y-61120236D01*
X87480361Y-61120235D01*
X87480368Y-61120233D01*
X87611478Y-61032628D01*
X87675718Y-60968388D01*
X96412316Y-60968388D01*
X96412316Y-61126081D01*
X96443077Y-61280724D01*
X96443080Y-61280736D01*
X96503418Y-61426407D01*
X96503425Y-61426420D01*
X96591418Y-61558109D01*
X96612296Y-61624786D01*
X96612316Y-61627000D01*
X96612316Y-62730211D01*
X96592631Y-62797250D01*
X96591418Y-62799102D01*
X96503425Y-62930791D01*
X96503418Y-62930804D01*
X96443080Y-63076475D01*
X96443077Y-63076487D01*
X96412316Y-63231130D01*
X96412316Y-63388823D01*
X96443077Y-63543466D01*
X96443080Y-63543478D01*
X96503418Y-63689149D01*
X96503425Y-63689162D01*
X96591026Y-63820265D01*
X96591029Y-63820269D01*
X96702523Y-63931763D01*
X96702527Y-63931766D01*
X96833630Y-64019367D01*
X96833643Y-64019374D01*
X96979314Y-64079712D01*
X96979319Y-64079714D01*
X97133969Y-64110476D01*
X97133972Y-64110477D01*
X97133974Y-64110477D01*
X97291660Y-64110477D01*
X97291661Y-64110476D01*
X97446313Y-64079714D01*
X97591995Y-64019371D01*
X97723105Y-63931766D01*
X97834605Y-63820266D01*
X97922210Y-63689156D01*
X97982553Y-63543474D01*
X98013316Y-63388819D01*
X98013316Y-63231135D01*
X98013316Y-63231132D01*
X98013315Y-63231130D01*
X97982554Y-63076487D01*
X97982553Y-63076480D01*
X97972717Y-63052734D01*
X97922213Y-62930804D01*
X97922206Y-62930791D01*
X97834214Y-62799102D01*
X97813336Y-62732424D01*
X97813316Y-62730211D01*
X97813316Y-61627000D01*
X97833001Y-61559961D01*
X97834214Y-61558109D01*
X97922206Y-61426420D01*
X97922206Y-61426419D01*
X97922210Y-61426414D01*
X97982553Y-61280732D01*
X98013316Y-61126077D01*
X98013316Y-60968393D01*
X98013316Y-60968390D01*
X98013315Y-60968388D01*
X97982554Y-60813745D01*
X97982553Y-60813738D01*
X97982551Y-60813733D01*
X97922213Y-60668062D01*
X97922206Y-60668049D01*
X97834605Y-60536946D01*
X97834602Y-60536942D01*
X97723108Y-60425448D01*
X97723104Y-60425445D01*
X97592001Y-60337844D01*
X97591988Y-60337837D01*
X97446317Y-60277499D01*
X97446305Y-60277496D01*
X97291661Y-60246735D01*
X97291658Y-60246735D01*
X97133974Y-60246735D01*
X97133971Y-60246735D01*
X96979326Y-60277496D01*
X96979314Y-60277499D01*
X96833643Y-60337837D01*
X96833630Y-60337844D01*
X96702527Y-60425445D01*
X96702523Y-60425448D01*
X96591029Y-60536942D01*
X96591026Y-60536946D01*
X96503425Y-60668049D01*
X96503418Y-60668062D01*
X96443080Y-60813733D01*
X96443077Y-60813745D01*
X96412316Y-60968388D01*
X87675718Y-60968388D01*
X87722978Y-60921128D01*
X87810583Y-60790018D01*
X87870926Y-60644336D01*
X87901689Y-60489681D01*
X87901689Y-60331997D01*
X87901689Y-60331994D01*
X87901688Y-60331992D01*
X87870926Y-60177342D01*
X87870924Y-60177337D01*
X87810586Y-60031666D01*
X87810579Y-60031653D01*
X87722978Y-59900550D01*
X87722975Y-59900546D01*
X87611481Y-59789052D01*
X87611477Y-59789049D01*
X87480374Y-59701448D01*
X87480361Y-59701441D01*
X87334690Y-59641103D01*
X87334678Y-59641100D01*
X87180034Y-59610339D01*
X87180031Y-59610339D01*
X87022347Y-59610339D01*
X87022344Y-59610339D01*
X86867699Y-59641100D01*
X86867687Y-59641103D01*
X86722016Y-59701441D01*
X86722003Y-59701448D01*
X86590900Y-59789049D01*
X86590896Y-59789052D01*
X86479402Y-59900546D01*
X86479399Y-59900550D01*
X86391798Y-60031653D01*
X86391791Y-60031666D01*
X86331453Y-60177337D01*
X86331450Y-60177347D01*
X86300551Y-60332687D01*
X86268166Y-60394598D01*
X86266615Y-60396176D01*
X83056019Y-63606772D01*
X82994696Y-63640257D01*
X82992530Y-63640708D01*
X82837188Y-63671608D01*
X82837178Y-63671611D01*
X82691507Y-63731949D01*
X82691494Y-63731956D01*
X82559805Y-63819949D01*
X82493127Y-63840827D01*
X82490914Y-63840847D01*
X81956564Y-63840847D01*
X81889525Y-63821162D01*
X81868883Y-63804528D01*
X79345079Y-61280724D01*
X76782012Y-58717658D01*
X76748528Y-58656336D01*
X76753512Y-58586644D01*
X76795384Y-58530711D01*
X76850295Y-58507505D01*
X76914509Y-58497335D01*
X77109194Y-58434078D01*
X77291585Y-58341145D01*
X77387876Y-58271186D01*
X77457188Y-58220829D01*
X77457190Y-58220826D01*
X77457194Y-58220824D01*
X77601941Y-58076077D01*
X77601943Y-58076073D01*
X77601946Y-58076071D01*
X77722261Y-57910469D01*
X77722395Y-57910207D01*
X77769490Y-57817777D01*
X77817463Y-57766983D01*
X77885284Y-57750187D01*
X77951419Y-57772724D01*
X77990459Y-57817778D01*
X78037689Y-57910471D01*
X78158002Y-58076071D01*
X78302760Y-58220829D01*
X78457723Y-58333414D01*
X78468364Y-58341145D01*
X78552839Y-58384187D01*
X78650750Y-58434076D01*
X78650752Y-58434076D01*
X78650755Y-58434078D01*
X78755111Y-58467985D01*
X78845439Y-58497335D01*
X78946531Y-58513346D01*
X79047622Y-58529358D01*
X79047623Y-58529358D01*
X79252325Y-58529358D01*
X79252326Y-58529358D01*
X79454508Y-58497335D01*
X79649193Y-58434078D01*
X79831584Y-58341145D01*
X79927875Y-58271186D01*
X79997187Y-58220829D01*
X79997189Y-58220826D01*
X79997193Y-58220824D01*
X80141940Y-58076077D01*
X80141942Y-58076073D01*
X80141945Y-58076071D01*
X80262258Y-57910472D01*
X80262260Y-57910469D01*
X80262261Y-57910468D01*
X80309490Y-57817775D01*
X80357463Y-57766981D01*
X80425284Y-57750186D01*
X80491419Y-57772723D01*
X80530457Y-57817775D01*
X80530460Y-57817779D01*
X80577689Y-57910472D01*
X80698002Y-58076071D01*
X80842760Y-58220829D01*
X80997723Y-58333414D01*
X81008364Y-58341145D01*
X81092839Y-58384187D01*
X81190750Y-58434076D01*
X81190752Y-58434076D01*
X81190755Y-58434078D01*
X81295111Y-58467985D01*
X81385439Y-58497335D01*
X81486531Y-58513346D01*
X81587622Y-58529358D01*
X81587623Y-58529358D01*
X81792325Y-58529358D01*
X81792326Y-58529358D01*
X81994508Y-58497335D01*
X82189193Y-58434078D01*
X82371584Y-58341145D01*
X82467875Y-58271186D01*
X82537187Y-58220829D01*
X82537189Y-58220826D01*
X82537193Y-58220824D01*
X82681940Y-58076077D01*
X82681942Y-58076073D01*
X82681945Y-58076071D01*
X82802258Y-57910472D01*
X82802260Y-57910469D01*
X82802261Y-57910468D01*
X82849490Y-57817775D01*
X82897463Y-57766981D01*
X82965284Y-57750186D01*
X83031419Y-57772723D01*
X83070457Y-57817775D01*
X83070460Y-57817779D01*
X83117689Y-57910472D01*
X83238002Y-58076071D01*
X83382760Y-58220829D01*
X83537723Y-58333414D01*
X83548364Y-58341145D01*
X83632839Y-58384187D01*
X83730750Y-58434076D01*
X83730752Y-58434076D01*
X83730755Y-58434078D01*
X83835111Y-58467985D01*
X83925439Y-58497335D01*
X84026531Y-58513346D01*
X84127622Y-58529358D01*
X84127623Y-58529358D01*
X84332325Y-58529358D01*
X84332326Y-58529358D01*
X84534508Y-58497335D01*
X84729193Y-58434078D01*
X84911584Y-58341145D01*
X85007875Y-58271186D01*
X85077187Y-58220829D01*
X85077189Y-58220826D01*
X85077193Y-58220824D01*
X85221940Y-58076077D01*
X85221942Y-58076073D01*
X85221945Y-58076071D01*
X85342260Y-57910469D01*
X85342394Y-57910207D01*
X85389489Y-57817777D01*
X85437462Y-57766983D01*
X85505283Y-57750187D01*
X85571418Y-57772724D01*
X85610458Y-57817778D01*
X85657688Y-57910471D01*
X85778001Y-58076071D01*
X85922759Y-58220829D01*
X86077722Y-58333414D01*
X86088363Y-58341145D01*
X86172838Y-58384187D01*
X86270749Y-58434076D01*
X86270751Y-58434076D01*
X86270754Y-58434078D01*
X86375110Y-58467985D01*
X86465438Y-58497335D01*
X86566530Y-58513346D01*
X86667621Y-58529358D01*
X86667622Y-58529358D01*
X86872324Y-58529358D01*
X86872325Y-58529358D01*
X87074507Y-58497335D01*
X87269192Y-58434078D01*
X87451583Y-58341145D01*
X87547874Y-58271186D01*
X87617186Y-58220829D01*
X87617188Y-58220826D01*
X87617192Y-58220824D01*
X87761939Y-58076077D01*
X87761941Y-58076073D01*
X87761944Y-58076071D01*
X87882259Y-57910469D01*
X87882260Y-57910468D01*
X87929489Y-57817775D01*
X87977462Y-57766981D01*
X88045283Y-57750185D01*
X88111418Y-57772722D01*
X88150458Y-57817776D01*
X88197689Y-57910471D01*
X88318002Y-58076071D01*
X88462760Y-58220829D01*
X88617723Y-58333414D01*
X88628364Y-58341145D01*
X88712839Y-58384187D01*
X88810750Y-58434076D01*
X88810752Y-58434076D01*
X88810755Y-58434078D01*
X88915111Y-58467985D01*
X89005439Y-58497335D01*
X89106531Y-58513346D01*
X89207622Y-58529358D01*
X89207623Y-58529358D01*
X89412325Y-58529358D01*
X89412326Y-58529358D01*
X89614508Y-58497335D01*
X89809193Y-58434078D01*
X89991584Y-58341145D01*
X90087875Y-58271186D01*
X90157187Y-58220829D01*
X90157189Y-58220826D01*
X90157193Y-58220824D01*
X90301940Y-58076077D01*
X90301942Y-58076073D01*
X90301945Y-58076071D01*
X90422258Y-57910472D01*
X90422260Y-57910469D01*
X90422261Y-57910468D01*
X90469490Y-57817775D01*
X90517463Y-57766981D01*
X90585284Y-57750186D01*
X90651419Y-57772723D01*
X90690457Y-57817775D01*
X90690460Y-57817779D01*
X90737689Y-57910472D01*
X90858002Y-58076071D01*
X91002760Y-58220829D01*
X91157723Y-58333414D01*
X91168364Y-58341145D01*
X91252839Y-58384187D01*
X91350750Y-58434076D01*
X91350752Y-58434076D01*
X91350755Y-58434078D01*
X91455111Y-58467985D01*
X91545439Y-58497335D01*
X91646531Y-58513346D01*
X91747622Y-58529358D01*
X91747623Y-58529358D01*
X91952325Y-58529358D01*
X91952326Y-58529358D01*
X92154508Y-58497335D01*
X92349193Y-58434078D01*
X92531584Y-58341145D01*
X92627875Y-58271186D01*
X92697187Y-58220829D01*
X92697189Y-58220826D01*
X92697193Y-58220824D01*
X92841940Y-58076077D01*
X92841942Y-58076073D01*
X92841945Y-58076071D01*
X92962258Y-57910472D01*
X92962260Y-57910469D01*
X92962261Y-57910468D01*
X93009490Y-57817775D01*
X93057463Y-57766981D01*
X93125284Y-57750186D01*
X93191419Y-57772723D01*
X93230457Y-57817775D01*
X93230460Y-57817779D01*
X93277689Y-57910472D01*
X93398002Y-58076071D01*
X93542760Y-58220829D01*
X93697723Y-58333414D01*
X93708364Y-58341145D01*
X93792839Y-58384187D01*
X93890750Y-58434076D01*
X93890752Y-58434076D01*
X93890755Y-58434078D01*
X93995111Y-58467985D01*
X94085439Y-58497335D01*
X94186531Y-58513346D01*
X94287622Y-58529358D01*
X94287623Y-58529358D01*
X94492325Y-58529358D01*
X94492326Y-58529358D01*
X94694508Y-58497335D01*
X94889193Y-58434078D01*
X95071584Y-58341145D01*
X95167875Y-58271186D01*
X95237187Y-58220829D01*
X95237189Y-58220826D01*
X95237193Y-58220824D01*
X95381940Y-58076077D01*
X95381942Y-58076073D01*
X95381945Y-58076071D01*
X95502260Y-57910469D01*
X95502394Y-57910207D01*
X95549489Y-57817777D01*
X95597462Y-57766983D01*
X95665283Y-57750187D01*
X95731418Y-57772724D01*
X95770458Y-57817778D01*
X95817688Y-57910471D01*
X95938001Y-58076071D01*
X96082759Y-58220829D01*
X96237722Y-58333414D01*
X96248363Y-58341145D01*
X96332838Y-58384187D01*
X96430749Y-58434076D01*
X96430751Y-58434076D01*
X96430754Y-58434078D01*
X96535110Y-58467985D01*
X96625438Y-58497335D01*
X96726530Y-58513346D01*
X96827621Y-58529358D01*
X96827622Y-58529358D01*
X97032324Y-58529358D01*
X97032325Y-58529358D01*
X97234507Y-58497335D01*
X97429192Y-58434078D01*
X97611583Y-58341145D01*
X97707874Y-58271186D01*
X97777186Y-58220829D01*
X97777188Y-58220826D01*
X97777192Y-58220824D01*
X97921939Y-58076077D01*
X97921941Y-58076073D01*
X97921944Y-58076071D01*
X97980830Y-57995020D01*
X98042260Y-57910468D01*
X98089489Y-57817775D01*
X98137464Y-57766980D01*
X98205285Y-57750185D01*
X98271420Y-57772722D01*
X98310459Y-57817776D01*
X98357690Y-57910471D01*
X98478003Y-58076071D01*
X98622761Y-58220829D01*
X98777724Y-58333414D01*
X98788365Y-58341145D01*
X98872840Y-58384187D01*
X98970751Y-58434076D01*
X98970753Y-58434076D01*
X98970756Y-58434078D01*
X99075112Y-58467985D01*
X99165440Y-58497335D01*
X99266532Y-58513346D01*
X99367623Y-58529358D01*
X99367624Y-58529358D01*
X99572326Y-58529358D01*
X99572327Y-58529358D01*
X99774509Y-58497335D01*
X99969194Y-58434078D01*
X100151585Y-58341145D01*
X100247876Y-58271186D01*
X100317188Y-58220829D01*
X100317190Y-58220826D01*
X100317194Y-58220824D01*
X100461941Y-58076077D01*
X100461943Y-58076073D01*
X100461946Y-58076071D01*
X100582261Y-57910469D01*
X100582395Y-57910207D01*
X100629490Y-57817777D01*
X100677463Y-57766983D01*
X100745284Y-57750187D01*
X100811419Y-57772724D01*
X100850459Y-57817778D01*
X100897689Y-57910471D01*
X101018002Y-58076071D01*
X101162760Y-58220829D01*
X101317723Y-58333414D01*
X101328364Y-58341145D01*
X101412839Y-58384187D01*
X101510750Y-58434076D01*
X101510752Y-58434076D01*
X101510755Y-58434078D01*
X101615111Y-58467985D01*
X101705439Y-58497335D01*
X101806531Y-58513346D01*
X101907622Y-58529358D01*
X101907623Y-58529358D01*
X102112325Y-58529358D01*
X102112326Y-58529358D01*
X102314508Y-58497335D01*
X102509193Y-58434078D01*
X102691584Y-58341145D01*
X102787875Y-58271186D01*
X102857187Y-58220829D01*
X102857189Y-58220826D01*
X102857193Y-58220824D01*
X103001940Y-58076077D01*
X103001942Y-58076073D01*
X103001945Y-58076071D01*
X103122258Y-57910472D01*
X103122260Y-57910469D01*
X103122261Y-57910468D01*
X103169490Y-57817775D01*
X103217463Y-57766981D01*
X103285284Y-57750186D01*
X103351419Y-57772723D01*
X103390457Y-57817775D01*
X103390460Y-57817779D01*
X103437689Y-57910472D01*
X103558002Y-58076071D01*
X103702760Y-58220829D01*
X103857723Y-58333414D01*
X103868364Y-58341145D01*
X103952839Y-58384187D01*
X104050750Y-58434076D01*
X104050752Y-58434076D01*
X104050755Y-58434078D01*
X104155111Y-58467985D01*
X104245439Y-58497335D01*
X104346531Y-58513346D01*
X104447622Y-58529358D01*
X104447623Y-58529358D01*
X104652325Y-58529358D01*
X104652326Y-58529358D01*
X104854508Y-58497335D01*
X105049193Y-58434078D01*
X105231584Y-58341145D01*
X105327875Y-58271186D01*
X105397187Y-58220829D01*
X105397189Y-58220826D01*
X105397193Y-58220824D01*
X105541940Y-58076077D01*
X105541942Y-58076073D01*
X105541945Y-58076071D01*
X105662258Y-57910472D01*
X105662260Y-57910469D01*
X105662261Y-57910468D01*
X105709490Y-57817775D01*
X105757463Y-57766981D01*
X105825284Y-57750186D01*
X105891419Y-57772723D01*
X105930457Y-57817775D01*
X105930460Y-57817779D01*
X105977689Y-57910472D01*
X106098002Y-58076071D01*
X106242760Y-58220829D01*
X106397723Y-58333414D01*
X106408364Y-58341145D01*
X106492839Y-58384187D01*
X106590750Y-58434076D01*
X106590752Y-58434076D01*
X106590755Y-58434078D01*
X106695111Y-58467985D01*
X106785439Y-58497335D01*
X106886531Y-58513346D01*
X106987622Y-58529358D01*
X106987623Y-58529358D01*
X107192325Y-58529358D01*
X107192326Y-58529358D01*
X107394508Y-58497335D01*
X107589193Y-58434078D01*
X107771584Y-58341145D01*
X107867875Y-58271186D01*
X107937187Y-58220829D01*
X107937189Y-58220826D01*
X107937193Y-58220824D01*
X108081940Y-58076077D01*
X108081942Y-58076073D01*
X108081945Y-58076071D01*
X108202260Y-57910469D01*
X108202261Y-57910468D01*
X108249490Y-57817775D01*
X108297463Y-57766981D01*
X108365284Y-57750185D01*
X108431419Y-57772722D01*
X108470459Y-57817776D01*
X108517690Y-57910471D01*
X108638003Y-58076071D01*
X108782761Y-58220829D01*
X108937724Y-58333414D01*
X108948365Y-58341145D01*
X109032840Y-58384187D01*
X109130751Y-58434076D01*
X109130753Y-58434076D01*
X109130756Y-58434078D01*
X109235112Y-58467985D01*
X109325440Y-58497335D01*
X109426532Y-58513346D01*
X109527623Y-58529358D01*
X109527624Y-58529358D01*
X109732326Y-58529358D01*
X109732327Y-58529358D01*
X109934509Y-58497335D01*
X110129194Y-58434078D01*
X110311585Y-58341145D01*
X110407876Y-58271186D01*
X110477188Y-58220829D01*
X110477190Y-58220826D01*
X110477194Y-58220824D01*
X110621941Y-58076077D01*
X110621943Y-58076073D01*
X110621946Y-58076071D01*
X110742261Y-57910469D01*
X110742395Y-57910207D01*
X110789490Y-57817777D01*
X110837463Y-57766983D01*
X110905284Y-57750187D01*
X110971419Y-57772724D01*
X111010459Y-57817778D01*
X111057689Y-57910471D01*
X111178002Y-58076071D01*
X111322760Y-58220829D01*
X111477723Y-58333414D01*
X111488364Y-58341145D01*
X111572839Y-58384187D01*
X111670750Y-58434076D01*
X111670752Y-58434076D01*
X111670755Y-58434078D01*
X111775111Y-58467985D01*
X111865439Y-58497335D01*
X111966531Y-58513346D01*
X112067622Y-58529358D01*
X112067623Y-58529358D01*
X112272325Y-58529358D01*
X112272326Y-58529358D01*
X112474508Y-58497335D01*
X112669193Y-58434078D01*
X112851584Y-58341145D01*
X112947875Y-58271186D01*
X113017187Y-58220829D01*
X113017189Y-58220826D01*
X113017193Y-58220824D01*
X113161940Y-58076077D01*
X113161942Y-58076073D01*
X113161945Y-58076071D01*
X113282258Y-57910472D01*
X113282260Y-57910469D01*
X113282261Y-57910468D01*
X113329490Y-57817775D01*
X113377463Y-57766981D01*
X113445284Y-57750186D01*
X113511419Y-57772723D01*
X113550457Y-57817775D01*
X113550460Y-57817779D01*
X113597689Y-57910472D01*
X113718002Y-58076071D01*
X113862760Y-58220829D01*
X114017723Y-58333414D01*
X114028364Y-58341145D01*
X114112839Y-58384187D01*
X114210750Y-58434076D01*
X114210752Y-58434076D01*
X114210755Y-58434078D01*
X114315111Y-58467985D01*
X114405439Y-58497335D01*
X114506531Y-58513346D01*
X114607622Y-58529358D01*
X114607623Y-58529358D01*
X114812325Y-58529358D01*
X114812326Y-58529358D01*
X115014508Y-58497335D01*
X115209193Y-58434078D01*
X115391584Y-58341145D01*
X115487875Y-58271186D01*
X115557187Y-58220829D01*
X115557189Y-58220826D01*
X115557193Y-58220824D01*
X115701940Y-58076077D01*
X115701942Y-58076073D01*
X115701945Y-58076071D01*
X115822258Y-57910472D01*
X115822260Y-57910469D01*
X115822261Y-57910468D01*
X115869490Y-57817775D01*
X115917463Y-57766981D01*
X115985284Y-57750186D01*
X116051419Y-57772723D01*
X116090457Y-57817775D01*
X116090460Y-57817779D01*
X116137689Y-57910472D01*
X116258002Y-58076071D01*
X116402760Y-58220829D01*
X116557723Y-58333414D01*
X116568364Y-58341145D01*
X116652839Y-58384187D01*
X116750750Y-58434076D01*
X116750752Y-58434076D01*
X116750755Y-58434078D01*
X116855111Y-58467985D01*
X116945439Y-58497335D01*
X117046531Y-58513346D01*
X117147622Y-58529358D01*
X117147623Y-58529358D01*
X117352325Y-58529358D01*
X117352326Y-58529358D01*
X117554508Y-58497335D01*
X117749193Y-58434078D01*
X117931584Y-58341145D01*
X118027875Y-58271186D01*
X118097187Y-58220829D01*
X118097189Y-58220826D01*
X118097193Y-58220824D01*
X118241940Y-58076077D01*
X118241942Y-58076073D01*
X118241945Y-58076071D01*
X118362260Y-57910469D01*
X118362394Y-57910207D01*
X118409489Y-57817777D01*
X118457462Y-57766983D01*
X118525283Y-57750187D01*
X118591418Y-57772724D01*
X118630458Y-57817778D01*
X118677688Y-57910471D01*
X118798001Y-58076071D01*
X118942759Y-58220829D01*
X119097722Y-58333414D01*
X119108363Y-58341145D01*
X119192838Y-58384187D01*
X119290749Y-58434076D01*
X119290751Y-58434076D01*
X119290754Y-58434078D01*
X119395110Y-58467985D01*
X119485438Y-58497335D01*
X119586530Y-58513346D01*
X119687621Y-58529358D01*
X119687622Y-58529358D01*
X119892324Y-58529358D01*
X119892325Y-58529358D01*
X120094507Y-58497335D01*
X120289192Y-58434078D01*
X120471583Y-58341145D01*
X120567874Y-58271186D01*
X120637186Y-58220829D01*
X120637188Y-58220826D01*
X120637192Y-58220824D01*
X120781939Y-58076077D01*
X120781941Y-58076073D01*
X120781944Y-58076071D01*
X120840830Y-57995020D01*
X120902260Y-57910468D01*
X120949489Y-57817775D01*
X120997464Y-57766980D01*
X121065285Y-57750185D01*
X121131420Y-57772722D01*
X121170459Y-57817776D01*
X121217690Y-57910471D01*
X121338003Y-58076071D01*
X121482761Y-58220829D01*
X121637724Y-58333414D01*
X121648365Y-58341145D01*
X121732840Y-58384187D01*
X121830751Y-58434076D01*
X121830753Y-58434076D01*
X121830756Y-58434078D01*
X121935112Y-58467985D01*
X122025440Y-58497335D01*
X122126532Y-58513346D01*
X122227623Y-58529358D01*
X122227624Y-58529358D01*
X122432326Y-58529358D01*
X122432327Y-58529358D01*
X122634509Y-58497335D01*
X122829194Y-58434078D01*
X123011585Y-58341145D01*
X123107876Y-58271186D01*
X123177188Y-58220829D01*
X123177190Y-58220826D01*
X123177194Y-58220824D01*
X123321941Y-58076077D01*
X123321943Y-58076073D01*
X123321946Y-58076071D01*
X123442261Y-57910469D01*
X123442395Y-57910207D01*
X123489769Y-57817229D01*
X123537743Y-57766433D01*
X123605564Y-57749638D01*
X123671699Y-57772175D01*
X123710739Y-57817229D01*
X123758114Y-57910207D01*
X123878391Y-58075752D01*
X123878391Y-58075753D01*
X124023078Y-58220440D01*
X124188624Y-58340717D01*
X124370942Y-58433612D01*
X124565552Y-58496846D01*
X124619974Y-58505465D01*
X124619974Y-57690737D01*
X124667332Y-57718080D01*
X124800856Y-57753858D01*
X124939092Y-57753858D01*
X125072616Y-57718080D01*
X125119974Y-57690737D01*
X125119974Y-58505464D01*
X125174395Y-58496846D01*
X125369005Y-58433612D01*
X125551323Y-58340717D01*
X125716868Y-58220440D01*
X125716869Y-58220440D01*
X125861556Y-58075753D01*
X125861556Y-58075752D01*
X125981833Y-57910207D01*
X126074729Y-57727887D01*
X126137964Y-57533271D01*
X126146583Y-57478858D01*
X125331854Y-57478858D01*
X125359196Y-57431500D01*
X125394974Y-57297976D01*
X125394974Y-57159740D01*
X125359196Y-57026216D01*
X125331854Y-56978858D01*
X126146583Y-56978858D01*
X126137964Y-56924444D01*
X126074729Y-56729828D01*
X125981833Y-56547508D01*
X125861556Y-56381963D01*
X125861556Y-56381962D01*
X125716869Y-56237275D01*
X125551323Y-56116998D01*
X125369003Y-56024102D01*
X125174387Y-55960867D01*
X125119974Y-55952248D01*
X125119974Y-56766978D01*
X125072616Y-56739636D01*
X124939092Y-56703858D01*
X124800856Y-56703858D01*
X124667332Y-56739636D01*
X124619974Y-56766978D01*
X124619974Y-55952248D01*
X124565560Y-55960867D01*
X124370944Y-56024102D01*
X124188624Y-56116998D01*
X124023079Y-56237275D01*
X124023078Y-56237275D01*
X123878391Y-56381962D01*
X123878391Y-56381963D01*
X123758112Y-56547511D01*
X123710738Y-56640487D01*
X123662764Y-56691282D01*
X123594942Y-56708077D01*
X123528808Y-56685539D01*
X123489769Y-56640486D01*
X123442394Y-56547508D01*
X123442262Y-56547248D01*
X123442260Y-56547245D01*
X123442259Y-56547243D01*
X123321946Y-56381644D01*
X123177188Y-56236886D01*
X123011588Y-56116573D01*
X123011587Y-56116572D01*
X123011585Y-56116571D01*
X122954628Y-56087549D01*
X122829198Y-56023639D01*
X122634509Y-55960380D01*
X122459970Y-55932736D01*
X122432327Y-55928358D01*
X122227623Y-55928358D01*
X122203304Y-55932209D01*
X122025440Y-55960380D01*
X121830751Y-56023639D01*
X121648361Y-56116573D01*
X121482761Y-56236886D01*
X121338003Y-56381644D01*
X121217687Y-56547247D01*
X121217686Y-56547249D01*
X121170458Y-56639939D01*
X121122484Y-56690735D01*
X121054663Y-56707530D01*
X120988528Y-56684992D01*
X120949490Y-56639939D01*
X120902261Y-56547249D01*
X120902260Y-56547247D01*
X120781944Y-56381644D01*
X120637186Y-56236886D01*
X120471586Y-56116573D01*
X120471585Y-56116572D01*
X120471583Y-56116571D01*
X120414626Y-56087549D01*
X120289196Y-56023639D01*
X120094507Y-55960380D01*
X119919968Y-55932736D01*
X119892325Y-55928358D01*
X119687621Y-55928358D01*
X119663302Y-55932209D01*
X119485438Y-55960380D01*
X119290749Y-56023639D01*
X119108359Y-56116573D01*
X118942759Y-56236886D01*
X118798001Y-56381644D01*
X118677685Y-56547247D01*
X118677684Y-56547249D01*
X118630457Y-56639937D01*
X118582483Y-56690733D01*
X118514662Y-56707528D01*
X118448527Y-56684990D01*
X118409488Y-56639937D01*
X118362261Y-56547249D01*
X118362261Y-56547248D01*
X118362259Y-56547245D01*
X118362258Y-56547243D01*
X118241945Y-56381644D01*
X118097187Y-56236886D01*
X117931587Y-56116573D01*
X117931586Y-56116572D01*
X117931584Y-56116571D01*
X117874627Y-56087549D01*
X117749197Y-56023639D01*
X117554508Y-55960380D01*
X117379969Y-55932736D01*
X117352326Y-55928358D01*
X117147622Y-55928358D01*
X117123303Y-55932209D01*
X116945439Y-55960380D01*
X116750750Y-56023639D01*
X116568360Y-56116573D01*
X116402760Y-56236886D01*
X116258002Y-56381644D01*
X116137689Y-56547244D01*
X116090459Y-56639938D01*
X116042484Y-56690734D01*
X115974663Y-56707529D01*
X115908528Y-56684992D01*
X115869489Y-56639938D01*
X115868857Y-56638698D01*
X115822261Y-56547248D01*
X115814530Y-56536607D01*
X115701945Y-56381644D01*
X115557187Y-56236886D01*
X115391587Y-56116573D01*
X115391586Y-56116572D01*
X115391584Y-56116571D01*
X115334627Y-56087549D01*
X115209197Y-56023639D01*
X115014508Y-55960380D01*
X114839969Y-55932736D01*
X114812326Y-55928358D01*
X114607622Y-55928358D01*
X114583303Y-55932209D01*
X114405439Y-55960380D01*
X114210750Y-56023639D01*
X114028360Y-56116573D01*
X113862760Y-56236886D01*
X113718002Y-56381644D01*
X113597689Y-56547244D01*
X113550459Y-56639938D01*
X113502484Y-56690734D01*
X113434663Y-56707529D01*
X113368528Y-56684992D01*
X113329489Y-56639938D01*
X113328857Y-56638698D01*
X113282261Y-56547248D01*
X113274530Y-56536607D01*
X113161945Y-56381644D01*
X113017187Y-56236886D01*
X112851587Y-56116573D01*
X112851586Y-56116572D01*
X112851584Y-56116571D01*
X112794627Y-56087549D01*
X112669197Y-56023639D01*
X112474508Y-55960380D01*
X112299969Y-55932736D01*
X112272326Y-55928358D01*
X112067622Y-55928358D01*
X112043303Y-55932209D01*
X111865439Y-55960380D01*
X111670750Y-56023639D01*
X111488360Y-56116573D01*
X111322760Y-56236886D01*
X111178002Y-56381644D01*
X111057686Y-56547247D01*
X111057685Y-56547249D01*
X111010458Y-56639937D01*
X110962484Y-56690733D01*
X110894663Y-56707528D01*
X110828528Y-56684990D01*
X110789489Y-56639937D01*
X110742262Y-56547249D01*
X110742262Y-56547248D01*
X110742260Y-56547245D01*
X110742259Y-56547243D01*
X110621946Y-56381644D01*
X110477188Y-56236886D01*
X110311588Y-56116573D01*
X110311587Y-56116572D01*
X110311585Y-56116571D01*
X110254628Y-56087549D01*
X110129198Y-56023639D01*
X109934509Y-55960380D01*
X109759970Y-55932736D01*
X109732327Y-55928358D01*
X109527623Y-55928358D01*
X109503304Y-55932209D01*
X109325440Y-55960380D01*
X109130751Y-56023639D01*
X108948361Y-56116573D01*
X108782761Y-56236886D01*
X108638003Y-56381644D01*
X108517687Y-56547247D01*
X108517686Y-56547249D01*
X108470458Y-56639939D01*
X108422484Y-56690735D01*
X108354663Y-56707530D01*
X108288528Y-56684992D01*
X108249489Y-56639939D01*
X108249488Y-56639938D01*
X108202261Y-56547248D01*
X108202259Y-56547245D01*
X108202258Y-56547243D01*
X108081945Y-56381644D01*
X107937187Y-56236886D01*
X107771587Y-56116573D01*
X107771586Y-56116572D01*
X107771584Y-56116571D01*
X107714627Y-56087549D01*
X107589197Y-56023639D01*
X107394508Y-55960380D01*
X107219969Y-55932736D01*
X107192326Y-55928358D01*
X106987622Y-55928358D01*
X106963303Y-55932209D01*
X106785439Y-55960380D01*
X106590750Y-56023639D01*
X106408360Y-56116573D01*
X106242760Y-56236886D01*
X106098002Y-56381644D01*
X105977689Y-56547244D01*
X105930459Y-56639938D01*
X105882484Y-56690734D01*
X105814663Y-56707529D01*
X105748528Y-56684992D01*
X105709489Y-56639938D01*
X105708857Y-56638698D01*
X105662261Y-56547248D01*
X105654530Y-56536607D01*
X105541945Y-56381644D01*
X105397187Y-56236886D01*
X105231587Y-56116573D01*
X105231586Y-56116572D01*
X105231584Y-56116571D01*
X105174627Y-56087549D01*
X105049197Y-56023639D01*
X104854508Y-55960380D01*
X104679969Y-55932736D01*
X104652326Y-55928358D01*
X104447622Y-55928358D01*
X104423303Y-55932209D01*
X104245439Y-55960380D01*
X104050750Y-56023639D01*
X103868360Y-56116573D01*
X103702760Y-56236886D01*
X103558002Y-56381644D01*
X103437689Y-56547244D01*
X103390459Y-56639938D01*
X103342484Y-56690734D01*
X103274663Y-56707529D01*
X103208528Y-56684992D01*
X103169489Y-56639938D01*
X103168857Y-56638698D01*
X103122261Y-56547248D01*
X103114530Y-56536607D01*
X103001945Y-56381644D01*
X102857187Y-56236886D01*
X102691587Y-56116573D01*
X102691586Y-56116572D01*
X102691584Y-56116571D01*
X102634627Y-56087549D01*
X102509197Y-56023639D01*
X102314508Y-55960380D01*
X102139969Y-55932736D01*
X102112326Y-55928358D01*
X101907622Y-55928358D01*
X101883303Y-55932209D01*
X101705439Y-55960380D01*
X101510750Y-56023639D01*
X101328360Y-56116573D01*
X101162760Y-56236886D01*
X101018002Y-56381644D01*
X100897686Y-56547247D01*
X100897685Y-56547249D01*
X100850458Y-56639937D01*
X100802484Y-56690733D01*
X100734663Y-56707528D01*
X100668528Y-56684990D01*
X100629489Y-56639937D01*
X100582262Y-56547249D01*
X100582262Y-56547248D01*
X100582260Y-56547245D01*
X100582259Y-56547243D01*
X100461946Y-56381644D01*
X100317188Y-56236886D01*
X100151588Y-56116573D01*
X100151587Y-56116572D01*
X100151585Y-56116571D01*
X100094628Y-56087549D01*
X99969198Y-56023639D01*
X99774509Y-55960380D01*
X99599970Y-55932736D01*
X99572327Y-55928358D01*
X99367623Y-55928358D01*
X99343304Y-55932209D01*
X99165440Y-55960380D01*
X98970751Y-56023639D01*
X98788361Y-56116573D01*
X98622761Y-56236886D01*
X98478003Y-56381644D01*
X98357687Y-56547247D01*
X98357686Y-56547249D01*
X98310458Y-56639939D01*
X98262484Y-56690735D01*
X98194663Y-56707530D01*
X98128528Y-56684992D01*
X98089490Y-56639939D01*
X98042261Y-56547249D01*
X98042260Y-56547247D01*
X97921944Y-56381644D01*
X97777186Y-56236886D01*
X97611586Y-56116573D01*
X97611585Y-56116572D01*
X97611583Y-56116571D01*
X97554626Y-56087549D01*
X97429196Y-56023639D01*
X97234507Y-55960380D01*
X97059968Y-55932736D01*
X97032325Y-55928358D01*
X96827621Y-55928358D01*
X96803302Y-55932209D01*
X96625438Y-55960380D01*
X96430749Y-56023639D01*
X96248359Y-56116573D01*
X96082759Y-56236886D01*
X95938001Y-56381644D01*
X95817685Y-56547247D01*
X95817684Y-56547249D01*
X95770457Y-56639937D01*
X95722483Y-56690733D01*
X95654662Y-56707528D01*
X95588527Y-56684990D01*
X95549488Y-56639937D01*
X95502261Y-56547249D01*
X95502261Y-56547248D01*
X95502259Y-56547245D01*
X95502258Y-56547243D01*
X95381945Y-56381644D01*
X95237187Y-56236886D01*
X95071587Y-56116573D01*
X95071586Y-56116572D01*
X95071584Y-56116571D01*
X95014627Y-56087549D01*
X94889197Y-56023639D01*
X94694508Y-55960380D01*
X94519969Y-55932736D01*
X94492326Y-55928358D01*
X94287622Y-55928358D01*
X94263303Y-55932209D01*
X94085439Y-55960380D01*
X93890750Y-56023639D01*
X93708360Y-56116573D01*
X93542760Y-56236886D01*
X93398002Y-56381644D01*
X93277689Y-56547244D01*
X93230459Y-56639938D01*
X93182484Y-56690734D01*
X93114663Y-56707529D01*
X93048528Y-56684992D01*
X93009489Y-56639938D01*
X93008857Y-56638698D01*
X92962261Y-56547248D01*
X92954530Y-56536607D01*
X92841945Y-56381644D01*
X92697187Y-56236886D01*
X92531587Y-56116573D01*
X92531586Y-56116572D01*
X92531584Y-56116571D01*
X92474627Y-56087549D01*
X92349197Y-56023639D01*
X92154508Y-55960380D01*
X91979969Y-55932736D01*
X91952326Y-55928358D01*
X91747622Y-55928358D01*
X91723303Y-55932209D01*
X91545439Y-55960380D01*
X91350750Y-56023639D01*
X91168360Y-56116573D01*
X91002760Y-56236886D01*
X90858002Y-56381644D01*
X90737689Y-56547244D01*
X90690459Y-56639938D01*
X90642484Y-56690734D01*
X90574663Y-56707529D01*
X90508528Y-56684992D01*
X90469489Y-56639938D01*
X90468857Y-56638698D01*
X90422261Y-56547248D01*
X90414530Y-56536607D01*
X90301945Y-56381644D01*
X90157187Y-56236886D01*
X89991587Y-56116573D01*
X89991586Y-56116572D01*
X89991584Y-56116571D01*
X89934627Y-56087549D01*
X89809197Y-56023639D01*
X89614508Y-55960380D01*
X89439969Y-55932736D01*
X89412326Y-55928358D01*
X89207622Y-55928358D01*
X89183303Y-55932209D01*
X89005439Y-55960380D01*
X88810750Y-56023639D01*
X88628360Y-56116573D01*
X88462760Y-56236886D01*
X88318002Y-56381644D01*
X88197686Y-56547247D01*
X88197685Y-56547249D01*
X88150457Y-56639939D01*
X88102483Y-56690735D01*
X88034662Y-56707530D01*
X87968527Y-56684992D01*
X87929488Y-56639939D01*
X87929487Y-56639938D01*
X87882260Y-56547248D01*
X87882258Y-56547245D01*
X87882257Y-56547243D01*
X87761944Y-56381644D01*
X87617186Y-56236886D01*
X87451586Y-56116573D01*
X87451585Y-56116572D01*
X87451583Y-56116571D01*
X87394626Y-56087549D01*
X87269196Y-56023639D01*
X87074507Y-55960380D01*
X86899968Y-55932736D01*
X86872325Y-55928358D01*
X86667621Y-55928358D01*
X86643302Y-55932209D01*
X86465438Y-55960380D01*
X86270749Y-56023639D01*
X86088359Y-56116573D01*
X85922759Y-56236886D01*
X85778001Y-56381644D01*
X85657685Y-56547247D01*
X85657684Y-56547249D01*
X85610457Y-56639937D01*
X85562483Y-56690733D01*
X85494662Y-56707528D01*
X85428527Y-56684990D01*
X85389488Y-56639937D01*
X85342261Y-56547249D01*
X85342261Y-56547248D01*
X85342259Y-56547245D01*
X85342258Y-56547243D01*
X85221945Y-56381644D01*
X85077187Y-56236886D01*
X84911587Y-56116573D01*
X84911586Y-56116572D01*
X84911584Y-56116571D01*
X84854627Y-56087549D01*
X84729197Y-56023639D01*
X84534508Y-55960380D01*
X84359969Y-55932736D01*
X84332326Y-55928358D01*
X84127622Y-55928358D01*
X84103303Y-55932209D01*
X83925439Y-55960380D01*
X83730750Y-56023639D01*
X83548360Y-56116573D01*
X83382760Y-56236886D01*
X83238002Y-56381644D01*
X83117689Y-56547244D01*
X83070459Y-56639938D01*
X83022484Y-56690734D01*
X82954663Y-56707529D01*
X82888528Y-56684992D01*
X82849489Y-56639938D01*
X82848857Y-56638698D01*
X82802261Y-56547248D01*
X82794530Y-56536607D01*
X82681945Y-56381644D01*
X82537187Y-56236886D01*
X82371587Y-56116573D01*
X82371586Y-56116572D01*
X82371584Y-56116571D01*
X82314627Y-56087549D01*
X82189197Y-56023639D01*
X81994508Y-55960380D01*
X81819969Y-55932736D01*
X81792326Y-55928358D01*
X81587622Y-55928358D01*
X81563303Y-55932209D01*
X81385439Y-55960380D01*
X81190750Y-56023639D01*
X81008360Y-56116573D01*
X80842760Y-56236886D01*
X80698002Y-56381644D01*
X80577689Y-56547244D01*
X80530459Y-56639938D01*
X80482484Y-56690734D01*
X80414663Y-56707529D01*
X80348528Y-56684992D01*
X80309489Y-56639938D01*
X80308857Y-56638698D01*
X80262261Y-56547248D01*
X80254530Y-56536607D01*
X80141945Y-56381644D01*
X79997187Y-56236886D01*
X79831587Y-56116573D01*
X79831586Y-56116572D01*
X79831584Y-56116571D01*
X79774627Y-56087549D01*
X79649197Y-56023639D01*
X79454508Y-55960380D01*
X79279969Y-55932736D01*
X79252326Y-55928358D01*
X79047622Y-55928358D01*
X79023303Y-55932209D01*
X78845439Y-55960380D01*
X78650750Y-56023639D01*
X78468360Y-56116573D01*
X78302760Y-56236886D01*
X78158002Y-56381644D01*
X78037686Y-56547247D01*
X78037685Y-56547249D01*
X77990458Y-56639937D01*
X77942484Y-56690733D01*
X77874663Y-56707528D01*
X77808528Y-56684990D01*
X77769489Y-56639937D01*
X77722262Y-56547249D01*
X77722262Y-56547248D01*
X77722260Y-56547245D01*
X77722259Y-56547243D01*
X77601946Y-56381644D01*
X77457188Y-56236886D01*
X77291588Y-56116573D01*
X77291587Y-56116572D01*
X77291585Y-56116571D01*
X77234628Y-56087549D01*
X77109198Y-56023639D01*
X76914509Y-55960380D01*
X76739970Y-55932736D01*
X76712327Y-55928358D01*
X76507623Y-55928358D01*
X76483304Y-55932209D01*
X76305440Y-55960380D01*
X76110751Y-56023639D01*
X75928361Y-56116573D01*
X75762761Y-56236886D01*
X75618003Y-56381644D01*
X75497687Y-56547247D01*
X75497686Y-56547249D01*
X75450458Y-56639939D01*
X75402484Y-56690735D01*
X75334663Y-56707530D01*
X75268528Y-56684992D01*
X75229490Y-56639939D01*
X75182261Y-56547249D01*
X75182260Y-56547247D01*
X75061944Y-56381644D01*
X74917186Y-56236886D01*
X74751586Y-56116573D01*
X74751585Y-56116572D01*
X74751583Y-56116571D01*
X74694626Y-56087549D01*
X74569196Y-56023639D01*
X74374507Y-55960380D01*
X74199968Y-55932736D01*
X74172325Y-55928358D01*
X73967621Y-55928358D01*
X73943302Y-55932209D01*
X73765438Y-55960380D01*
X73570749Y-56023639D01*
X73388359Y-56116573D01*
X73222759Y-56236886D01*
X73078003Y-56381642D01*
X73051640Y-56417928D01*
X72996309Y-56460593D01*
X72926696Y-56466571D01*
X72864901Y-56433964D01*
X72830545Y-56373125D01*
X72828033Y-56358292D01*
X72824065Y-56321374D01*
X72773771Y-56186529D01*
X72773767Y-56186522D01*
X72687521Y-56071313D01*
X72687518Y-56071310D01*
X72572309Y-55985064D01*
X72572302Y-55985060D01*
X72437456Y-55934766D01*
X72437457Y-55934766D01*
X72377857Y-55928359D01*
X72377855Y-55928358D01*
X72377847Y-55928358D01*
X72377838Y-55928358D01*
X70682103Y-55928358D01*
X70682097Y-55928359D01*
X70622490Y-55934766D01*
X70487645Y-55985060D01*
X70487638Y-55985064D01*
X70372429Y-56071310D01*
X70372426Y-56071313D01*
X70286180Y-56186522D01*
X70286176Y-56186529D01*
X70235882Y-56321375D01*
X70229475Y-56380974D01*
X70229474Y-56380993D01*
X62800500Y-56380993D01*
X62800500Y-49393634D01*
X126100118Y-49393634D01*
X126100118Y-49566777D01*
X126127204Y-49737791D01*
X126180704Y-49902451D01*
X126259315Y-50056732D01*
X126263827Y-50062941D01*
X126263828Y-50062942D01*
X126800118Y-49526652D01*
X126800118Y-49532867D01*
X126827377Y-49634601D01*
X126880038Y-49725812D01*
X126954512Y-49800286D01*
X127045723Y-49852947D01*
X127147457Y-49880206D01*
X127153671Y-49880206D01*
X126617381Y-50416495D01*
X126623592Y-50421009D01*
X126623591Y-50421009D01*
X126777872Y-50499619D01*
X126942532Y-50553119D01*
X127113547Y-50580206D01*
X127286689Y-50580206D01*
X127457703Y-50553119D01*
X127622363Y-50499619D01*
X127776642Y-50421010D01*
X127916719Y-50319239D01*
X128084001Y-50151957D01*
X128084001Y-50151956D01*
X127589027Y-49656982D01*
X127942580Y-49303429D01*
X128437555Y-49798403D01*
X128604837Y-49631121D01*
X128706608Y-49491044D01*
X128785217Y-49336765D01*
X128838717Y-49172105D01*
X128865804Y-49001091D01*
X128865804Y-48827948D01*
X128838717Y-48656934D01*
X128785215Y-48492268D01*
X128785212Y-48492260D01*
X128706607Y-48337993D01*
X128702094Y-48331782D01*
X128702094Y-48331781D01*
X128165805Y-48868070D01*
X128165805Y-48861859D01*
X128138545Y-48760125D01*
X128085884Y-48668914D01*
X128011410Y-48594440D01*
X127920199Y-48541779D01*
X127818465Y-48514519D01*
X127812250Y-48514519D01*
X128348540Y-47978228D01*
X128348540Y-47978226D01*
X128342335Y-47973718D01*
X128342333Y-47973717D01*
X128188058Y-47895109D01*
X128188055Y-47895108D01*
X128023389Y-47841606D01*
X127852375Y-47814520D01*
X127679233Y-47814520D01*
X127586685Y-47829178D01*
X127517391Y-47820223D01*
X127463939Y-47775227D01*
X127445670Y-47730898D01*
X127430279Y-47653518D01*
X127383127Y-47539684D01*
X127383126Y-47539683D01*
X127383123Y-47539677D01*
X127314674Y-47437237D01*
X127314671Y-47437233D01*
X127227552Y-47350114D01*
X127227548Y-47350111D01*
X127125108Y-47281662D01*
X127125099Y-47281657D01*
X127011270Y-47234508D01*
X127011271Y-47234508D01*
X127011268Y-47234507D01*
X127011264Y-47234506D01*
X127011260Y-47234505D01*
X126890426Y-47210470D01*
X126890422Y-47210470D01*
X126767210Y-47210470D01*
X126767205Y-47210470D01*
X126646371Y-47234505D01*
X126646361Y-47234508D01*
X126532532Y-47281657D01*
X126532523Y-47281662D01*
X126430083Y-47350111D01*
X126430079Y-47350114D01*
X126342960Y-47437233D01*
X126342957Y-47437237D01*
X126274508Y-47539677D01*
X126274503Y-47539686D01*
X126227354Y-47653515D01*
X126227351Y-47653525D01*
X126203316Y-47774359D01*
X126203316Y-47897580D01*
X126227351Y-48018414D01*
X126227354Y-48018424D01*
X126274503Y-48132253D01*
X126274508Y-48132262D01*
X126342957Y-48234702D01*
X126342960Y-48234706D01*
X126430082Y-48321828D01*
X126527916Y-48387198D01*
X126572721Y-48440810D01*
X126581428Y-48510135D01*
X126551274Y-48573162D01*
X126546707Y-48577981D01*
X126361082Y-48763607D01*
X126259313Y-48903681D01*
X126180704Y-49057960D01*
X126127204Y-49222620D01*
X126100118Y-49393634D01*
X62800500Y-49393634D01*
X62800500Y-46367358D01*
X129126393Y-46367358D01*
X129126393Y-46540501D01*
X129153479Y-46711515D01*
X129206979Y-46876175D01*
X129285590Y-47030457D01*
X129290102Y-47036666D01*
X129290102Y-47036667D01*
X129826393Y-46500375D01*
X129826393Y-46506591D01*
X129853652Y-46608325D01*
X129906313Y-46699536D01*
X129980787Y-46774010D01*
X130071998Y-46826671D01*
X130173732Y-46853930D01*
X130179945Y-46853930D01*
X129643654Y-47390219D01*
X129643655Y-47390220D01*
X129649863Y-47394731D01*
X129804147Y-47473343D01*
X129968807Y-47526843D01*
X130139822Y-47553930D01*
X130312964Y-47553930D01*
X130483978Y-47526843D01*
X130648638Y-47473343D01*
X130802917Y-47394734D01*
X130942994Y-47292963D01*
X131039565Y-47196391D01*
X131039565Y-47196390D01*
X130544592Y-46701417D01*
X130898144Y-46347864D01*
X131393118Y-46842838D01*
X131393119Y-46842838D01*
X131489690Y-46746267D01*
X131591461Y-46606190D01*
X131670070Y-46451911D01*
X131723570Y-46287251D01*
X131750657Y-46116237D01*
X131750657Y-45943094D01*
X131723570Y-45772080D01*
X131670070Y-45607420D01*
X131591458Y-45453136D01*
X131586947Y-45446928D01*
X131586946Y-45446927D01*
X131050657Y-45983217D01*
X131050657Y-45977005D01*
X131023398Y-45875271D01*
X130970737Y-45784060D01*
X130896263Y-45709586D01*
X130805052Y-45656925D01*
X130703318Y-45629666D01*
X130697102Y-45629666D01*
X131233394Y-45093375D01*
X131227184Y-45088863D01*
X131072902Y-45010252D01*
X130908242Y-44956752D01*
X130737228Y-44929666D01*
X130564086Y-44929666D01*
X130393071Y-44956752D01*
X130228411Y-45010252D01*
X130074128Y-45088864D01*
X129934055Y-45190632D01*
X129837484Y-45287203D01*
X130332458Y-45782178D01*
X129978905Y-46135731D01*
X129483930Y-45640757D01*
X129387359Y-45737328D01*
X129285591Y-45877401D01*
X129206979Y-46031684D01*
X129153479Y-46196344D01*
X129126393Y-46367358D01*
X62800500Y-46367358D01*
X62800500Y-43277018D01*
X119983502Y-43277018D01*
X119983502Y-43450161D01*
X120010588Y-43621175D01*
X120064088Y-43785835D01*
X120142699Y-43940116D01*
X120147211Y-43946325D01*
X120683502Y-43410034D01*
X120683502Y-43416251D01*
X120710761Y-43517985D01*
X120763422Y-43609196D01*
X120837896Y-43683670D01*
X120929107Y-43736331D01*
X121030841Y-43763590D01*
X121037055Y-43763590D01*
X120500765Y-44299879D01*
X120506976Y-44304393D01*
X120506975Y-44304393D01*
X120661256Y-44383003D01*
X120825916Y-44436503D01*
X120996931Y-44463590D01*
X121170073Y-44463590D01*
X121341087Y-44436503D01*
X121505747Y-44383003D01*
X121660026Y-44304394D01*
X121800100Y-44202625D01*
X121985724Y-44017000D01*
X122047047Y-43983515D01*
X122116739Y-43988499D01*
X122172673Y-44030370D01*
X122176508Y-44035790D01*
X122241879Y-44133624D01*
X122241882Y-44133628D01*
X122329001Y-44220747D01*
X122329005Y-44220750D01*
X122431445Y-44289199D01*
X122431451Y-44289202D01*
X122431452Y-44289203D01*
X122545286Y-44336355D01*
X122666127Y-44360391D01*
X122666131Y-44360392D01*
X122666132Y-44360392D01*
X122789345Y-44360392D01*
X122789346Y-44360391D01*
X122910190Y-44336355D01*
X123024024Y-44289203D01*
X123126471Y-44220750D01*
X123213596Y-44133625D01*
X123282049Y-44031178D01*
X123329201Y-43917344D01*
X123353238Y-43796498D01*
X123353238Y-43673286D01*
X123329201Y-43552440D01*
X123282049Y-43438606D01*
X123282048Y-43438605D01*
X123282045Y-43438599D01*
X123213596Y-43336159D01*
X123213593Y-43336155D01*
X123126474Y-43249036D01*
X123126470Y-43249033D01*
X123024030Y-43180584D01*
X123024021Y-43180579D01*
X122910192Y-43133430D01*
X122910193Y-43133430D01*
X122910190Y-43133429D01*
X122910186Y-43133428D01*
X122910182Y-43133427D01*
X122832811Y-43118037D01*
X122770900Y-43085652D01*
X122736326Y-43024937D01*
X122734529Y-42977021D01*
X122749188Y-42884473D01*
X122749188Y-42711332D01*
X122722101Y-42540318D01*
X122668599Y-42375652D01*
X122668596Y-42375644D01*
X122589991Y-42221377D01*
X122585478Y-42215166D01*
X122585478Y-42215165D01*
X122049189Y-42751455D01*
X122049189Y-42745243D01*
X122021929Y-42643509D01*
X121969268Y-42552298D01*
X121894794Y-42477824D01*
X121803583Y-42425163D01*
X121701849Y-42397903D01*
X121695634Y-42397903D01*
X122231924Y-41861612D01*
X122231924Y-41861610D01*
X122225719Y-41857102D01*
X122225717Y-41857101D01*
X122071442Y-41778493D01*
X122071439Y-41778492D01*
X121906773Y-41724990D01*
X121735759Y-41697904D01*
X121562617Y-41697904D01*
X121391602Y-41724990D01*
X121226942Y-41778490D01*
X121072663Y-41857099D01*
X120932582Y-41958873D01*
X120765304Y-42126151D01*
X120765304Y-42126152D01*
X121260278Y-42621127D01*
X120906725Y-42974680D01*
X120411750Y-42479706D01*
X120411749Y-42479706D01*
X120244471Y-42646984D01*
X120142697Y-42787065D01*
X120064088Y-42941344D01*
X120010588Y-43106004D01*
X119983502Y-43277018D01*
X62800500Y-43277018D01*
X62800500Y-40628711D01*
X112949500Y-40628711D01*
X112949500Y-40871288D01*
X112981161Y-41111785D01*
X113043947Y-41346104D01*
X113081728Y-41437315D01*
X113136776Y-41570212D01*
X113258064Y-41780289D01*
X113258066Y-41780292D01*
X113258067Y-41780293D01*
X113405733Y-41972736D01*
X113405739Y-41972743D01*
X113577256Y-42144260D01*
X113577263Y-42144266D01*
X113690321Y-42231018D01*
X113769711Y-42291936D01*
X113979788Y-42413224D01*
X114203900Y-42506054D01*
X114438211Y-42568838D01*
X114618586Y-42592584D01*
X114678711Y-42600500D01*
X114678712Y-42600500D01*
X114921289Y-42600500D01*
X114969388Y-42594167D01*
X115161789Y-42568838D01*
X115396100Y-42506054D01*
X115620212Y-42413224D01*
X115830289Y-42291936D01*
X116022738Y-42144265D01*
X116040852Y-42126151D01*
X116179896Y-41987108D01*
X116194260Y-41972743D01*
X116194265Y-41972738D01*
X116341936Y-41780289D01*
X116463224Y-41570212D01*
X116556054Y-41346100D01*
X116618838Y-41111789D01*
X116650500Y-40871288D01*
X116650500Y-40628712D01*
X116618838Y-40388211D01*
X116582003Y-40250743D01*
X123009778Y-40250743D01*
X123009778Y-40423886D01*
X123036864Y-40594900D01*
X123090364Y-40759560D01*
X123168975Y-40913842D01*
X123173487Y-40920051D01*
X123173487Y-40920052D01*
X123709778Y-40383760D01*
X123709778Y-40389976D01*
X123737037Y-40491710D01*
X123789698Y-40582921D01*
X123864172Y-40657395D01*
X123955383Y-40710056D01*
X124057117Y-40737315D01*
X124063330Y-40737315D01*
X123527039Y-41273604D01*
X123527040Y-41273605D01*
X123533248Y-41278116D01*
X123687532Y-41356728D01*
X123852192Y-41410228D01*
X124023207Y-41437315D01*
X124196349Y-41437315D01*
X124367363Y-41410228D01*
X124532023Y-41356728D01*
X124686302Y-41278119D01*
X124826379Y-41176348D01*
X124922950Y-41079776D01*
X124922950Y-41079775D01*
X124427977Y-40584802D01*
X124781529Y-40231249D01*
X125276503Y-40726223D01*
X125276504Y-40726223D01*
X125373075Y-40629652D01*
X125474846Y-40489575D01*
X125553455Y-40335296D01*
X125606955Y-40170636D01*
X125634042Y-39999622D01*
X125634042Y-39826479D01*
X125606955Y-39655465D01*
X125553455Y-39490805D01*
X125474843Y-39336521D01*
X125470332Y-39330313D01*
X125470331Y-39330312D01*
X124934042Y-39866602D01*
X124934042Y-39860390D01*
X124906783Y-39758656D01*
X124854122Y-39667445D01*
X124779648Y-39592971D01*
X124688437Y-39540310D01*
X124586703Y-39513051D01*
X124580487Y-39513051D01*
X125116779Y-38976760D01*
X125110569Y-38972248D01*
X124956287Y-38893637D01*
X124791627Y-38840137D01*
X124620613Y-38813051D01*
X124447471Y-38813051D01*
X124276456Y-38840137D01*
X124111796Y-38893637D01*
X123957513Y-38972249D01*
X123817440Y-39074017D01*
X123720869Y-39170588D01*
X124215843Y-39665563D01*
X123862290Y-40019116D01*
X123367315Y-39524142D01*
X123270744Y-39620713D01*
X123168976Y-39760786D01*
X123090364Y-39915069D01*
X123036864Y-40079729D01*
X123009778Y-40250743D01*
X116582003Y-40250743D01*
X116556054Y-40153900D01*
X116463224Y-39929788D01*
X116341936Y-39719711D01*
X116194265Y-39527262D01*
X116194260Y-39527256D01*
X116022743Y-39355739D01*
X116022736Y-39355733D01*
X115842728Y-39217609D01*
X115830289Y-39208064D01*
X115620212Y-39086776D01*
X115589409Y-39074017D01*
X115396104Y-38993947D01*
X115161785Y-38931161D01*
X114921289Y-38899500D01*
X114921288Y-38899500D01*
X114678712Y-38899500D01*
X114678711Y-38899500D01*
X114438214Y-38931161D01*
X114203895Y-38993947D01*
X113979794Y-39086773D01*
X113979785Y-39086777D01*
X113769706Y-39208067D01*
X113577263Y-39355733D01*
X113577256Y-39355739D01*
X113405739Y-39527256D01*
X113405733Y-39527263D01*
X113258067Y-39719706D01*
X113136777Y-39929785D01*
X113136773Y-39929794D01*
X113043947Y-40153895D01*
X112981161Y-40388214D01*
X112949500Y-40628711D01*
X62800500Y-40628711D01*
X62800500Y-30881013D01*
X70229974Y-30881013D01*
X70229974Y-31478858D01*
X71068094Y-31478858D01*
X71040752Y-31526216D01*
X71004974Y-31659740D01*
X71004974Y-31797976D01*
X71040752Y-31931500D01*
X71068094Y-31978858D01*
X70229974Y-31978858D01*
X70229974Y-32576702D01*
X70236375Y-32636230D01*
X70236377Y-32636237D01*
X70286619Y-32770944D01*
X70286623Y-32770951D01*
X70372783Y-32886045D01*
X70372786Y-32886048D01*
X70487880Y-32972208D01*
X70487887Y-32972212D01*
X70622594Y-33022454D01*
X70622601Y-33022456D01*
X70682129Y-33028857D01*
X70682146Y-33028858D01*
X71279974Y-33028858D01*
X71279974Y-32190737D01*
X71327332Y-32218080D01*
X71460856Y-32253858D01*
X71599092Y-32253858D01*
X71732616Y-32218080D01*
X71779974Y-32190737D01*
X71779974Y-33028858D01*
X72377802Y-33028858D01*
X72377818Y-33028857D01*
X72437346Y-33022456D01*
X72437353Y-33022454D01*
X72572060Y-32972212D01*
X72572067Y-32972208D01*
X72687161Y-32886048D01*
X72687164Y-32886045D01*
X72773324Y-32770951D01*
X72773328Y-32770944D01*
X72823570Y-32636237D01*
X72827594Y-32598815D01*
X72854332Y-32534263D01*
X72911724Y-32494415D01*
X72981550Y-32491921D01*
X73041639Y-32527573D01*
X73051203Y-32539184D01*
X73078007Y-32576077D01*
X73222759Y-32720829D01*
X73377722Y-32833414D01*
X73388363Y-32841145D01*
X73476490Y-32886048D01*
X73570749Y-32934076D01*
X73570751Y-32934076D01*
X73570754Y-32934078D01*
X73675110Y-32967985D01*
X73765438Y-32997335D01*
X73866530Y-33013346D01*
X73967621Y-33029358D01*
X73967622Y-33029358D01*
X74172324Y-33029358D01*
X74172325Y-33029358D01*
X74374507Y-32997335D01*
X74569192Y-32934078D01*
X74751583Y-32841145D01*
X74848207Y-32770944D01*
X74917186Y-32720829D01*
X74917188Y-32720826D01*
X74917192Y-32720824D01*
X75061939Y-32576077D01*
X75061941Y-32576073D01*
X75061944Y-32576071D01*
X75123081Y-32491921D01*
X75182260Y-32410468D01*
X75229489Y-32317775D01*
X75277464Y-32266980D01*
X75345285Y-32250185D01*
X75411420Y-32272722D01*
X75450459Y-32317776D01*
X75497690Y-32410471D01*
X75618003Y-32576071D01*
X75762761Y-32720829D01*
X75917724Y-32833414D01*
X75928365Y-32841145D01*
X76016492Y-32886048D01*
X76110751Y-32934076D01*
X76110753Y-32934076D01*
X76110756Y-32934078D01*
X76215112Y-32967985D01*
X76305440Y-32997335D01*
X76406532Y-33013346D01*
X76507623Y-33029358D01*
X76507624Y-33029358D01*
X76712326Y-33029358D01*
X76712327Y-33029358D01*
X76914509Y-32997335D01*
X77109194Y-32934078D01*
X77291585Y-32841145D01*
X77388209Y-32770944D01*
X77457188Y-32720829D01*
X77457190Y-32720826D01*
X77457194Y-32720824D01*
X77601941Y-32576077D01*
X77601943Y-32576073D01*
X77601946Y-32576071D01*
X77722261Y-32410469D01*
X77722395Y-32410207D01*
X77769490Y-32317777D01*
X77817463Y-32266983D01*
X77885284Y-32250187D01*
X77951419Y-32272724D01*
X77990459Y-32317778D01*
X78037689Y-32410471D01*
X78158002Y-32576071D01*
X78302760Y-32720829D01*
X78457723Y-32833414D01*
X78468364Y-32841145D01*
X78556491Y-32886048D01*
X78650750Y-32934076D01*
X78650752Y-32934076D01*
X78650755Y-32934078D01*
X78755111Y-32967985D01*
X78845439Y-32997335D01*
X78946531Y-33013346D01*
X79047622Y-33029358D01*
X79047623Y-33029358D01*
X79252325Y-33029358D01*
X79252326Y-33029358D01*
X79454508Y-32997335D01*
X79649193Y-32934078D01*
X79831584Y-32841145D01*
X79928208Y-32770944D01*
X79997187Y-32720829D01*
X79997189Y-32720826D01*
X79997193Y-32720824D01*
X80141940Y-32576077D01*
X80141942Y-32576073D01*
X80141945Y-32576071D01*
X80262258Y-32410472D01*
X80262260Y-32410469D01*
X80262261Y-32410468D01*
X80309490Y-32317775D01*
X80357463Y-32266981D01*
X80425284Y-32250186D01*
X80491419Y-32272723D01*
X80530457Y-32317775D01*
X80530460Y-32317779D01*
X80577689Y-32410472D01*
X80698002Y-32576071D01*
X80842760Y-32720829D01*
X80997723Y-32833414D01*
X81008364Y-32841145D01*
X81096491Y-32886048D01*
X81190750Y-32934076D01*
X81190752Y-32934076D01*
X81190755Y-32934078D01*
X81295111Y-32967985D01*
X81385439Y-32997335D01*
X81486531Y-33013346D01*
X81587622Y-33029358D01*
X81587623Y-33029358D01*
X81792325Y-33029358D01*
X81792326Y-33029358D01*
X81994508Y-32997335D01*
X82189193Y-32934078D01*
X82371584Y-32841145D01*
X82468208Y-32770944D01*
X82537187Y-32720829D01*
X82537189Y-32720826D01*
X82537193Y-32720824D01*
X82681940Y-32576077D01*
X82681942Y-32576073D01*
X82681945Y-32576071D01*
X82802258Y-32410472D01*
X82802260Y-32410469D01*
X82802261Y-32410468D01*
X82849490Y-32317775D01*
X82897463Y-32266981D01*
X82965284Y-32250186D01*
X83031419Y-32272723D01*
X83070457Y-32317775D01*
X83070460Y-32317779D01*
X83117689Y-32410472D01*
X83238002Y-32576071D01*
X83382760Y-32720829D01*
X83537723Y-32833414D01*
X83548364Y-32841145D01*
X83636491Y-32886048D01*
X83730750Y-32934076D01*
X83730752Y-32934076D01*
X83730755Y-32934078D01*
X83835111Y-32967985D01*
X83925439Y-32997335D01*
X84026531Y-33013346D01*
X84127622Y-33029358D01*
X84127623Y-33029358D01*
X84332325Y-33029358D01*
X84332326Y-33029358D01*
X84534508Y-32997335D01*
X84729193Y-32934078D01*
X84911584Y-32841145D01*
X85008208Y-32770944D01*
X85077187Y-32720829D01*
X85077189Y-32720826D01*
X85077193Y-32720824D01*
X85221940Y-32576077D01*
X85221942Y-32576073D01*
X85221945Y-32576071D01*
X85342260Y-32410469D01*
X85342394Y-32410207D01*
X85389489Y-32317777D01*
X85437462Y-32266983D01*
X85505283Y-32250187D01*
X85571418Y-32272724D01*
X85610458Y-32317778D01*
X85657688Y-32410471D01*
X85778001Y-32576071D01*
X85922759Y-32720829D01*
X86077722Y-32833414D01*
X86088363Y-32841145D01*
X86176490Y-32886048D01*
X86270749Y-32934076D01*
X86270751Y-32934076D01*
X86270754Y-32934078D01*
X86375110Y-32967985D01*
X86465438Y-32997335D01*
X86566530Y-33013346D01*
X86667621Y-33029358D01*
X86667622Y-33029358D01*
X86872324Y-33029358D01*
X86872325Y-33029358D01*
X87074507Y-32997335D01*
X87269192Y-32934078D01*
X87451583Y-32841145D01*
X87548207Y-32770944D01*
X87617186Y-32720829D01*
X87617188Y-32720826D01*
X87617192Y-32720824D01*
X87761939Y-32576077D01*
X87761941Y-32576073D01*
X87761944Y-32576071D01*
X87882259Y-32410469D01*
X87882260Y-32410468D01*
X87929489Y-32317775D01*
X87977462Y-32266981D01*
X88045283Y-32250185D01*
X88111418Y-32272722D01*
X88150458Y-32317776D01*
X88197689Y-32410471D01*
X88318002Y-32576071D01*
X88462760Y-32720829D01*
X88617723Y-32833414D01*
X88628364Y-32841145D01*
X88716491Y-32886048D01*
X88810750Y-32934076D01*
X88810752Y-32934076D01*
X88810755Y-32934078D01*
X88915111Y-32967985D01*
X89005439Y-32997335D01*
X89106531Y-33013346D01*
X89207622Y-33029358D01*
X89207623Y-33029358D01*
X89412325Y-33029358D01*
X89412326Y-33029358D01*
X89614508Y-32997335D01*
X89809193Y-32934078D01*
X89991584Y-32841145D01*
X90088208Y-32770944D01*
X90157187Y-32720829D01*
X90157189Y-32720826D01*
X90157193Y-32720824D01*
X90301940Y-32576077D01*
X90301942Y-32576073D01*
X90301945Y-32576071D01*
X90422258Y-32410472D01*
X90422260Y-32410469D01*
X90422261Y-32410468D01*
X90469490Y-32317775D01*
X90517463Y-32266981D01*
X90585284Y-32250186D01*
X90651419Y-32272723D01*
X90690457Y-32317775D01*
X90690460Y-32317779D01*
X90737689Y-32410472D01*
X90858002Y-32576071D01*
X91002760Y-32720829D01*
X91157723Y-32833414D01*
X91168364Y-32841145D01*
X91256491Y-32886048D01*
X91350750Y-32934076D01*
X91350752Y-32934076D01*
X91350755Y-32934078D01*
X91455111Y-32967985D01*
X91545439Y-32997335D01*
X91646531Y-33013346D01*
X91747622Y-33029358D01*
X91747623Y-33029358D01*
X91952325Y-33029358D01*
X91952326Y-33029358D01*
X92154508Y-32997335D01*
X92349193Y-32934078D01*
X92531584Y-32841145D01*
X92628208Y-32770944D01*
X92697187Y-32720829D01*
X92697189Y-32720826D01*
X92697193Y-32720824D01*
X92841940Y-32576077D01*
X92841942Y-32576073D01*
X92841945Y-32576071D01*
X92962258Y-32410472D01*
X92962260Y-32410469D01*
X92962261Y-32410468D01*
X93009490Y-32317775D01*
X93057463Y-32266981D01*
X93125284Y-32250186D01*
X93191419Y-32272723D01*
X93230457Y-32317775D01*
X93230460Y-32317779D01*
X93277689Y-32410472D01*
X93398002Y-32576071D01*
X93542760Y-32720829D01*
X93697723Y-32833414D01*
X93708364Y-32841145D01*
X93796491Y-32886048D01*
X93890750Y-32934076D01*
X93890752Y-32934076D01*
X93890755Y-32934078D01*
X93995111Y-32967985D01*
X94085439Y-32997335D01*
X94186531Y-33013346D01*
X94287622Y-33029358D01*
X94287623Y-33029358D01*
X94492325Y-33029358D01*
X94492326Y-33029358D01*
X94694508Y-32997335D01*
X94889193Y-32934078D01*
X95071584Y-32841145D01*
X95168208Y-32770944D01*
X95237187Y-32720829D01*
X95237189Y-32720826D01*
X95237193Y-32720824D01*
X95381940Y-32576077D01*
X95381942Y-32576073D01*
X95381945Y-32576071D01*
X95502260Y-32410469D01*
X95502394Y-32410207D01*
X95549489Y-32317777D01*
X95597462Y-32266983D01*
X95665283Y-32250187D01*
X95731418Y-32272724D01*
X95770458Y-32317778D01*
X95817688Y-32410471D01*
X95938001Y-32576071D01*
X96082759Y-32720829D01*
X96237722Y-32833414D01*
X96248363Y-32841145D01*
X96336490Y-32886048D01*
X96430749Y-32934076D01*
X96430751Y-32934076D01*
X96430754Y-32934078D01*
X96535110Y-32967985D01*
X96625438Y-32997335D01*
X96726530Y-33013346D01*
X96827621Y-33029358D01*
X96827622Y-33029358D01*
X97032324Y-33029358D01*
X97032325Y-33029358D01*
X97234507Y-32997335D01*
X97429192Y-32934078D01*
X97611583Y-32841145D01*
X97708207Y-32770944D01*
X97777186Y-32720829D01*
X97777188Y-32720826D01*
X97777192Y-32720824D01*
X97921939Y-32576077D01*
X97921941Y-32576073D01*
X97921944Y-32576071D01*
X97983081Y-32491921D01*
X98042260Y-32410468D01*
X98089489Y-32317775D01*
X98137464Y-32266980D01*
X98205285Y-32250185D01*
X98271420Y-32272722D01*
X98310459Y-32317776D01*
X98357690Y-32410471D01*
X98478003Y-32576071D01*
X98622761Y-32720829D01*
X98777724Y-32833414D01*
X98788365Y-32841145D01*
X98876492Y-32886048D01*
X98970751Y-32934076D01*
X98970753Y-32934076D01*
X98970756Y-32934078D01*
X99075112Y-32967985D01*
X99165440Y-32997335D01*
X99266532Y-33013346D01*
X99367623Y-33029358D01*
X99367624Y-33029358D01*
X99572326Y-33029358D01*
X99572327Y-33029358D01*
X99774509Y-32997335D01*
X99969194Y-32934078D01*
X100151585Y-32841145D01*
X100248209Y-32770944D01*
X100317188Y-32720829D01*
X100317190Y-32720826D01*
X100317194Y-32720824D01*
X100461941Y-32576077D01*
X100461943Y-32576073D01*
X100461946Y-32576071D01*
X100582261Y-32410469D01*
X100582395Y-32410207D01*
X100629490Y-32317777D01*
X100677463Y-32266983D01*
X100745284Y-32250187D01*
X100811419Y-32272724D01*
X100850459Y-32317778D01*
X100897689Y-32410471D01*
X101018002Y-32576071D01*
X101162760Y-32720829D01*
X101317723Y-32833414D01*
X101328364Y-32841145D01*
X101416491Y-32886048D01*
X101510750Y-32934076D01*
X101510752Y-32934076D01*
X101510755Y-32934078D01*
X101615111Y-32967985D01*
X101705439Y-32997335D01*
X101806531Y-33013346D01*
X101907622Y-33029358D01*
X101907623Y-33029358D01*
X102112325Y-33029358D01*
X102112326Y-33029358D01*
X102314508Y-32997335D01*
X102509193Y-32934078D01*
X102691584Y-32841145D01*
X102788208Y-32770944D01*
X102857187Y-32720829D01*
X102857189Y-32720826D01*
X102857193Y-32720824D01*
X103001940Y-32576077D01*
X103001942Y-32576073D01*
X103001945Y-32576071D01*
X103122258Y-32410472D01*
X103122260Y-32410469D01*
X103122261Y-32410468D01*
X103169490Y-32317775D01*
X103217463Y-32266981D01*
X103285284Y-32250186D01*
X103351419Y-32272723D01*
X103390457Y-32317775D01*
X103390460Y-32317779D01*
X103437689Y-32410472D01*
X103558002Y-32576071D01*
X103702760Y-32720829D01*
X103857723Y-32833414D01*
X103868364Y-32841145D01*
X103956491Y-32886048D01*
X104050750Y-32934076D01*
X104050752Y-32934076D01*
X104050755Y-32934078D01*
X104155111Y-32967985D01*
X104245439Y-32997335D01*
X104346531Y-33013346D01*
X104447622Y-33029358D01*
X104447623Y-33029358D01*
X104652325Y-33029358D01*
X104652326Y-33029358D01*
X104854508Y-32997335D01*
X105049193Y-32934078D01*
X105231584Y-32841145D01*
X105328208Y-32770944D01*
X105397187Y-32720829D01*
X105397189Y-32720826D01*
X105397193Y-32720824D01*
X105541940Y-32576077D01*
X105541942Y-32576073D01*
X105541945Y-32576071D01*
X105662258Y-32410472D01*
X105662260Y-32410469D01*
X105662261Y-32410468D01*
X105709490Y-32317775D01*
X105757463Y-32266981D01*
X105825284Y-32250186D01*
X105891419Y-32272723D01*
X105930457Y-32317775D01*
X105930460Y-32317779D01*
X105977689Y-32410472D01*
X106098002Y-32576071D01*
X106242760Y-32720829D01*
X106397723Y-32833414D01*
X106408364Y-32841145D01*
X106496491Y-32886048D01*
X106590750Y-32934076D01*
X106590752Y-32934076D01*
X106590755Y-32934078D01*
X106695111Y-32967985D01*
X106785439Y-32997335D01*
X106886531Y-33013346D01*
X106987622Y-33029358D01*
X106987623Y-33029358D01*
X107192325Y-33029358D01*
X107192326Y-33029358D01*
X107394508Y-32997335D01*
X107589193Y-32934078D01*
X107771584Y-32841145D01*
X107868208Y-32770944D01*
X107937187Y-32720829D01*
X107937189Y-32720826D01*
X107937193Y-32720824D01*
X108081940Y-32576077D01*
X108081942Y-32576073D01*
X108081945Y-32576071D01*
X108202260Y-32410469D01*
X108202261Y-32410468D01*
X108249490Y-32317775D01*
X108297463Y-32266981D01*
X108365284Y-32250185D01*
X108431419Y-32272722D01*
X108470459Y-32317776D01*
X108517690Y-32410471D01*
X108638003Y-32576071D01*
X108782761Y-32720829D01*
X108937724Y-32833414D01*
X108948365Y-32841145D01*
X109036492Y-32886048D01*
X109130751Y-32934076D01*
X109130753Y-32934076D01*
X109130756Y-32934078D01*
X109235112Y-32967985D01*
X109325440Y-32997335D01*
X109426532Y-33013346D01*
X109527623Y-33029358D01*
X109527624Y-33029358D01*
X109732326Y-33029358D01*
X109732327Y-33029358D01*
X109934509Y-32997335D01*
X110129194Y-32934078D01*
X110311585Y-32841145D01*
X110408209Y-32770944D01*
X110477188Y-32720829D01*
X110477190Y-32720826D01*
X110477194Y-32720824D01*
X110621941Y-32576077D01*
X110621943Y-32576073D01*
X110621946Y-32576071D01*
X110742261Y-32410469D01*
X110742395Y-32410207D01*
X110789490Y-32317777D01*
X110837463Y-32266983D01*
X110905284Y-32250187D01*
X110971419Y-32272724D01*
X111010459Y-32317778D01*
X111057689Y-32410471D01*
X111178002Y-32576071D01*
X111322760Y-32720829D01*
X111477723Y-32833414D01*
X111488364Y-32841145D01*
X111576491Y-32886048D01*
X111670750Y-32934076D01*
X111670752Y-32934076D01*
X111670755Y-32934078D01*
X111775111Y-32967985D01*
X111865439Y-32997335D01*
X111966531Y-33013346D01*
X112067622Y-33029358D01*
X112067623Y-33029358D01*
X112272325Y-33029358D01*
X112272326Y-33029358D01*
X112474508Y-32997335D01*
X112669193Y-32934078D01*
X112851584Y-32841145D01*
X112948208Y-32770944D01*
X113017187Y-32720829D01*
X113017189Y-32720826D01*
X113017193Y-32720824D01*
X113161940Y-32576077D01*
X113161942Y-32576073D01*
X113161945Y-32576071D01*
X113282258Y-32410472D01*
X113282260Y-32410469D01*
X113282261Y-32410468D01*
X113329490Y-32317775D01*
X113377463Y-32266981D01*
X113445284Y-32250186D01*
X113511419Y-32272723D01*
X113550457Y-32317775D01*
X113550460Y-32317779D01*
X113597689Y-32410472D01*
X113718002Y-32576071D01*
X113862760Y-32720829D01*
X114017723Y-32833414D01*
X114028364Y-32841145D01*
X114116491Y-32886048D01*
X114210750Y-32934076D01*
X114210752Y-32934076D01*
X114210755Y-32934078D01*
X114315111Y-32967985D01*
X114405439Y-32997335D01*
X114506531Y-33013346D01*
X114607622Y-33029358D01*
X114607623Y-33029358D01*
X114812325Y-33029358D01*
X114812326Y-33029358D01*
X115014508Y-32997335D01*
X115209193Y-32934078D01*
X115391584Y-32841145D01*
X115488208Y-32770944D01*
X115557187Y-32720829D01*
X115557189Y-32720826D01*
X115557193Y-32720824D01*
X115701940Y-32576077D01*
X115701942Y-32576073D01*
X115701945Y-32576071D01*
X115822258Y-32410472D01*
X115822260Y-32410469D01*
X115822261Y-32410468D01*
X115869490Y-32317775D01*
X115917463Y-32266981D01*
X115985284Y-32250186D01*
X116051419Y-32272723D01*
X116090457Y-32317775D01*
X116090460Y-32317779D01*
X116137689Y-32410472D01*
X116258002Y-32576071D01*
X116402760Y-32720829D01*
X116557723Y-32833414D01*
X116568364Y-32841145D01*
X116656491Y-32886048D01*
X116750750Y-32934076D01*
X116750752Y-32934076D01*
X116750755Y-32934078D01*
X116855111Y-32967985D01*
X116945439Y-32997335D01*
X117046531Y-33013346D01*
X117147622Y-33029358D01*
X117147623Y-33029358D01*
X117352325Y-33029358D01*
X117352326Y-33029358D01*
X117554508Y-32997335D01*
X117749193Y-32934078D01*
X117931584Y-32841145D01*
X118028208Y-32770944D01*
X118097187Y-32720829D01*
X118097189Y-32720826D01*
X118097193Y-32720824D01*
X118241940Y-32576077D01*
X118241942Y-32576073D01*
X118241945Y-32576071D01*
X118362260Y-32410469D01*
X118362394Y-32410207D01*
X118409489Y-32317777D01*
X118457462Y-32266983D01*
X118525283Y-32250187D01*
X118591418Y-32272724D01*
X118630458Y-32317778D01*
X118677688Y-32410471D01*
X118798001Y-32576071D01*
X118942759Y-32720829D01*
X119097722Y-32833414D01*
X119108363Y-32841145D01*
X119196490Y-32886048D01*
X119290749Y-32934076D01*
X119290751Y-32934076D01*
X119290754Y-32934078D01*
X119395110Y-32967985D01*
X119485438Y-32997335D01*
X119586530Y-33013346D01*
X119687621Y-33029358D01*
X119687622Y-33029358D01*
X119892324Y-33029358D01*
X119892325Y-33029358D01*
X120094507Y-32997335D01*
X120289192Y-32934078D01*
X120471583Y-32841145D01*
X120568207Y-32770944D01*
X120637186Y-32720829D01*
X120637188Y-32720826D01*
X120637192Y-32720824D01*
X120781939Y-32576077D01*
X120781941Y-32576073D01*
X120781944Y-32576071D01*
X120902257Y-32410472D01*
X120902259Y-32410469D01*
X120902260Y-32410468D01*
X120949769Y-32317225D01*
X120997744Y-32266430D01*
X121065565Y-32249635D01*
X121131699Y-32272172D01*
X121170739Y-32317226D01*
X121218115Y-32410207D01*
X121338392Y-32575752D01*
X121338392Y-32575753D01*
X121483079Y-32720440D01*
X121648625Y-32840717D01*
X121830943Y-32933612D01*
X122025553Y-32996846D01*
X122079975Y-33005465D01*
X122079975Y-32190737D01*
X122127333Y-32218080D01*
X122260857Y-32253858D01*
X122399093Y-32253858D01*
X122532617Y-32218080D01*
X122579975Y-32190737D01*
X122579975Y-33005464D01*
X122634396Y-32996846D01*
X122829006Y-32933612D01*
X123011324Y-32840717D01*
X123176869Y-32720440D01*
X123176870Y-32720440D01*
X123321557Y-32575753D01*
X123321557Y-32575752D01*
X123441836Y-32410205D01*
X123489489Y-32316680D01*
X123537463Y-32265884D01*
X123605284Y-32249088D01*
X123671419Y-32271625D01*
X123710459Y-32316679D01*
X123758114Y-32410207D01*
X123878391Y-32575752D01*
X123878391Y-32575753D01*
X124023078Y-32720440D01*
X124188624Y-32840717D01*
X124370942Y-32933612D01*
X124565552Y-32996846D01*
X124619974Y-33005465D01*
X124619974Y-32190737D01*
X124667332Y-32218080D01*
X124800856Y-32253858D01*
X124939092Y-32253858D01*
X125072616Y-32218080D01*
X125119974Y-32190737D01*
X125119974Y-33005464D01*
X125174395Y-32996846D01*
X125369005Y-32933612D01*
X125551323Y-32840717D01*
X125716868Y-32720440D01*
X125716869Y-32720440D01*
X125861556Y-32575753D01*
X125861556Y-32575752D01*
X125981833Y-32410207D01*
X126074729Y-32227887D01*
X126137964Y-32033271D01*
X126146583Y-31978858D01*
X125331854Y-31978858D01*
X125359196Y-31931500D01*
X125394974Y-31797976D01*
X125394974Y-31659740D01*
X125359196Y-31526216D01*
X125331854Y-31478858D01*
X126146583Y-31478858D01*
X126137964Y-31424444D01*
X126074729Y-31229828D01*
X125981833Y-31047508D01*
X125861556Y-30881963D01*
X125861556Y-30881962D01*
X125716869Y-30737275D01*
X125551323Y-30616998D01*
X125369003Y-30524102D01*
X125174387Y-30460867D01*
X125119974Y-30452248D01*
X125119974Y-31266978D01*
X125072616Y-31239636D01*
X124939092Y-31203858D01*
X124800856Y-31203858D01*
X124667332Y-31239636D01*
X124619974Y-31266978D01*
X124619974Y-30452248D01*
X124565560Y-30460867D01*
X124370944Y-30524102D01*
X124188624Y-30616998D01*
X124023079Y-30737275D01*
X124023078Y-30737275D01*
X123878391Y-30881962D01*
X123878391Y-30881963D01*
X123758112Y-31047510D01*
X123710458Y-31141037D01*
X123662484Y-31191832D01*
X123594663Y-31208627D01*
X123528528Y-31186089D01*
X123489489Y-31141036D01*
X123441834Y-31047508D01*
X123321557Y-30881963D01*
X123321557Y-30881962D01*
X123176870Y-30737275D01*
X123011324Y-30616998D01*
X122829004Y-30524102D01*
X122634388Y-30460867D01*
X122579975Y-30452248D01*
X122579975Y-31266978D01*
X122532617Y-31239636D01*
X122399093Y-31203858D01*
X122260857Y-31203858D01*
X122127333Y-31239636D01*
X122079975Y-31266978D01*
X122079975Y-30452248D01*
X122025561Y-30460867D01*
X121830945Y-30524102D01*
X121648625Y-30616998D01*
X121483080Y-30737275D01*
X121483079Y-30737275D01*
X121338392Y-30881962D01*
X121338392Y-30881963D01*
X121218115Y-31047508D01*
X121170739Y-31140489D01*
X121122764Y-31191285D01*
X121054943Y-31208080D01*
X120988808Y-31185542D01*
X120949769Y-31140489D01*
X120902392Y-31047508D01*
X120902260Y-31047248D01*
X120839741Y-30961197D01*
X120781944Y-30881644D01*
X120637186Y-30736886D01*
X120471586Y-30616573D01*
X120471585Y-30616572D01*
X120471583Y-30616571D01*
X120383460Y-30571670D01*
X120289196Y-30523639D01*
X120094507Y-30460380D01*
X119919968Y-30432736D01*
X119892325Y-30428358D01*
X119687621Y-30428358D01*
X119663302Y-30432209D01*
X119485438Y-30460380D01*
X119290749Y-30523639D01*
X119108359Y-30616573D01*
X118942759Y-30736886D01*
X118798001Y-30881644D01*
X118677685Y-31047247D01*
X118677684Y-31047249D01*
X118630457Y-31139937D01*
X118582483Y-31190733D01*
X118514662Y-31207528D01*
X118448527Y-31184990D01*
X118409488Y-31139937D01*
X118362261Y-31047249D01*
X118362261Y-31047248D01*
X118362259Y-31047245D01*
X118362258Y-31047243D01*
X118241945Y-30881644D01*
X118097187Y-30736886D01*
X117931587Y-30616573D01*
X117931586Y-30616572D01*
X117931584Y-30616571D01*
X117843461Y-30571670D01*
X117749197Y-30523639D01*
X117554508Y-30460380D01*
X117379969Y-30432736D01*
X117352326Y-30428358D01*
X117147622Y-30428358D01*
X117123303Y-30432209D01*
X116945439Y-30460380D01*
X116750750Y-30523639D01*
X116568360Y-30616573D01*
X116402760Y-30736886D01*
X116258002Y-30881644D01*
X116137689Y-31047244D01*
X116090459Y-31139938D01*
X116042484Y-31190734D01*
X115974663Y-31207529D01*
X115908528Y-31184992D01*
X115869489Y-31139938D01*
X115822393Y-31047508D01*
X115822261Y-31047248D01*
X115759742Y-30961197D01*
X115701945Y-30881644D01*
X115557187Y-30736886D01*
X115391587Y-30616573D01*
X115391586Y-30616572D01*
X115391584Y-30616571D01*
X115303461Y-30571670D01*
X115209197Y-30523639D01*
X115014508Y-30460380D01*
X114839969Y-30432736D01*
X114812326Y-30428358D01*
X114607622Y-30428358D01*
X114583303Y-30432209D01*
X114405439Y-30460380D01*
X114210750Y-30523639D01*
X114028360Y-30616573D01*
X113862760Y-30736886D01*
X113718002Y-30881644D01*
X113597689Y-31047244D01*
X113550459Y-31139938D01*
X113502484Y-31190734D01*
X113434663Y-31207529D01*
X113368528Y-31184992D01*
X113329489Y-31139938D01*
X113282393Y-31047508D01*
X113282261Y-31047248D01*
X113219742Y-30961197D01*
X113161945Y-30881644D01*
X113017187Y-30736886D01*
X112851587Y-30616573D01*
X112851586Y-30616572D01*
X112851584Y-30616571D01*
X112763461Y-30571670D01*
X112669197Y-30523639D01*
X112474508Y-30460380D01*
X112299969Y-30432736D01*
X112272326Y-30428358D01*
X112067622Y-30428358D01*
X112043303Y-30432209D01*
X111865439Y-30460380D01*
X111670750Y-30523639D01*
X111488360Y-30616573D01*
X111322760Y-30736886D01*
X111178002Y-30881644D01*
X111057686Y-31047247D01*
X111057685Y-31047249D01*
X111010458Y-31139937D01*
X110962484Y-31190733D01*
X110894663Y-31207528D01*
X110828528Y-31184990D01*
X110789489Y-31139937D01*
X110742262Y-31047249D01*
X110742262Y-31047248D01*
X110742260Y-31047245D01*
X110742259Y-31047243D01*
X110621946Y-30881644D01*
X110477188Y-30736886D01*
X110311588Y-30616573D01*
X110311587Y-30616572D01*
X110311585Y-30616571D01*
X110223462Y-30571670D01*
X110129198Y-30523639D01*
X109934509Y-30460380D01*
X109759970Y-30432736D01*
X109732327Y-30428358D01*
X109527623Y-30428358D01*
X109503304Y-30432209D01*
X109325440Y-30460380D01*
X109130751Y-30523639D01*
X108948361Y-30616573D01*
X108782761Y-30736886D01*
X108638003Y-30881644D01*
X108517687Y-31047247D01*
X108517686Y-31047249D01*
X108470458Y-31139939D01*
X108422484Y-31190735D01*
X108354663Y-31207530D01*
X108288528Y-31184992D01*
X108249489Y-31139939D01*
X108249488Y-31139938D01*
X108202261Y-31047248D01*
X108202259Y-31047245D01*
X108202258Y-31047243D01*
X108081945Y-30881644D01*
X107937187Y-30736886D01*
X107771587Y-30616573D01*
X107771586Y-30616572D01*
X107771584Y-30616571D01*
X107683461Y-30571670D01*
X107589197Y-30523639D01*
X107394508Y-30460380D01*
X107219969Y-30432736D01*
X107192326Y-30428358D01*
X106987622Y-30428358D01*
X106963303Y-30432209D01*
X106785439Y-30460380D01*
X106590750Y-30523639D01*
X106408360Y-30616573D01*
X106242760Y-30736886D01*
X106098002Y-30881644D01*
X105977689Y-31047244D01*
X105930459Y-31139938D01*
X105882484Y-31190734D01*
X105814663Y-31207529D01*
X105748528Y-31184992D01*
X105709489Y-31139938D01*
X105662393Y-31047508D01*
X105662261Y-31047248D01*
X105599742Y-30961197D01*
X105541945Y-30881644D01*
X105397187Y-30736886D01*
X105231587Y-30616573D01*
X105231586Y-30616572D01*
X105231584Y-30616571D01*
X105143461Y-30571670D01*
X105049197Y-30523639D01*
X104854508Y-30460380D01*
X104679969Y-30432736D01*
X104652326Y-30428358D01*
X104447622Y-30428358D01*
X104423303Y-30432209D01*
X104245439Y-30460380D01*
X104050750Y-30523639D01*
X103868360Y-30616573D01*
X103702760Y-30736886D01*
X103558002Y-30881644D01*
X103437689Y-31047244D01*
X103390459Y-31139938D01*
X103342484Y-31190734D01*
X103274663Y-31207529D01*
X103208528Y-31184992D01*
X103169489Y-31139938D01*
X103122393Y-31047508D01*
X103122261Y-31047248D01*
X103059742Y-30961197D01*
X103001945Y-30881644D01*
X102857187Y-30736886D01*
X102691587Y-30616573D01*
X102691586Y-30616572D01*
X102691584Y-30616571D01*
X102603461Y-30571670D01*
X102509197Y-30523639D01*
X102314508Y-30460380D01*
X102139969Y-30432736D01*
X102112326Y-30428358D01*
X101907622Y-30428358D01*
X101883303Y-30432209D01*
X101705439Y-30460380D01*
X101510750Y-30523639D01*
X101328360Y-30616573D01*
X101162760Y-30736886D01*
X101018002Y-30881644D01*
X100897686Y-31047247D01*
X100897685Y-31047249D01*
X100850458Y-31139937D01*
X100802484Y-31190733D01*
X100734663Y-31207528D01*
X100668528Y-31184990D01*
X100629489Y-31139937D01*
X100582262Y-31047249D01*
X100582262Y-31047248D01*
X100582260Y-31047245D01*
X100582259Y-31047243D01*
X100461946Y-30881644D01*
X100317188Y-30736886D01*
X100151588Y-30616573D01*
X100151587Y-30616572D01*
X100151585Y-30616571D01*
X100063462Y-30571670D01*
X99969198Y-30523639D01*
X99774509Y-30460380D01*
X99599970Y-30432736D01*
X99572327Y-30428358D01*
X99367623Y-30428358D01*
X99343304Y-30432209D01*
X99165440Y-30460380D01*
X98970751Y-30523639D01*
X98788361Y-30616573D01*
X98622761Y-30736886D01*
X98478003Y-30881644D01*
X98357687Y-31047247D01*
X98357686Y-31047249D01*
X98310458Y-31139939D01*
X98262484Y-31190735D01*
X98194663Y-31207530D01*
X98128528Y-31184992D01*
X98089490Y-31139939D01*
X98042261Y-31047249D01*
X98042260Y-31047247D01*
X97921944Y-30881644D01*
X97777186Y-30736886D01*
X97611586Y-30616573D01*
X97611585Y-30616572D01*
X97611583Y-30616571D01*
X97523460Y-30571670D01*
X97429196Y-30523639D01*
X97234507Y-30460380D01*
X97059968Y-30432736D01*
X97032325Y-30428358D01*
X96827621Y-30428358D01*
X96803302Y-30432209D01*
X96625438Y-30460380D01*
X96430749Y-30523639D01*
X96248359Y-30616573D01*
X96082759Y-30736886D01*
X95938001Y-30881644D01*
X95817685Y-31047247D01*
X95817684Y-31047249D01*
X95770457Y-31139937D01*
X95722483Y-31190733D01*
X95654662Y-31207528D01*
X95588527Y-31184990D01*
X95549488Y-31139937D01*
X95502261Y-31047249D01*
X95502261Y-31047248D01*
X95502259Y-31047245D01*
X95502258Y-31047243D01*
X95381945Y-30881644D01*
X95237187Y-30736886D01*
X95071587Y-30616573D01*
X95071586Y-30616572D01*
X95071584Y-30616571D01*
X94983461Y-30571670D01*
X94889197Y-30523639D01*
X94694508Y-30460380D01*
X94519969Y-30432736D01*
X94492326Y-30428358D01*
X94287622Y-30428358D01*
X94263303Y-30432209D01*
X94085439Y-30460380D01*
X93890750Y-30523639D01*
X93708360Y-30616573D01*
X93542760Y-30736886D01*
X93398002Y-30881644D01*
X93277689Y-31047244D01*
X93230459Y-31139938D01*
X93182484Y-31190734D01*
X93114663Y-31207529D01*
X93048528Y-31184992D01*
X93009489Y-31139938D01*
X92962393Y-31047508D01*
X92962261Y-31047248D01*
X92899742Y-30961197D01*
X92841945Y-30881644D01*
X92697187Y-30736886D01*
X92531587Y-30616573D01*
X92531586Y-30616572D01*
X92531584Y-30616571D01*
X92443461Y-30571670D01*
X92349197Y-30523639D01*
X92154508Y-30460380D01*
X91979969Y-30432736D01*
X91952326Y-30428358D01*
X91747622Y-30428358D01*
X91723303Y-30432209D01*
X91545439Y-30460380D01*
X91350750Y-30523639D01*
X91168360Y-30616573D01*
X91002760Y-30736886D01*
X90858002Y-30881644D01*
X90737689Y-31047244D01*
X90690459Y-31139938D01*
X90642484Y-31190734D01*
X90574663Y-31207529D01*
X90508528Y-31184992D01*
X90469489Y-31139938D01*
X90422393Y-31047508D01*
X90422261Y-31047248D01*
X90359742Y-30961197D01*
X90301945Y-30881644D01*
X90157187Y-30736886D01*
X89991587Y-30616573D01*
X89991586Y-30616572D01*
X89991584Y-30616571D01*
X89903461Y-30571670D01*
X89809197Y-30523639D01*
X89614508Y-30460380D01*
X89439969Y-30432736D01*
X89412326Y-30428358D01*
X89207622Y-30428358D01*
X89183303Y-30432209D01*
X89005439Y-30460380D01*
X88810750Y-30523639D01*
X88628360Y-30616573D01*
X88462760Y-30736886D01*
X88318002Y-30881644D01*
X88197686Y-31047247D01*
X88197685Y-31047249D01*
X88150457Y-31139939D01*
X88102483Y-31190735D01*
X88034662Y-31207530D01*
X87968527Y-31184992D01*
X87929488Y-31139939D01*
X87929487Y-31139938D01*
X87882260Y-31047248D01*
X87882258Y-31047245D01*
X87882257Y-31047243D01*
X87761944Y-30881644D01*
X87617186Y-30736886D01*
X87451586Y-30616573D01*
X87451585Y-30616572D01*
X87451583Y-30616571D01*
X87363460Y-30571670D01*
X87269196Y-30523639D01*
X87074507Y-30460380D01*
X86899968Y-30432736D01*
X86872325Y-30428358D01*
X86667621Y-30428358D01*
X86643302Y-30432209D01*
X86465438Y-30460380D01*
X86270749Y-30523639D01*
X86088359Y-30616573D01*
X85922759Y-30736886D01*
X85778001Y-30881644D01*
X85657685Y-31047247D01*
X85657684Y-31047249D01*
X85610457Y-31139937D01*
X85562483Y-31190733D01*
X85494662Y-31207528D01*
X85428527Y-31184990D01*
X85389488Y-31139937D01*
X85342261Y-31047249D01*
X85342261Y-31047248D01*
X85342259Y-31047245D01*
X85342258Y-31047243D01*
X85221945Y-30881644D01*
X85077187Y-30736886D01*
X84911587Y-30616573D01*
X84911586Y-30616572D01*
X84911584Y-30616571D01*
X84823461Y-30571670D01*
X84729197Y-30523639D01*
X84534508Y-30460380D01*
X84359969Y-30432736D01*
X84332326Y-30428358D01*
X84127622Y-30428358D01*
X84103303Y-30432209D01*
X83925439Y-30460380D01*
X83730750Y-30523639D01*
X83548360Y-30616573D01*
X83382760Y-30736886D01*
X83238002Y-30881644D01*
X83117689Y-31047244D01*
X83070459Y-31139938D01*
X83022484Y-31190734D01*
X82954663Y-31207529D01*
X82888528Y-31184992D01*
X82849489Y-31139938D01*
X82802393Y-31047508D01*
X82802261Y-31047248D01*
X82739742Y-30961197D01*
X82681945Y-30881644D01*
X82537187Y-30736886D01*
X82371587Y-30616573D01*
X82371586Y-30616572D01*
X82371584Y-30616571D01*
X82283461Y-30571670D01*
X82189197Y-30523639D01*
X81994508Y-30460380D01*
X81819969Y-30432736D01*
X81792326Y-30428358D01*
X81587622Y-30428358D01*
X81563303Y-30432209D01*
X81385439Y-30460380D01*
X81190750Y-30523639D01*
X81008360Y-30616573D01*
X80842760Y-30736886D01*
X80698002Y-30881644D01*
X80577689Y-31047244D01*
X80530459Y-31139938D01*
X80482484Y-31190734D01*
X80414663Y-31207529D01*
X80348528Y-31184992D01*
X80309489Y-31139938D01*
X80262393Y-31047508D01*
X80262261Y-31047248D01*
X80199742Y-30961197D01*
X80141945Y-30881644D01*
X79997187Y-30736886D01*
X79831587Y-30616573D01*
X79831586Y-30616572D01*
X79831584Y-30616571D01*
X79743461Y-30571670D01*
X79649197Y-30523639D01*
X79454508Y-30460380D01*
X79279969Y-30432736D01*
X79252326Y-30428358D01*
X79047622Y-30428358D01*
X79023303Y-30432209D01*
X78845439Y-30460380D01*
X78650750Y-30523639D01*
X78468360Y-30616573D01*
X78302760Y-30736886D01*
X78158002Y-30881644D01*
X78037686Y-31047247D01*
X78037685Y-31047249D01*
X77990458Y-31139937D01*
X77942484Y-31190733D01*
X77874663Y-31207528D01*
X77808528Y-31184990D01*
X77769489Y-31139937D01*
X77722262Y-31047249D01*
X77722262Y-31047248D01*
X77722260Y-31047245D01*
X77722259Y-31047243D01*
X77601946Y-30881644D01*
X77457188Y-30736886D01*
X77291588Y-30616573D01*
X77291587Y-30616572D01*
X77291585Y-30616571D01*
X77203462Y-30571670D01*
X77109198Y-30523639D01*
X76914509Y-30460380D01*
X76739970Y-30432736D01*
X76712327Y-30428358D01*
X76507623Y-30428358D01*
X76483304Y-30432209D01*
X76305440Y-30460380D01*
X76110751Y-30523639D01*
X75928361Y-30616573D01*
X75762761Y-30736886D01*
X75618003Y-30881644D01*
X75497687Y-31047247D01*
X75497686Y-31047249D01*
X75450458Y-31139939D01*
X75402484Y-31190735D01*
X75334663Y-31207530D01*
X75268528Y-31184992D01*
X75229490Y-31139939D01*
X75182261Y-31047249D01*
X75182260Y-31047247D01*
X75061944Y-30881644D01*
X74917186Y-30736886D01*
X74751586Y-30616573D01*
X74751585Y-30616572D01*
X74751583Y-30616571D01*
X74663460Y-30571670D01*
X74569196Y-30523639D01*
X74374507Y-30460380D01*
X74199968Y-30432736D01*
X74172325Y-30428358D01*
X73967621Y-30428358D01*
X73943302Y-30432209D01*
X73765438Y-30460380D01*
X73570749Y-30523639D01*
X73388359Y-30616573D01*
X73222759Y-30736886D01*
X73078005Y-30881640D01*
X73051202Y-30918532D01*
X72995871Y-30961197D01*
X72926258Y-30967176D01*
X72864463Y-30934570D01*
X72830106Y-30873731D01*
X72827594Y-30858901D01*
X72823570Y-30821477D01*
X72773328Y-30686771D01*
X72773324Y-30686764D01*
X72687164Y-30571670D01*
X72687161Y-30571667D01*
X72572067Y-30485507D01*
X72572060Y-30485503D01*
X72437353Y-30435261D01*
X72437346Y-30435259D01*
X72377818Y-30428858D01*
X71779974Y-30428858D01*
X71779974Y-31266978D01*
X71732616Y-31239636D01*
X71599092Y-31203858D01*
X71460856Y-31203858D01*
X71327332Y-31239636D01*
X71279974Y-31266978D01*
X71279974Y-30428858D01*
X70682129Y-30428858D01*
X70622601Y-30435259D01*
X70622594Y-30435261D01*
X70487887Y-30485503D01*
X70487880Y-30485507D01*
X70372786Y-30571667D01*
X70372783Y-30571670D01*
X70286623Y-30686764D01*
X70286619Y-30686771D01*
X70236377Y-30821478D01*
X70236375Y-30821485D01*
X70229974Y-30881013D01*
X62800500Y-30881013D01*
X62800500Y-25550972D01*
X75309474Y-25550972D01*
X75309474Y-25755675D01*
X75341496Y-25957858D01*
X75404755Y-26152547D01*
X75468665Y-26277977D01*
X75497686Y-26334933D01*
X75497689Y-26334937D01*
X75618002Y-26500537D01*
X75762760Y-26645295D01*
X75917723Y-26757880D01*
X75928364Y-26765611D01*
X76017186Y-26810868D01*
X76021054Y-26812839D01*
X76071850Y-26860814D01*
X76088645Y-26928635D01*
X76066108Y-26994770D01*
X76021054Y-27033809D01*
X75928360Y-27081039D01*
X75762760Y-27201352D01*
X75618002Y-27346110D01*
X75497689Y-27511710D01*
X75404755Y-27694100D01*
X75341496Y-27888789D01*
X75309474Y-28090972D01*
X75309474Y-28295675D01*
X75341496Y-28497858D01*
X75404755Y-28692547D01*
X75457320Y-28795709D01*
X75497686Y-28874933D01*
X75497689Y-28874937D01*
X75618002Y-29040537D01*
X75762760Y-29185295D01*
X75917723Y-29297880D01*
X75928364Y-29305611D01*
X76044581Y-29364827D01*
X76110750Y-29398542D01*
X76110752Y-29398542D01*
X76110755Y-29398544D01*
X76215111Y-29432451D01*
X76305439Y-29461801D01*
X76406531Y-29477812D01*
X76507622Y-29493824D01*
X76507623Y-29493824D01*
X76712325Y-29493824D01*
X76712326Y-29493824D01*
X76914508Y-29461801D01*
X77109193Y-29398544D01*
X77291584Y-29305611D01*
X77384564Y-29238056D01*
X77457187Y-29185295D01*
X77457189Y-29185292D01*
X77457193Y-29185290D01*
X77601940Y-29040543D01*
X77601944Y-29040538D01*
X77601945Y-29040537D01*
X77722258Y-28874938D01*
X77722259Y-28874937D01*
X77722261Y-28874934D01*
X77769490Y-28782241D01*
X77817463Y-28731447D01*
X77885284Y-28714652D01*
X77951419Y-28737189D01*
X77990457Y-28782241D01*
X77990460Y-28782245D01*
X78037689Y-28874938D01*
X78158002Y-29040537D01*
X78302760Y-29185295D01*
X78457723Y-29297880D01*
X78468364Y-29305611D01*
X78584581Y-29364827D01*
X78650750Y-29398542D01*
X78650752Y-29398542D01*
X78650755Y-29398544D01*
X78755111Y-29432451D01*
X78845439Y-29461801D01*
X78946531Y-29477812D01*
X79047622Y-29493824D01*
X79047623Y-29493824D01*
X79252325Y-29493824D01*
X79252326Y-29493824D01*
X79454508Y-29461801D01*
X79649193Y-29398544D01*
X79831584Y-29305611D01*
X79924564Y-29238056D01*
X79997187Y-29185295D01*
X79997189Y-29185292D01*
X79997193Y-29185290D01*
X80141940Y-29040543D01*
X80141944Y-29040538D01*
X80141945Y-29040537D01*
X80262258Y-28874938D01*
X80262259Y-28874937D01*
X80262261Y-28874934D01*
X80309490Y-28782241D01*
X80357463Y-28731447D01*
X80425284Y-28714652D01*
X80491419Y-28737189D01*
X80530457Y-28782241D01*
X80530460Y-28782245D01*
X80577689Y-28874938D01*
X80698002Y-29040537D01*
X80842760Y-29185295D01*
X80997723Y-29297880D01*
X81008364Y-29305611D01*
X81124581Y-29364827D01*
X81190750Y-29398542D01*
X81190752Y-29398542D01*
X81190755Y-29398544D01*
X81295111Y-29432451D01*
X81385439Y-29461801D01*
X81486531Y-29477812D01*
X81587622Y-29493824D01*
X81587623Y-29493824D01*
X81792325Y-29493824D01*
X81792326Y-29493824D01*
X81994508Y-29461801D01*
X82189193Y-29398544D01*
X82371584Y-29305611D01*
X82464564Y-29238056D01*
X82537187Y-29185295D01*
X82537189Y-29185292D01*
X82537193Y-29185290D01*
X82681940Y-29040543D01*
X82681944Y-29040538D01*
X82681945Y-29040537D01*
X82802259Y-28874937D01*
X82802261Y-28874934D01*
X82849489Y-28782243D01*
X82897462Y-28731449D01*
X82965283Y-28714653D01*
X83031418Y-28737190D01*
X83070458Y-28782244D01*
X83117685Y-28874933D01*
X83117688Y-28874937D01*
X83238001Y-29040537D01*
X83382759Y-29185295D01*
X83537722Y-29297880D01*
X83548363Y-29305611D01*
X83664580Y-29364827D01*
X83730749Y-29398542D01*
X83730751Y-29398542D01*
X83730754Y-29398544D01*
X83835110Y-29432451D01*
X83925438Y-29461801D01*
X84026530Y-29477812D01*
X84127621Y-29493824D01*
X84127622Y-29493824D01*
X84332324Y-29493824D01*
X84332325Y-29493824D01*
X84534507Y-29461801D01*
X84729192Y-29398544D01*
X84911583Y-29305611D01*
X85004563Y-29238056D01*
X85077186Y-29185295D01*
X85077188Y-29185292D01*
X85077192Y-29185290D01*
X85221939Y-29040543D01*
X85221943Y-29040538D01*
X85221944Y-29040537D01*
X85342257Y-28874938D01*
X85342258Y-28874937D01*
X85342260Y-28874934D01*
X85389489Y-28782241D01*
X85437462Y-28731447D01*
X85505283Y-28714652D01*
X85571418Y-28737189D01*
X85610457Y-28782242D01*
X85657686Y-28874934D01*
X85657689Y-28874938D01*
X85778002Y-29040538D01*
X85922760Y-29185296D01*
X86077723Y-29297881D01*
X86088364Y-29305612D01*
X86204581Y-29364828D01*
X86270750Y-29398543D01*
X86270752Y-29398543D01*
X86270755Y-29398545D01*
X86375111Y-29432452D01*
X86465439Y-29461802D01*
X86566531Y-29477813D01*
X86667622Y-29493825D01*
X86667623Y-29493825D01*
X86872325Y-29493825D01*
X86872326Y-29493825D01*
X87074508Y-29461802D01*
X87269193Y-29398545D01*
X87451584Y-29305612D01*
X87544564Y-29238057D01*
X87617187Y-29185296D01*
X87617189Y-29185293D01*
X87617193Y-29185291D01*
X87761940Y-29040544D01*
X87761942Y-29040540D01*
X87761945Y-29040538D01*
X87882258Y-28874939D01*
X87882259Y-28874938D01*
X87882261Y-28874935D01*
X87929490Y-28782242D01*
X87977463Y-28731448D01*
X88045284Y-28714653D01*
X88111419Y-28737190D01*
X88150459Y-28782244D01*
X88197686Y-28874933D01*
X88197689Y-28874937D01*
X88318002Y-29040537D01*
X88462760Y-29185295D01*
X88617723Y-29297880D01*
X88628364Y-29305611D01*
X88744581Y-29364827D01*
X88810750Y-29398542D01*
X88810752Y-29398542D01*
X88810755Y-29398544D01*
X88915111Y-29432451D01*
X89005439Y-29461801D01*
X89106531Y-29477812D01*
X89207622Y-29493824D01*
X89207623Y-29493824D01*
X89412325Y-29493824D01*
X89412326Y-29493824D01*
X89614508Y-29461801D01*
X89809193Y-29398544D01*
X89991584Y-29305611D01*
X90084564Y-29238056D01*
X90157187Y-29185295D01*
X90157189Y-29185292D01*
X90157193Y-29185290D01*
X90301940Y-29040543D01*
X90301944Y-29040538D01*
X90301945Y-29040537D01*
X90422258Y-28874938D01*
X90422259Y-28874937D01*
X90422261Y-28874934D01*
X90469490Y-28782241D01*
X90517463Y-28731447D01*
X90585284Y-28714652D01*
X90651419Y-28737189D01*
X90690457Y-28782241D01*
X90690460Y-28782245D01*
X90737689Y-28874938D01*
X90858002Y-29040537D01*
X91002760Y-29185295D01*
X91157723Y-29297880D01*
X91168364Y-29305611D01*
X91284581Y-29364827D01*
X91350750Y-29398542D01*
X91350752Y-29398542D01*
X91350755Y-29398544D01*
X91455111Y-29432451D01*
X91545439Y-29461801D01*
X91646531Y-29477812D01*
X91747622Y-29493824D01*
X91747623Y-29493824D01*
X91952325Y-29493824D01*
X91952326Y-29493824D01*
X92154508Y-29461801D01*
X92349193Y-29398544D01*
X92531584Y-29305611D01*
X92624564Y-29238056D01*
X92697187Y-29185295D01*
X92697189Y-29185292D01*
X92697193Y-29185290D01*
X92841940Y-29040543D01*
X92841944Y-29040538D01*
X92841945Y-29040537D01*
X92962258Y-28874938D01*
X92962259Y-28874937D01*
X92962261Y-28874934D01*
X93009490Y-28782241D01*
X93057463Y-28731447D01*
X93125284Y-28714652D01*
X93191419Y-28737189D01*
X93230457Y-28782241D01*
X93230460Y-28782245D01*
X93277689Y-28874938D01*
X93398002Y-29040537D01*
X93542760Y-29185295D01*
X93697723Y-29297880D01*
X93708364Y-29305611D01*
X93824581Y-29364827D01*
X93890750Y-29398542D01*
X93890752Y-29398542D01*
X93890755Y-29398544D01*
X93995111Y-29432451D01*
X94085439Y-29461801D01*
X94186531Y-29477812D01*
X94287622Y-29493824D01*
X94287623Y-29493824D01*
X94492325Y-29493824D01*
X94492326Y-29493824D01*
X94694508Y-29461801D01*
X94889193Y-29398544D01*
X95071584Y-29305611D01*
X95164564Y-29238056D01*
X95237187Y-29185295D01*
X95237189Y-29185292D01*
X95237193Y-29185290D01*
X95381940Y-29040543D01*
X95381944Y-29040538D01*
X95381945Y-29040537D01*
X95502259Y-28874937D01*
X95502261Y-28874934D01*
X95549489Y-28782243D01*
X95597462Y-28731449D01*
X95665283Y-28714653D01*
X95731418Y-28737190D01*
X95770457Y-28782244D01*
X95817685Y-28874933D01*
X95817686Y-28874935D01*
X95938002Y-29040538D01*
X96082760Y-29185296D01*
X96237723Y-29297881D01*
X96248364Y-29305612D01*
X96364581Y-29364828D01*
X96430750Y-29398543D01*
X96430752Y-29398543D01*
X96430755Y-29398545D01*
X96535111Y-29432452D01*
X96625439Y-29461802D01*
X96726531Y-29477813D01*
X96827622Y-29493825D01*
X96827623Y-29493825D01*
X97032325Y-29493825D01*
X97032326Y-29493825D01*
X97234508Y-29461802D01*
X97429193Y-29398545D01*
X97611584Y-29305612D01*
X97704564Y-29238057D01*
X97777187Y-29185296D01*
X97777189Y-29185293D01*
X97777193Y-29185291D01*
X97921940Y-29040544D01*
X97921942Y-29040540D01*
X97921945Y-29040538D01*
X98042258Y-28874939D01*
X98042259Y-28874938D01*
X98042261Y-28874935D01*
X98089490Y-28782242D01*
X98137463Y-28731448D01*
X98205284Y-28714653D01*
X98271419Y-28737190D01*
X98310459Y-28782244D01*
X98357686Y-28874933D01*
X98357689Y-28874937D01*
X98478002Y-29040537D01*
X98622760Y-29185295D01*
X98777723Y-29297880D01*
X98788364Y-29305611D01*
X98904581Y-29364827D01*
X98970750Y-29398542D01*
X98970752Y-29398542D01*
X98970755Y-29398544D01*
X99075111Y-29432451D01*
X99165439Y-29461801D01*
X99266531Y-29477812D01*
X99367622Y-29493824D01*
X99367623Y-29493824D01*
X99572325Y-29493824D01*
X99572326Y-29493824D01*
X99774508Y-29461801D01*
X99969193Y-29398544D01*
X100151584Y-29305611D01*
X100244564Y-29238056D01*
X100317187Y-29185295D01*
X100317189Y-29185292D01*
X100317193Y-29185290D01*
X100461940Y-29040543D01*
X100461944Y-29040538D01*
X100461945Y-29040537D01*
X100582258Y-28874938D01*
X100582259Y-28874937D01*
X100582261Y-28874934D01*
X100629490Y-28782241D01*
X100677463Y-28731447D01*
X100745284Y-28714652D01*
X100811419Y-28737189D01*
X100850457Y-28782241D01*
X100850460Y-28782245D01*
X100897689Y-28874938D01*
X101018002Y-29040537D01*
X101162760Y-29185295D01*
X101317723Y-29297880D01*
X101328364Y-29305611D01*
X101444581Y-29364827D01*
X101510750Y-29398542D01*
X101510752Y-29398542D01*
X101510755Y-29398544D01*
X101615111Y-29432451D01*
X101705439Y-29461801D01*
X101806531Y-29477812D01*
X101907622Y-29493824D01*
X101907623Y-29493824D01*
X102112325Y-29493824D01*
X102112326Y-29493824D01*
X102314508Y-29461801D01*
X102509193Y-29398544D01*
X102691584Y-29305611D01*
X102784564Y-29238056D01*
X102857187Y-29185295D01*
X102857189Y-29185292D01*
X102857193Y-29185290D01*
X103001940Y-29040543D01*
X103001944Y-29040538D01*
X103001945Y-29040537D01*
X103122258Y-28874938D01*
X103122259Y-28874937D01*
X103122261Y-28874934D01*
X103169490Y-28782241D01*
X103217463Y-28731447D01*
X103285284Y-28714652D01*
X103351419Y-28737189D01*
X103390457Y-28782241D01*
X103390460Y-28782245D01*
X103437689Y-28874938D01*
X103558002Y-29040537D01*
X103702760Y-29185295D01*
X103857723Y-29297880D01*
X103868364Y-29305611D01*
X103984581Y-29364827D01*
X104050750Y-29398542D01*
X104050752Y-29398542D01*
X104050755Y-29398544D01*
X104155111Y-29432451D01*
X104245439Y-29461801D01*
X104346531Y-29477812D01*
X104447622Y-29493824D01*
X104447623Y-29493824D01*
X104652325Y-29493824D01*
X104652326Y-29493824D01*
X104854508Y-29461801D01*
X105049193Y-29398544D01*
X105231584Y-29305611D01*
X105324564Y-29238056D01*
X105397187Y-29185295D01*
X105397189Y-29185292D01*
X105397193Y-29185290D01*
X105541940Y-29040543D01*
X105541944Y-29040538D01*
X105541945Y-29040537D01*
X105662259Y-28874937D01*
X105662261Y-28874934D01*
X105709489Y-28782243D01*
X105757462Y-28731449D01*
X105825283Y-28714653D01*
X105891418Y-28737190D01*
X105930457Y-28782244D01*
X105977685Y-28874933D01*
X105977686Y-28874935D01*
X106098002Y-29040538D01*
X106242760Y-29185296D01*
X106397723Y-29297881D01*
X106408364Y-29305612D01*
X106524581Y-29364828D01*
X106590750Y-29398543D01*
X106590752Y-29398543D01*
X106590755Y-29398545D01*
X106695111Y-29432452D01*
X106785439Y-29461802D01*
X106886531Y-29477813D01*
X106987622Y-29493825D01*
X106987623Y-29493825D01*
X107192325Y-29493825D01*
X107192326Y-29493825D01*
X107394508Y-29461802D01*
X107589193Y-29398545D01*
X107771584Y-29305612D01*
X107864564Y-29238057D01*
X107937187Y-29185296D01*
X107937189Y-29185293D01*
X107937193Y-29185291D01*
X108081940Y-29040544D01*
X108081942Y-29040540D01*
X108081945Y-29040538D01*
X108202259Y-28874938D01*
X108202261Y-28874935D01*
X108249490Y-28782242D01*
X108297463Y-28731448D01*
X108365284Y-28714652D01*
X108431419Y-28737189D01*
X108470458Y-28782243D01*
X108517686Y-28874932D01*
X108517687Y-28874934D01*
X108638003Y-29040537D01*
X108782761Y-29185295D01*
X108937724Y-29297880D01*
X108948365Y-29305611D01*
X109064582Y-29364827D01*
X109130751Y-29398542D01*
X109130753Y-29398542D01*
X109130756Y-29398544D01*
X109235112Y-29432451D01*
X109325440Y-29461801D01*
X109426532Y-29477812D01*
X109527623Y-29493824D01*
X109527624Y-29493824D01*
X109732326Y-29493824D01*
X109732327Y-29493824D01*
X109934509Y-29461801D01*
X110129194Y-29398544D01*
X110311585Y-29305611D01*
X110404565Y-29238056D01*
X110477188Y-29185295D01*
X110477190Y-29185292D01*
X110477194Y-29185290D01*
X110621941Y-29040543D01*
X110621945Y-29040538D01*
X110621946Y-29040537D01*
X110742260Y-28874937D01*
X110742262Y-28874934D01*
X110789490Y-28782243D01*
X110837463Y-28731449D01*
X110905284Y-28714653D01*
X110971419Y-28737190D01*
X111010459Y-28782244D01*
X111057686Y-28874933D01*
X111057689Y-28874937D01*
X111178002Y-29040537D01*
X111322760Y-29185295D01*
X111477723Y-29297880D01*
X111488364Y-29305611D01*
X111604581Y-29364827D01*
X111670750Y-29398542D01*
X111670752Y-29398542D01*
X111670755Y-29398544D01*
X111775111Y-29432451D01*
X111865439Y-29461801D01*
X111966531Y-29477812D01*
X112067622Y-29493824D01*
X112067623Y-29493824D01*
X112272325Y-29493824D01*
X112272326Y-29493824D01*
X112474508Y-29461801D01*
X112669193Y-29398544D01*
X112851584Y-29305611D01*
X112944564Y-29238056D01*
X113017187Y-29185295D01*
X113017189Y-29185292D01*
X113017193Y-29185290D01*
X113161940Y-29040543D01*
X113161944Y-29040538D01*
X113161945Y-29040537D01*
X113282258Y-28874938D01*
X113282259Y-28874937D01*
X113282261Y-28874934D01*
X113329490Y-28782241D01*
X113377463Y-28731447D01*
X113445284Y-28714652D01*
X113511419Y-28737189D01*
X113550457Y-28782241D01*
X113550460Y-28782245D01*
X113597689Y-28874938D01*
X113718002Y-29040537D01*
X113862760Y-29185295D01*
X114017723Y-29297880D01*
X114028364Y-29305611D01*
X114144581Y-29364827D01*
X114210750Y-29398542D01*
X114210752Y-29398542D01*
X114210755Y-29398544D01*
X114315111Y-29432451D01*
X114405439Y-29461801D01*
X114506531Y-29477812D01*
X114607622Y-29493824D01*
X114607623Y-29493824D01*
X114812325Y-29493824D01*
X114812326Y-29493824D01*
X115014508Y-29461801D01*
X115209193Y-29398544D01*
X115391584Y-29305611D01*
X115484564Y-29238056D01*
X115557187Y-29185295D01*
X115557189Y-29185292D01*
X115557193Y-29185290D01*
X115701940Y-29040543D01*
X115701944Y-29040538D01*
X115701945Y-29040537D01*
X115822258Y-28874938D01*
X115822259Y-28874937D01*
X115822261Y-28874934D01*
X115869490Y-28782241D01*
X115917463Y-28731447D01*
X115985284Y-28714652D01*
X116051419Y-28737189D01*
X116090457Y-28782241D01*
X116090460Y-28782245D01*
X116137689Y-28874938D01*
X116258002Y-29040537D01*
X116402760Y-29185295D01*
X116557723Y-29297880D01*
X116568364Y-29305611D01*
X116684581Y-29364827D01*
X116750750Y-29398542D01*
X116750752Y-29398542D01*
X116750755Y-29398544D01*
X116855111Y-29432451D01*
X116945439Y-29461801D01*
X117046531Y-29477812D01*
X117147622Y-29493824D01*
X117147623Y-29493824D01*
X117352325Y-29493824D01*
X117352326Y-29493824D01*
X117554508Y-29461801D01*
X117749193Y-29398544D01*
X117931584Y-29305611D01*
X118024564Y-29238056D01*
X118097187Y-29185295D01*
X118097189Y-29185292D01*
X118097193Y-29185290D01*
X118241940Y-29040543D01*
X118241944Y-29040538D01*
X118241945Y-29040537D01*
X118362257Y-28874939D01*
X118362261Y-28874934D01*
X118455194Y-28692543D01*
X118518451Y-28497858D01*
X118550474Y-28295676D01*
X118550474Y-28090972D01*
X118519974Y-27898405D01*
X118518451Y-27888789D01*
X118455192Y-27694100D01*
X118409488Y-27604403D01*
X118362261Y-27511714D01*
X118354530Y-27501073D01*
X118241945Y-27346110D01*
X118097193Y-27201358D01*
X118060904Y-27174993D01*
X118018238Y-27119663D01*
X118012259Y-27050050D01*
X118044864Y-26988255D01*
X118105702Y-26953897D01*
X118120536Y-26951384D01*
X118157457Y-26947415D01*
X118292302Y-26897121D01*
X118292301Y-26897121D01*
X118292305Y-26897120D01*
X118407520Y-26810870D01*
X118493770Y-26695655D01*
X118544065Y-26560807D01*
X118550474Y-26501197D01*
X118550473Y-24805452D01*
X118544065Y-24745841D01*
X118512552Y-24661351D01*
X118493771Y-24610995D01*
X118493767Y-24610988D01*
X118407521Y-24495779D01*
X118407518Y-24495776D01*
X118292309Y-24409530D01*
X118292302Y-24409526D01*
X118157456Y-24359232D01*
X118157457Y-24359232D01*
X118097857Y-24352825D01*
X118097855Y-24352824D01*
X118097847Y-24352824D01*
X118097838Y-24352824D01*
X116402103Y-24352824D01*
X116402097Y-24352825D01*
X116342490Y-24359232D01*
X116207645Y-24409526D01*
X116207638Y-24409530D01*
X116092429Y-24495776D01*
X116092426Y-24495779D01*
X116006180Y-24610988D01*
X116006176Y-24610995D01*
X115955882Y-24745840D01*
X115951913Y-24782764D01*
X115925175Y-24847315D01*
X115867783Y-24887163D01*
X115797957Y-24889656D01*
X115737869Y-24854003D01*
X115728306Y-24842394D01*
X115701941Y-24806106D01*
X115557187Y-24661352D01*
X115391587Y-24541039D01*
X115391586Y-24541038D01*
X115391584Y-24541037D01*
X115334627Y-24512015D01*
X115209197Y-24448105D01*
X115014508Y-24384846D01*
X114839969Y-24357202D01*
X114812326Y-24352824D01*
X114607622Y-24352824D01*
X114583303Y-24356675D01*
X114405439Y-24384846D01*
X114210750Y-24448105D01*
X114028360Y-24541039D01*
X113862760Y-24661352D01*
X113718002Y-24806110D01*
X113597689Y-24971710D01*
X113550459Y-25064404D01*
X113502484Y-25115200D01*
X113434663Y-25131995D01*
X113368528Y-25109458D01*
X113329489Y-25064404D01*
X113328857Y-25063164D01*
X113282261Y-24971714D01*
X113220832Y-24887163D01*
X113161945Y-24806110D01*
X113017187Y-24661352D01*
X112851587Y-24541039D01*
X112851586Y-24541038D01*
X112851584Y-24541037D01*
X112794627Y-24512015D01*
X112669197Y-24448105D01*
X112474508Y-24384846D01*
X112299969Y-24357202D01*
X112272326Y-24352824D01*
X112067622Y-24352824D01*
X112043303Y-24356675D01*
X111865439Y-24384846D01*
X111670750Y-24448105D01*
X111488360Y-24541039D01*
X111322760Y-24661352D01*
X111178002Y-24806110D01*
X111057686Y-24971713D01*
X111057685Y-24971715D01*
X111010458Y-25064403D01*
X110962484Y-25115199D01*
X110894663Y-25131994D01*
X110828528Y-25109456D01*
X110789489Y-25064403D01*
X110742262Y-24971715D01*
X110742262Y-24971714D01*
X110742260Y-24971711D01*
X110742259Y-24971709D01*
X110621946Y-24806110D01*
X110477188Y-24661352D01*
X110311588Y-24541039D01*
X110311587Y-24541038D01*
X110311585Y-24541037D01*
X110254628Y-24512015D01*
X110129198Y-24448105D01*
X109934509Y-24384846D01*
X109759970Y-24357202D01*
X109732327Y-24352824D01*
X109527623Y-24352824D01*
X109503304Y-24356675D01*
X109325440Y-24384846D01*
X109130751Y-24448105D01*
X108948361Y-24541039D01*
X108782761Y-24661352D01*
X108638003Y-24806110D01*
X108517688Y-24971712D01*
X108470458Y-25064405D01*
X108422483Y-25115200D01*
X108354662Y-25131995D01*
X108288528Y-25109457D01*
X108249489Y-25064404D01*
X108249488Y-25064403D01*
X108202261Y-24971713D01*
X108202259Y-24971710D01*
X108202258Y-24971708D01*
X108081945Y-24806109D01*
X107937187Y-24661351D01*
X107771587Y-24541038D01*
X107771586Y-24541037D01*
X107771584Y-24541036D01*
X107714627Y-24512014D01*
X107589197Y-24448104D01*
X107394508Y-24384845D01*
X107219969Y-24357201D01*
X107192326Y-24352823D01*
X106987622Y-24352823D01*
X106963303Y-24356674D01*
X106785439Y-24384845D01*
X106590750Y-24448104D01*
X106408360Y-24541038D01*
X106242760Y-24661351D01*
X106098002Y-24806109D01*
X105977687Y-24971711D01*
X105930457Y-25064404D01*
X105882482Y-25115199D01*
X105814661Y-25131994D01*
X105748527Y-25109456D01*
X105709488Y-25064403D01*
X105662261Y-24971715D01*
X105662261Y-24971714D01*
X105662259Y-24971711D01*
X105662258Y-24971709D01*
X105541945Y-24806110D01*
X105397187Y-24661352D01*
X105231587Y-24541039D01*
X105231586Y-24541038D01*
X105231584Y-24541037D01*
X105174627Y-24512015D01*
X105049197Y-24448105D01*
X104854508Y-24384846D01*
X104679969Y-24357202D01*
X104652326Y-24352824D01*
X104447622Y-24352824D01*
X104423303Y-24356675D01*
X104245439Y-24384846D01*
X104050750Y-24448105D01*
X103868360Y-24541039D01*
X103702760Y-24661352D01*
X103558002Y-24806110D01*
X103437689Y-24971710D01*
X103390459Y-25064404D01*
X103342484Y-25115200D01*
X103274663Y-25131995D01*
X103208528Y-25109458D01*
X103169489Y-25064404D01*
X103168857Y-25063164D01*
X103122261Y-24971714D01*
X103060832Y-24887163D01*
X103001945Y-24806110D01*
X102857187Y-24661352D01*
X102691587Y-24541039D01*
X102691586Y-24541038D01*
X102691584Y-24541037D01*
X102634627Y-24512015D01*
X102509197Y-24448105D01*
X102314508Y-24384846D01*
X102139969Y-24357202D01*
X102112326Y-24352824D01*
X101907622Y-24352824D01*
X101883303Y-24356675D01*
X101705439Y-24384846D01*
X101510750Y-24448105D01*
X101328360Y-24541039D01*
X101162760Y-24661352D01*
X101018002Y-24806110D01*
X100897689Y-24971710D01*
X100850459Y-25064404D01*
X100802484Y-25115200D01*
X100734663Y-25131995D01*
X100668528Y-25109458D01*
X100629489Y-25064404D01*
X100628857Y-25063164D01*
X100582261Y-24971714D01*
X100520832Y-24887163D01*
X100461945Y-24806110D01*
X100317187Y-24661352D01*
X100151587Y-24541039D01*
X100151586Y-24541038D01*
X100151584Y-24541037D01*
X100094627Y-24512015D01*
X99969197Y-24448105D01*
X99774508Y-24384846D01*
X99599969Y-24357202D01*
X99572326Y-24352824D01*
X99367622Y-24352824D01*
X99343303Y-24356675D01*
X99165439Y-24384846D01*
X98970750Y-24448105D01*
X98788360Y-24541039D01*
X98622760Y-24661352D01*
X98478002Y-24806110D01*
X98357686Y-24971713D01*
X98357685Y-24971715D01*
X98310458Y-25064403D01*
X98262484Y-25115199D01*
X98194663Y-25131994D01*
X98128528Y-25109456D01*
X98089489Y-25064403D01*
X98088857Y-25063163D01*
X98042261Y-24971713D01*
X97982644Y-24889656D01*
X97921945Y-24806109D01*
X97777187Y-24661351D01*
X97611587Y-24541038D01*
X97611586Y-24541037D01*
X97611584Y-24541036D01*
X97554627Y-24512014D01*
X97429197Y-24448104D01*
X97234508Y-24384845D01*
X97059969Y-24357201D01*
X97032326Y-24352823D01*
X96827622Y-24352823D01*
X96803303Y-24356674D01*
X96625439Y-24384845D01*
X96430750Y-24448104D01*
X96248360Y-24541038D01*
X96082760Y-24661351D01*
X95938002Y-24806109D01*
X95817687Y-24971711D01*
X95770457Y-25064404D01*
X95722482Y-25115199D01*
X95654661Y-25131994D01*
X95588527Y-25109456D01*
X95549488Y-25064403D01*
X95502261Y-24971715D01*
X95502261Y-24971714D01*
X95502259Y-24971711D01*
X95502258Y-24971709D01*
X95381945Y-24806110D01*
X95237187Y-24661352D01*
X95071587Y-24541039D01*
X95071586Y-24541038D01*
X95071584Y-24541037D01*
X95014627Y-24512015D01*
X94889197Y-24448105D01*
X94694508Y-24384846D01*
X94519969Y-24357202D01*
X94492326Y-24352824D01*
X94287622Y-24352824D01*
X94263303Y-24356675D01*
X94085439Y-24384846D01*
X93890750Y-24448105D01*
X93708360Y-24541039D01*
X93542760Y-24661352D01*
X93398002Y-24806110D01*
X93277689Y-24971710D01*
X93230459Y-25064404D01*
X93182484Y-25115200D01*
X93114663Y-25131995D01*
X93048528Y-25109458D01*
X93009489Y-25064404D01*
X93008857Y-25063164D01*
X92962261Y-24971714D01*
X92900832Y-24887163D01*
X92841945Y-24806110D01*
X92697187Y-24661352D01*
X92531587Y-24541039D01*
X92531586Y-24541038D01*
X92531584Y-24541037D01*
X92474627Y-24512015D01*
X92349197Y-24448105D01*
X92154508Y-24384846D01*
X91979969Y-24357202D01*
X91952326Y-24352824D01*
X91747622Y-24352824D01*
X91723303Y-24356675D01*
X91545439Y-24384846D01*
X91350750Y-24448105D01*
X91168360Y-24541039D01*
X91002760Y-24661352D01*
X90858002Y-24806110D01*
X90737689Y-24971710D01*
X90690459Y-25064404D01*
X90642484Y-25115200D01*
X90574663Y-25131995D01*
X90508528Y-25109458D01*
X90469489Y-25064404D01*
X90468857Y-25063164D01*
X90422261Y-24971714D01*
X90360832Y-24887163D01*
X90301945Y-24806110D01*
X90157187Y-24661352D01*
X89991587Y-24541039D01*
X89991586Y-24541038D01*
X89991584Y-24541037D01*
X89934627Y-24512015D01*
X89809197Y-24448105D01*
X89614508Y-24384846D01*
X89439969Y-24357202D01*
X89412326Y-24352824D01*
X89207622Y-24352824D01*
X89183303Y-24356675D01*
X89005439Y-24384846D01*
X88810750Y-24448105D01*
X88628360Y-24541039D01*
X88462760Y-24661352D01*
X88318002Y-24806110D01*
X88197686Y-24971713D01*
X88197685Y-24971715D01*
X88150458Y-25064403D01*
X88102484Y-25115199D01*
X88034663Y-25131994D01*
X87968528Y-25109456D01*
X87929489Y-25064403D01*
X87928857Y-25063163D01*
X87882261Y-24971713D01*
X87822644Y-24889656D01*
X87761945Y-24806109D01*
X87617187Y-24661351D01*
X87451587Y-24541038D01*
X87451586Y-24541037D01*
X87451584Y-24541036D01*
X87394627Y-24512014D01*
X87269197Y-24448104D01*
X87074508Y-24384845D01*
X86899969Y-24357201D01*
X86872326Y-24352823D01*
X86667622Y-24352823D01*
X86643303Y-24356674D01*
X86465439Y-24384845D01*
X86270750Y-24448104D01*
X86088360Y-24541038D01*
X85922760Y-24661351D01*
X85778002Y-24806109D01*
X85657686Y-24971712D01*
X85657685Y-24971714D01*
X85610457Y-25064404D01*
X85562483Y-25115200D01*
X85494662Y-25131995D01*
X85428527Y-25109457D01*
X85389488Y-25064404D01*
X85388856Y-25063164D01*
X85342260Y-24971714D01*
X85280831Y-24887163D01*
X85221944Y-24806110D01*
X85077186Y-24661352D01*
X84911586Y-24541039D01*
X84911585Y-24541038D01*
X84911583Y-24541037D01*
X84854626Y-24512015D01*
X84729196Y-24448105D01*
X84534507Y-24384846D01*
X84359968Y-24357202D01*
X84332325Y-24352824D01*
X84127621Y-24352824D01*
X84103302Y-24356675D01*
X83925438Y-24384846D01*
X83730749Y-24448105D01*
X83548359Y-24541039D01*
X83382759Y-24661352D01*
X83238001Y-24806110D01*
X83117685Y-24971713D01*
X83117684Y-24971715D01*
X83070457Y-25064403D01*
X83022483Y-25115199D01*
X82954662Y-25131994D01*
X82888527Y-25109456D01*
X82849488Y-25064403D01*
X82802261Y-24971715D01*
X82802261Y-24971714D01*
X82802259Y-24971711D01*
X82802258Y-24971709D01*
X82681945Y-24806110D01*
X82537187Y-24661352D01*
X82371587Y-24541039D01*
X82371586Y-24541038D01*
X82371584Y-24541037D01*
X82314627Y-24512015D01*
X82189197Y-24448105D01*
X81994508Y-24384846D01*
X81819969Y-24357202D01*
X81792326Y-24352824D01*
X81587622Y-24352824D01*
X81563303Y-24356675D01*
X81385439Y-24384846D01*
X81190750Y-24448105D01*
X81008360Y-24541039D01*
X80842760Y-24661352D01*
X80698002Y-24806110D01*
X80577689Y-24971710D01*
X80530459Y-25064404D01*
X80482484Y-25115200D01*
X80414663Y-25131995D01*
X80348528Y-25109458D01*
X80309489Y-25064404D01*
X80308857Y-25063164D01*
X80262261Y-24971714D01*
X80200832Y-24887163D01*
X80141945Y-24806110D01*
X79997187Y-24661352D01*
X79831587Y-24541039D01*
X79831586Y-24541038D01*
X79831584Y-24541037D01*
X79774627Y-24512015D01*
X79649197Y-24448105D01*
X79454508Y-24384846D01*
X79279969Y-24357202D01*
X79252326Y-24352824D01*
X79047622Y-24352824D01*
X79023303Y-24356675D01*
X78845439Y-24384846D01*
X78650750Y-24448105D01*
X78468360Y-24541039D01*
X78302760Y-24661352D01*
X78158002Y-24806110D01*
X78037689Y-24971710D01*
X77990459Y-25064404D01*
X77942484Y-25115200D01*
X77874663Y-25131995D01*
X77808528Y-25109458D01*
X77769489Y-25064404D01*
X77768857Y-25063164D01*
X77722261Y-24971714D01*
X77660832Y-24887163D01*
X77601945Y-24806110D01*
X77457187Y-24661352D01*
X77291587Y-24541039D01*
X77291586Y-24541038D01*
X77291584Y-24541037D01*
X77234627Y-24512015D01*
X77109197Y-24448105D01*
X76914508Y-24384846D01*
X76739969Y-24357202D01*
X76712326Y-24352824D01*
X76507622Y-24352824D01*
X76483303Y-24356675D01*
X76305439Y-24384846D01*
X76110750Y-24448105D01*
X75928360Y-24541039D01*
X75762760Y-24661352D01*
X75618002Y-24806110D01*
X75497689Y-24971710D01*
X75404755Y-25154100D01*
X75341496Y-25348789D01*
X75309474Y-25550972D01*
X62800500Y-25550972D01*
X62800500Y-21778711D01*
X66949500Y-21778711D01*
X66949500Y-22021288D01*
X66981161Y-22261785D01*
X67043947Y-22496104D01*
X67136773Y-22720205D01*
X67136776Y-22720212D01*
X67258064Y-22930289D01*
X67258066Y-22930292D01*
X67258067Y-22930293D01*
X67405733Y-23122736D01*
X67405739Y-23122743D01*
X67577256Y-23294260D01*
X67577262Y-23294265D01*
X67769711Y-23441936D01*
X67979788Y-23563224D01*
X68203900Y-23656054D01*
X68438211Y-23718838D01*
X68618586Y-23742584D01*
X68678711Y-23750500D01*
X68678712Y-23750500D01*
X68921289Y-23750500D01*
X68969388Y-23744167D01*
X69161789Y-23718838D01*
X69396100Y-23656054D01*
X69620212Y-23563224D01*
X69830289Y-23441936D01*
X70022738Y-23294265D01*
X70194265Y-23122738D01*
X70341936Y-22930289D01*
X70463224Y-22720212D01*
X70556054Y-22496100D01*
X70618838Y-22261789D01*
X70650500Y-22021288D01*
X70650500Y-21778712D01*
X70618838Y-21538211D01*
X70556054Y-21303900D01*
X70463224Y-21079788D01*
X70341936Y-20869711D01*
X70254352Y-20755569D01*
X70194266Y-20677263D01*
X70194260Y-20677256D01*
X70022743Y-20505739D01*
X70022736Y-20505733D01*
X69830293Y-20358067D01*
X69830292Y-20358066D01*
X69830289Y-20358064D01*
X69620212Y-20236776D01*
X69620205Y-20236773D01*
X69396104Y-20143947D01*
X69161785Y-20081161D01*
X68921289Y-20049500D01*
X68921288Y-20049500D01*
X68678712Y-20049500D01*
X68678711Y-20049500D01*
X68438214Y-20081161D01*
X68203895Y-20143947D01*
X67979794Y-20236773D01*
X67979785Y-20236777D01*
X67769706Y-20358067D01*
X67577263Y-20505733D01*
X67577256Y-20505739D01*
X67405739Y-20677256D01*
X67405733Y-20677263D01*
X67258067Y-20869706D01*
X67136777Y-21079785D01*
X67136773Y-21079794D01*
X67043947Y-21303895D01*
X66981161Y-21538214D01*
X66949500Y-21778711D01*
X62800500Y-21778711D01*
X62800500Y-19042016D01*
X123292481Y-19042016D01*
X124171582Y-19042016D01*
X124146562Y-19102418D01*
X124121583Y-19227997D01*
X124121583Y-19356035D01*
X124146562Y-19481614D01*
X124171582Y-19542016D01*
X123292481Y-19542016D01*
X123308517Y-19643263D01*
X123381480Y-19867818D01*
X123488668Y-20078187D01*
X123627449Y-20269202D01*
X123794396Y-20436149D01*
X123985411Y-20574930D01*
X124195778Y-20682118D01*
X124420327Y-20755079D01*
X124420333Y-20755081D01*
X124521583Y-20771117D01*
X124521583Y-19892017D01*
X124581985Y-19917037D01*
X124707564Y-19942016D01*
X124835602Y-19942016D01*
X124961181Y-19917037D01*
X125021583Y-19892017D01*
X125021583Y-20771116D01*
X125122832Y-20755081D01*
X125122838Y-20755079D01*
X125347387Y-20682118D01*
X125557754Y-20574930D01*
X125748769Y-20436149D01*
X125915722Y-20269196D01*
X125940956Y-20234464D01*
X125996285Y-20191798D01*
X126065898Y-20185817D01*
X126127694Y-20218422D01*
X126141589Y-20234457D01*
X126167068Y-20269526D01*
X126334075Y-20436533D01*
X126525152Y-20575359D01*
X126624576Y-20626018D01*
X126735588Y-20682582D01*
X126735590Y-20682582D01*
X126735593Y-20682584D01*
X126855997Y-20721705D01*
X126960216Y-20755569D01*
X127193488Y-20792516D01*
X127193493Y-20792516D01*
X127429682Y-20792516D01*
X127662953Y-20755569D01*
X127664461Y-20755079D01*
X127887577Y-20682584D01*
X128098018Y-20575359D01*
X128289095Y-20436533D01*
X128456102Y-20269526D01*
X128594928Y-20078449D01*
X128702153Y-19868008D01*
X128775138Y-19643384D01*
X128800760Y-19481614D01*
X128812085Y-19410113D01*
X128812085Y-19173918D01*
X128775138Y-18940647D01*
X128702151Y-18716019D01*
X128645587Y-18605007D01*
X128594928Y-18505583D01*
X128456102Y-18314506D01*
X128289095Y-18147499D01*
X128098018Y-18008673D01*
X127887581Y-17901449D01*
X127662953Y-17828462D01*
X127429682Y-17791516D01*
X127429677Y-17791516D01*
X127193493Y-17791516D01*
X127193488Y-17791516D01*
X126960216Y-17828462D01*
X126735588Y-17901449D01*
X126525151Y-18008673D01*
X126416135Y-18087878D01*
X126334075Y-18147499D01*
X126334073Y-18147501D01*
X126334072Y-18147501D01*
X126167070Y-18314503D01*
X126167070Y-18314504D01*
X126167068Y-18314506D01*
X126166829Y-18314835D01*
X126141590Y-18349572D01*
X126086258Y-18392236D01*
X126016645Y-18398212D01*
X125954851Y-18365605D01*
X125940956Y-18349568D01*
X125915721Y-18314835D01*
X125915716Y-18314829D01*
X125748769Y-18147882D01*
X125557754Y-18009101D01*
X125347385Y-17901913D01*
X125122830Y-17828950D01*
X125021583Y-17812913D01*
X125021583Y-18692014D01*
X124961181Y-18666995D01*
X124835602Y-18642016D01*
X124707564Y-18642016D01*
X124581985Y-18666995D01*
X124521583Y-18692014D01*
X124521583Y-17812913D01*
X124420335Y-17828950D01*
X124195780Y-17901913D01*
X123985411Y-18009101D01*
X123794396Y-18147882D01*
X123627449Y-18314829D01*
X123488668Y-18505844D01*
X123381480Y-18716213D01*
X123308517Y-18940768D01*
X123292481Y-19042016D01*
X62800500Y-19042016D01*
X62800500Y-16024500D01*
X62820185Y-15957461D01*
X62872989Y-15911706D01*
X62924500Y-15900500D01*
X133175500Y-15900500D01*
X133242539Y-15920185D01*
G37*
%TD.AperFunction*%
%TD*%
M02*
