%TF.GenerationSoftware,KiCad,Pcbnew,10.0.0*%
%TF.CreationDate,2026-07-02T13:10:19+10:00*%
%TF.ProjectId,pressure_sense,70726573-7375-4726-955f-73656e73652e,0*%
%TF.SameCoordinates,Original*%
%TF.FileFunction,Legend,Top*%
%TF.FilePolarity,Positive*%
%FSLAX46Y46*%
G04 Gerber Fmt 4.6, Leading zero omitted, Abs format (unit mm)*
G04 Created by KiCad (PCBNEW 10.0.0) date 2026-07-02 13:10:19*
%MOMM*%
%LPD*%
G01*
G04 APERTURE LIST*
%ADD10C,0.158750*%
%ADD11C,0.150000*%
%ADD12C,0.120000*%
%ADD13C,0.152000*%
%ADD14C,0.400000*%
%ADD15C,0.152400*%
%ADD16C,0.254000*%
%ADD17C,0.300000*%
%ADD18C,0.125000*%
%ADD19C,0.083333*%
%ADD20C,0.100000*%
G04 APERTURE END LIST*
D10*
X98082567Y-80101395D02*
X97997041Y-80101395D01*
X97997041Y-80101395D02*
X97825988Y-80015869D01*
X97825988Y-80015869D02*
X97740462Y-79930342D01*
X97740462Y-79930342D02*
X97654936Y-79759290D01*
X97654936Y-79759290D02*
X97654936Y-79588237D01*
X97654936Y-79588237D02*
X97697699Y-79459948D01*
X97697699Y-79459948D02*
X97825988Y-79246132D01*
X97825988Y-79246132D02*
X97954278Y-79117843D01*
X97954278Y-79117843D02*
X98168093Y-78989554D01*
X98168093Y-78989554D02*
X98296383Y-78946790D01*
X98296383Y-78946790D02*
X98467435Y-78946790D01*
X98467435Y-78946790D02*
X98638488Y-79032317D01*
X98638488Y-79032317D02*
X98724014Y-79117843D01*
X98724014Y-79117843D02*
X98809540Y-79288895D01*
X98809540Y-79288895D02*
X98809540Y-79374422D01*
X99707566Y-80101395D02*
X99279935Y-79673764D01*
X99279935Y-79673764D02*
X98809540Y-80058632D01*
X98809540Y-80058632D02*
X98895067Y-80058632D01*
X98895067Y-80058632D02*
X99023356Y-80101395D01*
X99023356Y-80101395D02*
X99237172Y-80315210D01*
X99237172Y-80315210D02*
X99279935Y-80443500D01*
X99279935Y-80443500D02*
X99279935Y-80529026D01*
X99279935Y-80529026D02*
X99237172Y-80657315D01*
X99237172Y-80657315D02*
X99023356Y-80871131D01*
X99023356Y-80871131D02*
X98895067Y-80913894D01*
X98895067Y-80913894D02*
X98809540Y-80913894D01*
X98809540Y-80913894D02*
X98681251Y-80871131D01*
X98681251Y-80871131D02*
X98467435Y-80657315D01*
X98467435Y-80657315D02*
X98424672Y-80529026D01*
X98424672Y-80529026D02*
X98424672Y-80443500D01*
D11*
X93231917Y-72146848D02*
X92755726Y-72480181D01*
X93231917Y-72718276D02*
X92231917Y-72718276D01*
X92231917Y-72718276D02*
X92231917Y-72337324D01*
X92231917Y-72337324D02*
X92279536Y-72242086D01*
X92279536Y-72242086D02*
X92327155Y-72194467D01*
X92327155Y-72194467D02*
X92422393Y-72146848D01*
X92422393Y-72146848D02*
X92565250Y-72146848D01*
X92565250Y-72146848D02*
X92660488Y-72194467D01*
X92660488Y-72194467D02*
X92708107Y-72242086D01*
X92708107Y-72242086D02*
X92755726Y-72337324D01*
X92755726Y-72337324D02*
X92755726Y-72718276D01*
X92231917Y-71813514D02*
X92231917Y-71194467D01*
X92231917Y-71194467D02*
X92612869Y-71527800D01*
X92612869Y-71527800D02*
X92612869Y-71384943D01*
X92612869Y-71384943D02*
X92660488Y-71289705D01*
X92660488Y-71289705D02*
X92708107Y-71242086D01*
X92708107Y-71242086D02*
X92803345Y-71194467D01*
X92803345Y-71194467D02*
X93041440Y-71194467D01*
X93041440Y-71194467D02*
X93136678Y-71242086D01*
X93136678Y-71242086D02*
X93184298Y-71289705D01*
X93184298Y-71289705D02*
X93231917Y-71384943D01*
X93231917Y-71384943D02*
X93231917Y-71670657D01*
X93231917Y-71670657D02*
X93184298Y-71765895D01*
X93184298Y-71765895D02*
X93136678Y-71813514D01*
D10*
X98792845Y-75339930D02*
X98365214Y-75767562D01*
X98365214Y-75767562D02*
X97467188Y-74869536D01*
X98621792Y-74570194D02*
X98921134Y-74270852D01*
X99519818Y-74612957D02*
X99092187Y-75040589D01*
X99092187Y-75040589D02*
X98194161Y-74142563D01*
X98194161Y-74142563D02*
X98621792Y-73714932D01*
X99904686Y-74228089D02*
X99006661Y-73330063D01*
X99006661Y-73330063D02*
X99220476Y-73116248D01*
X99220476Y-73116248D02*
X99391529Y-73030721D01*
X99391529Y-73030721D02*
X99562581Y-73030721D01*
X99562581Y-73030721D02*
X99690871Y-73073485D01*
X99690871Y-73073485D02*
X99904686Y-73201774D01*
X99904686Y-73201774D02*
X100032976Y-73330063D01*
X100032976Y-73330063D02*
X100161265Y-73543879D01*
X100161265Y-73543879D02*
X100204028Y-73672168D01*
X100204028Y-73672168D02*
X100204028Y-73843221D01*
X100204028Y-73843221D02*
X100118502Y-74014273D01*
X100118502Y-74014273D02*
X99904686Y-74228089D01*
X101273106Y-72859669D02*
X100759949Y-73372826D01*
X101016527Y-73116248D02*
X100118502Y-72218222D01*
X100118502Y-72218222D02*
X100161265Y-72432038D01*
X100161265Y-72432038D02*
X100161265Y-72603090D01*
X100161265Y-72603090D02*
X100118502Y-72731380D01*
X94571555Y-75729102D02*
X94486029Y-75729102D01*
X94486029Y-75729102D02*
X94314976Y-75643576D01*
X94314976Y-75643576D02*
X94229450Y-75558049D01*
X94229450Y-75558049D02*
X94143924Y-75386997D01*
X94143924Y-75386997D02*
X94143924Y-75215944D01*
X94143924Y-75215944D02*
X94186687Y-75087655D01*
X94186687Y-75087655D02*
X94314976Y-74873839D01*
X94314976Y-74873839D02*
X94443266Y-74745550D01*
X94443266Y-74745550D02*
X94657081Y-74617261D01*
X94657081Y-74617261D02*
X94785371Y-74574497D01*
X94785371Y-74574497D02*
X94956423Y-74574497D01*
X94956423Y-74574497D02*
X95127476Y-74660024D01*
X95127476Y-74660024D02*
X95213002Y-74745550D01*
X95213002Y-74745550D02*
X95298528Y-74916602D01*
X95298528Y-74916602D02*
X95298528Y-75002129D01*
X94913660Y-76242259D02*
X95084713Y-76413312D01*
X95084713Y-76413312D02*
X95213002Y-76456075D01*
X95213002Y-76456075D02*
X95298528Y-76456075D01*
X95298528Y-76456075D02*
X95512344Y-76413312D01*
X95512344Y-76413312D02*
X95726160Y-76285022D01*
X95726160Y-76285022D02*
X96068265Y-75942917D01*
X96068265Y-75942917D02*
X96111028Y-75814628D01*
X96111028Y-75814628D02*
X96111028Y-75729102D01*
X96111028Y-75729102D02*
X96068265Y-75600812D01*
X96068265Y-75600812D02*
X95897212Y-75429760D01*
X95897212Y-75429760D02*
X95768923Y-75386997D01*
X95768923Y-75386997D02*
X95683396Y-75386997D01*
X95683396Y-75386997D02*
X95555107Y-75429760D01*
X95555107Y-75429760D02*
X95341291Y-75643576D01*
X95341291Y-75643576D02*
X95298528Y-75771865D01*
X95298528Y-75771865D02*
X95298528Y-75857391D01*
X95298528Y-75857391D02*
X95341291Y-75985681D01*
X95341291Y-75985681D02*
X95512344Y-76156733D01*
X95512344Y-76156733D02*
X95640633Y-76199496D01*
X95640633Y-76199496D02*
X95726160Y-76199496D01*
X95726160Y-76199496D02*
X95854449Y-76156733D01*
X114204601Y-67373473D02*
X114119075Y-67373473D01*
X114119075Y-67373473D02*
X113948022Y-67287947D01*
X113948022Y-67287947D02*
X113862496Y-67202420D01*
X113862496Y-67202420D02*
X113776970Y-67031368D01*
X113776970Y-67031368D02*
X113776970Y-66860315D01*
X113776970Y-66860315D02*
X113819733Y-66732026D01*
X113819733Y-66732026D02*
X113948022Y-66518210D01*
X113948022Y-66518210D02*
X114076312Y-66389921D01*
X114076312Y-66389921D02*
X114290127Y-66261632D01*
X114290127Y-66261632D02*
X114418417Y-66218868D01*
X114418417Y-66218868D02*
X114589469Y-66218868D01*
X114589469Y-66218868D02*
X114760522Y-66304395D01*
X114760522Y-66304395D02*
X114846048Y-66389921D01*
X114846048Y-66389921D02*
X114931574Y-66560973D01*
X114931574Y-66560973D02*
X114931574Y-66646500D01*
X115316442Y-66860315D02*
X115915126Y-67458999D01*
X115915126Y-67458999D02*
X114632232Y-67972157D01*
X74264833Y-71208348D02*
X74264833Y-71293874D01*
X74264833Y-71293874D02*
X74179307Y-71464927D01*
X74179307Y-71464927D02*
X74093780Y-71550453D01*
X74093780Y-71550453D02*
X73922728Y-71635979D01*
X73922728Y-71635979D02*
X73751675Y-71635979D01*
X73751675Y-71635979D02*
X73623386Y-71593216D01*
X73623386Y-71593216D02*
X73409570Y-71464927D01*
X73409570Y-71464927D02*
X73281281Y-71336637D01*
X73281281Y-71336637D02*
X73152992Y-71122822D01*
X73152992Y-71122822D02*
X73110228Y-70994532D01*
X73110228Y-70994532D02*
X73110228Y-70823480D01*
X73110228Y-70823480D02*
X73195755Y-70652427D01*
X73195755Y-70652427D02*
X73281281Y-70566901D01*
X73281281Y-70566901D02*
X73452333Y-70481375D01*
X73452333Y-70481375D02*
X73537860Y-70481375D01*
X73751675Y-70096507D02*
X74307596Y-69540586D01*
X74307596Y-69540586D02*
X74350359Y-70182033D01*
X74350359Y-70182033D02*
X74478648Y-70053743D01*
X74478648Y-70053743D02*
X74606938Y-70010980D01*
X74606938Y-70010980D02*
X74692464Y-70010980D01*
X74692464Y-70010980D02*
X74820753Y-70053743D01*
X74820753Y-70053743D02*
X75034569Y-70267559D01*
X75034569Y-70267559D02*
X75077332Y-70395848D01*
X75077332Y-70395848D02*
X75077332Y-70481375D01*
X75077332Y-70481375D02*
X75034569Y-70609664D01*
X75034569Y-70609664D02*
X74777990Y-70866243D01*
X74777990Y-70866243D02*
X74649701Y-70909006D01*
X74649701Y-70909006D02*
X74564175Y-70909006D01*
X62954155Y-76085701D02*
X63595602Y-76727148D01*
X63595602Y-76727148D02*
X63681128Y-76898200D01*
X63681128Y-76898200D02*
X63681128Y-77069253D01*
X63681128Y-77069253D02*
X63595602Y-77240305D01*
X63595602Y-77240305D02*
X63510076Y-77325831D01*
X64108759Y-75786359D02*
X64279812Y-75700833D01*
X64279812Y-75700833D02*
X64365338Y-75700833D01*
X64365338Y-75700833D02*
X64493628Y-75743596D01*
X64493628Y-75743596D02*
X64621917Y-75871885D01*
X64621917Y-75871885D02*
X64664680Y-76000175D01*
X64664680Y-76000175D02*
X64664680Y-76085701D01*
X64664680Y-76085701D02*
X64621917Y-76213990D01*
X64621917Y-76213990D02*
X64279812Y-76556095D01*
X64279812Y-76556095D02*
X63381786Y-75658070D01*
X63381786Y-75658070D02*
X63681128Y-75358728D01*
X63681128Y-75358728D02*
X63809418Y-75315965D01*
X63809418Y-75315965D02*
X63894944Y-75315965D01*
X63894944Y-75315965D02*
X64023233Y-75358728D01*
X64023233Y-75358728D02*
X64108759Y-75444254D01*
X64108759Y-75444254D02*
X64151523Y-75572543D01*
X64151523Y-75572543D02*
X64151523Y-75658070D01*
X64151523Y-75658070D02*
X64108759Y-75786359D01*
X64108759Y-75786359D02*
X63809418Y-76085701D01*
X65648232Y-75187675D02*
X65135074Y-75700833D01*
X65391653Y-75444254D02*
X64493628Y-74546228D01*
X64493628Y-74546228D02*
X64536391Y-74760044D01*
X64536391Y-74760044D02*
X64536391Y-74931097D01*
X64536391Y-74931097D02*
X64493628Y-75059386D01*
X91330436Y-61774425D02*
X90603463Y-62501398D01*
X90603463Y-62501398D02*
X90560699Y-62629687D01*
X90560699Y-62629687D02*
X90560699Y-62715213D01*
X90560699Y-62715213D02*
X90603463Y-62843503D01*
X90603463Y-62843503D02*
X90774515Y-63014555D01*
X90774515Y-63014555D02*
X90902804Y-63057318D01*
X90902804Y-63057318D02*
X90988331Y-63057318D01*
X90988331Y-63057318D02*
X91116620Y-63014555D01*
X91116620Y-63014555D02*
X91843593Y-62287582D01*
X92142935Y-63442186D02*
X92228461Y-63613239D01*
X92228461Y-63613239D02*
X92228461Y-63698765D01*
X92228461Y-63698765D02*
X92185698Y-63827055D01*
X92185698Y-63827055D02*
X92057409Y-63955344D01*
X92057409Y-63955344D02*
X91929119Y-63998107D01*
X91929119Y-63998107D02*
X91843593Y-63998107D01*
X91843593Y-63998107D02*
X91715304Y-63955344D01*
X91715304Y-63955344D02*
X91373199Y-63613239D01*
X91373199Y-63613239D02*
X92271224Y-62715213D01*
X92271224Y-62715213D02*
X92570566Y-63014555D01*
X92570566Y-63014555D02*
X92613329Y-63142845D01*
X92613329Y-63142845D02*
X92613329Y-63228371D01*
X92613329Y-63228371D02*
X92570566Y-63356660D01*
X92570566Y-63356660D02*
X92485040Y-63442186D01*
X92485040Y-63442186D02*
X92356751Y-63484950D01*
X92356751Y-63484950D02*
X92271224Y-63484950D01*
X92271224Y-63484950D02*
X92142935Y-63442186D01*
X92142935Y-63442186D02*
X91843593Y-63142845D01*
X92741619Y-64981659D02*
X92228461Y-64468501D01*
X92485040Y-64725080D02*
X93383066Y-63827055D01*
X93383066Y-63827055D02*
X93169250Y-63869818D01*
X93169250Y-63869818D02*
X92998197Y-63869818D01*
X92998197Y-63869818D02*
X92869908Y-63827055D01*
X122548461Y-70060479D02*
X122462935Y-70060479D01*
X122462935Y-70060479D02*
X122291882Y-69974953D01*
X122291882Y-69974953D02*
X122206356Y-69889426D01*
X122206356Y-69889426D02*
X122120830Y-69718374D01*
X122120830Y-69718374D02*
X122120830Y-69547321D01*
X122120830Y-69547321D02*
X122163593Y-69419032D01*
X122163593Y-69419032D02*
X122291882Y-69205216D01*
X122291882Y-69205216D02*
X122420172Y-69076927D01*
X122420172Y-69076927D02*
X122633987Y-68948638D01*
X122633987Y-68948638D02*
X122762277Y-68905874D01*
X122762277Y-68905874D02*
X122933329Y-68905874D01*
X122933329Y-68905874D02*
X123104382Y-68991401D01*
X123104382Y-68991401D02*
X123189908Y-69076927D01*
X123189908Y-69076927D02*
X123275434Y-69247979D01*
X123275434Y-69247979D02*
X123275434Y-69333506D01*
X124130697Y-70017716D02*
X123959644Y-69846663D01*
X123959644Y-69846663D02*
X123831355Y-69803900D01*
X123831355Y-69803900D02*
X123745829Y-69803900D01*
X123745829Y-69803900D02*
X123532013Y-69846663D01*
X123532013Y-69846663D02*
X123318197Y-69974953D01*
X123318197Y-69974953D02*
X122976092Y-70317058D01*
X122976092Y-70317058D02*
X122933329Y-70445347D01*
X122933329Y-70445347D02*
X122933329Y-70530873D01*
X122933329Y-70530873D02*
X122976092Y-70659163D01*
X122976092Y-70659163D02*
X123147145Y-70830215D01*
X123147145Y-70830215D02*
X123275434Y-70872978D01*
X123275434Y-70872978D02*
X123360961Y-70872978D01*
X123360961Y-70872978D02*
X123489250Y-70830215D01*
X123489250Y-70830215D02*
X123703066Y-70616399D01*
X123703066Y-70616399D02*
X123745829Y-70488110D01*
X123745829Y-70488110D02*
X123745829Y-70402584D01*
X123745829Y-70402584D02*
X123703066Y-70274294D01*
X123703066Y-70274294D02*
X123532013Y-70103242D01*
X123532013Y-70103242D02*
X123403724Y-70060479D01*
X123403724Y-70060479D02*
X123318197Y-70060479D01*
X123318197Y-70060479D02*
X123189908Y-70103242D01*
X79388333Y-53323318D02*
X79327857Y-53383795D01*
X79327857Y-53383795D02*
X79146428Y-53444271D01*
X79146428Y-53444271D02*
X79025476Y-53444271D01*
X79025476Y-53444271D02*
X78844047Y-53383795D01*
X78844047Y-53383795D02*
X78723095Y-53262842D01*
X78723095Y-53262842D02*
X78662618Y-53141890D01*
X78662618Y-53141890D02*
X78602142Y-52899985D01*
X78602142Y-52899985D02*
X78602142Y-52718556D01*
X78602142Y-52718556D02*
X78662618Y-52476652D01*
X78662618Y-52476652D02*
X78723095Y-52355699D01*
X78723095Y-52355699D02*
X78844047Y-52234747D01*
X78844047Y-52234747D02*
X79025476Y-52174271D01*
X79025476Y-52174271D02*
X79146428Y-52174271D01*
X79146428Y-52174271D02*
X79327857Y-52234747D01*
X79327857Y-52234747D02*
X79388333Y-52295223D01*
X80597857Y-53444271D02*
X79872142Y-53444271D01*
X80234999Y-53444271D02*
X80234999Y-52174271D01*
X80234999Y-52174271D02*
X80114047Y-52355699D01*
X80114047Y-52355699D02*
X79993095Y-52476652D01*
X79993095Y-52476652D02*
X79872142Y-52537128D01*
X110042013Y-62151570D02*
X109315040Y-62878543D01*
X109315040Y-62878543D02*
X109272277Y-63006832D01*
X109272277Y-63006832D02*
X109272277Y-63092359D01*
X109272277Y-63092359D02*
X109315040Y-63220648D01*
X109315040Y-63220648D02*
X109486092Y-63391700D01*
X109486092Y-63391700D02*
X109614382Y-63434464D01*
X109614382Y-63434464D02*
X109699908Y-63434464D01*
X109699908Y-63434464D02*
X109828197Y-63391700D01*
X109828197Y-63391700D02*
X110555170Y-62664727D01*
X110298592Y-63691042D02*
X110726223Y-64118673D01*
X109956487Y-63862095D02*
X111153854Y-63263411D01*
X111153854Y-63263411D02*
X110555170Y-64460778D01*
X111324906Y-65230514D02*
X110811749Y-64717357D01*
X111068327Y-64973936D02*
X111966353Y-64075910D01*
X111966353Y-64075910D02*
X111752537Y-64118673D01*
X111752537Y-64118673D02*
X111581485Y-64118673D01*
X111581485Y-64118673D02*
X111453196Y-64075910D01*
X119288333Y-60608318D02*
X119227857Y-60668795D01*
X119227857Y-60668795D02*
X119046428Y-60729271D01*
X119046428Y-60729271D02*
X118925476Y-60729271D01*
X118925476Y-60729271D02*
X118744047Y-60668795D01*
X118744047Y-60668795D02*
X118623095Y-60547842D01*
X118623095Y-60547842D02*
X118562618Y-60426890D01*
X118562618Y-60426890D02*
X118502142Y-60184985D01*
X118502142Y-60184985D02*
X118502142Y-60003556D01*
X118502142Y-60003556D02*
X118562618Y-59761652D01*
X118562618Y-59761652D02*
X118623095Y-59640699D01*
X118623095Y-59640699D02*
X118744047Y-59519747D01*
X118744047Y-59519747D02*
X118925476Y-59459271D01*
X118925476Y-59459271D02*
X119046428Y-59459271D01*
X119046428Y-59459271D02*
X119227857Y-59519747D01*
X119227857Y-59519747D02*
X119288333Y-59580223D01*
X120376904Y-59882604D02*
X120376904Y-60729271D01*
X120074523Y-59398795D02*
X119772142Y-60305937D01*
X119772142Y-60305937D02*
X120558333Y-60305937D01*
X97262593Y-54326129D02*
X97262593Y-55233272D01*
X97262593Y-55233272D02*
X97202116Y-55414700D01*
X97202116Y-55414700D02*
X97081164Y-55535653D01*
X97081164Y-55535653D02*
X96899735Y-55596129D01*
X96899735Y-55596129D02*
X96778783Y-55596129D01*
X98472116Y-55596129D02*
X97867354Y-55596129D01*
X97867354Y-55596129D02*
X97867354Y-54326129D01*
X99560688Y-55596129D02*
X98834973Y-55596129D01*
X99197830Y-55596129D02*
X99197830Y-54326129D01*
X99197830Y-54326129D02*
X99076878Y-54507557D01*
X99076878Y-54507557D02*
X98955926Y-54628510D01*
X98955926Y-54628510D02*
X98834973Y-54688986D01*
D11*
X82260543Y-62603754D02*
X82361558Y-62031335D01*
X81856482Y-62199693D02*
X82563589Y-61492587D01*
X82563589Y-61492587D02*
X82832963Y-61761961D01*
X82832963Y-61761961D02*
X82866635Y-61862976D01*
X82866635Y-61862976D02*
X82866635Y-61930319D01*
X82866635Y-61930319D02*
X82832963Y-62031335D01*
X82832963Y-62031335D02*
X82731948Y-62132350D01*
X82731948Y-62132350D02*
X82630932Y-62166022D01*
X82630932Y-62166022D02*
X82563589Y-62166022D01*
X82563589Y-62166022D02*
X82462574Y-62132350D01*
X82462574Y-62132350D02*
X82193200Y-61862976D01*
X83338039Y-62738441D02*
X82866635Y-63209846D01*
X83439054Y-62300709D02*
X82765619Y-62637426D01*
X82765619Y-62637426D02*
X83203352Y-63075159D01*
D10*
X78800304Y-61824570D02*
X78928594Y-61097597D01*
X78287147Y-61311413D02*
X79185172Y-60413387D01*
X79185172Y-60413387D02*
X79527277Y-60755492D01*
X79527277Y-60755492D02*
X79570041Y-60883782D01*
X79570041Y-60883782D02*
X79570041Y-60969308D01*
X79570041Y-60969308D02*
X79527277Y-61097597D01*
X79527277Y-61097597D02*
X79398988Y-61225887D01*
X79398988Y-61225887D02*
X79270699Y-61268650D01*
X79270699Y-61268650D02*
X79185172Y-61268650D01*
X79185172Y-61268650D02*
X79056883Y-61225887D01*
X79056883Y-61225887D02*
X78714778Y-60883782D01*
X79954909Y-61183124D02*
X79356225Y-62380491D01*
X79356225Y-62380491D02*
X80553592Y-61781807D01*
X80425303Y-63449569D02*
X79912145Y-62936411D01*
X80168724Y-63192990D02*
X81066750Y-62294965D01*
X81066750Y-62294965D02*
X80852934Y-62337728D01*
X80852934Y-62337728D02*
X80681881Y-62337728D01*
X80681881Y-62337728D02*
X80553592Y-62294965D01*
X116501858Y-69035680D02*
X115774885Y-69762653D01*
X115774885Y-69762653D02*
X115732122Y-69890942D01*
X115732122Y-69890942D02*
X115732122Y-69976469D01*
X115732122Y-69976469D02*
X115774885Y-70104758D01*
X115774885Y-70104758D02*
X115945937Y-70275810D01*
X115945937Y-70275810D02*
X116074227Y-70318574D01*
X116074227Y-70318574D02*
X116159753Y-70318574D01*
X116159753Y-70318574D02*
X116288042Y-70275810D01*
X116288042Y-70275810D02*
X117015015Y-69548837D01*
X116758437Y-70575152D02*
X117186068Y-71002783D01*
X116416332Y-70746205D02*
X117613699Y-70147521D01*
X117613699Y-70147521D02*
X117015015Y-71344888D01*
X118084093Y-70788968D02*
X118169619Y-70788968D01*
X118169619Y-70788968D02*
X118297909Y-70831731D01*
X118297909Y-70831731D02*
X118511724Y-71045546D01*
X118511724Y-71045546D02*
X118554487Y-71173836D01*
X118554487Y-71173836D02*
X118554487Y-71259362D01*
X118554487Y-71259362D02*
X118511724Y-71387651D01*
X118511724Y-71387651D02*
X118426198Y-71473178D01*
X118426198Y-71473178D02*
X118255146Y-71558704D01*
X118255146Y-71558704D02*
X117228831Y-71558704D01*
X117228831Y-71558704D02*
X117784751Y-72114624D01*
X106183154Y-80620173D02*
X105541707Y-81261620D01*
X105541707Y-81261620D02*
X105370654Y-81347147D01*
X105370654Y-81347147D02*
X105199602Y-81347147D01*
X105199602Y-81347147D02*
X105028549Y-81261620D01*
X105028549Y-81261620D02*
X104943023Y-81176094D01*
X106140390Y-82373462D02*
X105712759Y-81945830D01*
X105712759Y-81945830D02*
X106610785Y-81047805D01*
X106910126Y-82202409D02*
X107209468Y-82501751D01*
X106867363Y-83100434D02*
X106439732Y-82672803D01*
X106439732Y-82672803D02*
X107337758Y-81774778D01*
X107337758Y-81774778D02*
X107765389Y-82202409D01*
X107252232Y-83485303D02*
X108150257Y-82587277D01*
X108150257Y-82587277D02*
X108364073Y-82801093D01*
X108364073Y-82801093D02*
X108449599Y-82972145D01*
X108449599Y-82972145D02*
X108449599Y-83143198D01*
X108449599Y-83143198D02*
X108406836Y-83271487D01*
X108406836Y-83271487D02*
X108278547Y-83485303D01*
X108278547Y-83485303D02*
X108150257Y-83613592D01*
X108150257Y-83613592D02*
X107936442Y-83741882D01*
X107936442Y-83741882D02*
X107808152Y-83784645D01*
X107808152Y-83784645D02*
X107637100Y-83784645D01*
X107637100Y-83784645D02*
X107466047Y-83699118D01*
X107466047Y-83699118D02*
X107252232Y-83485303D01*
X108620652Y-84853723D02*
X108107494Y-84340565D01*
X108364073Y-84597144D02*
X109262099Y-83699118D01*
X109262099Y-83699118D02*
X109048283Y-83741882D01*
X109048283Y-83741882D02*
X108877230Y-83741882D01*
X108877230Y-83741882D02*
X108748941Y-83699118D01*
X77829682Y-75052653D02*
X77102709Y-75779626D01*
X77102709Y-75779626D02*
X77059945Y-75907915D01*
X77059945Y-75907915D02*
X77059945Y-75993441D01*
X77059945Y-75993441D02*
X77102709Y-76121731D01*
X77102709Y-76121731D02*
X77273761Y-76292783D01*
X77273761Y-76292783D02*
X77402050Y-76335546D01*
X77402050Y-76335546D02*
X77487577Y-76335546D01*
X77487577Y-76335546D02*
X77615866Y-76292783D01*
X77615866Y-76292783D02*
X78342839Y-75565810D01*
X78642181Y-76720414D02*
X78727707Y-76891467D01*
X78727707Y-76891467D02*
X78727707Y-76976993D01*
X78727707Y-76976993D02*
X78684944Y-77105283D01*
X78684944Y-77105283D02*
X78556655Y-77233572D01*
X78556655Y-77233572D02*
X78428365Y-77276335D01*
X78428365Y-77276335D02*
X78342839Y-77276335D01*
X78342839Y-77276335D02*
X78214550Y-77233572D01*
X78214550Y-77233572D02*
X77872445Y-76891467D01*
X77872445Y-76891467D02*
X78770470Y-75993441D01*
X78770470Y-75993441D02*
X79069812Y-76292783D01*
X79069812Y-76292783D02*
X79112575Y-76421073D01*
X79112575Y-76421073D02*
X79112575Y-76506599D01*
X79112575Y-76506599D02*
X79069812Y-76634888D01*
X79069812Y-76634888D02*
X78984286Y-76720414D01*
X78984286Y-76720414D02*
X78855997Y-76763178D01*
X78855997Y-76763178D02*
X78770470Y-76763178D01*
X78770470Y-76763178D02*
X78642181Y-76720414D01*
X78642181Y-76720414D02*
X78342839Y-76421073D01*
X79540207Y-76934230D02*
X79625733Y-76934230D01*
X79625733Y-76934230D02*
X79754022Y-76976993D01*
X79754022Y-76976993D02*
X79967838Y-77190809D01*
X79967838Y-77190809D02*
X80010601Y-77319098D01*
X80010601Y-77319098D02*
X80010601Y-77404624D01*
X80010601Y-77404624D02*
X79967838Y-77532914D01*
X79967838Y-77532914D02*
X79882312Y-77618440D01*
X79882312Y-77618440D02*
X79711259Y-77703966D01*
X79711259Y-77703966D02*
X78684944Y-77703966D01*
X78684944Y-77703966D02*
X79240865Y-78259887D01*
X97141667Y-33409271D02*
X97141667Y-34316414D01*
X97141667Y-34316414D02*
X97081190Y-34497842D01*
X97081190Y-34497842D02*
X96960238Y-34618795D01*
X96960238Y-34618795D02*
X96778809Y-34679271D01*
X96778809Y-34679271D02*
X96657857Y-34679271D01*
X98472143Y-34679271D02*
X98048809Y-34074509D01*
X97746428Y-34679271D02*
X97746428Y-33409271D01*
X97746428Y-33409271D02*
X98230238Y-33409271D01*
X98230238Y-33409271D02*
X98351190Y-33469747D01*
X98351190Y-33469747D02*
X98411667Y-33530223D01*
X98411667Y-33530223D02*
X98472143Y-33651175D01*
X98472143Y-33651175D02*
X98472143Y-33832604D01*
X98472143Y-33832604D02*
X98411667Y-33953556D01*
X98411667Y-33953556D02*
X98351190Y-34014033D01*
X98351190Y-34014033D02*
X98230238Y-34074509D01*
X98230238Y-34074509D02*
X97746428Y-34074509D01*
X99681667Y-34679271D02*
X98955952Y-34679271D01*
X99318809Y-34679271D02*
X99318809Y-33409271D01*
X99318809Y-33409271D02*
X99197857Y-33590699D01*
X99197857Y-33590699D02*
X99076905Y-33711652D01*
X99076905Y-33711652D02*
X98955952Y-33772128D01*
X130675308Y-73592477D02*
X130033861Y-74233923D01*
X130033861Y-74233923D02*
X129862808Y-74319450D01*
X129862808Y-74319450D02*
X129691756Y-74319450D01*
X129691756Y-74319450D02*
X129520703Y-74233923D01*
X129520703Y-74233923D02*
X129435177Y-74148397D01*
X130418729Y-74618792D02*
X130846360Y-75046423D01*
X130076624Y-74789844D02*
X131273991Y-74191160D01*
X131273991Y-74191160D02*
X130675308Y-75388528D01*
X131445044Y-76158264D02*
X130931886Y-75645106D01*
X131188465Y-75901685D02*
X132086490Y-75003659D01*
X132086490Y-75003659D02*
X131872675Y-75046422D01*
X131872675Y-75046422D02*
X131701622Y-75046422D01*
X131701622Y-75046422D02*
X131573333Y-75003659D01*
X120266915Y-29307949D02*
X118996915Y-29307949D01*
X119601677Y-29307949D02*
X119601677Y-28582234D01*
X120266915Y-28582234D02*
X118996915Y-28582234D01*
X120266915Y-27312234D02*
X120266915Y-28037949D01*
X120266915Y-27675092D02*
X118996915Y-27675092D01*
X118996915Y-27675092D02*
X119178343Y-27796044D01*
X119178343Y-27796044D02*
X119299296Y-27916996D01*
X119299296Y-27916996D02*
X119359772Y-28037949D01*
D11*
X123134043Y-50151769D02*
X122561624Y-50050754D01*
X122729982Y-50555830D02*
X122022876Y-49848723D01*
X122022876Y-49848723D02*
X122292250Y-49579349D01*
X122292250Y-49579349D02*
X122393265Y-49545677D01*
X122393265Y-49545677D02*
X122460608Y-49545677D01*
X122460608Y-49545677D02*
X122561624Y-49579349D01*
X122561624Y-49579349D02*
X122662639Y-49680364D01*
X122662639Y-49680364D02*
X122696311Y-49781380D01*
X122696311Y-49781380D02*
X122696311Y-49848723D01*
X122696311Y-49848723D02*
X122662639Y-49949738D01*
X122662639Y-49949738D02*
X122393265Y-50219112D01*
X123807478Y-49478334D02*
X123403417Y-49882395D01*
X123605448Y-49680364D02*
X122898341Y-48973258D01*
X122898341Y-48973258D02*
X122932013Y-49141616D01*
X122932013Y-49141616D02*
X122932013Y-49276303D01*
X122932013Y-49276303D02*
X122898341Y-49377319D01*
D10*
X109905463Y-82449060D02*
X109819937Y-82449060D01*
X109819937Y-82449060D02*
X109648884Y-82363534D01*
X109648884Y-82363534D02*
X109563358Y-82278007D01*
X109563358Y-82278007D02*
X109477832Y-82106955D01*
X109477832Y-82106955D02*
X109477832Y-81935902D01*
X109477832Y-81935902D02*
X109520595Y-81807613D01*
X109520595Y-81807613D02*
X109648884Y-81593797D01*
X109648884Y-81593797D02*
X109777174Y-81465508D01*
X109777174Y-81465508D02*
X109990989Y-81337219D01*
X109990989Y-81337219D02*
X110119279Y-81294455D01*
X110119279Y-81294455D02*
X110290331Y-81294455D01*
X110290331Y-81294455D02*
X110461384Y-81379982D01*
X110461384Y-81379982D02*
X110546910Y-81465508D01*
X110546910Y-81465508D02*
X110632436Y-81636560D01*
X110632436Y-81636560D02*
X110632436Y-81722087D01*
X110974541Y-82064192D02*
X111060068Y-82064192D01*
X111060068Y-82064192D02*
X111188357Y-82106955D01*
X111188357Y-82106955D02*
X111402173Y-82320770D01*
X111402173Y-82320770D02*
X111444936Y-82449060D01*
X111444936Y-82449060D02*
X111444936Y-82534586D01*
X111444936Y-82534586D02*
X111402173Y-82662875D01*
X111402173Y-82662875D02*
X111316646Y-82748402D01*
X111316646Y-82748402D02*
X111145594Y-82833928D01*
X111145594Y-82833928D02*
X110119279Y-82833928D01*
X110119279Y-82833928D02*
X110675199Y-83389849D01*
X121532478Y-21438271D02*
X122439621Y-21438271D01*
X122439621Y-21438271D02*
X122621049Y-21498748D01*
X122621049Y-21498748D02*
X122742002Y-21619700D01*
X122742002Y-21619700D02*
X122802478Y-21801129D01*
X122802478Y-21801129D02*
X122802478Y-21922081D01*
X122802478Y-20833510D02*
X121532478Y-20833510D01*
X121532478Y-20833510D02*
X121532478Y-20349700D01*
X121532478Y-20349700D02*
X121592954Y-20228748D01*
X121592954Y-20228748D02*
X121653430Y-20168271D01*
X121653430Y-20168271D02*
X121774382Y-20107795D01*
X121774382Y-20107795D02*
X121955811Y-20107795D01*
X121955811Y-20107795D02*
X122076763Y-20168271D01*
X122076763Y-20168271D02*
X122137240Y-20228748D01*
X122137240Y-20228748D02*
X122197716Y-20349700D01*
X122197716Y-20349700D02*
X122197716Y-20833510D01*
X121532478Y-19684462D02*
X122802478Y-19382081D01*
X122802478Y-19382081D02*
X121895335Y-19140176D01*
X121895335Y-19140176D02*
X122802478Y-18898271D01*
X122802478Y-18898271D02*
X121532478Y-18595891D01*
X122802478Y-17386366D02*
X122197716Y-17809700D01*
X122802478Y-18112081D02*
X121532478Y-18112081D01*
X121532478Y-18112081D02*
X121532478Y-17628271D01*
X121532478Y-17628271D02*
X121592954Y-17507319D01*
X121592954Y-17507319D02*
X121653430Y-17446842D01*
X121653430Y-17446842D02*
X121774382Y-17386366D01*
X121774382Y-17386366D02*
X121955811Y-17386366D01*
X121955811Y-17386366D02*
X122076763Y-17446842D01*
X122076763Y-17446842D02*
X122137240Y-17507319D01*
X122137240Y-17507319D02*
X122197716Y-17628271D01*
X122197716Y-17628271D02*
X122197716Y-18112081D01*
X122802478Y-16176842D02*
X122802478Y-16902557D01*
X122802478Y-16539700D02*
X121532478Y-16539700D01*
X121532478Y-16539700D02*
X121713906Y-16660652D01*
X121713906Y-16660652D02*
X121834859Y-16781604D01*
X121834859Y-16781604D02*
X121895335Y-16902557D01*
D11*
X120065200Y-47082926D02*
X119492781Y-46981911D01*
X119661139Y-47486987D02*
X118954033Y-46779880D01*
X118954033Y-46779880D02*
X119223407Y-46510506D01*
X119223407Y-46510506D02*
X119324422Y-46476834D01*
X119324422Y-46476834D02*
X119391765Y-46476834D01*
X119391765Y-46476834D02*
X119492781Y-46510506D01*
X119492781Y-46510506D02*
X119593796Y-46611521D01*
X119593796Y-46611521D02*
X119627468Y-46712537D01*
X119627468Y-46712537D02*
X119627468Y-46779880D01*
X119627468Y-46779880D02*
X119593796Y-46880895D01*
X119593796Y-46880895D02*
X119324422Y-47150269D01*
X119694811Y-46173789D02*
X119694811Y-46106445D01*
X119694811Y-46106445D02*
X119728483Y-46005430D01*
X119728483Y-46005430D02*
X119896842Y-45837071D01*
X119896842Y-45837071D02*
X119997857Y-45803399D01*
X119997857Y-45803399D02*
X120065200Y-45803399D01*
X120065200Y-45803399D02*
X120166216Y-45837071D01*
X120166216Y-45837071D02*
X120233559Y-45904415D01*
X120233559Y-45904415D02*
X120300903Y-46039102D01*
X120300903Y-46039102D02*
X120300903Y-46847224D01*
X120300903Y-46847224D02*
X120738635Y-46409491D01*
D10*
X88846778Y-76751382D02*
X88846778Y-76836908D01*
X88846778Y-76836908D02*
X88761251Y-77007961D01*
X88761251Y-77007961D02*
X88675725Y-77093487D01*
X88675725Y-77093487D02*
X88504673Y-77179013D01*
X88504673Y-77179013D02*
X88333620Y-77179013D01*
X88333620Y-77179013D02*
X88205331Y-77136250D01*
X88205331Y-77136250D02*
X87991515Y-77007961D01*
X87991515Y-77007961D02*
X87863226Y-76879672D01*
X87863226Y-76879672D02*
X87734936Y-76665856D01*
X87734936Y-76665856D02*
X87692173Y-76537567D01*
X87692173Y-76537567D02*
X87692173Y-76366514D01*
X87692173Y-76366514D02*
X87777699Y-76195462D01*
X87777699Y-76195462D02*
X87863226Y-76109935D01*
X87863226Y-76109935D02*
X88034278Y-76024409D01*
X88034278Y-76024409D02*
X88119804Y-76024409D01*
X89787566Y-75981646D02*
X89274409Y-76494803D01*
X89530988Y-76238225D02*
X88632962Y-75340199D01*
X88632962Y-75340199D02*
X88675725Y-75554015D01*
X88675725Y-75554015D02*
X88675725Y-75725067D01*
X88675725Y-75725067D02*
X88632962Y-75853357D01*
X89445461Y-74527700D02*
X89530988Y-74442173D01*
X89530988Y-74442173D02*
X89659277Y-74399410D01*
X89659277Y-74399410D02*
X89744803Y-74399410D01*
X89744803Y-74399410D02*
X89873093Y-74442173D01*
X89873093Y-74442173D02*
X90086908Y-74570463D01*
X90086908Y-74570463D02*
X90300724Y-74784278D01*
X90300724Y-74784278D02*
X90429013Y-74998094D01*
X90429013Y-74998094D02*
X90471776Y-75126383D01*
X90471776Y-75126383D02*
X90471776Y-75211910D01*
X90471776Y-75211910D02*
X90429013Y-75340199D01*
X90429013Y-75340199D02*
X90343487Y-75425725D01*
X90343487Y-75425725D02*
X90215198Y-75468488D01*
X90215198Y-75468488D02*
X90129671Y-75468488D01*
X90129671Y-75468488D02*
X90001382Y-75425725D01*
X90001382Y-75425725D02*
X89787566Y-75297436D01*
X89787566Y-75297436D02*
X89573751Y-75083620D01*
X89573751Y-75083620D02*
X89445461Y-74869805D01*
X89445461Y-74869805D02*
X89402698Y-74741515D01*
X89402698Y-74741515D02*
X89402698Y-74655989D01*
X89402698Y-74655989D02*
X89445461Y-74527700D01*
%TO.C,R3*%
D12*
X94178068Y-72880000D02*
X94485350Y-72880000D01*
X94178068Y-72120000D02*
X94485350Y-72120000D01*
%TO.C,LED1*%
D13*
X98616188Y-73381873D02*
X98191924Y-73806137D01*
X99135841Y-72862221D02*
X99606137Y-72391924D01*
X98616188Y-73381873D02*
X99135841Y-72862221D01*
X97583812Y-71218127D02*
X97064230Y-71737709D01*
X97583812Y-71218127D02*
X98008076Y-70793863D01*
X97064230Y-71737709D02*
X96593863Y-72208076D01*
D14*
X97675736Y-71592893D02*
X98807107Y-72724264D01*
%TO.C,C9*%
D15*
X96201214Y-75418999D02*
X95847661Y-75065446D01*
X96906270Y-74929469D02*
X96416670Y-75419070D01*
X96552717Y-74360390D02*
X96906270Y-74713943D01*
X95884572Y-73695215D02*
X96238125Y-74048768D01*
X95533069Y-74753824D02*
X95179516Y-74400271D01*
X95179445Y-74184815D02*
X95669116Y-73695144D01*
X95179516Y-74400271D02*
G75*
G02*
X95179516Y-74184745I107763J107763D01*
G01*
X95669116Y-73695144D02*
G75*
G02*
X95884642Y-73695144I107763J-107763D01*
G01*
X96906270Y-74713943D02*
G75*
G02*
X96906270Y-74929469I-107763J-107763D01*
G01*
X96416670Y-75419070D02*
G75*
G02*
X96201144Y-75419070I-107763J107763D01*
G01*
%TO.C,C7*%
X112369438Y-65239742D02*
X112859038Y-64750141D01*
X112722991Y-65808821D02*
X112369438Y-65455268D01*
X113074494Y-64750212D02*
X113428047Y-65103765D01*
X113391136Y-66473996D02*
X113037583Y-66120443D01*
X113742639Y-65415387D02*
X114096192Y-65768940D01*
X114096263Y-65984396D02*
X113606592Y-66474067D01*
X112369438Y-65455268D02*
G75*
G02*
X112369438Y-65239742I107762J107763D01*
G01*
X112859038Y-64750141D02*
G75*
G02*
X113074564Y-64750141I107763J-107763D01*
G01*
X113606592Y-66474067D02*
G75*
G02*
X113391066Y-66474067I-107763J107763D01*
G01*
X114096192Y-65768940D02*
G75*
G02*
X114096192Y-65984466I-107763J-107763D01*
G01*
%TO.C,C3*%
X74221946Y-71879403D02*
X74575499Y-71525850D01*
X74711546Y-72584530D02*
X74221875Y-72094859D01*
X74887121Y-71211258D02*
X75240674Y-70857705D01*
X75280555Y-72230906D02*
X74927002Y-72584459D01*
X75456200Y-70857705D02*
X75945801Y-71347305D01*
X75945730Y-71562761D02*
X75592177Y-71916314D01*
X74221875Y-72094859D02*
G75*
G02*
X74221875Y-71879333I107763J107763D01*
G01*
X74927002Y-72584459D02*
G75*
G02*
X74711476Y-72584459I-107763J107763D01*
G01*
X75240674Y-70857705D02*
G75*
G02*
X75456200Y-70857705I107763J-107762D01*
G01*
X75945801Y-71347305D02*
G75*
G02*
X75945801Y-71562831I-107763J-107763D01*
G01*
%TO.C,USBC1*%
D16*
X123442340Y-40798419D02*
X122124505Y-42116254D01*
X126071363Y-38169396D02*
X125023643Y-39217116D01*
X126071363Y-38169396D02*
X132392898Y-44490931D01*
X129763592Y-47120236D02*
X128446323Y-48437506D01*
X132392898Y-44490931D02*
X131345461Y-45538368D01*
%TO.C,JB1*%
X63755351Y-77781906D02*
X70119312Y-71417945D01*
X65611365Y-77901549D02*
X70257056Y-73255857D01*
X76794683Y-81230325D02*
X78357247Y-79667760D01*
X77513103Y-80475983D02*
X70275017Y-73237897D01*
X77531064Y-80458023D02*
X77513103Y-80475983D01*
X78357247Y-79667760D02*
X78357247Y-79631839D01*
X80476588Y-84912230D02*
X76794683Y-81230325D01*
X80512509Y-84876309D02*
X82039152Y-83349665D01*
X81230929Y-84193809D02*
X81195008Y-84193809D01*
X83775241Y-96077587D02*
X65603657Y-77906004D01*
X83905278Y-97931833D02*
X63751745Y-77778300D01*
X86726846Y-89797489D02*
X86744807Y-89779528D01*
X86726846Y-90767357D02*
X86726846Y-89797489D01*
X87624872Y-90767357D02*
X86726846Y-90767357D01*
X88433095Y-91431896D02*
X83787403Y-96077587D01*
X88451055Y-91413935D02*
X81230929Y-84193809D01*
X90263299Y-91537891D02*
X70113584Y-71388176D01*
X90288967Y-91587601D02*
X83925006Y-97951562D01*
%TO.C,UB1*%
D15*
X84091035Y-64451671D02*
X86242619Y-62300087D01*
X86242619Y-62300087D02*
X93350739Y-69408207D01*
X91199155Y-71559791D02*
X84091035Y-64451671D01*
X93350739Y-69408207D02*
X91199155Y-71559791D01*
D17*
X92557912Y-69529193D02*
G75*
G02*
X92257712Y-69529193I-150100J0D01*
G01*
X92257712Y-69529193D02*
G75*
G02*
X92557912Y-69529193I150100J0D01*
G01*
X94438746Y-68725990D02*
G75*
G02*
X94138546Y-68725990I-150100J0D01*
G01*
X94138546Y-68725990D02*
G75*
G02*
X94438746Y-68725990I150100J0D01*
G01*
%TO.C,C6*%
D15*
X119770370Y-65178577D02*
X123558271Y-61390677D01*
X121648799Y-67028580D02*
X119770370Y-65178577D01*
X122662154Y-68061593D02*
X124544331Y-69953245D01*
X123558271Y-61390677D02*
X125530391Y-61390677D01*
X124544331Y-69953245D02*
X128331736Y-66165839D01*
X125530391Y-61390677D02*
X126436902Y-62316138D01*
X128331736Y-64191315D02*
X127416599Y-63276177D01*
X128331736Y-66165839D02*
X128331736Y-64191315D01*
%TO.C,C1*%
X78726200Y-54623000D02*
X78726200Y-53930600D01*
X78878600Y-53778300D02*
X79378600Y-53778300D01*
X79378600Y-54775400D02*
X78878600Y-54775400D01*
X79821400Y-53776200D02*
X80321400Y-53776200D01*
X80321400Y-54773300D02*
X79821400Y-54773300D01*
X80473800Y-53928500D02*
X80473800Y-54621000D01*
X78726200Y-53930600D02*
G75*
G02*
X78878600Y-53778200I152400J0D01*
G01*
X78878600Y-54775400D02*
G75*
G02*
X78726200Y-54623000I0J152400D01*
G01*
X80321400Y-53776200D02*
G75*
G02*
X80473800Y-53928600I0J-152400D01*
G01*
X80473800Y-54621000D02*
G75*
G02*
X80321400Y-54773400I-152400J0D01*
G01*
%TO.C,UA1*%
X101761033Y-70469468D02*
X108869153Y-63361348D01*
X103912617Y-72621052D02*
X101761033Y-70469468D01*
X108869153Y-63361348D02*
X111020737Y-65512932D01*
X111020737Y-65512932D02*
X103912617Y-72621052D01*
D17*
X108337036Y-62423441D02*
G75*
G02*
X108036836Y-62423441I-150100J0D01*
G01*
X108036836Y-62423441D02*
G75*
G02*
X108337036Y-62423441I150100J0D01*
G01*
X109140239Y-64304275D02*
G75*
G02*
X108840039Y-64304275I-150100J0D01*
G01*
X108840039Y-64304275D02*
G75*
G02*
X109140239Y-64304275I150100J0D01*
G01*
%TO.C,C4*%
D15*
X120976200Y-60571500D02*
X120976200Y-59879000D01*
X121128600Y-59726700D02*
X121628600Y-59726700D01*
X121628600Y-60723800D02*
X121128600Y-60723800D01*
X122071400Y-59724600D02*
X122571400Y-59724600D01*
X122571400Y-60721700D02*
X122071400Y-60721700D01*
X122723800Y-59877000D02*
X122723800Y-60569400D01*
X120976200Y-59879000D02*
G75*
G02*
X121128600Y-59726600I152400J0D01*
G01*
X121128600Y-60723800D02*
G75*
G02*
X120976200Y-60571400I0J152400D01*
G01*
X122571400Y-59724600D02*
G75*
G02*
X122723800Y-59877000I0J-152400D01*
G01*
X122723800Y-60569400D02*
G75*
G02*
X122571400Y-60721800I-152400J0D01*
G01*
%TO.C,JL1*%
D16*
X70139974Y-55978858D02*
X126229975Y-55978858D01*
X70139974Y-58478858D02*
X70139974Y-55978858D01*
X70139974Y-58478858D02*
X126229975Y-58478858D01*
X72708074Y-55978858D02*
X72708074Y-58478858D01*
X126259974Y-58478858D02*
X126259974Y-55978858D01*
%TO.C,R4*%
D12*
X81779249Y-63545896D02*
X81561968Y-63328615D01*
X82316650Y-63008495D02*
X82099369Y-62791214D01*
%TO.C,RV1*%
D16*
X71508070Y-65176739D02*
X71867280Y-64817528D01*
X71867280Y-64817528D02*
X74381752Y-62303057D01*
X71867280Y-65535949D02*
X71508070Y-65176739D01*
X72226490Y-65176739D02*
X71867280Y-65535949D01*
X72585701Y-66254369D02*
X72944911Y-65895159D01*
X72944911Y-65895159D02*
X72226490Y-65176739D01*
X73663331Y-67332000D02*
X72585701Y-66254369D01*
X74022542Y-66972790D02*
X73663331Y-67332000D01*
X74381752Y-62303057D02*
X76537013Y-60147795D01*
X74381752Y-68050421D02*
X74740962Y-67691210D01*
X74740962Y-67691210D02*
X74022542Y-66972790D01*
X75459383Y-69128051D02*
X74381752Y-68050421D01*
X75818593Y-65895159D02*
X77255434Y-64458318D01*
X75818593Y-68768841D02*
X75459383Y-69128051D01*
X76177803Y-69846472D02*
X76537013Y-69487262D01*
X76537013Y-60147795D02*
X81565957Y-65176739D01*
X76537013Y-69487262D02*
X75818593Y-68768841D01*
X76537013Y-70205682D02*
X76177803Y-69846472D01*
X76896224Y-69846472D02*
X76537013Y-70205682D01*
X77255434Y-65895159D02*
X75818593Y-64458318D01*
X79769906Y-66972790D02*
X76896224Y-69846472D01*
X81565957Y-65176739D02*
X79410695Y-67332000D01*
X77354217Y-64388244D02*
G75*
G02*
X77339862Y-64373890I-810345J-796061D01*
G01*
X80220686Y-65124625D02*
G75*
G02*
X80218918Y-65122857I-54765J-52997D01*
G01*
%TO.C,UA2*%
D15*
X108285755Y-73236412D02*
X111922263Y-69599904D01*
X111922263Y-69599904D02*
X117545459Y-75223100D01*
X113908951Y-78859608D02*
X108285755Y-73236412D01*
X117545459Y-75223100D02*
X113908951Y-78859608D01*
D17*
X116879770Y-75471506D02*
G75*
G02*
X116579570Y-75471506I-150100J0D01*
G01*
X116579570Y-75471506D02*
G75*
G02*
X116879770Y-75471506I150100J0D01*
G01*
X118541118Y-74667597D02*
G75*
G02*
X118240918Y-74667597I-150100J0D01*
G01*
X118240918Y-74667597D02*
G75*
G02*
X118541118Y-74667597I150100J0D01*
G01*
%TO.C,JLED1*%
D16*
X99263496Y-84947373D02*
X104934493Y-90618370D01*
X99638475Y-84572394D02*
X105309472Y-90243391D01*
X100492660Y-83718209D02*
X106163657Y-89389206D01*
X102627910Y-81582959D02*
X108298907Y-87253956D01*
X103718269Y-80492600D02*
X99263496Y-84947373D01*
X103718269Y-80492600D02*
X109389266Y-86163597D01*
X109389266Y-86163597D02*
X104934493Y-90618370D01*
%TO.C,UB2*%
D15*
X77521589Y-74132105D02*
X83144785Y-68508909D01*
X81158097Y-77768613D02*
X77521589Y-74132105D01*
X83144785Y-68508909D02*
X86781293Y-72145417D01*
X86781293Y-72145417D02*
X81158097Y-77768613D01*
D17*
X81059791Y-76952824D02*
G75*
G02*
X80759591Y-76952824I-150100J0D01*
G01*
X80759591Y-76952824D02*
G75*
G02*
X81059791Y-76952824I150100J0D01*
G01*
X81863700Y-78614172D02*
G75*
G02*
X81563500Y-78614172I-150100J0D01*
G01*
X81563500Y-78614172D02*
G75*
G02*
X81863700Y-78614172I150100J0D01*
G01*
%TO.C,JR1*%
D16*
X70139974Y-30478858D02*
X126229975Y-30478858D01*
X70139974Y-32978858D02*
X70139974Y-30478858D01*
X70139974Y-32978858D02*
X126229975Y-32978858D01*
X72708074Y-30478858D02*
X72708074Y-32978858D01*
X126259974Y-32978858D02*
X126259974Y-30478858D01*
%TO.C,JA1*%
X112208005Y-97941238D02*
X105844044Y-91577277D01*
X112327648Y-96085224D02*
X107681956Y-91439533D01*
X114093859Y-83339342D02*
X114057938Y-83339342D01*
X114884122Y-84165525D02*
X114902082Y-84183486D01*
X114902082Y-84183486D02*
X107663996Y-91421572D01*
X115656424Y-84901906D02*
X114093859Y-83339342D01*
X118619908Y-80465660D02*
X118619908Y-80501581D01*
X119302408Y-81184080D02*
X117775764Y-79657437D01*
X119338329Y-81220001D02*
X115656424Y-84901906D01*
X124223588Y-74969743D02*
X124205627Y-74951782D01*
X125193456Y-74071717D02*
X125193456Y-74969743D01*
X125193456Y-74969743D02*
X124223588Y-74969743D01*
X125840034Y-73245534D02*
X118619908Y-80465660D01*
X125857995Y-73263494D02*
X130503686Y-77909186D01*
X125963990Y-71433290D02*
X105814275Y-91583005D01*
X126013700Y-71407622D02*
X132377661Y-77771583D01*
X130503686Y-77921348D02*
X112332103Y-96092932D01*
X132357932Y-77791311D02*
X112204399Y-97944844D01*
%TO.C,H1*%
X118709974Y-24453324D02*
X75149974Y-24453324D01*
X118709974Y-24453324D02*
X118709974Y-21953324D01*
D18*
X116653854Y-17052847D02*
X116653854Y-16481419D01*
X116653854Y-16767133D02*
X117653854Y-16767133D01*
X117653854Y-16767133D02*
X117510997Y-16671895D01*
X117510997Y-16671895D02*
X117415759Y-16576657D01*
X117415759Y-16576657D02*
X117368140Y-16481419D01*
X116653854Y-17529038D02*
X116653854Y-17719514D01*
X116653854Y-17719514D02*
X116701474Y-17814752D01*
X116701474Y-17814752D02*
X116749093Y-17862371D01*
X116749093Y-17862371D02*
X116891950Y-17957609D01*
X116891950Y-17957609D02*
X117082426Y-18005228D01*
X117082426Y-18005228D02*
X117463378Y-18005228D01*
X117463378Y-18005228D02*
X117558616Y-17957609D01*
X117558616Y-17957609D02*
X117606235Y-17909990D01*
X117606235Y-17909990D02*
X117653854Y-17814752D01*
X117653854Y-17814752D02*
X117653854Y-17624276D01*
X117653854Y-17624276D02*
X117606235Y-17529038D01*
X117606235Y-17529038D02*
X117558616Y-17481419D01*
X117558616Y-17481419D02*
X117463378Y-17433800D01*
X117463378Y-17433800D02*
X117225283Y-17433800D01*
X117225283Y-17433800D02*
X117130045Y-17481419D01*
X117130045Y-17481419D02*
X117082426Y-17529038D01*
X117082426Y-17529038D02*
X117034807Y-17624276D01*
X117034807Y-17624276D02*
X117034807Y-17814752D01*
X117034807Y-17814752D02*
X117082426Y-17909990D01*
X117082426Y-17909990D02*
X117130045Y-17957609D01*
X117130045Y-17957609D02*
X117225283Y-18005228D01*
X117558616Y-19021419D02*
X117606235Y-19069038D01*
X117606235Y-19069038D02*
X117653854Y-19164276D01*
X117653854Y-19164276D02*
X117653854Y-19402371D01*
X117653854Y-19402371D02*
X117606235Y-19497609D01*
X117606235Y-19497609D02*
X117558616Y-19545228D01*
X117558616Y-19545228D02*
X117463378Y-19592847D01*
X117463378Y-19592847D02*
X117368140Y-19592847D01*
X117368140Y-19592847D02*
X117225283Y-19545228D01*
X117225283Y-19545228D02*
X116653854Y-18973800D01*
X116653854Y-18973800D02*
X116653854Y-19592847D01*
X117653854Y-20211895D02*
X117653854Y-20307133D01*
X117653854Y-20307133D02*
X117606235Y-20402371D01*
X117606235Y-20402371D02*
X117558616Y-20449990D01*
X117558616Y-20449990D02*
X117463378Y-20497609D01*
X117463378Y-20497609D02*
X117272902Y-20545228D01*
X117272902Y-20545228D02*
X117034807Y-20545228D01*
X117034807Y-20545228D02*
X116844331Y-20497609D01*
X116844331Y-20497609D02*
X116749093Y-20449990D01*
X116749093Y-20449990D02*
X116701474Y-20402371D01*
X116701474Y-20402371D02*
X116653854Y-20307133D01*
X116653854Y-20307133D02*
X116653854Y-20211895D01*
X116653854Y-20211895D02*
X116701474Y-20116657D01*
X116701474Y-20116657D02*
X116749093Y-20069038D01*
X116749093Y-20069038D02*
X116844331Y-20021419D01*
X116844331Y-20021419D02*
X117034807Y-19973800D01*
X117034807Y-19973800D02*
X117272902Y-19973800D01*
X117272902Y-19973800D02*
X117463378Y-20021419D01*
X117463378Y-20021419D02*
X117558616Y-20069038D01*
X117558616Y-20069038D02*
X117606235Y-20116657D01*
X117606235Y-20116657D02*
X117653854Y-20211895D01*
X114780521Y-16957609D02*
X114113854Y-16957609D01*
X115161474Y-16719514D02*
X114447188Y-16481419D01*
X114447188Y-16481419D02*
X114447188Y-17100466D01*
X114685283Y-17624276D02*
X114732902Y-17529038D01*
X114732902Y-17529038D02*
X114780521Y-17481419D01*
X114780521Y-17481419D02*
X114875759Y-17433800D01*
X114875759Y-17433800D02*
X114923378Y-17433800D01*
X114923378Y-17433800D02*
X115018616Y-17481419D01*
X115018616Y-17481419D02*
X115066235Y-17529038D01*
X115066235Y-17529038D02*
X115113854Y-17624276D01*
X115113854Y-17624276D02*
X115113854Y-17814752D01*
X115113854Y-17814752D02*
X115066235Y-17909990D01*
X115066235Y-17909990D02*
X115018616Y-17957609D01*
X115018616Y-17957609D02*
X114923378Y-18005228D01*
X114923378Y-18005228D02*
X114875759Y-18005228D01*
X114875759Y-18005228D02*
X114780521Y-17957609D01*
X114780521Y-17957609D02*
X114732902Y-17909990D01*
X114732902Y-17909990D02*
X114685283Y-17814752D01*
X114685283Y-17814752D02*
X114685283Y-17624276D01*
X114685283Y-17624276D02*
X114637664Y-17529038D01*
X114637664Y-17529038D02*
X114590045Y-17481419D01*
X114590045Y-17481419D02*
X114494807Y-17433800D01*
X114494807Y-17433800D02*
X114304331Y-17433800D01*
X114304331Y-17433800D02*
X114209093Y-17481419D01*
X114209093Y-17481419D02*
X114161474Y-17529038D01*
X114161474Y-17529038D02*
X114113854Y-17624276D01*
X114113854Y-17624276D02*
X114113854Y-17814752D01*
X114113854Y-17814752D02*
X114161474Y-17909990D01*
X114161474Y-17909990D02*
X114209093Y-17957609D01*
X114209093Y-17957609D02*
X114304331Y-18005228D01*
X114304331Y-18005228D02*
X114494807Y-18005228D01*
X114494807Y-18005228D02*
X114590045Y-17957609D01*
X114590045Y-17957609D02*
X114637664Y-17909990D01*
X114637664Y-17909990D02*
X114685283Y-17814752D01*
X115018616Y-19021419D02*
X115066235Y-19069038D01*
X115066235Y-19069038D02*
X115113854Y-19164276D01*
X115113854Y-19164276D02*
X115113854Y-19402371D01*
X115113854Y-19402371D02*
X115066235Y-19497609D01*
X115066235Y-19497609D02*
X115018616Y-19545228D01*
X115018616Y-19545228D02*
X114923378Y-19592847D01*
X114923378Y-19592847D02*
X114828140Y-19592847D01*
X114828140Y-19592847D02*
X114685283Y-19545228D01*
X114685283Y-19545228D02*
X114113854Y-18973800D01*
X114113854Y-18973800D02*
X114113854Y-19592847D01*
X114113854Y-20545228D02*
X114113854Y-19973800D01*
X114113854Y-20259514D02*
X115113854Y-20259514D01*
X115113854Y-20259514D02*
X114970997Y-20164276D01*
X114970997Y-20164276D02*
X114875759Y-20069038D01*
X114875759Y-20069038D02*
X114828140Y-19973800D01*
X112240521Y-16957609D02*
X111573854Y-16957609D01*
X112621474Y-16719514D02*
X111907188Y-16481419D01*
X111907188Y-16481419D02*
X111907188Y-17100466D01*
X112573854Y-17957609D02*
X112573854Y-17481419D01*
X112573854Y-17481419D02*
X112097664Y-17433800D01*
X112097664Y-17433800D02*
X112145283Y-17481419D01*
X112145283Y-17481419D02*
X112192902Y-17576657D01*
X112192902Y-17576657D02*
X112192902Y-17814752D01*
X112192902Y-17814752D02*
X112145283Y-17909990D01*
X112145283Y-17909990D02*
X112097664Y-17957609D01*
X112097664Y-17957609D02*
X112002426Y-18005228D01*
X112002426Y-18005228D02*
X111764331Y-18005228D01*
X111764331Y-18005228D02*
X111669093Y-17957609D01*
X111669093Y-17957609D02*
X111621474Y-17909990D01*
X111621474Y-17909990D02*
X111573854Y-17814752D01*
X111573854Y-17814752D02*
X111573854Y-17576657D01*
X111573854Y-17576657D02*
X111621474Y-17481419D01*
X111621474Y-17481419D02*
X111669093Y-17433800D01*
X112240521Y-19497609D02*
X111573854Y-19497609D01*
X112621474Y-19259514D02*
X111907188Y-19021419D01*
X111907188Y-19021419D02*
X111907188Y-19640466D01*
X112573854Y-19926181D02*
X112573854Y-20592847D01*
X112573854Y-20592847D02*
X111573854Y-20164276D01*
X110033854Y-17195705D02*
X110033854Y-17290943D01*
X110033854Y-17290943D02*
X109986235Y-17386181D01*
X109986235Y-17386181D02*
X109938616Y-17433800D01*
X109938616Y-17433800D02*
X109843378Y-17481419D01*
X109843378Y-17481419D02*
X109652902Y-17529038D01*
X109652902Y-17529038D02*
X109414807Y-17529038D01*
X109414807Y-17529038D02*
X109224331Y-17481419D01*
X109224331Y-17481419D02*
X109129093Y-17433800D01*
X109129093Y-17433800D02*
X109081474Y-17386181D01*
X109081474Y-17386181D02*
X109033854Y-17290943D01*
X109033854Y-17290943D02*
X109033854Y-17195705D01*
X109033854Y-17195705D02*
X109081474Y-17100467D01*
X109081474Y-17100467D02*
X109129093Y-17052848D01*
X109129093Y-17052848D02*
X109224331Y-17005229D01*
X109224331Y-17005229D02*
X109414807Y-16957610D01*
X109414807Y-16957610D02*
X109652902Y-16957610D01*
X109652902Y-16957610D02*
X109843378Y-17005229D01*
X109843378Y-17005229D02*
X109938616Y-17052848D01*
X109938616Y-17052848D02*
X109986235Y-17100467D01*
X109986235Y-17100467D02*
X110033854Y-17195705D01*
X109033854Y-19592847D02*
X109033854Y-19021419D01*
X109033854Y-19307133D02*
X110033854Y-19307133D01*
X110033854Y-19307133D02*
X109890997Y-19211895D01*
X109890997Y-19211895D02*
X109795759Y-19116657D01*
X109795759Y-19116657D02*
X109748140Y-19021419D01*
X109700521Y-20449990D02*
X109033854Y-20449990D01*
X110081474Y-20211895D02*
X109367188Y-19973800D01*
X109367188Y-19973800D02*
X109367188Y-20592847D01*
X107493854Y-16433800D02*
X107493854Y-17052847D01*
X107493854Y-17052847D02*
X107112902Y-16719514D01*
X107112902Y-16719514D02*
X107112902Y-16862371D01*
X107112902Y-16862371D02*
X107065283Y-16957609D01*
X107065283Y-16957609D02*
X107017664Y-17005228D01*
X107017664Y-17005228D02*
X106922426Y-17052847D01*
X106922426Y-17052847D02*
X106684331Y-17052847D01*
X106684331Y-17052847D02*
X106589093Y-17005228D01*
X106589093Y-17005228D02*
X106541474Y-16957609D01*
X106541474Y-16957609D02*
X106493854Y-16862371D01*
X106493854Y-16862371D02*
X106493854Y-16576657D01*
X106493854Y-16576657D02*
X106541474Y-16481419D01*
X106541474Y-16481419D02*
X106589093Y-16433800D01*
X107493854Y-17957609D02*
X107493854Y-17481419D01*
X107493854Y-17481419D02*
X107017664Y-17433800D01*
X107017664Y-17433800D02*
X107065283Y-17481419D01*
X107065283Y-17481419D02*
X107112902Y-17576657D01*
X107112902Y-17576657D02*
X107112902Y-17814752D01*
X107112902Y-17814752D02*
X107065283Y-17909990D01*
X107065283Y-17909990D02*
X107017664Y-17957609D01*
X107017664Y-17957609D02*
X106922426Y-18005228D01*
X106922426Y-18005228D02*
X106684331Y-18005228D01*
X106684331Y-18005228D02*
X106589093Y-17957609D01*
X106589093Y-17957609D02*
X106541474Y-17909990D01*
X106541474Y-17909990D02*
X106493854Y-17814752D01*
X106493854Y-17814752D02*
X106493854Y-17576657D01*
X106493854Y-17576657D02*
X106541474Y-17481419D01*
X106541474Y-17481419D02*
X106589093Y-17433800D01*
X106493854Y-19592847D02*
X106493854Y-19021419D01*
X106493854Y-19307133D02*
X107493854Y-19307133D01*
X107493854Y-19307133D02*
X107350997Y-19211895D01*
X107350997Y-19211895D02*
X107255759Y-19116657D01*
X107255759Y-19116657D02*
X107208140Y-19021419D01*
X107493854Y-19926181D02*
X107493854Y-20545228D01*
X107493854Y-20545228D02*
X107112902Y-20211895D01*
X107112902Y-20211895D02*
X107112902Y-20354752D01*
X107112902Y-20354752D02*
X107065283Y-20449990D01*
X107065283Y-20449990D02*
X107017664Y-20497609D01*
X107017664Y-20497609D02*
X106922426Y-20545228D01*
X106922426Y-20545228D02*
X106684331Y-20545228D01*
X106684331Y-20545228D02*
X106589093Y-20497609D01*
X106589093Y-20497609D02*
X106541474Y-20449990D01*
X106541474Y-20449990D02*
X106493854Y-20354752D01*
X106493854Y-20354752D02*
X106493854Y-20069038D01*
X106493854Y-20069038D02*
X106541474Y-19973800D01*
X106541474Y-19973800D02*
X106589093Y-19926181D01*
X104953854Y-16433800D02*
X104953854Y-17052847D01*
X104953854Y-17052847D02*
X104572902Y-16719514D01*
X104572902Y-16719514D02*
X104572902Y-16862371D01*
X104572902Y-16862371D02*
X104525283Y-16957609D01*
X104525283Y-16957609D02*
X104477664Y-17005228D01*
X104477664Y-17005228D02*
X104382426Y-17052847D01*
X104382426Y-17052847D02*
X104144331Y-17052847D01*
X104144331Y-17052847D02*
X104049093Y-17005228D01*
X104049093Y-17005228D02*
X104001474Y-16957609D01*
X104001474Y-16957609D02*
X103953854Y-16862371D01*
X103953854Y-16862371D02*
X103953854Y-16576657D01*
X103953854Y-16576657D02*
X104001474Y-16481419D01*
X104001474Y-16481419D02*
X104049093Y-16433800D01*
X104953854Y-17909990D02*
X104953854Y-17719514D01*
X104953854Y-17719514D02*
X104906235Y-17624276D01*
X104906235Y-17624276D02*
X104858616Y-17576657D01*
X104858616Y-17576657D02*
X104715759Y-17481419D01*
X104715759Y-17481419D02*
X104525283Y-17433800D01*
X104525283Y-17433800D02*
X104144331Y-17433800D01*
X104144331Y-17433800D02*
X104049093Y-17481419D01*
X104049093Y-17481419D02*
X104001474Y-17529038D01*
X104001474Y-17529038D02*
X103953854Y-17624276D01*
X103953854Y-17624276D02*
X103953854Y-17814752D01*
X103953854Y-17814752D02*
X104001474Y-17909990D01*
X104001474Y-17909990D02*
X104049093Y-17957609D01*
X104049093Y-17957609D02*
X104144331Y-18005228D01*
X104144331Y-18005228D02*
X104382426Y-18005228D01*
X104382426Y-18005228D02*
X104477664Y-17957609D01*
X104477664Y-17957609D02*
X104525283Y-17909990D01*
X104525283Y-17909990D02*
X104572902Y-17814752D01*
X104572902Y-17814752D02*
X104572902Y-17624276D01*
X104572902Y-17624276D02*
X104525283Y-17529038D01*
X104525283Y-17529038D02*
X104477664Y-17481419D01*
X104477664Y-17481419D02*
X104382426Y-17433800D01*
X103953854Y-19592847D02*
X103953854Y-19021419D01*
X103953854Y-19307133D02*
X104953854Y-19307133D01*
X104953854Y-19307133D02*
X104810997Y-19211895D01*
X104810997Y-19211895D02*
X104715759Y-19116657D01*
X104715759Y-19116657D02*
X104668140Y-19021419D01*
X104858616Y-19973800D02*
X104906235Y-20021419D01*
X104906235Y-20021419D02*
X104953854Y-20116657D01*
X104953854Y-20116657D02*
X104953854Y-20354752D01*
X104953854Y-20354752D02*
X104906235Y-20449990D01*
X104906235Y-20449990D02*
X104858616Y-20497609D01*
X104858616Y-20497609D02*
X104763378Y-20545228D01*
X104763378Y-20545228D02*
X104668140Y-20545228D01*
X104668140Y-20545228D02*
X104525283Y-20497609D01*
X104525283Y-20497609D02*
X103953854Y-19926181D01*
X103953854Y-19926181D02*
X103953854Y-20545228D01*
X102413854Y-16433800D02*
X102413854Y-17052847D01*
X102413854Y-17052847D02*
X102032902Y-16719514D01*
X102032902Y-16719514D02*
X102032902Y-16862371D01*
X102032902Y-16862371D02*
X101985283Y-16957609D01*
X101985283Y-16957609D02*
X101937664Y-17005228D01*
X101937664Y-17005228D02*
X101842426Y-17052847D01*
X101842426Y-17052847D02*
X101604331Y-17052847D01*
X101604331Y-17052847D02*
X101509093Y-17005228D01*
X101509093Y-17005228D02*
X101461474Y-16957609D01*
X101461474Y-16957609D02*
X101413854Y-16862371D01*
X101413854Y-16862371D02*
X101413854Y-16576657D01*
X101413854Y-16576657D02*
X101461474Y-16481419D01*
X101461474Y-16481419D02*
X101509093Y-16433800D01*
X102413854Y-17386181D02*
X102413854Y-18052847D01*
X102413854Y-18052847D02*
X101413854Y-17624276D01*
X101413854Y-19592847D02*
X101413854Y-19021419D01*
X101413854Y-19307133D02*
X102413854Y-19307133D01*
X102413854Y-19307133D02*
X102270997Y-19211895D01*
X102270997Y-19211895D02*
X102175759Y-19116657D01*
X102175759Y-19116657D02*
X102128140Y-19021419D01*
X101413854Y-20545228D02*
X101413854Y-19973800D01*
X101413854Y-20259514D02*
X102413854Y-20259514D01*
X102413854Y-20259514D02*
X102270997Y-20164276D01*
X102270997Y-20164276D02*
X102175759Y-20069038D01*
X102175759Y-20069038D02*
X102128140Y-19973800D01*
X99873854Y-16433800D02*
X99873854Y-17052847D01*
X99873854Y-17052847D02*
X99492902Y-16719514D01*
X99492902Y-16719514D02*
X99492902Y-16862371D01*
X99492902Y-16862371D02*
X99445283Y-16957609D01*
X99445283Y-16957609D02*
X99397664Y-17005228D01*
X99397664Y-17005228D02*
X99302426Y-17052847D01*
X99302426Y-17052847D02*
X99064331Y-17052847D01*
X99064331Y-17052847D02*
X98969093Y-17005228D01*
X98969093Y-17005228D02*
X98921474Y-16957609D01*
X98921474Y-16957609D02*
X98873854Y-16862371D01*
X98873854Y-16862371D02*
X98873854Y-16576657D01*
X98873854Y-16576657D02*
X98921474Y-16481419D01*
X98921474Y-16481419D02*
X98969093Y-16433800D01*
X99445283Y-17624276D02*
X99492902Y-17529038D01*
X99492902Y-17529038D02*
X99540521Y-17481419D01*
X99540521Y-17481419D02*
X99635759Y-17433800D01*
X99635759Y-17433800D02*
X99683378Y-17433800D01*
X99683378Y-17433800D02*
X99778616Y-17481419D01*
X99778616Y-17481419D02*
X99826235Y-17529038D01*
X99826235Y-17529038D02*
X99873854Y-17624276D01*
X99873854Y-17624276D02*
X99873854Y-17814752D01*
X99873854Y-17814752D02*
X99826235Y-17909990D01*
X99826235Y-17909990D02*
X99778616Y-17957609D01*
X99778616Y-17957609D02*
X99683378Y-18005228D01*
X99683378Y-18005228D02*
X99635759Y-18005228D01*
X99635759Y-18005228D02*
X99540521Y-17957609D01*
X99540521Y-17957609D02*
X99492902Y-17909990D01*
X99492902Y-17909990D02*
X99445283Y-17814752D01*
X99445283Y-17814752D02*
X99445283Y-17624276D01*
X99445283Y-17624276D02*
X99397664Y-17529038D01*
X99397664Y-17529038D02*
X99350045Y-17481419D01*
X99350045Y-17481419D02*
X99254807Y-17433800D01*
X99254807Y-17433800D02*
X99064331Y-17433800D01*
X99064331Y-17433800D02*
X98969093Y-17481419D01*
X98969093Y-17481419D02*
X98921474Y-17529038D01*
X98921474Y-17529038D02*
X98873854Y-17624276D01*
X98873854Y-17624276D02*
X98873854Y-17814752D01*
X98873854Y-17814752D02*
X98921474Y-17909990D01*
X98921474Y-17909990D02*
X98969093Y-17957609D01*
X98969093Y-17957609D02*
X99064331Y-18005228D01*
X99064331Y-18005228D02*
X99254807Y-18005228D01*
X99254807Y-18005228D02*
X99350045Y-17957609D01*
X99350045Y-17957609D02*
X99397664Y-17909990D01*
X99397664Y-17909990D02*
X99445283Y-17814752D01*
X98873854Y-19592847D02*
X98873854Y-19021419D01*
X98873854Y-19307133D02*
X99873854Y-19307133D01*
X99873854Y-19307133D02*
X99730997Y-19211895D01*
X99730997Y-19211895D02*
X99635759Y-19116657D01*
X99635759Y-19116657D02*
X99588140Y-19021419D01*
X99873854Y-20211895D02*
X99873854Y-20307133D01*
X99873854Y-20307133D02*
X99826235Y-20402371D01*
X99826235Y-20402371D02*
X99778616Y-20449990D01*
X99778616Y-20449990D02*
X99683378Y-20497609D01*
X99683378Y-20497609D02*
X99492902Y-20545228D01*
X99492902Y-20545228D02*
X99254807Y-20545228D01*
X99254807Y-20545228D02*
X99064331Y-20497609D01*
X99064331Y-20497609D02*
X98969093Y-20449990D01*
X98969093Y-20449990D02*
X98921474Y-20402371D01*
X98921474Y-20402371D02*
X98873854Y-20307133D01*
X98873854Y-20307133D02*
X98873854Y-20211895D01*
X98873854Y-20211895D02*
X98921474Y-20116657D01*
X98921474Y-20116657D02*
X98969093Y-20069038D01*
X98969093Y-20069038D02*
X99064331Y-20021419D01*
X99064331Y-20021419D02*
X99254807Y-19973800D01*
X99254807Y-19973800D02*
X99492902Y-19973800D01*
X99492902Y-19973800D02*
X99683378Y-20021419D01*
X99683378Y-20021419D02*
X99778616Y-20069038D01*
X99778616Y-20069038D02*
X99826235Y-20116657D01*
X99826235Y-20116657D02*
X99873854Y-20211895D01*
X97333854Y-16433800D02*
X97333854Y-17052847D01*
X97333854Y-17052847D02*
X96952902Y-16719514D01*
X96952902Y-16719514D02*
X96952902Y-16862371D01*
X96952902Y-16862371D02*
X96905283Y-16957609D01*
X96905283Y-16957609D02*
X96857664Y-17005228D01*
X96857664Y-17005228D02*
X96762426Y-17052847D01*
X96762426Y-17052847D02*
X96524331Y-17052847D01*
X96524331Y-17052847D02*
X96429093Y-17005228D01*
X96429093Y-17005228D02*
X96381474Y-16957609D01*
X96381474Y-16957609D02*
X96333854Y-16862371D01*
X96333854Y-16862371D02*
X96333854Y-16576657D01*
X96333854Y-16576657D02*
X96381474Y-16481419D01*
X96381474Y-16481419D02*
X96429093Y-16433800D01*
X96333854Y-17529038D02*
X96333854Y-17719514D01*
X96333854Y-17719514D02*
X96381474Y-17814752D01*
X96381474Y-17814752D02*
X96429093Y-17862371D01*
X96429093Y-17862371D02*
X96571950Y-17957609D01*
X96571950Y-17957609D02*
X96762426Y-18005228D01*
X96762426Y-18005228D02*
X97143378Y-18005228D01*
X97143378Y-18005228D02*
X97238616Y-17957609D01*
X97238616Y-17957609D02*
X97286235Y-17909990D01*
X97286235Y-17909990D02*
X97333854Y-17814752D01*
X97333854Y-17814752D02*
X97333854Y-17624276D01*
X97333854Y-17624276D02*
X97286235Y-17529038D01*
X97286235Y-17529038D02*
X97238616Y-17481419D01*
X97238616Y-17481419D02*
X97143378Y-17433800D01*
X97143378Y-17433800D02*
X96905283Y-17433800D01*
X96905283Y-17433800D02*
X96810045Y-17481419D01*
X96810045Y-17481419D02*
X96762426Y-17529038D01*
X96762426Y-17529038D02*
X96714807Y-17624276D01*
X96714807Y-17624276D02*
X96714807Y-17814752D01*
X96714807Y-17814752D02*
X96762426Y-17909990D01*
X96762426Y-17909990D02*
X96810045Y-17957609D01*
X96810045Y-17957609D02*
X96905283Y-18005228D01*
X96333854Y-19592848D02*
X96333854Y-19783324D01*
X96333854Y-19783324D02*
X96381474Y-19878562D01*
X96381474Y-19878562D02*
X96429093Y-19926181D01*
X96429093Y-19926181D02*
X96571950Y-20021419D01*
X96571950Y-20021419D02*
X96762426Y-20069038D01*
X96762426Y-20069038D02*
X97143378Y-20069038D01*
X97143378Y-20069038D02*
X97238616Y-20021419D01*
X97238616Y-20021419D02*
X97286235Y-19973800D01*
X97286235Y-19973800D02*
X97333854Y-19878562D01*
X97333854Y-19878562D02*
X97333854Y-19688086D01*
X97333854Y-19688086D02*
X97286235Y-19592848D01*
X97286235Y-19592848D02*
X97238616Y-19545229D01*
X97238616Y-19545229D02*
X97143378Y-19497610D01*
X97143378Y-19497610D02*
X96905283Y-19497610D01*
X96905283Y-19497610D02*
X96810045Y-19545229D01*
X96810045Y-19545229D02*
X96762426Y-19592848D01*
X96762426Y-19592848D02*
X96714807Y-19688086D01*
X96714807Y-19688086D02*
X96714807Y-19878562D01*
X96714807Y-19878562D02*
X96762426Y-19973800D01*
X96762426Y-19973800D02*
X96810045Y-20021419D01*
X96810045Y-20021419D02*
X96905283Y-20069038D01*
X94460521Y-16957609D02*
X93793854Y-16957609D01*
X94841474Y-16719514D02*
X94127188Y-16481419D01*
X94127188Y-16481419D02*
X94127188Y-17100466D01*
X94793854Y-17671895D02*
X94793854Y-17767133D01*
X94793854Y-17767133D02*
X94746235Y-17862371D01*
X94746235Y-17862371D02*
X94698616Y-17909990D01*
X94698616Y-17909990D02*
X94603378Y-17957609D01*
X94603378Y-17957609D02*
X94412902Y-18005228D01*
X94412902Y-18005228D02*
X94174807Y-18005228D01*
X94174807Y-18005228D02*
X93984331Y-17957609D01*
X93984331Y-17957609D02*
X93889093Y-17909990D01*
X93889093Y-17909990D02*
X93841474Y-17862371D01*
X93841474Y-17862371D02*
X93793854Y-17767133D01*
X93793854Y-17767133D02*
X93793854Y-17671895D01*
X93793854Y-17671895D02*
X93841474Y-17576657D01*
X93841474Y-17576657D02*
X93889093Y-17529038D01*
X93889093Y-17529038D02*
X93984331Y-17481419D01*
X93984331Y-17481419D02*
X94174807Y-17433800D01*
X94174807Y-17433800D02*
X94412902Y-17433800D01*
X94412902Y-17433800D02*
X94603378Y-17481419D01*
X94603378Y-17481419D02*
X94698616Y-17529038D01*
X94698616Y-17529038D02*
X94746235Y-17576657D01*
X94746235Y-17576657D02*
X94793854Y-17671895D01*
X94460521Y-19497609D02*
X93793854Y-19497609D01*
X94841474Y-19259514D02*
X94127188Y-19021419D01*
X94127188Y-19021419D02*
X94127188Y-19640466D01*
X94793854Y-20449990D02*
X94793854Y-20259514D01*
X94793854Y-20259514D02*
X94746235Y-20164276D01*
X94746235Y-20164276D02*
X94698616Y-20116657D01*
X94698616Y-20116657D02*
X94555759Y-20021419D01*
X94555759Y-20021419D02*
X94365283Y-19973800D01*
X94365283Y-19973800D02*
X93984331Y-19973800D01*
X93984331Y-19973800D02*
X93889093Y-20021419D01*
X93889093Y-20021419D02*
X93841474Y-20069038D01*
X93841474Y-20069038D02*
X93793854Y-20164276D01*
X93793854Y-20164276D02*
X93793854Y-20354752D01*
X93793854Y-20354752D02*
X93841474Y-20449990D01*
X93841474Y-20449990D02*
X93889093Y-20497609D01*
X93889093Y-20497609D02*
X93984331Y-20545228D01*
X93984331Y-20545228D02*
X94222426Y-20545228D01*
X94222426Y-20545228D02*
X94317664Y-20497609D01*
X94317664Y-20497609D02*
X94365283Y-20449990D01*
X94365283Y-20449990D02*
X94412902Y-20354752D01*
X94412902Y-20354752D02*
X94412902Y-20164276D01*
X94412902Y-20164276D02*
X94365283Y-20069038D01*
X94365283Y-20069038D02*
X94317664Y-20021419D01*
X94317664Y-20021419D02*
X94222426Y-19973800D01*
X91920521Y-16957609D02*
X91253854Y-16957609D01*
X92301474Y-16719514D02*
X91587188Y-16481419D01*
X91587188Y-16481419D02*
X91587188Y-17100466D01*
X91253854Y-18005228D02*
X91253854Y-17433800D01*
X91253854Y-17719514D02*
X92253854Y-17719514D01*
X92253854Y-17719514D02*
X92110997Y-17624276D01*
X92110997Y-17624276D02*
X92015759Y-17529038D01*
X92015759Y-17529038D02*
X91968140Y-17433800D01*
X92253854Y-19449991D02*
X92253854Y-20069038D01*
X92253854Y-20069038D02*
X91872902Y-19735705D01*
X91872902Y-19735705D02*
X91872902Y-19878562D01*
X91872902Y-19878562D02*
X91825283Y-19973800D01*
X91825283Y-19973800D02*
X91777664Y-20021419D01*
X91777664Y-20021419D02*
X91682426Y-20069038D01*
X91682426Y-20069038D02*
X91444331Y-20069038D01*
X91444331Y-20069038D02*
X91349093Y-20021419D01*
X91349093Y-20021419D02*
X91301474Y-19973800D01*
X91301474Y-19973800D02*
X91253854Y-19878562D01*
X91253854Y-19878562D02*
X91253854Y-19592848D01*
X91253854Y-19592848D02*
X91301474Y-19497610D01*
X91301474Y-19497610D02*
X91349093Y-19449991D01*
X89380521Y-16957609D02*
X88713854Y-16957609D01*
X89761474Y-16719514D02*
X89047188Y-16481419D01*
X89047188Y-16481419D02*
X89047188Y-17100466D01*
X89618616Y-17433800D02*
X89666235Y-17481419D01*
X89666235Y-17481419D02*
X89713854Y-17576657D01*
X89713854Y-17576657D02*
X89713854Y-17814752D01*
X89713854Y-17814752D02*
X89666235Y-17909990D01*
X89666235Y-17909990D02*
X89618616Y-17957609D01*
X89618616Y-17957609D02*
X89523378Y-18005228D01*
X89523378Y-18005228D02*
X89428140Y-18005228D01*
X89428140Y-18005228D02*
X89285283Y-17957609D01*
X89285283Y-17957609D02*
X88713854Y-17386181D01*
X88713854Y-17386181D02*
X88713854Y-18005228D01*
X89285283Y-19688086D02*
X89332902Y-19592848D01*
X89332902Y-19592848D02*
X89380521Y-19545229D01*
X89380521Y-19545229D02*
X89475759Y-19497610D01*
X89475759Y-19497610D02*
X89523378Y-19497610D01*
X89523378Y-19497610D02*
X89618616Y-19545229D01*
X89618616Y-19545229D02*
X89666235Y-19592848D01*
X89666235Y-19592848D02*
X89713854Y-19688086D01*
X89713854Y-19688086D02*
X89713854Y-19878562D01*
X89713854Y-19878562D02*
X89666235Y-19973800D01*
X89666235Y-19973800D02*
X89618616Y-20021419D01*
X89618616Y-20021419D02*
X89523378Y-20069038D01*
X89523378Y-20069038D02*
X89475759Y-20069038D01*
X89475759Y-20069038D02*
X89380521Y-20021419D01*
X89380521Y-20021419D02*
X89332902Y-19973800D01*
X89332902Y-19973800D02*
X89285283Y-19878562D01*
X89285283Y-19878562D02*
X89285283Y-19688086D01*
X89285283Y-19688086D02*
X89237664Y-19592848D01*
X89237664Y-19592848D02*
X89190045Y-19545229D01*
X89190045Y-19545229D02*
X89094807Y-19497610D01*
X89094807Y-19497610D02*
X88904331Y-19497610D01*
X88904331Y-19497610D02*
X88809093Y-19545229D01*
X88809093Y-19545229D02*
X88761474Y-19592848D01*
X88761474Y-19592848D02*
X88713854Y-19688086D01*
X88713854Y-19688086D02*
X88713854Y-19878562D01*
X88713854Y-19878562D02*
X88761474Y-19973800D01*
X88761474Y-19973800D02*
X88809093Y-20021419D01*
X88809093Y-20021419D02*
X88904331Y-20069038D01*
X88904331Y-20069038D02*
X89094807Y-20069038D01*
X89094807Y-20069038D02*
X89190045Y-20021419D01*
X89190045Y-20021419D02*
X89237664Y-19973800D01*
X89237664Y-19973800D02*
X89285283Y-19878562D01*
X87078616Y-16957610D02*
X87126235Y-17005229D01*
X87126235Y-17005229D02*
X87173854Y-17100467D01*
X87173854Y-17100467D02*
X87173854Y-17338562D01*
X87173854Y-17338562D02*
X87126235Y-17433800D01*
X87126235Y-17433800D02*
X87078616Y-17481419D01*
X87078616Y-17481419D02*
X86983378Y-17529038D01*
X86983378Y-17529038D02*
X86888140Y-17529038D01*
X86888140Y-17529038D02*
X86745283Y-17481419D01*
X86745283Y-17481419D02*
X86173854Y-16909991D01*
X86173854Y-16909991D02*
X86173854Y-17529038D01*
X86173854Y-19592847D02*
X86173854Y-19021419D01*
X86173854Y-19307133D02*
X87173854Y-19307133D01*
X87173854Y-19307133D02*
X87030997Y-19211895D01*
X87030997Y-19211895D02*
X86935759Y-19116657D01*
X86935759Y-19116657D02*
X86888140Y-19021419D01*
X86745283Y-20164276D02*
X86792902Y-20069038D01*
X86792902Y-20069038D02*
X86840521Y-20021419D01*
X86840521Y-20021419D02*
X86935759Y-19973800D01*
X86935759Y-19973800D02*
X86983378Y-19973800D01*
X86983378Y-19973800D02*
X87078616Y-20021419D01*
X87078616Y-20021419D02*
X87126235Y-20069038D01*
X87126235Y-20069038D02*
X87173854Y-20164276D01*
X87173854Y-20164276D02*
X87173854Y-20354752D01*
X87173854Y-20354752D02*
X87126235Y-20449990D01*
X87126235Y-20449990D02*
X87078616Y-20497609D01*
X87078616Y-20497609D02*
X86983378Y-20545228D01*
X86983378Y-20545228D02*
X86935759Y-20545228D01*
X86935759Y-20545228D02*
X86840521Y-20497609D01*
X86840521Y-20497609D02*
X86792902Y-20449990D01*
X86792902Y-20449990D02*
X86745283Y-20354752D01*
X86745283Y-20354752D02*
X86745283Y-20164276D01*
X86745283Y-20164276D02*
X86697664Y-20069038D01*
X86697664Y-20069038D02*
X86650045Y-20021419D01*
X86650045Y-20021419D02*
X86554807Y-19973800D01*
X86554807Y-19973800D02*
X86364331Y-19973800D01*
X86364331Y-19973800D02*
X86269093Y-20021419D01*
X86269093Y-20021419D02*
X86221474Y-20069038D01*
X86221474Y-20069038D02*
X86173854Y-20164276D01*
X86173854Y-20164276D02*
X86173854Y-20354752D01*
X86173854Y-20354752D02*
X86221474Y-20449990D01*
X86221474Y-20449990D02*
X86269093Y-20497609D01*
X86269093Y-20497609D02*
X86364331Y-20545228D01*
X86364331Y-20545228D02*
X86554807Y-20545228D01*
X86554807Y-20545228D02*
X86650045Y-20497609D01*
X86650045Y-20497609D02*
X86697664Y-20449990D01*
X86697664Y-20449990D02*
X86745283Y-20354752D01*
X83633854Y-17529038D02*
X83633854Y-16957610D01*
X83633854Y-17243324D02*
X84633854Y-17243324D01*
X84633854Y-17243324D02*
X84490997Y-17148086D01*
X84490997Y-17148086D02*
X84395759Y-17052848D01*
X84395759Y-17052848D02*
X84348140Y-16957610D01*
X83633854Y-19592847D02*
X83633854Y-19021419D01*
X83633854Y-19307133D02*
X84633854Y-19307133D01*
X84633854Y-19307133D02*
X84490997Y-19211895D01*
X84490997Y-19211895D02*
X84395759Y-19116657D01*
X84395759Y-19116657D02*
X84348140Y-19021419D01*
X84633854Y-19926181D02*
X84633854Y-20592847D01*
X84633854Y-20592847D02*
X83633854Y-20164276D01*
X81093854Y-17076657D02*
X81570045Y-16743324D01*
X81093854Y-16505229D02*
X82093854Y-16505229D01*
X82093854Y-16505229D02*
X82093854Y-16886181D01*
X82093854Y-16886181D02*
X82046235Y-16981419D01*
X82046235Y-16981419D02*
X81998616Y-17029038D01*
X81998616Y-17029038D02*
X81903378Y-17076657D01*
X81903378Y-17076657D02*
X81760521Y-17076657D01*
X81760521Y-17076657D02*
X81665283Y-17029038D01*
X81665283Y-17029038D02*
X81617664Y-16981419D01*
X81617664Y-16981419D02*
X81570045Y-16886181D01*
X81570045Y-16886181D02*
X81570045Y-16505229D01*
X82093854Y-17409991D02*
X81093854Y-18076657D01*
X82093854Y-18076657D02*
X81093854Y-17409991D01*
X81093854Y-19592847D02*
X81093854Y-19021419D01*
X81093854Y-19307133D02*
X82093854Y-19307133D01*
X82093854Y-19307133D02*
X81950997Y-19211895D01*
X81950997Y-19211895D02*
X81855759Y-19116657D01*
X81855759Y-19116657D02*
X81808140Y-19021419D01*
X82093854Y-20449990D02*
X82093854Y-20259514D01*
X82093854Y-20259514D02*
X82046235Y-20164276D01*
X82046235Y-20164276D02*
X81998616Y-20116657D01*
X81998616Y-20116657D02*
X81855759Y-20021419D01*
X81855759Y-20021419D02*
X81665283Y-19973800D01*
X81665283Y-19973800D02*
X81284331Y-19973800D01*
X81284331Y-19973800D02*
X81189093Y-20021419D01*
X81189093Y-20021419D02*
X81141474Y-20069038D01*
X81141474Y-20069038D02*
X81093854Y-20164276D01*
X81093854Y-20164276D02*
X81093854Y-20354752D01*
X81093854Y-20354752D02*
X81141474Y-20449990D01*
X81141474Y-20449990D02*
X81189093Y-20497609D01*
X81189093Y-20497609D02*
X81284331Y-20545228D01*
X81284331Y-20545228D02*
X81522426Y-20545228D01*
X81522426Y-20545228D02*
X81617664Y-20497609D01*
X81617664Y-20497609D02*
X81665283Y-20449990D01*
X81665283Y-20449990D02*
X81712902Y-20354752D01*
X81712902Y-20354752D02*
X81712902Y-20164276D01*
X81712902Y-20164276D02*
X81665283Y-20069038D01*
X81665283Y-20069038D02*
X81617664Y-20021419D01*
X81617664Y-20021419D02*
X81522426Y-19973800D01*
X79553854Y-16481419D02*
X79553854Y-17052847D01*
X78553854Y-16767133D02*
X79553854Y-16767133D01*
X79553854Y-17290943D02*
X78553854Y-17957609D01*
X79553854Y-17957609D02*
X78553854Y-17290943D01*
X78553854Y-19592847D02*
X78553854Y-19021419D01*
X78553854Y-19307133D02*
X79553854Y-19307133D01*
X79553854Y-19307133D02*
X79410997Y-19211895D01*
X79410997Y-19211895D02*
X79315759Y-19116657D01*
X79315759Y-19116657D02*
X79268140Y-19021419D01*
X79553854Y-20497609D02*
X79553854Y-20021419D01*
X79553854Y-20021419D02*
X79077664Y-19973800D01*
X79077664Y-19973800D02*
X79125283Y-20021419D01*
X79125283Y-20021419D02*
X79172902Y-20116657D01*
X79172902Y-20116657D02*
X79172902Y-20354752D01*
X79172902Y-20354752D02*
X79125283Y-20449990D01*
X79125283Y-20449990D02*
X79077664Y-20497609D01*
X79077664Y-20497609D02*
X78982426Y-20545228D01*
X78982426Y-20545228D02*
X78744331Y-20545228D01*
X78744331Y-20545228D02*
X78649093Y-20497609D01*
X78649093Y-20497609D02*
X78601474Y-20449990D01*
X78601474Y-20449990D02*
X78553854Y-20354752D01*
X78553854Y-20354752D02*
X78553854Y-20116657D01*
X78553854Y-20116657D02*
X78601474Y-20021419D01*
X78601474Y-20021419D02*
X78649093Y-19973800D01*
D19*
X76832561Y-16449673D02*
X76832561Y-16862371D01*
X76832561Y-16862371D02*
X76578593Y-16640149D01*
X76578593Y-16640149D02*
X76578593Y-16735387D01*
X76578593Y-16735387D02*
X76546847Y-16798879D01*
X76546847Y-16798879D02*
X76515101Y-16830625D01*
X76515101Y-16830625D02*
X76451609Y-16862371D01*
X76451609Y-16862371D02*
X76292879Y-16862371D01*
X76292879Y-16862371D02*
X76229387Y-16830625D01*
X76229387Y-16830625D02*
X76197641Y-16798879D01*
X76197641Y-16798879D02*
X76165894Y-16735387D01*
X76165894Y-16735387D02*
X76165894Y-16544911D01*
X76165894Y-16544911D02*
X76197641Y-16481419D01*
X76197641Y-16481419D02*
X76229387Y-16449673D01*
X76610339Y-17084594D02*
X76165894Y-17243324D01*
X76165894Y-17243324D02*
X76610339Y-17402054D01*
X76832561Y-17592531D02*
X76832561Y-18005229D01*
X76832561Y-18005229D02*
X76578593Y-17783007D01*
X76578593Y-17783007D02*
X76578593Y-17878245D01*
X76578593Y-17878245D02*
X76546847Y-17941737D01*
X76546847Y-17941737D02*
X76515101Y-17973483D01*
X76515101Y-17973483D02*
X76451609Y-18005229D01*
X76451609Y-18005229D02*
X76292879Y-18005229D01*
X76292879Y-18005229D02*
X76229387Y-17973483D01*
X76229387Y-17973483D02*
X76197641Y-17941737D01*
X76197641Y-17941737D02*
X76165894Y-17878245D01*
X76165894Y-17878245D02*
X76165894Y-17687769D01*
X76165894Y-17687769D02*
X76197641Y-17624277D01*
X76197641Y-17624277D02*
X76229387Y-17592531D01*
X76165894Y-19418244D02*
X76483355Y-19196022D01*
X76165894Y-19037292D02*
X76832561Y-19037292D01*
X76832561Y-19037292D02*
X76832561Y-19291260D01*
X76832561Y-19291260D02*
X76800815Y-19354752D01*
X76800815Y-19354752D02*
X76769069Y-19386498D01*
X76769069Y-19386498D02*
X76705577Y-19418244D01*
X76705577Y-19418244D02*
X76610339Y-19418244D01*
X76610339Y-19418244D02*
X76546847Y-19386498D01*
X76546847Y-19386498D02*
X76515101Y-19354752D01*
X76515101Y-19354752D02*
X76483355Y-19291260D01*
X76483355Y-19291260D02*
X76483355Y-19037292D01*
X76197641Y-19672213D02*
X76165894Y-19767451D01*
X76165894Y-19767451D02*
X76165894Y-19926181D01*
X76165894Y-19926181D02*
X76197641Y-19989673D01*
X76197641Y-19989673D02*
X76229387Y-20021419D01*
X76229387Y-20021419D02*
X76292879Y-20053165D01*
X76292879Y-20053165D02*
X76356371Y-20053165D01*
X76356371Y-20053165D02*
X76419863Y-20021419D01*
X76419863Y-20021419D02*
X76451609Y-19989673D01*
X76451609Y-19989673D02*
X76483355Y-19926181D01*
X76483355Y-19926181D02*
X76515101Y-19799197D01*
X76515101Y-19799197D02*
X76546847Y-19735705D01*
X76546847Y-19735705D02*
X76578593Y-19703959D01*
X76578593Y-19703959D02*
X76642085Y-19672213D01*
X76642085Y-19672213D02*
X76705577Y-19672213D01*
X76705577Y-19672213D02*
X76769069Y-19703959D01*
X76769069Y-19703959D02*
X76800815Y-19735705D01*
X76800815Y-19735705D02*
X76832561Y-19799197D01*
X76832561Y-19799197D02*
X76832561Y-19957927D01*
X76832561Y-19957927D02*
X76800815Y-20053165D01*
X76832561Y-20243642D02*
X76832561Y-20624594D01*
X76165894Y-20434118D02*
X76832561Y-20434118D01*
D20*
X118379974Y-18513324D02*
X115839974Y-18513324D01*
X115839974Y-18513324D02*
X113299974Y-18513324D01*
X113299974Y-18513324D02*
X110759974Y-18513324D01*
X110759974Y-18513324D02*
X108219974Y-18513324D01*
X108219974Y-18513324D02*
X105679974Y-18513324D01*
X105679974Y-18513324D02*
X103139974Y-18513324D01*
X103139974Y-18513324D02*
X100599974Y-18513324D01*
X100599974Y-18513324D02*
X98059974Y-18513324D01*
X98059974Y-18513324D02*
X95519974Y-18513324D01*
X95519974Y-18513324D02*
X92979974Y-18513324D01*
X92979974Y-18513324D02*
X90439974Y-18513324D01*
X90439974Y-18513324D02*
X87899974Y-18513324D01*
X87899974Y-18513324D02*
X85359974Y-18513324D01*
X85359974Y-18513324D02*
X82819974Y-18513324D01*
X82819974Y-18513324D02*
X80279974Y-18513324D01*
X80279974Y-18513324D02*
X77739974Y-18513324D01*
X77739974Y-18513324D02*
X75199974Y-18513324D01*
X115839974Y-18513324D02*
X115839974Y-15973324D01*
X115839974Y-21053324D02*
X115839974Y-18513324D01*
X113299974Y-18513324D02*
X113299974Y-15973324D01*
X113299974Y-21053324D02*
X113299974Y-18513324D01*
X110759974Y-18513324D02*
X110759974Y-15973324D01*
X110759974Y-21053324D02*
X110759974Y-18513324D01*
X108219974Y-18513324D02*
X108219974Y-15973324D01*
X108219974Y-21053324D02*
X108219974Y-18513324D01*
X105679974Y-18513324D02*
X105679974Y-15973324D01*
X105679974Y-21053324D02*
X105679974Y-18513324D01*
X103139974Y-18513324D02*
X103139974Y-15973324D01*
X103139974Y-21053324D02*
X103139974Y-18513324D01*
X100599974Y-18513324D02*
X100599974Y-15973324D01*
X100599974Y-21053324D02*
X100599974Y-18513324D01*
X98059974Y-18513324D02*
X98059974Y-15973324D01*
X98059974Y-21053324D02*
X98059974Y-18513324D01*
X95519974Y-18513324D02*
X95519974Y-15973324D01*
X95519974Y-21053324D02*
X95519974Y-18513324D01*
X92979974Y-18513324D02*
X92979974Y-15973324D01*
X92979974Y-21053324D02*
X92979974Y-18513324D01*
X90439974Y-18513324D02*
X90439974Y-15973324D01*
X90439974Y-21053324D02*
X90439974Y-18513324D01*
X87899974Y-18513324D02*
X87899974Y-15973324D01*
X87899974Y-21053324D02*
X87899974Y-18513324D01*
X85359974Y-18513324D02*
X85359974Y-15973324D01*
X85359974Y-21053324D02*
X85359974Y-18513324D01*
X82819974Y-18513324D02*
X82819974Y-15973324D01*
X82819974Y-21053324D02*
X82819974Y-18513324D01*
X80279974Y-18513324D02*
X80279974Y-15973324D01*
X80279974Y-21053324D02*
X80279974Y-18513324D01*
X77739974Y-18513324D02*
X77739974Y-15973324D01*
X77739974Y-21053324D02*
X77739974Y-18513324D01*
X118379974Y-15973324D02*
X118379974Y-21053324D01*
X118379974Y-21053324D02*
X75199974Y-21053324D01*
X75199974Y-21053324D02*
X75199974Y-15973324D01*
X75199974Y-15973324D02*
X118379974Y-15973324D01*
%TO.C,C5*%
D15*
X86328887Y-80837598D02*
X86328887Y-83858642D01*
D13*
X86328887Y-83858642D02*
X87803134Y-85332888D01*
X89224560Y-86754314D02*
X90698806Y-88228561D01*
D15*
X92209328Y-74957157D02*
X86328887Y-80837598D01*
X93719850Y-88228561D02*
X90698806Y-88228561D01*
D13*
X95194096Y-77941926D02*
X92209328Y-74957157D01*
D15*
X99600291Y-82348120D02*
X93719850Y-88228561D01*
D13*
X99600291Y-82348120D02*
X96615522Y-79363352D01*
%TO.C,R1*%
D12*
X121942914Y-48507657D02*
X121725633Y-48724938D01*
X122480315Y-49045058D02*
X122263034Y-49262339D01*
%TO.C,C2*%
D15*
X110576498Y-80983050D02*
X111066098Y-80493449D01*
X110930051Y-81552129D02*
X110576498Y-81198576D01*
X111281554Y-80493520D02*
X111635107Y-80847073D01*
X111598196Y-82217304D02*
X111244643Y-81863751D01*
X111949699Y-81158695D02*
X112303252Y-81512248D01*
X112303323Y-81727704D02*
X111813652Y-82217375D01*
X110576498Y-81198576D02*
G75*
G02*
X110576498Y-80983050I107762J107763D01*
G01*
X111066098Y-80493449D02*
G75*
G02*
X111281624Y-80493449I107763J-107763D01*
G01*
X111813652Y-82217375D02*
G75*
G02*
X111598126Y-82217375I-107763J107763D01*
G01*
X112303252Y-81512248D02*
G75*
G02*
X112303252Y-81727774I-107763J-107763D01*
G01*
%TO.C,JPWR1*%
D16*
X123301584Y-22292016D02*
X123301584Y-15992016D01*
X128781584Y-15992016D02*
X123301584Y-15992016D01*
X128781584Y-16522316D02*
X123301584Y-16522316D01*
X128781584Y-17730316D02*
X123301584Y-17730316D01*
X128781584Y-20750016D02*
X123301584Y-20750016D01*
X128781584Y-22292016D02*
X123301584Y-22292016D01*
X128781584Y-22292016D02*
X128781584Y-15992016D01*
%TO.C,R2*%
D12*
X120311420Y-47310725D02*
X120528701Y-47093444D01*
X120848821Y-47848126D02*
X121066102Y-47630845D01*
%TO.C,C10*%
D15*
X91973488Y-73636938D02*
X91619935Y-73990491D01*
X91483958Y-72931882D02*
X91973559Y-73421482D01*
X91308313Y-74305083D02*
X90954760Y-74658636D01*
X90914879Y-73285435D02*
X91268432Y-72931882D01*
X90739304Y-74658707D02*
X90249633Y-74169036D01*
X90249704Y-73953580D02*
X90603257Y-73600027D01*
X91973559Y-73421482D02*
G75*
G02*
X91973559Y-73637008I-107763J-107763D01*
G01*
X91268432Y-72931882D02*
G75*
G02*
X91483958Y-72931882I107763J-107762D01*
G01*
X90954760Y-74658636D02*
G75*
G02*
X90739234Y-74658636I-107763J107763D01*
G01*
X90249633Y-74169036D02*
G75*
G02*
X90249633Y-73953510I107763J107763D01*
G01*
%TD*%
M02*
